  0
SECTION
  2
HEADER
  9
$ANGBASE
  50
0.0
  9
$ANGDIR
  70
1
  9
$MEASUREMENT
  70
1
  0
ENDSEC
  0
SECTION
  2
TABLES
  0
TABLE
  2
LTYPE
  70
4
  0
LTYPE
  5
40F
  2
CONTINUOUS
  70
0
  3
Solid line
  72
65
  73
0
  40
0.0
  0
LTYPE
  5
410
  2
DASHDOT
 70
0
  3
Dash Dot ____ _ ____ _
 72
65
 73
4
 40
2.0
 49
1.25
 49
-0.25
 49
0.25
 49
-0.25
  0
LTYPE
  5
411
  2
DASHED
 70
0
  3
Dashed __ __ __ __ __
 72
65
 73
2
 40
0.75
 49
0.5
 49
-0.25
  0
LTYPE
  5
43B
  2
DOTTED
 70
0
  3
Dotted .  .  .  .
 72
65
 73
2
 40
0.2
 49
0.0
 49
-0.2
  0
ENDTAB
  0
TABLE
  2
STYLE
  70
4
  0
STYLE
  2
KICAD
  70
0
  40
0
  41
1
  42
1
  50
0
  71
0
  3
isocp.shx
  0
STYLE
  2
KICADB
  70
0
  40
0
  41
1
  42
1
  50
0
  71
0
  3
isocp.shx
  0
STYLE
  2
KICADI
  70
0
  40
0
  41
1
  42
1
  50
15
  71
0
  3
isocp.shx
  0
STYLE
  2
KICADBI
  70
0
  40
0
  41
1
  42
1
  50
15
  71
0
  3
isocp.shx
  0
ENDTAB
  0
TABLE
  2
LAYER
  70
1
  0
LAYER
  2
BLACK
  70
0
  62
7
  6
CONTINUOUS
  0
ENDTAB
  0
ENDSEC
  0
SECTION
  2
ENTITIES
0
LINE
8
BLACK
6
CONTINUOUS
10
172.525
20
-111.252
11
172.543
21
-111.042
0
LINE
8
BLACK
6
CONTINUOUS
10
172.543
20
-111.042
11
172.598
21
-110.838
0
LINE
8
BLACK
6
CONTINUOUS
10
172.598
20
-110.838
11
172.687
21
-110.647
0
LINE
8
BLACK
6
CONTINUOUS
10
172.687
20
-110.647
11
172.808
21
-110.474
0
LINE
8
BLACK
6
CONTINUOUS
10
172.808
20
-110.474
11
172.958
21
-110.324
0
LINE
8
BLACK
6
CONTINUOUS
10
172.958
20
-110.324
11
173.131
21
-110.203
0
LINE
8
BLACK
6
CONTINUOUS
10
173.131
20
-110.203
11
173.322
21
-110.114
0
LINE
8
BLACK
6
CONTINUOUS
10
173.322
20
-110.114
11
173.526
21
-110.059
0
LINE
8
BLACK
6
CONTINUOUS
10
173.526
20
-110.059
11
173.736
21
-110.041
0
LINE
8
BLACK
6
CONTINUOUS
10
173.736
20
-110.041
11
173.946
21
-110.059
0
LINE
8
BLACK
6
CONTINUOUS
10
173.946
20
-110.059
11
174.15
21
-110.114
0
LINE
8
BLACK
6
CONTINUOUS
10
174.15
20
-110.114
11
174.341
21
-110.203
0
LINE
8
BLACK
6
CONTINUOUS
10
174.341
20
-110.203
11
174.514
21
-110.324
0
LINE
8
BLACK
6
CONTINUOUS
10
174.514
20
-110.324
11
174.664
21
-110.474
0
LINE
8
BLACK
6
CONTINUOUS
10
174.664
20
-110.474
11
174.785
21
-110.647
0
LINE
8
BLACK
6
CONTINUOUS
10
174.785
20
-110.647
11
174.874
21
-110.838
0
LINE
8
BLACK
6
CONTINUOUS
10
174.874
20
-110.838
11
174.929
21
-111.042
0
LINE
8
BLACK
6
CONTINUOUS
10
174.929
20
-111.042
11
174.947
21
-111.252
0
LINE
8
BLACK
6
CONTINUOUS
10
174.947
20
-111.252
11
174.929
21
-111.462
0
LINE
8
BLACK
6
CONTINUOUS
10
174.929
20
-111.462
11
174.874
21
-111.666
0
LINE
8
BLACK
6
CONTINUOUS
10
174.874
20
-111.666
11
174.785
21
-111.857
0
LINE
8
BLACK
6
CONTINUOUS
10
174.785
20
-111.857
11
174.664
21
-112.03
0
LINE
8
BLACK
6
CONTINUOUS
10
174.664
20
-112.03
11
174.514
21
-112.18
0
LINE
8
BLACK
6
CONTINUOUS
10
174.514
20
-112.18
11
174.341
21
-112.301
0
LINE
8
BLACK
6
CONTINUOUS
10
174.341
20
-112.301
11
174.15
21
-112.39
0
LINE
8
BLACK
6
CONTINUOUS
10
174.15
20
-112.39
11
173.946
21
-112.445
0
LINE
8
BLACK
6
CONTINUOUS
10
173.946
20
-112.445
11
173.736
21
-112.463
0
LINE
8
BLACK
6
CONTINUOUS
10
173.736
20
-112.463
11
173.526
21
-112.445
0
LINE
8
BLACK
6
CONTINUOUS
10
173.526
20
-112.445
11
173.322
21
-112.39
0
LINE
8
BLACK
6
CONTINUOUS
10
173.322
20
-112.39
11
173.131
21
-112.301
0
LINE
8
BLACK
6
CONTINUOUS
10
173.131
20
-112.301
11
172.958
21
-112.18
0
LINE
8
BLACK
6
CONTINUOUS
10
172.958
20
-112.18
11
172.808
21
-112.03
0
LINE
8
BLACK
6
CONTINUOUS
10
172.808
20
-112.03
11
172.687
21
-111.857
0
LINE
8
BLACK
6
CONTINUOUS
10
172.687
20
-111.857
11
172.598
21
-111.666
0
LINE
8
BLACK
6
CONTINUOUS
10
172.598
20
-111.666
11
172.543
21
-111.462
0
LINE
8
BLACK
6
CONTINUOUS
10
172.543
20
-111.462
11
172.525
21
-111.252
0
LINE
8
BLACK
6
CONTINUOUS
10
172.67
20
-111.252
11
172.69
21
-111.46
0
LINE
8
BLACK
6
CONTINUOUS
10
172.69
20
-111.46
11
172.751
21
-111.66
0
LINE
8
BLACK
6
CONTINUOUS
10
172.751
20
-111.66
11
172.85
21
-111.844
0
LINE
8
BLACK
6
CONTINUOUS
10
172.85
20
-111.844
11
172.982
21
-112.006
0
LINE
8
BLACK
6
CONTINUOUS
10
172.982
20
-112.006
11
173.144
21
-112.138
0
LINE
8
BLACK
6
CONTINUOUS
10
173.144
20
-112.138
11
173.328
21
-112.237
0
LINE
8
BLACK
6
CONTINUOUS
10
173.328
20
-112.237
11
173.528
21
-112.298
0
LINE
8
BLACK
6
CONTINUOUS
10
173.528
20
-112.298
11
173.736
21
-112.318
0
LINE
8
BLACK
6
CONTINUOUS
10
173.736
20
-112.318
11
173.944
21
-112.298
0
LINE
8
BLACK
6
CONTINUOUS
10
173.944
20
-112.298
11
174.144
21
-112.237
0
LINE
8
BLACK
6
CONTINUOUS
10
174.144
20
-112.237
11
174.328
21
-112.138
0
LINE
8
BLACK
6
CONTINUOUS
10
174.328
20
-112.138
11
174.49
21
-112.006
0
LINE
8
BLACK
6
CONTINUOUS
10
174.49
20
-112.006
11
174.622
21
-111.844
0
LINE
8
BLACK
6
CONTINUOUS
10
174.622
20
-111.844
11
174.721
21
-111.66
0
LINE
8
BLACK
6
CONTINUOUS
10
174.721
20
-111.66
11
174.782
21
-111.46
0
LINE
8
BLACK
6
CONTINUOUS
10
174.782
20
-111.46
11
174.802
21
-111.252
0
LINE
8
BLACK
6
CONTINUOUS
10
174.802
20
-111.252
11
174.782
21
-111.044
0
LINE
8
BLACK
6
CONTINUOUS
10
174.782
20
-111.044
11
174.721
21
-110.844
0
LINE
8
BLACK
6
CONTINUOUS
10
174.721
20
-110.844
11
174.622
21
-110.66
0
LINE
8
BLACK
6
CONTINUOUS
10
174.622
20
-110.66
11
174.49
21
-110.498
0
LINE
8
BLACK
6
CONTINUOUS
10
174.49
20
-110.498
11
174.328
21
-110.366
0
LINE
8
BLACK
6
CONTINUOUS
10
174.328
20
-110.366
11
174.144
21
-110.267
0
LINE
8
BLACK
6
CONTINUOUS
10
174.144
20
-110.267
11
173.944
21
-110.206
0
LINE
8
BLACK
6
CONTINUOUS
10
173.944
20
-110.206
11
173.736
21
-110.186
0
LINE
8
BLACK
6
CONTINUOUS
10
173.736
20
-110.186
11
173.528
21
-110.206
0
LINE
8
BLACK
6
CONTINUOUS
10
173.528
20
-110.206
11
173.328
21
-110.267
0
LINE
8
BLACK
6
CONTINUOUS
10
173.328
20
-110.267
11
173.144
21
-110.366
0
LINE
8
BLACK
6
CONTINUOUS
10
173.144
20
-110.366
11
172.982
21
-110.498
0
LINE
8
BLACK
6
CONTINUOUS
10
172.982
20
-110.498
11
172.85
21
-110.66
0
LINE
8
BLACK
6
CONTINUOUS
10
172.85
20
-110.66
11
172.751
21
-110.844
0
LINE
8
BLACK
6
CONTINUOUS
10
172.751
20
-110.844
11
172.69
21
-111.044
0
LINE
8
BLACK
6
CONTINUOUS
10
172.69
20
-111.044
11
172.67
21
-111.252
0
LINE
8
BLACK
6
CONTINUOUS
10
170.138
20
-111.252
11
170.158
21
-110.876
0
LINE
8
BLACK
6
CONTINUOUS
10
170.158
20
-110.876
11
170.217
21
-110.504
0
LINE
8
BLACK
6
CONTINUOUS
10
170.217
20
-110.504
11
170.314
21
-110.14
0
LINE
8
BLACK
6
CONTINUOUS
10
170.314
20
-110.14
11
170.449
21
-109.789
0
LINE
8
BLACK
6
CONTINUOUS
10
170.449
20
-109.789
11
170.62
21
-109.453
0
LINE
8
BLACK
6
CONTINUOUS
10
170.62
20
-109.453
11
170.825
21
-109.137
0
LINE
8
BLACK
6
CONTINUOUS
10
170.825
20
-109.137
11
171.062
21
-108.844
0
LINE
8
BLACK
6
CONTINUOUS
10
171.062
20
-108.844
11
171.328
21
-108.578
0
LINE
8
BLACK
6
CONTINUOUS
10
171.328
20
-108.578
11
171.621
21
-108.341
0
LINE
8
BLACK
6
CONTINUOUS
10
171.621
20
-108.341
11
171.937
21
-108.136
0
LINE
8
BLACK
6
CONTINUOUS
10
171.937
20
-108.136
11
172.273
21
-107.965
0
LINE
8
BLACK
6
CONTINUOUS
10
172.273
20
-107.965
11
172.624
21
-107.83
0
LINE
8
BLACK
6
CONTINUOUS
10
172.624
20
-107.83
11
172.988
21
-107.733
0
LINE
8
BLACK
6
CONTINUOUS
10
172.988
20
-107.733
11
173.36
21
-107.674
0
LINE
8
BLACK
6
CONTINUOUS
10
173.36
20
-107.674
11
173.736
21
-107.654
0
LINE
8
BLACK
6
CONTINUOUS
10
173.736
20
-107.654
11
174.112
21
-107.674
0
LINE
8
BLACK
6
CONTINUOUS
10
174.112
20
-107.674
11
174.484
21
-107.733
0
LINE
8
BLACK
6
CONTINUOUS
10
174.484
20
-107.733
11
174.848
21
-107.83
0
LINE
8
BLACK
6
CONTINUOUS
10
174.848
20
-107.83
11
175.199
21
-107.965
0
LINE
8
BLACK
6
CONTINUOUS
10
175.199
20
-107.965
11
175.535
21
-108.136
0
LINE
8
BLACK
6
CONTINUOUS
10
175.535
20
-108.136
11
175.851
21
-108.341
0
LINE
8
BLACK
6
CONTINUOUS
10
175.851
20
-108.341
11
176.144
21
-108.578
0
LINE
8
BLACK
6
CONTINUOUS
10
176.144
20
-108.578
11
176.41
21
-108.844
0
LINE
8
BLACK
6
CONTINUOUS
10
176.41
20
-108.844
11
176.647
21
-109.137
0
LINE
8
BLACK
6
CONTINUOUS
10
176.647
20
-109.137
11
176.852
21
-109.453
0
LINE
8
BLACK
6
CONTINUOUS
10
176.852
20
-109.453
11
177.023
21
-109.789
0
LINE
8
BLACK
6
CONTINUOUS
10
177.023
20
-109.789
11
177.158
21
-110.14
0
LINE
8
BLACK
6
CONTINUOUS
10
177.158
20
-110.14
11
177.255
21
-110.504
0
LINE
8
BLACK
6
CONTINUOUS
10
177.255
20
-110.504
11
177.314
21
-110.876
0
LINE
8
BLACK
6
CONTINUOUS
10
177.314
20
-110.876
11
177.334
21
-111.252
0
LINE
8
BLACK
6
CONTINUOUS
10
177.334
20
-111.252
11
177.314
21
-111.628
0
LINE
8
BLACK
6
CONTINUOUS
10
177.314
20
-111.628
11
177.255
21
-112
0
LINE
8
BLACK
6
CONTINUOUS
10
177.255
20
-112
11
177.158
21
-112.364
0
LINE
8
BLACK
6
CONTINUOUS
10
177.158
20
-112.364
11
177.023
21
-112.715
0
LINE
8
BLACK
6
CONTINUOUS
10
177.023
20
-112.715
11
176.852
21
-113.051
0
LINE
8
BLACK
6
CONTINUOUS
10
176.852
20
-113.051
11
176.647
21
-113.367
0
LINE
8
BLACK
6
CONTINUOUS
10
176.647
20
-113.367
11
176.41
21
-113.66
0
LINE
8
BLACK
6
CONTINUOUS
10
176.41
20
-113.66
11
176.144
21
-113.926
0
LINE
8
BLACK
6
CONTINUOUS
10
176.144
20
-113.926
11
175.851
21
-114.163
0
LINE
8
BLACK
6
CONTINUOUS
10
175.851
20
-114.163
11
175.535
21
-114.368
0
LINE
8
BLACK
6
CONTINUOUS
10
175.535
20
-114.368
11
175.199
21
-114.539
0
LINE
8
BLACK
6
CONTINUOUS
10
175.199
20
-114.539
11
174.848
21
-114.674
0
LINE
8
BLACK
6
CONTINUOUS
10
174.848
20
-114.674
11
174.484
21
-114.771
0
LINE
8
BLACK
6
CONTINUOUS
10
174.484
20
-114.771
11
174.112
21
-114.83
0
LINE
8
BLACK
6
CONTINUOUS
10
174.112
20
-114.83
11
173.736
21
-114.85
0
LINE
8
BLACK
6
CONTINUOUS
10
173.736
20
-114.85
11
173.36
21
-114.83
0
LINE
8
BLACK
6
CONTINUOUS
10
173.36
20
-114.83
11
172.988
21
-114.771
0
LINE
8
BLACK
6
CONTINUOUS
10
172.988
20
-114.771
11
172.624
21
-114.674
0
LINE
8
BLACK
6
CONTINUOUS
10
172.624
20
-114.674
11
172.273
21
-114.539
0
LINE
8
BLACK
6
CONTINUOUS
10
172.273
20
-114.539
11
171.937
21
-114.368
0
LINE
8
BLACK
6
CONTINUOUS
10
171.937
20
-114.368
11
171.621
21
-114.163
0
LINE
8
BLACK
6
CONTINUOUS
10
171.621
20
-114.163
11
171.328
21
-113.926
0
LINE
8
BLACK
6
CONTINUOUS
10
171.328
20
-113.926
11
171.062
21
-113.66
0
LINE
8
BLACK
6
CONTINUOUS
10
171.062
20
-113.66
11
170.825
21
-113.367
0
LINE
8
BLACK
6
CONTINUOUS
10
170.825
20
-113.367
11
170.62
21
-113.051
0
LINE
8
BLACK
6
CONTINUOUS
10
170.62
20
-113.051
11
170.449
21
-112.715
0
LINE
8
BLACK
6
CONTINUOUS
10
170.449
20
-112.715
11
170.314
21
-112.364
0
LINE
8
BLACK
6
CONTINUOUS
10
170.314
20
-112.364
11
170.217
21
-112
0
LINE
8
BLACK
6
CONTINUOUS
10
170.217
20
-112
11
170.158
21
-111.628
0
LINE
8
BLACK
6
CONTINUOUS
10
170.158
20
-111.628
11
170.138
21
-111.252
0
LINE
8
BLACK
6
CONTINUOUS
10
170.283
20
-111.252
11
170.303
21
-111.625
0
LINE
8
BLACK
6
CONTINUOUS
10
170.303
20
-111.625
11
170.364
21
-111.994
0
LINE
8
BLACK
6
CONTINUOUS
10
170.364
20
-111.994
11
170.464
21
-112.355
0
LINE
8
BLACK
6
CONTINUOUS
10
170.464
20
-112.355
11
170.602
21
-112.702
0
LINE
8
BLACK
6
CONTINUOUS
10
170.602
20
-112.702
11
170.777
21
-113.032
0
LINE
8
BLACK
6
CONTINUOUS
10
170.777
20
-113.032
11
170.987
21
-113.342
0
LINE
8
BLACK
6
CONTINUOUS
10
170.987
20
-113.342
11
171.229
21
-113.627
0
LINE
8
BLACK
6
CONTINUOUS
10
171.229
20
-113.627
11
171.501
21
-113.884
0
LINE
8
BLACK
6
CONTINUOUS
10
171.501
20
-113.884
11
171.798
21
-114.11
0
LINE
8
BLACK
6
CONTINUOUS
10
171.798
20
-114.11
11
172.119
21
-114.303
0
LINE
8
BLACK
6
CONTINUOUS
10
172.119
20
-114.303
11
172.458
21
-114.46
0
LINE
8
BLACK
6
CONTINUOUS
10
172.458
20
-114.46
11
172.812
21
-114.579
0
LINE
8
BLACK
6
CONTINUOUS
10
172.812
20
-114.579
11
173.177
21
-114.66
0
LINE
8
BLACK
6
CONTINUOUS
10
173.177
20
-114.66
11
173.549
21
-114.7
0
LINE
8
BLACK
6
CONTINUOUS
10
173.549
20
-114.7
11
173.923
21
-114.7
0
LINE
8
BLACK
6
CONTINUOUS
10
173.923
20
-114.7
11
174.295
21
-114.66
0
LINE
8
BLACK
6
CONTINUOUS
10
174.295
20
-114.66
11
174.66
21
-114.579
0
LINE
8
BLACK
6
CONTINUOUS
10
174.66
20
-114.579
11
175.014
21
-114.46
0
LINE
8
BLACK
6
CONTINUOUS
10
175.014
20
-114.46
11
175.353
21
-114.303
0
LINE
8
BLACK
6
CONTINUOUS
10
175.353
20
-114.303
11
175.674
21
-114.11
0
LINE
8
BLACK
6
CONTINUOUS
10
175.674
20
-114.11
11
175.971
21
-113.884
0
LINE
8
BLACK
6
CONTINUOUS
10
175.971
20
-113.884
11
176.243
21
-113.627
0
LINE
8
BLACK
6
CONTINUOUS
10
176.243
20
-113.627
11
176.485
21
-113.342
0
LINE
8
BLACK
6
CONTINUOUS
10
176.485
20
-113.342
11
176.695
21
-113.032
0
LINE
8
BLACK
6
CONTINUOUS
10
176.695
20
-113.032
11
176.87
21
-112.702
0
LINE
8
BLACK
6
CONTINUOUS
10
176.87
20
-112.702
11
177.008
21
-112.355
0
LINE
8
BLACK
6
CONTINUOUS
10
177.008
20
-112.355
11
177.108
21
-111.994
0
LINE
8
BLACK
6
CONTINUOUS
10
177.108
20
-111.994
11
177.169
21
-111.625
0
LINE
8
BLACK
6
CONTINUOUS
10
177.169
20
-111.625
11
177.189
21
-111.252
0
LINE
8
BLACK
6
CONTINUOUS
10
177.189
20
-111.252
11
177.169
21
-110.879
0
LINE
8
BLACK
6
CONTINUOUS
10
177.169
20
-110.879
11
177.108
21
-110.51
0
LINE
8
BLACK
6
CONTINUOUS
10
177.108
20
-110.51
11
177.008
21
-110.149
0
LINE
8
BLACK
6
CONTINUOUS
10
177.008
20
-110.149
11
176.87
21
-109.802
0
LINE
8
BLACK
6
CONTINUOUS
10
176.87
20
-109.802
11
176.695
21
-109.472
0
LINE
8
BLACK
6
CONTINUOUS
10
176.695
20
-109.472
11
176.485
21
-109.162
0
LINE
8
BLACK
6
CONTINUOUS
10
176.485
20
-109.162
11
176.243
21
-108.877
0
LINE
8
BLACK
6
CONTINUOUS
10
176.243
20
-108.877
11
175.971
21
-108.62
0
LINE
8
BLACK
6
CONTINUOUS
10
175.971
20
-108.62
11
175.674
21
-108.394
0
LINE
8
BLACK
6
CONTINUOUS
10
175.674
20
-108.394
11
175.353
21
-108.201
0
LINE
8
BLACK
6
CONTINUOUS
10
175.353
20
-108.201
11
175.014
21
-108.044
0
LINE
8
BLACK
6
CONTINUOUS
10
175.014
20
-108.044
11
174.66
21
-107.925
0
LINE
8
BLACK
6
CONTINUOUS
10
174.66
20
-107.925
11
174.295
21
-107.844
0
LINE
8
BLACK
6
CONTINUOUS
10
174.295
20
-107.844
11
173.923
21
-107.804
0
LINE
8
BLACK
6
CONTINUOUS
10
173.923
20
-107.804
11
173.549
21
-107.804
0
LINE
8
BLACK
6
CONTINUOUS
10
173.549
20
-107.804
11
173.177
21
-107.844
0
LINE
8
BLACK
6
CONTINUOUS
10
173.177
20
-107.844
11
172.812
21
-107.925
0
LINE
8
BLACK
6
CONTINUOUS
10
172.812
20
-107.925
11
172.458
21
-108.044
0
LINE
8
BLACK
6
CONTINUOUS
10
172.458
20
-108.044
11
172.119
21
-108.201
0
LINE
8
BLACK
6
CONTINUOUS
10
172.119
20
-108.201
11
171.798
21
-108.394
0
LINE
8
BLACK
6
CONTINUOUS
10
171.798
20
-108.394
11
171.501
21
-108.62
0
LINE
8
BLACK
6
CONTINUOUS
10
171.501
20
-108.62
11
171.229
21
-108.877
0
LINE
8
BLACK
6
CONTINUOUS
10
171.229
20
-108.877
11
170.987
21
-109.162
0
LINE
8
BLACK
6
CONTINUOUS
10
170.987
20
-109.162
11
170.777
21
-109.472
0
LINE
8
BLACK
6
CONTINUOUS
10
170.777
20
-109.472
11
170.602
21
-109.802
0
LINE
8
BLACK
6
CONTINUOUS
10
170.602
20
-109.802
11
170.464
21
-110.149
0
LINE
8
BLACK
6
CONTINUOUS
10
170.464
20
-110.149
11
170.364
21
-110.51
0
LINE
8
BLACK
6
CONTINUOUS
10
170.364
20
-110.51
11
170.303
21
-110.879
0
LINE
8
BLACK
6
CONTINUOUS
10
170.303
20
-110.879
11
170.283
21
-111.252
0
LINE
8
BLACK
6
CONTINUOUS
10
59.869
20
-109.474
11
59.8894
21
-109.24
0
LINE
8
BLACK
6
CONTINUOUS
10
59.8894
20
-109.24
11
59.9501
21
-109.014
0
LINE
8
BLACK
6
CONTINUOUS
10
59.9501
20
-109.014
11
60.0492
21
-108.801
0
LINE
8
BLACK
6
CONTINUOUS
10
60.0492
20
-108.801
11
60.1837
21
-108.609
0
LINE
8
BLACK
6
CONTINUOUS
10
60.1837
20
-108.609
11
60.3495
21
-108.444
0
LINE
8
BLACK
6
CONTINUOUS
10
60.3495
20
-108.444
11
60.5415
21
-108.309
0
LINE
8
BLACK
6
CONTINUOUS
10
60.5415
20
-108.309
11
60.754
21
-108.21
0
LINE
8
BLACK
6
CONTINUOUS
10
60.754
20
-108.21
11
60.9804
21
-108.149
0
LINE
8
BLACK
6
CONTINUOUS
10
60.9804
20
-108.149
11
61.214
21
-108.129
0
LINE
8
BLACK
6
CONTINUOUS
10
61.214
20
-108.129
11
61.4476
21
-108.149
0
LINE
8
BLACK
6
CONTINUOUS
10
61.4476
20
-108.149
11
61.674
21
-108.21
0
LINE
8
BLACK
6
CONTINUOUS
10
61.674
20
-108.21
11
61.8865
21
-108.309
0
LINE
8
BLACK
6
CONTINUOUS
10
61.8865
20
-108.309
11
62.0785
21
-108.444
0
LINE
8
BLACK
6
CONTINUOUS
10
62.0785
20
-108.444
11
62.2443
21
-108.609
0
LINE
8
BLACK
6
CONTINUOUS
10
62.2443
20
-108.609
11
62.3788
21
-108.801
0
LINE
8
BLACK
6
CONTINUOUS
10
62.3788
20
-108.801
11
62.4779
21
-109.014
0
LINE
8
BLACK
6
CONTINUOUS
10
62.4779
20
-109.014
11
62.5386
21
-109.24
0
LINE
8
BLACK
6
CONTINUOUS
10
62.5386
20
-109.24
11
62.559
21
-109.474
0
LINE
8
BLACK
6
CONTINUOUS
10
62.559
20
-109.474
11
62.5386
21
-109.708
0
LINE
8
BLACK
6
CONTINUOUS
10
62.5386
20
-109.708
11
62.4779
21
-109.934
0
LINE
8
BLACK
6
CONTINUOUS
10
62.4779
20
-109.934
11
62.3788
21
-110.146
0
LINE
8
BLACK
6
CONTINUOUS
10
62.3788
20
-110.146
11
62.2443
21
-110.339
0
LINE
8
BLACK
6
CONTINUOUS
10
62.2443
20
-110.339
11
62.0785
21
-110.504
0
LINE
8
BLACK
6
CONTINUOUS
10
62.0785
20
-110.504
11
61.8865
21
-110.639
0
LINE
8
BLACK
6
CONTINUOUS
10
61.8865
20
-110.639
11
61.674
21
-110.738
0
LINE
8
BLACK
6
CONTINUOUS
10
61.674
20
-110.738
11
61.4476
21
-110.799
0
LINE
8
BLACK
6
CONTINUOUS
10
61.4476
20
-110.799
11
61.214
21
-110.819
0
LINE
8
BLACK
6
CONTINUOUS
10
61.214
20
-110.819
11
60.9804
21
-110.799
0
LINE
8
BLACK
6
CONTINUOUS
10
60.9804
20
-110.799
11
60.754
21
-110.738
0
LINE
8
BLACK
6
CONTINUOUS
10
60.754
20
-110.738
11
60.5415
21
-110.639
0
LINE
8
BLACK
6
CONTINUOUS
10
60.5415
20
-110.639
11
60.3495
21
-110.504
0
LINE
8
BLACK
6
CONTINUOUS
10
60.3495
20
-110.504
11
60.1837
21
-110.339
0
LINE
8
BLACK
6
CONTINUOUS
10
60.1837
20
-110.339
11
60.0492
21
-110.146
0
LINE
8
BLACK
6
CONTINUOUS
10
60.0492
20
-110.146
11
59.9501
21
-109.934
0
LINE
8
BLACK
6
CONTINUOUS
10
59.9501
20
-109.934
11
59.8894
21
-109.708
0
LINE
8
BLACK
6
CONTINUOUS
10
59.8894
20
-109.708
11
59.869
21
-109.474
0
LINE
8
BLACK
6
CONTINUOUS
10
60.0139
20
-109.474
11
60.0343
21
-109.695
0
LINE
8
BLACK
6
CONTINUOUS
10
60.0343
20
-109.695
11
60.0949
21
-109.908
0
LINE
8
BLACK
6
CONTINUOUS
10
60.0949
20
-109.908
11
60.1936
21
-110.106
0
LINE
8
BLACK
6
CONTINUOUS
10
60.1936
20
-110.106
11
60.3271
21
-110.283
0
LINE
8
BLACK
6
CONTINUOUS
10
60.3271
20
-110.283
11
60.4908
21
-110.432
0
LINE
8
BLACK
6
CONTINUOUS
10
60.4908
20
-110.432
11
60.6791
21
-110.548
0
LINE
8
BLACK
6
CONTINUOUS
10
60.6791
20
-110.548
11
60.8856
21
-110.628
0
LINE
8
BLACK
6
CONTINUOUS
10
60.8856
20
-110.628
11
61.1033
21
-110.669
0
LINE
8
BLACK
6
CONTINUOUS
10
61.1033
20
-110.669
11
61.3247
21
-110.669
0
LINE
8
BLACK
6
CONTINUOUS
10
61.3247
20
-110.669
11
61.5424
21
-110.628
0
LINE
8
BLACK
6
CONTINUOUS
10
61.5424
20
-110.628
11
61.7489
21
-110.548
0
LINE
8
BLACK
6
CONTINUOUS
10
61.7489
20
-110.548
11
61.9372
21
-110.432
0
LINE
8
BLACK
6
CONTINUOUS
10
61.9372
20
-110.432
11
62.1009
21
-110.283
0
LINE
8
BLACK
6
CONTINUOUS
10
62.1009
20
-110.283
11
62.2344
21
-110.106
0
LINE
8
BLACK
6
CONTINUOUS
10
62.2344
20
-110.106
11
62.3331
21
-109.908
0
LINE
8
BLACK
6
CONTINUOUS
10
62.3331
20
-109.908
11
62.3937
21
-109.695
0
LINE
8
BLACK
6
CONTINUOUS
10
62.3937
20
-109.695
11
62.4141
21
-109.474
0
LINE
8
BLACK
6
CONTINUOUS
10
62.4141
20
-109.474
11
62.3937
21
-109.253
0
LINE
8
BLACK
6
CONTINUOUS
10
62.3937
20
-109.253
11
62.3331
21
-109.04
0
LINE
8
BLACK
6
CONTINUOUS
10
62.3331
20
-109.04
11
62.2344
21
-108.842
0
LINE
8
BLACK
6
CONTINUOUS
10
62.2344
20
-108.842
11
62.1009
21
-108.665
0
LINE
8
BLACK
6
CONTINUOUS
10
62.1009
20
-108.665
11
61.9372
21
-108.516
0
LINE
8
BLACK
6
CONTINUOUS
10
61.9372
20
-108.516
11
61.7489
21
-108.4
0
LINE
8
BLACK
6
CONTINUOUS
10
61.7489
20
-108.4
11
61.5424
21
-108.32
0
LINE
8
BLACK
6
CONTINUOUS
10
61.5424
20
-108.32
11
61.3247
21
-108.279
0
LINE
8
BLACK
6
CONTINUOUS
10
61.3247
20
-108.279
11
61.1033
21
-108.279
0
LINE
8
BLACK
6
CONTINUOUS
10
61.1033
20
-108.279
11
60.8856
21
-108.32
0
LINE
8
BLACK
6
CONTINUOUS
10
60.8856
20
-108.32
11
60.6791
21
-108.4
0
LINE
8
BLACK
6
CONTINUOUS
10
60.6791
20
-108.4
11
60.4908
21
-108.516
0
LINE
8
BLACK
6
CONTINUOUS
10
60.4908
20
-108.516
11
60.3271
21
-108.665
0
LINE
8
BLACK
6
CONTINUOUS
10
60.3271
20
-108.665
11
60.1936
21
-108.842
0
LINE
8
BLACK
6
CONTINUOUS
10
60.1936
20
-108.842
11
60.0949
21
-109.04
0
LINE
8
BLACK
6
CONTINUOUS
10
60.0949
20
-109.04
11
60.0343
21
-109.253
0
LINE
8
BLACK
6
CONTINUOUS
10
60.0343
20
-109.253
11
60.0139
21
-109.474
0
LINE
8
BLACK
6
CONTINUOUS
10
57.6249
20
-109.474
11
57.6446
21
-109.099
0
LINE
8
BLACK
6
CONTINUOUS
10
57.6446
20
-109.099
11
57.7033
21
-108.728
0
LINE
8
BLACK
6
CONTINUOUS
10
57.7033
20
-108.728
11
57.8006
21
-108.365
0
LINE
8
BLACK
6
CONTINUOUS
10
57.8006
20
-108.365
11
57.9352
21
-108.014
0
LINE
8
BLACK
6
CONTINUOUS
10
57.9352
20
-108.014
11
58.1058
21
-107.679
0
LINE
8
BLACK
6
CONTINUOUS
10
58.1058
20
-107.679
11
58.3104
21
-107.364
0
LINE
8
BLACK
6
CONTINUOUS
10
58.3104
20
-107.364
11
58.5468
21
-107.072
0
LINE
8
BLACK
6
CONTINUOUS
10
58.5468
20
-107.072
11
58.8124
21
-106.807
0
LINE
8
BLACK
6
CONTINUOUS
10
58.8124
20
-106.807
11
59.1044
21
-106.57
0
LINE
8
BLACK
6
CONTINUOUS
10
59.1044
20
-106.57
11
59.4195
21
-106.366
0
LINE
8
BLACK
6
CONTINUOUS
10
59.4195
20
-106.366
11
59.7542
21
-106.195
0
LINE
8
BLACK
6
CONTINUOUS
10
59.7542
20
-106.195
11
60.1049
21
-106.061
0
LINE
8
BLACK
6
CONTINUOUS
10
60.1049
20
-106.061
11
60.4678
21
-105.963
0
LINE
8
BLACK
6
CONTINUOUS
10
60.4678
20
-105.963
11
60.8388
21
-105.905
0
LINE
8
BLACK
6
CONTINUOUS
10
60.8388
20
-105.905
11
61.214
21
-105.885
0
LINE
8
BLACK
6
CONTINUOUS
10
61.214
20
-105.885
11
61.5892
21
-105.905
0
LINE
8
BLACK
6
CONTINUOUS
10
61.5892
20
-105.905
11
61.9602
21
-105.963
0
LINE
8
BLACK
6
CONTINUOUS
10
61.9602
20
-105.963
11
62.3231
21
-106.061
0
LINE
8
BLACK
6
CONTINUOUS
10
62.3231
20
-106.061
11
62.6738
21
-106.195
0
LINE
8
BLACK
6
CONTINUOUS
10
62.6738
20
-106.195
11
63.0085
21
-106.366
0
LINE
8
BLACK
6
CONTINUOUS
10
63.0085
20
-106.366
11
63.3236
21
-106.57
0
LINE
8
BLACK
6
CONTINUOUS
10
63.3236
20
-106.57
11
63.6156
21
-106.807
0
LINE
8
BLACK
6
CONTINUOUS
10
63.6156
20
-106.807
11
63.8812
21
-107.072
0
LINE
8
BLACK
6
CONTINUOUS
10
63.8812
20
-107.072
11
64.1176
21
-107.364
0
LINE
8
BLACK
6
CONTINUOUS
10
64.1176
20
-107.364
11
64.3222
21
-107.679
0
LINE
8
BLACK
6
CONTINUOUS
10
64.3222
20
-107.679
11
64.4928
21
-108.014
0
LINE
8
BLACK
6
CONTINUOUS
10
64.4928
20
-108.014
11
64.6274
21
-108.365
0
LINE
8
BLACK
6
CONTINUOUS
10
64.6274
20
-108.365
11
64.7247
21
-108.728
0
LINE
8
BLACK
6
CONTINUOUS
10
64.7247
20
-108.728
11
64.7834
21
-109.099
0
LINE
8
BLACK
6
CONTINUOUS
10
64.7834
20
-109.099
11
64.8031
21
-109.474
0
LINE
8
BLACK
6
CONTINUOUS
10
64.8031
20
-109.474
11
64.7834
21
-109.849
0
LINE
8
BLACK
6
CONTINUOUS
10
64.7834
20
-109.849
11
64.7247
21
-110.22
0
LINE
8
BLACK
6
CONTINUOUS
10
64.7247
20
-110.22
11
64.6274
21
-110.583
0
LINE
8
BLACK
6
CONTINUOUS
10
64.6274
20
-110.583
11
64.4928
21
-110.934
0
LINE
8
BLACK
6
CONTINUOUS
10
64.4928
20
-110.934
11
64.3222
21
-111.269
0
LINE
8
BLACK
6
CONTINUOUS
10
64.3222
20
-111.269
11
64.1176
21
-111.584
0
LINE
8
BLACK
6
CONTINUOUS
10
64.1176
20
-111.584
11
63.8812
21
-111.876
0
LINE
8
BLACK
6
CONTINUOUS
10
63.8812
20
-111.876
11
63.6156
21
-112.141
0
LINE
8
BLACK
6
CONTINUOUS
10
63.6156
20
-112.141
11
63.3236
21
-112.378
0
LINE
8
BLACK
6
CONTINUOUS
10
63.3236
20
-112.378
11
63.0085
21
-112.582
0
LINE
8
BLACK
6
CONTINUOUS
10
63.0085
20
-112.582
11
62.6738
21
-112.753
0
LINE
8
BLACK
6
CONTINUOUS
10
62.6738
20
-112.753
11
62.3231
21
-112.887
0
LINE
8
BLACK
6
CONTINUOUS
10
62.3231
20
-112.887
11
61.9602
21
-112.985
0
LINE
8
BLACK
6
CONTINUOUS
10
61.9602
20
-112.985
11
61.5892
21
-113.043
0
LINE
8
BLACK
6
CONTINUOUS
10
61.5892
20
-113.043
11
61.214
21
-113.063
0
LINE
8
BLACK
6
CONTINUOUS
10
61.214
20
-113.063
11
60.8388
21
-113.043
0
LINE
8
BLACK
6
CONTINUOUS
10
60.8388
20
-113.043
11
60.4678
21
-112.985
0
LINE
8
BLACK
6
CONTINUOUS
10
60.4678
20
-112.985
11
60.1049
21
-112.887
0
LINE
8
BLACK
6
CONTINUOUS
10
60.1049
20
-112.887
11
59.7542
21
-112.753
0
LINE
8
BLACK
6
CONTINUOUS
10
59.7542
20
-112.753
11
59.4195
21
-112.582
0
LINE
8
BLACK
6
CONTINUOUS
10
59.4195
20
-112.582
11
59.1044
21
-112.378
0
LINE
8
BLACK
6
CONTINUOUS
10
59.1044
20
-112.378
11
58.8124
21
-112.141
0
LINE
8
BLACK
6
CONTINUOUS
10
58.8124
20
-112.141
11
58.5468
21
-111.876
0
LINE
8
BLACK
6
CONTINUOUS
10
58.5468
20
-111.876
11
58.3104
21
-111.584
0
LINE
8
BLACK
6
CONTINUOUS
10
58.3104
20
-111.584
11
58.1058
21
-111.269
0
LINE
8
BLACK
6
CONTINUOUS
10
58.1058
20
-111.269
11
57.9352
21
-110.934
0
LINE
8
BLACK
6
CONTINUOUS
10
57.9352
20
-110.934
11
57.8006
21
-110.583
0
LINE
8
BLACK
6
CONTINUOUS
10
57.8006
20
-110.583
11
57.7033
21
-110.22
0
LINE
8
BLACK
6
CONTINUOUS
10
57.7033
20
-110.22
11
57.6446
21
-109.849
0
LINE
8
BLACK
6
CONTINUOUS
10
57.6446
20
-109.849
11
57.6249
21
-109.474
0
LINE
8
BLACK
6
CONTINUOUS
10
57.7699
20
-109.474
11
57.79
21
-109.846
0
LINE
8
BLACK
6
CONTINUOUS
10
57.79
20
-109.846
11
57.8504
21
-110.214
0
LINE
8
BLACK
6
CONTINUOUS
10
57.8504
20
-110.214
11
57.9501
21
-110.574
0
LINE
8
BLACK
6
CONTINUOUS
10
57.9501
20
-110.574
11
58.0882
21
-110.92
0
LINE
8
BLACK
6
CONTINUOUS
10
58.0882
20
-110.92
11
58.2629
21
-111.25
0
LINE
8
BLACK
6
CONTINUOUS
10
58.2629
20
-111.25
11
58.4721
21
-111.558
0
LINE
8
BLACK
6
CONTINUOUS
10
58.4721
20
-111.558
11
58.7136
21
-111.843
0
LINE
8
BLACK
6
CONTINUOUS
10
58.7136
20
-111.843
11
58.9843
21
-112.099
0
LINE
8
BLACK
6
CONTINUOUS
10
58.9843
20
-112.099
11
59.2812
21
-112.325
0
LINE
8
BLACK
6
CONTINUOUS
10
59.2812
20
-112.325
11
59.6007
21
-112.517
0
LINE
8
BLACK
6
CONTINUOUS
10
59.6007
20
-112.517
11
59.9392
21
-112.674
0
LINE
8
BLACK
6
CONTINUOUS
10
59.9392
20
-112.674
11
60.2926
21
-112.793
0
LINE
8
BLACK
6
CONTINUOUS
10
60.2926
20
-112.793
11
60.6568
21
-112.873
0
LINE
8
BLACK
6
CONTINUOUS
10
60.6568
20
-112.873
11
61.0275
21
-112.913
0
LINE
8
BLACK
6
CONTINUOUS
10
61.0275
20
-112.913
11
61.4005
21
-112.913
0
LINE
8
BLACK
6
CONTINUOUS
10
61.4005
20
-112.913
11
61.7712
21
-112.873
0
LINE
8
BLACK
6
CONTINUOUS
10
61.7712
20
-112.873
11
62.1354
21
-112.793
0
LINE
8
BLACK
6
CONTINUOUS
10
62.1354
20
-112.793
11
62.4888
21
-112.674
0
LINE
8
BLACK
6
CONTINUOUS
10
62.4888
20
-112.674
11
62.8273
21
-112.517
0
LINE
8
BLACK
6
CONTINUOUS
10
62.8273
20
-112.517
11
63.1468
21
-112.325
0
LINE
8
BLACK
6
CONTINUOUS
10
63.1468
20
-112.325
11
63.4437
21
-112.099
0
LINE
8
BLACK
6
CONTINUOUS
10
63.4437
20
-112.099
11
63.7144
21
-111.843
0
LINE
8
BLACK
6
CONTINUOUS
10
63.7144
20
-111.843
11
63.9559
21
-111.558
0
LINE
8
BLACK
6
CONTINUOUS
10
63.9559
20
-111.558
11
64.1651
21
-111.25
0
LINE
8
BLACK
6
CONTINUOUS
10
64.1651
20
-111.25
11
64.3398
21
-110.92
0
LINE
8
BLACK
6
CONTINUOUS
10
64.3398
20
-110.92
11
64.4779
21
-110.574
0
LINE
8
BLACK
6
CONTINUOUS
10
64.4779
20
-110.574
11
64.5776
21
-110.214
0
LINE
8
BLACK
6
CONTINUOUS
10
64.5776
20
-110.214
11
64.638
21
-109.846
0
LINE
8
BLACK
6
CONTINUOUS
10
64.638
20
-109.846
11
64.6581
21
-109.474
0
LINE
8
BLACK
6
CONTINUOUS
10
64.6581
20
-109.474
11
64.638
21
-109.102
0
LINE
8
BLACK
6
CONTINUOUS
10
64.638
20
-109.102
11
64.5776
21
-108.734
0
LINE
8
BLACK
6
CONTINUOUS
10
64.5776
20
-108.734
11
64.4779
21
-108.374
0
LINE
8
BLACK
6
CONTINUOUS
10
64.4779
20
-108.374
11
64.3398
21
-108.028
0
LINE
8
BLACK
6
CONTINUOUS
10
64.3398
20
-108.028
11
64.1651
21
-107.698
0
LINE
8
BLACK
6
CONTINUOUS
10
64.1651
20
-107.698
11
63.9559
21
-107.39
0
LINE
8
BLACK
6
CONTINUOUS
10
63.9559
20
-107.39
11
63.7144
21
-107.105
0
LINE
8
BLACK
6
CONTINUOUS
10
63.7144
20
-107.105
11
63.4437
21
-106.849
0
LINE
8
BLACK
6
CONTINUOUS
10
63.4437
20
-106.849
11
63.1468
21
-106.623
0
LINE
8
BLACK
6
CONTINUOUS
10
63.1468
20
-106.623
11
62.8273
21
-106.431
0
LINE
8
BLACK
6
CONTINUOUS
10
62.8273
20
-106.431
11
62.4888
21
-106.274
0
LINE
8
BLACK
6
CONTINUOUS
10
62.4888
20
-106.274
11
62.1354
21
-106.155
0
LINE
8
BLACK
6
CONTINUOUS
10
62.1354
20
-106.155
11
61.7712
21
-106.075
0
LINE
8
BLACK
6
CONTINUOUS
10
61.7712
20
-106.075
11
61.4005
21
-106.035
0
LINE
8
BLACK
6
CONTINUOUS
10
61.4005
20
-106.035
11
61.0275
21
-106.035
0
LINE
8
BLACK
6
CONTINUOUS
10
61.0275
20
-106.035
11
60.6568
21
-106.075
0
LINE
8
BLACK
6
CONTINUOUS
10
60.6568
20
-106.075
11
60.2926
21
-106.155
0
LINE
8
BLACK
6
CONTINUOUS
10
60.2926
20
-106.155
11
59.9392
21
-106.274
0
LINE
8
BLACK
6
CONTINUOUS
10
59.9392
20
-106.274
11
59.6007
21
-106.431
0
LINE
8
BLACK
6
CONTINUOUS
10
59.6007
20
-106.431
11
59.2812
21
-106.623
0
LINE
8
BLACK
6
CONTINUOUS
10
59.2812
20
-106.623
11
58.9843
21
-106.849
0
LINE
8
BLACK
6
CONTINUOUS
10
58.9843
20
-106.849
11
58.7136
21
-107.105
0
LINE
8
BLACK
6
CONTINUOUS
10
58.7136
20
-107.105
11
58.4721
21
-107.39
0
LINE
8
BLACK
6
CONTINUOUS
10
58.4721
20
-107.39
11
58.2629
21
-107.698
0
LINE
8
BLACK
6
CONTINUOUS
10
58.2629
20
-107.698
11
58.0882
21
-108.028
0
LINE
8
BLACK
6
CONTINUOUS
10
58.0882
20
-108.028
11
57.9501
21
-108.374
0
LINE
8
BLACK
6
CONTINUOUS
10
57.9501
20
-108.374
11
57.8504
21
-108.734
0
LINE
8
BLACK
6
CONTINUOUS
10
57.8504
20
-108.734
11
57.79
21
-109.102
0
LINE
8
BLACK
6
CONTINUOUS
10
57.79
20
-109.102
11
57.7699
21
-109.474
0
LINE
8
BLACK
6
CONTINUOUS
10
237.644
20
-101.092
11
237.663
21
-100.866
0
LINE
8
BLACK
6
CONTINUOUS
10
237.663
20
-100.866
11
237.718
21
-100.647
0
LINE
8
BLACK
6
CONTINUOUS
10
237.718
20
-100.647
11
237.809
21
-100.44
0
LINE
8
BLACK
6
CONTINUOUS
10
237.809
20
-100.44
11
237.933
21
-100.25
0
LINE
8
BLACK
6
CONTINUOUS
10
237.933
20
-100.25
11
238.086
21
-100.084
0
LINE
8
BLACK
6
CONTINUOUS
10
238.086
20
-100.084
11
238.265
21
-99.945
0
LINE
8
BLACK
6
CONTINUOUS
10
238.265
20
-99.945
11
238.464
21
-99.8373
0
LINE
8
BLACK
6
CONTINUOUS
10
238.464
20
-99.8373
11
238.678
21
-99.7638
0
LINE
8
BLACK
6
CONTINUOUS
10
238.678
20
-99.7638
11
238.901
21
-99.7265
0
LINE
8
BLACK
6
CONTINUOUS
10
238.901
20
-99.7265
11
239.127
21
-99.7265
0
LINE
8
BLACK
6
CONTINUOUS
10
239.127
20
-99.7265
11
239.35
21
-99.7638
0
LINE
8
BLACK
6
CONTINUOUS
10
239.35
20
-99.7638
11
239.564
21
-99.8373
0
LINE
8
BLACK
6
CONTINUOUS
10
239.564
20
-99.8373
11
239.763
21
-99.945
0
LINE
8
BLACK
6
CONTINUOUS
10
239.763
20
-99.945
11
239.942
21
-100.084
0
LINE
8
BLACK
6
CONTINUOUS
10
239.942
20
-100.084
11
240.095
21
-100.25
0
LINE
8
BLACK
6
CONTINUOUS
10
240.095
20
-100.25
11
240.219
21
-100.44
0
LINE
8
BLACK
6
CONTINUOUS
10
240.219
20
-100.44
11
240.31
21
-100.647
0
LINE
8
BLACK
6
CONTINUOUS
10
240.31
20
-100.647
11
240.365
21
-100.866
0
LINE
8
BLACK
6
CONTINUOUS
10
240.365
20
-100.866
11
240.384
21
-101.092
0
LINE
8
BLACK
6
CONTINUOUS
10
240.384
20
-101.092
11
240.365
21
-101.318
0
LINE
8
BLACK
6
CONTINUOUS
10
240.365
20
-101.318
11
240.31
21
-101.537
0
LINE
8
BLACK
6
CONTINUOUS
10
240.31
20
-101.537
11
240.219
21
-101.744
0
LINE
8
BLACK
6
CONTINUOUS
10
240.219
20
-101.744
11
240.095
21
-101.934
0
LINE
8
BLACK
6
CONTINUOUS
10
240.095
20
-101.934
11
239.942
21
-102.1
0
LINE
8
BLACK
6
CONTINUOUS
10
239.942
20
-102.1
11
239.763
21
-102.239
0
LINE
8
BLACK
6
CONTINUOUS
10
239.763
20
-102.239
11
239.564
21
-102.347
0
LINE
8
BLACK
6
CONTINUOUS
10
239.564
20
-102.347
11
239.35
21
-102.42
0
LINE
8
BLACK
6
CONTINUOUS
10
239.35
20
-102.42
11
239.127
21
-102.457
0
LINE
8
BLACK
6
CONTINUOUS
10
239.127
20
-102.457
11
238.901
21
-102.457
0
LINE
8
BLACK
6
CONTINUOUS
10
238.901
20
-102.457
11
238.678
21
-102.42
0
LINE
8
BLACK
6
CONTINUOUS
10
238.678
20
-102.42
11
238.464
21
-102.347
0
LINE
8
BLACK
6
CONTINUOUS
10
238.464
20
-102.347
11
238.265
21
-102.239
0
LINE
8
BLACK
6
CONTINUOUS
10
238.265
20
-102.239
11
238.086
21
-102.1
0
LINE
8
BLACK
6
CONTINUOUS
10
238.086
20
-102.1
11
237.933
21
-101.934
0
LINE
8
BLACK
6
CONTINUOUS
10
237.933
20
-101.934
11
237.809
21
-101.744
0
LINE
8
BLACK
6
CONTINUOUS
10
237.809
20
-101.744
11
237.718
21
-101.537
0
LINE
8
BLACK
6
CONTINUOUS
10
237.718
20
-101.537
11
237.663
21
-101.318
0
LINE
8
BLACK
6
CONTINUOUS
10
237.663
20
-101.318
11
237.644
21
-101.092
0
LINE
8
BLACK
6
CONTINUOUS
10
237.789
20
-101.092
11
237.808
21
-101.305
0
LINE
8
BLACK
6
CONTINUOUS
10
237.808
20
-101.305
11
237.863
21
-101.511
0
LINE
8
BLACK
6
CONTINUOUS
10
237.863
20
-101.511
11
237.953
21
-101.704
0
LINE
8
BLACK
6
CONTINUOUS
10
237.953
20
-101.704
11
238.076
21
-101.879
0
LINE
8
BLACK
6
CONTINUOUS
10
238.076
20
-101.879
11
238.227
21
-102.03
0
LINE
8
BLACK
6
CONTINUOUS
10
238.227
20
-102.03
11
238.402
21
-102.153
0
LINE
8
BLACK
6
CONTINUOUS
10
238.402
20
-102.153
11
238.595
21
-102.243
0
LINE
8
BLACK
6
CONTINUOUS
10
238.595
20
-102.243
11
238.801
21
-102.298
0
LINE
8
BLACK
6
CONTINUOUS
10
238.801
20
-102.298
11
239.014
21
-102.317
0
LINE
8
BLACK
6
CONTINUOUS
10
239.014
20
-102.317
11
239.227
21
-102.298
0
LINE
8
BLACK
6
CONTINUOUS
10
239.227
20
-102.298
11
239.433
21
-102.243
0
LINE
8
BLACK
6
CONTINUOUS
10
239.433
20
-102.243
11
239.626
21
-102.153
0
LINE
8
BLACK
6
CONTINUOUS
10
239.626
20
-102.153
11
239.801
21
-102.03
0
LINE
8
BLACK
6
CONTINUOUS
10
239.801
20
-102.03
11
239.952
21
-101.879
0
LINE
8
BLACK
6
CONTINUOUS
10
239.952
20
-101.879
11
240.075
21
-101.704
0
LINE
8
BLACK
6
CONTINUOUS
10
240.075
20
-101.704
11
240.165
21
-101.511
0
LINE
8
BLACK
6
CONTINUOUS
10
240.165
20
-101.511
11
240.22
21
-101.305
0
LINE
8
BLACK
6
CONTINUOUS
10
240.22
20
-101.305
11
240.239
21
-101.092
0
LINE
8
BLACK
6
CONTINUOUS
10
240.239
20
-101.092
11
240.22
21
-100.879
0
LINE
8
BLACK
6
CONTINUOUS
10
240.22
20
-100.879
11
240.165
21
-100.673
0
LINE
8
BLACK
6
CONTINUOUS
10
240.165
20
-100.673
11
240.075
21
-100.48
0
LINE
8
BLACK
6
CONTINUOUS
10
240.075
20
-100.48
11
239.952
21
-100.305
0
LINE
8
BLACK
6
CONTINUOUS
10
239.952
20
-100.305
11
239.801
21
-100.154
0
LINE
8
BLACK
6
CONTINUOUS
10
239.801
20
-100.154
11
239.626
21
-100.031
0
LINE
8
BLACK
6
CONTINUOUS
10
239.626
20
-100.031
11
239.433
21
-99.9411
0
LINE
8
BLACK
6
CONTINUOUS
10
239.433
20
-99.9411
11
239.227
21
-99.8858
0
LINE
8
BLACK
6
CONTINUOUS
10
239.227
20
-99.8858
11
239.014
21
-99.8672
0
LINE
8
BLACK
6
CONTINUOUS
10
239.014
20
-99.8672
11
238.801
21
-99.8858
0
LINE
8
BLACK
6
CONTINUOUS
10
238.801
20
-99.8858
11
238.595
21
-99.9411
0
LINE
8
BLACK
6
CONTINUOUS
10
238.595
20
-99.9411
11
238.402
21
-100.031
0
LINE
8
BLACK
6
CONTINUOUS
10
238.402
20
-100.031
11
238.227
21
-100.154
0
LINE
8
BLACK
6
CONTINUOUS
10
238.227
20
-100.154
11
238.076
21
-100.305
0
LINE
8
BLACK
6
CONTINUOUS
10
238.076
20
-100.305
11
237.953
21
-100.48
0
LINE
8
BLACK
6
CONTINUOUS
10
237.953
20
-100.48
11
237.863
21
-100.673
0
LINE
8
BLACK
6
CONTINUOUS
10
237.863
20
-100.673
11
237.808
21
-100.879
0
LINE
8
BLACK
6
CONTINUOUS
10
237.808
20
-100.879
11
237.789
21
-101.092
0
LINE
8
BLACK
6
CONTINUOUS
10
235.558
20
-101.092
11
235.579
21
-100.718
0
LINE
8
BLACK
6
CONTINUOUS
10
235.579
20
-100.718
11
235.639
21
-100.349
0
LINE
8
BLACK
6
CONTINUOUS
10
235.639
20
-100.349
11
235.739
21
-99.9886
0
LINE
8
BLACK
6
CONTINUOUS
10
235.739
20
-99.9886
11
235.878
21
-99.641
0
LINE
8
BLACK
6
CONTINUOUS
10
235.878
20
-99.641
11
236.053
21
-99.3104
0
LINE
8
BLACK
6
CONTINUOUS
10
236.053
20
-99.3104
11
236.263
21
-99.0007
0
LINE
8
BLACK
6
CONTINUOUS
10
236.263
20
-99.0007
11
236.505
21
-98.7155
0
LINE
8
BLACK
6
CONTINUOUS
10
236.505
20
-98.7155
11
236.777
21
-98.4582
0
LINE
8
BLACK
6
CONTINUOUS
10
236.777
20
-98.4582
11
237.075
21
-98.2318
0
LINE
8
BLACK
6
CONTINUOUS
10
237.075
20
-98.2318
11
237.395
21
-98.0389
0
LINE
8
BLACK
6
CONTINUOUS
10
237.395
20
-98.0389
11
237.735
21
-97.8818
0
LINE
8
BLACK
6
CONTINUOUS
10
237.735
20
-97.8818
11
238.09
21
-97.7623
0
LINE
8
BLACK
6
CONTINUOUS
10
238.09
20
-97.7623
11
238.455
21
-97.6819
0
LINE
8
BLACK
6
CONTINUOUS
10
238.455
20
-97.6819
11
238.827
21
-97.6414
0
LINE
8
BLACK
6
CONTINUOUS
10
238.827
20
-97.6414
11
239.201
21
-97.6414
0
LINE
8
BLACK
6
CONTINUOUS
10
239.201
20
-97.6414
11
239.573
21
-97.6819
0
LINE
8
BLACK
6
CONTINUOUS
10
239.573
20
-97.6819
11
239.938
21
-97.7623
0
LINE
8
BLACK
6
CONTINUOUS
10
239.938
20
-97.7623
11
240.293
21
-97.8818
0
LINE
8
BLACK
6
CONTINUOUS
10
240.293
20
-97.8818
11
240.633
21
-98.0389
0
LINE
8
BLACK
6
CONTINUOUS
10
240.633
20
-98.0389
11
240.953
21
-98.2318
0
LINE
8
BLACK
6
CONTINUOUS
10
240.953
20
-98.2318
11
241.251
21
-98.4582
0
LINE
8
BLACK
6
CONTINUOUS
10
241.251
20
-98.4582
11
241.523
21
-98.7155
0
LINE
8
BLACK
6
CONTINUOUS
10
241.523
20
-98.7155
11
241.765
21
-99.0007
0
LINE
8
BLACK
6
CONTINUOUS
10
241.765
20
-99.0007
11
241.975
21
-99.3104
0
LINE
8
BLACK
6
CONTINUOUS
10
241.975
20
-99.3104
11
242.15
21
-99.641
0
LINE
8
BLACK
6
CONTINUOUS
10
242.15
20
-99.641
11
242.289
21
-99.9886
0
LINE
8
BLACK
6
CONTINUOUS
10
242.289
20
-99.9886
11
242.389
21
-100.349
0
LINE
8
BLACK
6
CONTINUOUS
10
242.389
20
-100.349
11
242.449
21
-100.718
0
LINE
8
BLACK
6
CONTINUOUS
10
242.449
20
-100.718
11
242.47
21
-101.092
0
LINE
8
BLACK
6
CONTINUOUS
10
242.47
20
-101.092
11
242.449
21
-101.466
0
LINE
8
BLACK
6
CONTINUOUS
10
242.449
20
-101.466
11
242.389
21
-101.835
0
LINE
8
BLACK
6
CONTINUOUS
10
242.389
20
-101.835
11
242.289
21
-102.195
0
LINE
8
BLACK
6
CONTINUOUS
10
242.289
20
-102.195
11
242.15
21
-102.543
0
LINE
8
BLACK
6
CONTINUOUS
10
242.15
20
-102.543
11
241.975
21
-102.874
0
LINE
8
BLACK
6
CONTINUOUS
10
241.975
20
-102.874
11
241.765
21
-103.183
0
LINE
8
BLACK
6
CONTINUOUS
10
241.765
20
-103.183
11
241.523
21
-103.468
0
LINE
8
BLACK
6
CONTINUOUS
10
241.523
20
-103.468
11
241.251
21
-103.726
0
LINE
8
BLACK
6
CONTINUOUS
10
241.251
20
-103.726
11
240.953
21
-103.952
0
LINE
8
BLACK
6
CONTINUOUS
10
240.953
20
-103.952
11
240.633
21
-104.145
0
LINE
8
BLACK
6
CONTINUOUS
10
240.633
20
-104.145
11
240.293
21
-104.302
0
LINE
8
BLACK
6
CONTINUOUS
10
240.293
20
-104.302
11
239.938
21
-104.422
0
LINE
8
BLACK
6
CONTINUOUS
10
239.938
20
-104.422
11
239.573
21
-104.502
0
LINE
8
BLACK
6
CONTINUOUS
10
239.573
20
-104.502
11
239.201
21
-104.543
0
LINE
8
BLACK
6
CONTINUOUS
10
239.201
20
-104.543
11
238.827
21
-104.543
0
LINE
8
BLACK
6
CONTINUOUS
10
238.827
20
-104.543
11
238.455
21
-104.502
0
LINE
8
BLACK
6
CONTINUOUS
10
238.455
20
-104.502
11
238.09
21
-104.422
0
LINE
8
BLACK
6
CONTINUOUS
10
238.09
20
-104.422
11
237.735
21
-104.302
0
LINE
8
BLACK
6
CONTINUOUS
10
237.735
20
-104.302
11
237.395
21
-104.145
0
LINE
8
BLACK
6
CONTINUOUS
10
237.395
20
-104.145
11
237.075
21
-103.952
0
LINE
8
BLACK
6
CONTINUOUS
10
237.075
20
-103.952
11
236.777
21
-103.726
0
LINE
8
BLACK
6
CONTINUOUS
10
236.777
20
-103.726
11
236.505
21
-103.468
0
LINE
8
BLACK
6
CONTINUOUS
10
236.505
20
-103.468
11
236.263
21
-103.183
0
LINE
8
BLACK
6
CONTINUOUS
10
236.263
20
-103.183
11
236.053
21
-102.874
0
LINE
8
BLACK
6
CONTINUOUS
10
236.053
20
-102.874
11
235.878
21
-102.543
0
LINE
8
BLACK
6
CONTINUOUS
10
235.878
20
-102.543
11
235.739
21
-102.195
0
LINE
8
BLACK
6
CONTINUOUS
10
235.739
20
-102.195
11
235.639
21
-101.835
0
LINE
8
BLACK
6
CONTINUOUS
10
235.639
20
-101.835
11
235.579
21
-101.466
0
LINE
8
BLACK
6
CONTINUOUS
10
235.579
20
-101.466
11
235.558
21
-101.092
0
LINE
8
BLACK
6
CONTINUOUS
10
235.703
20
-101.092
11
235.723
21
-101.45
0
LINE
8
BLACK
6
CONTINUOUS
10
235.723
20
-101.45
11
235.781
21
-101.804
0
LINE
8
BLACK
6
CONTINUOUS
10
235.781
20
-101.804
11
235.877
21
-102.149
0
LINE
8
BLACK
6
CONTINUOUS
10
235.877
20
-102.149
11
236.009
21
-102.482
0
LINE
8
BLACK
6
CONTINUOUS
10
236.009
20
-102.482
11
236.177
21
-102.799
0
LINE
8
BLACK
6
CONTINUOUS
10
236.177
20
-102.799
11
236.379
21
-103.095
0
LINE
8
BLACK
6
CONTINUOUS
10
236.379
20
-103.095
11
236.611
21
-103.369
0
LINE
8
BLACK
6
CONTINUOUS
10
236.611
20
-103.369
11
236.871
21
-103.615
0
LINE
8
BLACK
6
CONTINUOUS
10
236.871
20
-103.615
11
237.156
21
-103.832
0
LINE
8
BLACK
6
CONTINUOUS
10
237.156
20
-103.832
11
237.463
21
-104.017
0
LINE
8
BLACK
6
CONTINUOUS
10
237.463
20
-104.017
11
237.789
21
-104.167
0
LINE
8
BLACK
6
CONTINUOUS
10
237.789
20
-104.167
11
238.128
21
-104.282
0
LINE
8
BLACK
6
CONTINUOUS
10
238.128
20
-104.282
11
238.478
21
-104.359
0
LINE
8
BLACK
6
CONTINUOUS
10
238.478
20
-104.359
11
238.835
21
-104.398
0
LINE
8
BLACK
6
CONTINUOUS
10
238.835
20
-104.398
11
239.193
21
-104.398
0
LINE
8
BLACK
6
CONTINUOUS
10
239.193
20
-104.398
11
239.55
21
-104.359
0
LINE
8
BLACK
6
CONTINUOUS
10
239.55
20
-104.359
11
239.9
21
-104.282
0
LINE
8
BLACK
6
CONTINUOUS
10
239.9
20
-104.282
11
240.239
21
-104.167
0
LINE
8
BLACK
6
CONTINUOUS
10
240.239
20
-104.167
11
240.565
21
-104.017
0
LINE
8
BLACK
6
CONTINUOUS
10
240.565
20
-104.017
11
240.872
21
-103.832
0
LINE
8
BLACK
6
CONTINUOUS
10
240.872
20
-103.832
11
241.157
21
-103.615
0
LINE
8
BLACK
6
CONTINUOUS
10
241.157
20
-103.615
11
241.417
21
-103.369
0
LINE
8
BLACK
6
CONTINUOUS
10
241.417
20
-103.369
11
241.649
21
-103.095
0
LINE
8
BLACK
6
CONTINUOUS
10
241.649
20
-103.095
11
241.851
21
-102.799
0
LINE
8
BLACK
6
CONTINUOUS
10
241.851
20
-102.799
11
242.019
21
-102.482
0
LINE
8
BLACK
6
CONTINUOUS
10
242.019
20
-102.482
11
242.151
21
-102.149
0
LINE
8
BLACK
6
CONTINUOUS
10
242.151
20
-102.149
11
242.247
21
-101.804
0
LINE
8
BLACK
6
CONTINUOUS
10
242.247
20
-101.804
11
242.305
21
-101.45
0
LINE
8
BLACK
6
CONTINUOUS
10
242.305
20
-101.45
11
242.325
21
-101.092
0
LINE
8
BLACK
6
CONTINUOUS
10
242.325
20
-101.092
11
242.305
21
-100.734
0
LINE
8
BLACK
6
CONTINUOUS
10
242.305
20
-100.734
11
242.247
21
-100.38
0
LINE
8
BLACK
6
CONTINUOUS
10
242.247
20
-100.38
11
242.151
21
-100.035
0
LINE
8
BLACK
6
CONTINUOUS
10
242.151
20
-100.035
11
242.019
21
-99.702
0
LINE
8
BLACK
6
CONTINUOUS
10
242.019
20
-99.702
11
241.851
21
-99.3853
0
LINE
8
BLACK
6
CONTINUOUS
10
241.851
20
-99.3853
11
241.649
21
-99.0886
0
LINE
8
BLACK
6
CONTINUOUS
10
241.649
20
-99.0886
11
241.417
21
-98.8154
0
LINE
8
BLACK
6
CONTINUOUS
10
241.417
20
-98.8154
11
241.157
21
-98.5689
0
LINE
8
BLACK
6
CONTINUOUS
10
241.157
20
-98.5689
11
240.872
21
-98.3519
0
LINE
8
BLACK
6
CONTINUOUS
10
240.872
20
-98.3519
11
240.565
21
-98.1671
0
LINE
8
BLACK
6
CONTINUOUS
10
240.565
20
-98.1671
11
240.239
21
-98.0166
0
LINE
8
BLACK
6
CONTINUOUS
10
240.239
20
-98.0166
11
239.9
21
-97.9022
0
LINE
8
BLACK
6
CONTINUOUS
10
239.9
20
-97.9022
11
239.55
21
-97.8251
0
LINE
8
BLACK
6
CONTINUOUS
10
239.55
20
-97.8251
11
239.193
21
-97.7863
0
LINE
8
BLACK
6
CONTINUOUS
10
239.193
20
-97.7863
11
238.835
21
-97.7863
0
LINE
8
BLACK
6
CONTINUOUS
10
238.835
20
-97.7863
11
238.478
21
-97.8251
0
LINE
8
BLACK
6
CONTINUOUS
10
238.478
20
-97.8251
11
238.128
21
-97.9022
0
LINE
8
BLACK
6
CONTINUOUS
10
238.128
20
-97.9022
11
237.789
21
-98.0166
0
LINE
8
BLACK
6
CONTINUOUS
10
237.789
20
-98.0166
11
237.463
21
-98.1671
0
LINE
8
BLACK
6
CONTINUOUS
10
237.463
20
-98.1671
11
237.156
21
-98.3519
0
LINE
8
BLACK
6
CONTINUOUS
10
237.156
20
-98.3519
11
236.871
21
-98.5689
0
LINE
8
BLACK
6
CONTINUOUS
10
236.871
20
-98.5689
11
236.611
21
-98.8154
0
LINE
8
BLACK
6
CONTINUOUS
10
236.611
20
-98.8154
11
236.379
21
-99.0886
0
LINE
8
BLACK
6
CONTINUOUS
10
236.379
20
-99.0886
11
236.177
21
-99.3853
0
LINE
8
BLACK
6
CONTINUOUS
10
236.177
20
-99.3853
11
236.009
21
-99.702
0
LINE
8
BLACK
6
CONTINUOUS
10
236.009
20
-99.702
11
235.877
21
-100.035
0
LINE
8
BLACK
6
CONTINUOUS
10
235.877
20
-100.035
11
235.781
21
-100.38
0
LINE
8
BLACK
6
CONTINUOUS
10
235.781
20
-100.38
11
235.723
21
-100.734
0
LINE
8
BLACK
6
CONTINUOUS
10
235.723
20
-100.734
11
235.703
21
-101.092
0
LINE
8
BLACK
6
CONTINUOUS
10
250.71
20
-32.556
11
250.73
21
-32.3299
0
LINE
8
BLACK
6
CONTINUOUS
10
250.73
20
-32.3299
11
250.789
21
-32.1108
0
LINE
8
BLACK
6
CONTINUOUS
10
250.789
20
-32.1108
11
250.885
21
-31.9051
0
LINE
8
BLACK
6
CONTINUOUS
10
250.885
20
-31.9051
11
251.015
21
-31.7192
0
LINE
8
BLACK
6
CONTINUOUS
10
251.015
20
-31.7192
11
251.175
21
-31.5588
0
LINE
8
BLACK
6
CONTINUOUS
10
251.175
20
-31.5588
11
251.361
21
-31.4286
0
LINE
8
BLACK
6
CONTINUOUS
10
251.361
20
-31.4286
11
251.567
21
-31.3327
0
LINE
8
BLACK
6
CONTINUOUS
10
251.567
20
-31.3327
11
251.786
21
-31.274
0
LINE
8
BLACK
6
CONTINUOUS
10
251.786
20
-31.274
11
252.012
21
-31.2542
0
LINE
8
BLACK
6
CONTINUOUS
10
252.012
20
-31.2542
11
252.238
21
-31.274
0
LINE
8
BLACK
6
CONTINUOUS
10
252.238
20
-31.274
11
252.457
21
-31.3327
0
LINE
8
BLACK
6
CONTINUOUS
10
252.457
20
-31.3327
11
252.663
21
-31.4286
0
LINE
8
BLACK
6
CONTINUOUS
10
252.663
20
-31.4286
11
252.849
21
-31.5588
0
LINE
8
BLACK
6
CONTINUOUS
10
252.849
20
-31.5588
11
253.009
21
-31.7192
0
LINE
8
BLACK
6
CONTINUOUS
10
253.009
20
-31.7192
11
253.139
21
-31.9051
0
LINE
8
BLACK
6
CONTINUOUS
10
253.139
20
-31.9051
11
253.235
21
-32.1108
0
LINE
8
BLACK
6
CONTINUOUS
10
253.235
20
-32.1108
11
253.294
21
-32.3299
0
LINE
8
BLACK
6
CONTINUOUS
10
253.294
20
-32.3299
11
253.314
21
-32.556
0
LINE
8
BLACK
6
CONTINUOUS
10
253.314
20
-32.556
11
253.294
21
-32.7821
0
LINE
8
BLACK
6
CONTINUOUS
10
253.294
20
-32.7821
11
253.235
21
-33.0012
0
LINE
8
BLACK
6
CONTINUOUS
10
253.235
20
-33.0012
11
253.139
21
-33.2069
0
LINE
8
BLACK
6
CONTINUOUS
10
253.139
20
-33.2069
11
253.009
21
-33.3928
0
LINE
8
BLACK
6
CONTINUOUS
10
253.009
20
-33.3928
11
252.849
21
-33.5532
0
LINE
8
BLACK
6
CONTINUOUS
10
252.849
20
-33.5532
11
252.663
21
-33.6834
0
LINE
8
BLACK
6
CONTINUOUS
10
252.663
20
-33.6834
11
252.457
21
-33.7793
0
LINE
8
BLACK
6
CONTINUOUS
10
252.457
20
-33.7793
11
252.238
21
-33.838
0
LINE
8
BLACK
6
CONTINUOUS
10
252.238
20
-33.838
11
252.012
21
-33.8578
0
LINE
8
BLACK
6
CONTINUOUS
10
252.012
20
-33.8578
11
251.786
21
-33.838
0
LINE
8
BLACK
6
CONTINUOUS
10
251.786
20
-33.838
11
251.567
21
-33.7793
0
LINE
8
BLACK
6
CONTINUOUS
10
251.567
20
-33.7793
11
251.361
21
-33.6834
0
LINE
8
BLACK
6
CONTINUOUS
10
251.361
20
-33.6834
11
251.175
21
-33.5532
0
LINE
8
BLACK
6
CONTINUOUS
10
251.175
20
-33.5532
11
251.015
21
-33.3928
0
LINE
8
BLACK
6
CONTINUOUS
10
251.015
20
-33.3928
11
250.885
21
-33.2069
0
LINE
8
BLACK
6
CONTINUOUS
10
250.885
20
-33.2069
11
250.789
21
-33.0012
0
LINE
8
BLACK
6
CONTINUOUS
10
250.789
20
-33.0012
11
250.73
21
-32.7821
0
LINE
8
BLACK
6
CONTINUOUS
10
250.73
20
-32.7821
11
250.71
21
-32.556
0
LINE
8
BLACK
6
CONTINUOUS
10
250.855
20
-32.556
11
250.875
21
-32.7685
0
LINE
8
BLACK
6
CONTINUOUS
10
250.875
20
-32.7685
11
250.933
21
-32.9739
0
LINE
8
BLACK
6
CONTINUOUS
10
250.933
20
-32.9739
11
251.029
21
-33.1649
0
LINE
8
BLACK
6
CONTINUOUS
10
251.029
20
-33.1649
11
251.157
21
-33.3353
0
LINE
8
BLACK
6
CONTINUOUS
10
251.157
20
-33.3353
11
251.315
21
-33.4791
0
LINE
8
BLACK
6
CONTINUOUS
10
251.315
20
-33.4791
11
251.496
21
-33.5915
0
LINE
8
BLACK
6
CONTINUOUS
10
251.496
20
-33.5915
11
251.695
21
-33.6686
0
LINE
8
BLACK
6
CONTINUOUS
10
251.695
20
-33.6686
11
251.905
21
-33.7078
0
LINE
8
BLACK
6
CONTINUOUS
10
251.905
20
-33.7078
11
252.119
21
-33.7078
0
LINE
8
BLACK
6
CONTINUOUS
10
252.119
20
-33.7078
11
252.329
21
-33.6686
0
LINE
8
BLACK
6
CONTINUOUS
10
252.329
20
-33.6686
11
252.528
21
-33.5915
0
LINE
8
BLACK
6
CONTINUOUS
10
252.528
20
-33.5915
11
252.709
21
-33.4791
0
LINE
8
BLACK
6
CONTINUOUS
10
252.709
20
-33.4791
11
252.867
21
-33.3353
0
LINE
8
BLACK
6
CONTINUOUS
10
252.867
20
-33.3353
11
252.995
21
-33.1649
0
LINE
8
BLACK
6
CONTINUOUS
10
252.995
20
-33.1649
11
253.091
21
-32.9739
0
LINE
8
BLACK
6
CONTINUOUS
10
253.091
20
-32.9739
11
253.149
21
-32.7685
0
LINE
8
BLACK
6
CONTINUOUS
10
253.149
20
-32.7685
11
253.169
21
-32.556
0
LINE
8
BLACK
6
CONTINUOUS
10
253.169
20
-32.556
11
253.149
21
-32.3435
0
LINE
8
BLACK
6
CONTINUOUS
10
253.149
20
-32.3435
11
253.091
21
-32.1381
0
LINE
8
BLACK
6
CONTINUOUS
10
253.091
20
-32.1381
11
252.995
21
-31.9471
0
LINE
8
BLACK
6
CONTINUOUS
10
252.995
20
-31.9471
11
252.867
21
-31.7767
0
LINE
8
BLACK
6
CONTINUOUS
10
252.867
20
-31.7767
11
252.709
21
-31.6329
0
LINE
8
BLACK
6
CONTINUOUS
10
252.709
20
-31.6329
11
252.528
21
-31.5205
0
LINE
8
BLACK
6
CONTINUOUS
10
252.528
20
-31.5205
11
252.329
21
-31.4434
0
LINE
8
BLACK
6
CONTINUOUS
10
252.329
20
-31.4434
11
252.119
21
-31.4042
0
LINE
8
BLACK
6
CONTINUOUS
10
252.119
20
-31.4042
11
251.905
21
-31.4042
0
LINE
8
BLACK
6
CONTINUOUS
10
251.905
20
-31.4042
11
251.695
21
-31.4434
0
LINE
8
BLACK
6
CONTINUOUS
10
251.695
20
-31.4434
11
251.496
21
-31.5205
0
LINE
8
BLACK
6
CONTINUOUS
10
251.496
20
-31.5205
11
251.315
21
-31.6329
0
LINE
8
BLACK
6
CONTINUOUS
10
251.315
20
-31.6329
11
251.157
21
-31.7767
0
LINE
8
BLACK
6
CONTINUOUS
10
251.157
20
-31.7767
11
251.029
21
-31.9471
0
LINE
8
BLACK
6
CONTINUOUS
10
251.029
20
-31.9471
11
250.933
21
-32.1381
0
LINE
8
BLACK
6
CONTINUOUS
10
250.933
20
-32.1381
11
250.875
21
-32.3435
0
LINE
8
BLACK
6
CONTINUOUS
10
250.875
20
-32.3435
11
250.855
21
-32.556
0
LINE
8
BLACK
6
CONTINUOUS
10
248.423
20
-32.556
11
248.443
21
-32.1808
0
LINE
8
BLACK
6
CONTINUOUS
10
248.443
20
-32.1808
11
248.501
21
-31.8098
0
LINE
8
BLACK
6
CONTINUOUS
10
248.501
20
-31.8098
11
248.599
21
-31.4469
0
LINE
8
BLACK
6
CONTINUOUS
10
248.599
20
-31.4469
11
248.733
21
-31.0962
0
LINE
8
BLACK
6
CONTINUOUS
10
248.733
20
-31.0962
11
248.904
21
-30.7615
0
LINE
8
BLACK
6
CONTINUOUS
10
248.904
20
-30.7615
11
249.108
21
-30.4464
0
LINE
8
BLACK
6
CONTINUOUS
10
249.108
20
-30.4464
11
249.345
21
-30.1545
0
LINE
8
BLACK
6
CONTINUOUS
10
249.345
20
-30.1545
11
249.61
21
-29.8889
0
LINE
8
BLACK
6
CONTINUOUS
10
249.61
20
-29.8889
11
249.902
21
-29.6524
0
LINE
8
BLACK
6
CONTINUOUS
10
249.902
20
-29.6524
11
250.218
21
-29.4478
0
LINE
8
BLACK
6
CONTINUOUS
10
250.218
20
-29.4478
11
250.552
21
-29.2773
0
LINE
8
BLACK
6
CONTINUOUS
10
250.552
20
-29.2773
11
250.903
21
-29.1427
0
LINE
8
BLACK
6
CONTINUOUS
10
250.903
20
-29.1427
11
251.266
21
-29.0454
0
LINE
8
BLACK
6
CONTINUOUS
10
251.266
20
-29.0454
11
251.637
21
-28.9867
0
LINE
8
BLACK
6
CONTINUOUS
10
251.637
20
-28.9867
11
252.012
21
-28.967
0
LINE
8
BLACK
6
CONTINUOUS
10
252.012
20
-28.967
11
252.387
21
-28.9867
0
LINE
8
BLACK
6
CONTINUOUS
10
252.387
20
-28.9867
11
252.758
21
-29.0454
0
LINE
8
BLACK
6
CONTINUOUS
10
252.758
20
-29.0454
11
253.121
21
-29.1427
0
LINE
8
BLACK
6
CONTINUOUS
10
253.121
20
-29.1427
11
253.472
21
-29.2773
0
LINE
8
BLACK
6
CONTINUOUS
10
253.472
20
-29.2773
11
253.807
21
-29.4478
0
LINE
8
BLACK
6
CONTINUOUS
10
253.807
20
-29.4478
11
254.122
21
-29.6524
0
LINE
8
BLACK
6
CONTINUOUS
10
254.122
20
-29.6524
11
254.414
21
-29.8889
0
LINE
8
BLACK
6
CONTINUOUS
10
254.414
20
-29.8889
11
254.679
21
-30.1545
0
LINE
8
BLACK
6
CONTINUOUS
10
254.679
20
-30.1545
11
254.916
21
-30.4464
0
LINE
8
BLACK
6
CONTINUOUS
10
254.916
20
-30.4464
11
255.12
21
-30.7615
0
LINE
8
BLACK
6
CONTINUOUS
10
255.12
20
-30.7615
11
255.291
21
-31.0962
0
LINE
8
BLACK
6
CONTINUOUS
10
255.291
20
-31.0962
11
255.425
21
-31.4469
0
LINE
8
BLACK
6
CONTINUOUS
10
255.425
20
-31.4469
11
255.523
21
-31.8098
0
LINE
8
BLACK
6
CONTINUOUS
10
255.523
20
-31.8098
11
255.581
21
-32.1808
0
LINE
8
BLACK
6
CONTINUOUS
10
255.581
20
-32.1808
11
255.601
21
-32.556
0
LINE
8
BLACK
6
CONTINUOUS
10
255.601
20
-32.556
11
255.581
21
-32.9312
0
LINE
8
BLACK
6
CONTINUOUS
10
255.581
20
-32.9312
11
255.523
21
-33.3022
0
LINE
8
BLACK
6
CONTINUOUS
10
255.523
20
-33.3022
11
255.425
21
-33.6651
0
LINE
8
BLACK
6
CONTINUOUS
10
255.425
20
-33.6651
11
255.291
21
-34.0158
0
LINE
8
BLACK
6
CONTINUOUS
10
255.291
20
-34.0158
11
255.12
21
-34.3505
0
LINE
8
BLACK
6
CONTINUOUS
10
255.12
20
-34.3505
11
254.916
21
-34.6656
0
LINE
8
BLACK
6
CONTINUOUS
10
254.916
20
-34.6656
11
254.679
21
-34.9575
0
LINE
8
BLACK
6
CONTINUOUS
10
254.679
20
-34.9575
11
254.414
21
-35.2231
0
LINE
8
BLACK
6
CONTINUOUS
10
254.414
20
-35.2231
11
254.122
21
-35.4596
0
LINE
8
BLACK
6
CONTINUOUS
10
254.122
20
-35.4596
11
253.807
21
-35.6642
0
LINE
8
BLACK
6
CONTINUOUS
10
253.807
20
-35.6642
11
253.472
21
-35.8347
0
LINE
8
BLACK
6
CONTINUOUS
10
253.472
20
-35.8347
11
253.121
21
-35.9693
0
LINE
8
BLACK
6
CONTINUOUS
10
253.121
20
-35.9693
11
252.758
21
-36.0666
0
LINE
8
BLACK
6
CONTINUOUS
10
252.758
20
-36.0666
11
252.387
21
-36.1253
0
LINE
8
BLACK
6
CONTINUOUS
10
252.387
20
-36.1253
11
252.012
21
-36.145
0
LINE
8
BLACK
6
CONTINUOUS
10
252.012
20
-36.145
11
251.637
21
-36.1253
0
LINE
8
BLACK
6
CONTINUOUS
10
251.637
20
-36.1253
11
251.266
21
-36.0666
0
LINE
8
BLACK
6
CONTINUOUS
10
251.266
20
-36.0666
11
250.903
21
-35.9693
0
LINE
8
BLACK
6
CONTINUOUS
10
250.903
20
-35.9693
11
250.552
21
-35.8347
0
LINE
8
BLACK
6
CONTINUOUS
10
250.552
20
-35.8347
11
250.217
21
-35.6642
0
LINE
8
BLACK
6
CONTINUOUS
10
250.217
20
-35.6642
11
249.902
21
-35.4596
0
LINE
8
BLACK
6
CONTINUOUS
10
249.902
20
-35.4596
11
249.61
21
-35.2231
0
LINE
8
BLACK
6
CONTINUOUS
10
249.61
20
-35.2231
11
249.345
21
-34.9575
0
LINE
8
BLACK
6
CONTINUOUS
10
249.345
20
-34.9575
11
249.108
21
-34.6656
0
LINE
8
BLACK
6
CONTINUOUS
10
249.108
20
-34.6656
11
248.904
21
-34.3505
0
LINE
8
BLACK
6
CONTINUOUS
10
248.904
20
-34.3505
11
248.733
21
-34.0158
0
LINE
8
BLACK
6
CONTINUOUS
10
248.733
20
-34.0158
11
248.599
21
-33.6651
0
LINE
8
BLACK
6
CONTINUOUS
10
248.599
20
-33.6651
11
248.501
21
-33.3022
0
LINE
8
BLACK
6
CONTINUOUS
10
248.501
20
-33.3022
11
248.443
21
-32.9312
0
LINE
8
BLACK
6
CONTINUOUS
10
248.443
20
-32.9312
11
248.423
21
-32.556
0
LINE
8
BLACK
6
CONTINUOUS
10
248.568
20
-32.556
11
248.588
21
-32.9284
0
LINE
8
BLACK
6
CONTINUOUS
10
248.588
20
-32.9284
11
248.648
21
-33.2964
0
LINE
8
BLACK
6
CONTINUOUS
10
248.648
20
-33.2964
11
248.748
21
-33.6557
0
LINE
8
BLACK
6
CONTINUOUS
10
248.748
20
-33.6557
11
248.886
21
-34.0021
0
LINE
8
BLACK
6
CONTINUOUS
10
248.886
20
-34.0021
11
249.061
21
-34.3316
0
LINE
8
BLACK
6
CONTINUOUS
10
249.061
20
-34.3316
11
249.27
21
-34.6403
0
LINE
8
BLACK
6
CONTINUOUS
10
249.27
20
-34.6403
11
249.512
21
-34.9245
0
LINE
8
BLACK
6
CONTINUOUS
10
249.512
20
-34.9245
11
249.782
21
-35.1809
0
LINE
8
BLACK
6
CONTINUOUS
10
249.782
20
-35.1809
11
250.079
21
-35.4066
0
LINE
8
BLACK
6
CONTINUOUS
10
250.079
20
-35.4066
11
250.399
21
-35.5989
0
LINE
8
BLACK
6
CONTINUOUS
10
250.399
20
-35.5989
11
250.737
21
-35.7554
0
LINE
8
BLACK
6
CONTINUOUS
10
250.737
20
-35.7554
11
251.091
21
-35.8745
0
LINE
8
BLACK
6
CONTINUOUS
10
251.091
20
-35.8745
11
251.455
21
-35.9547
0
LINE
8
BLACK
6
CONTINUOUS
10
251.455
20
-35.9547
11
251.826
21
-35.995
0
LINE
8
BLACK
6
CONTINUOUS
10
251.826
20
-35.995
11
252.198
21
-35.995
0
LINE
8
BLACK
6
CONTINUOUS
10
252.198
20
-35.995
11
252.569
21
-35.9547
0
LINE
8
BLACK
6
CONTINUOUS
10
252.569
20
-35.9547
11
252.933
21
-35.8745
0
LINE
8
BLACK
6
CONTINUOUS
10
252.933
20
-35.8745
11
253.287
21
-35.7554
0
LINE
8
BLACK
6
CONTINUOUS
10
253.287
20
-35.7554
11
253.625
21
-35.5989
0
LINE
8
BLACK
6
CONTINUOUS
10
253.625
20
-35.5989
11
253.945
21
-35.4066
0
LINE
8
BLACK
6
CONTINUOUS
10
253.945
20
-35.4066
11
254.242
21
-35.1809
0
LINE
8
BLACK
6
CONTINUOUS
10
254.242
20
-35.1809
11
254.512
21
-34.9245
0
LINE
8
BLACK
6
CONTINUOUS
10
254.512
20
-34.9245
11
254.754
21
-34.6403
0
LINE
8
BLACK
6
CONTINUOUS
10
254.754
20
-34.6403
11
254.963
21
-34.3316
0
LINE
8
BLACK
6
CONTINUOUS
10
254.963
20
-34.3316
11
255.138
21
-34.0021
0
LINE
8
BLACK
6
CONTINUOUS
10
255.138
20
-34.0021
11
255.276
21
-33.6557
0
LINE
8
BLACK
6
CONTINUOUS
10
255.276
20
-33.6557
11
255.376
21
-33.2964
0
LINE
8
BLACK
6
CONTINUOUS
10
255.376
20
-33.2964
11
255.436
21
-32.9284
0
LINE
8
BLACK
6
CONTINUOUS
10
255.436
20
-32.9284
11
255.456
21
-32.556
0
LINE
8
BLACK
6
CONTINUOUS
10
255.456
20
-32.556
11
255.436
21
-32.1836
0
LINE
8
BLACK
6
CONTINUOUS
10
255.436
20
-32.1836
11
255.376
21
-31.8156
0
LINE
8
BLACK
6
CONTINUOUS
10
255.376
20
-31.8156
11
255.276
21
-31.4563
0
LINE
8
BLACK
6
CONTINUOUS
10
255.276
20
-31.4563
11
255.138
21
-31.1099
0
LINE
8
BLACK
6
CONTINUOUS
10
255.138
20
-31.1099
11
254.963
21
-30.7804
0
LINE
8
BLACK
6
CONTINUOUS
10
254.963
20
-30.7804
11
254.754
21
-30.4717
0
LINE
8
BLACK
6
CONTINUOUS
10
254.754
20
-30.4717
11
254.512
21
-30.1875
0
LINE
8
BLACK
6
CONTINUOUS
10
254.512
20
-30.1875
11
254.242
21
-29.9311
0
LINE
8
BLACK
6
CONTINUOUS
10
254.242
20
-29.9311
11
253.945
21
-29.7054
0
LINE
8
BLACK
6
CONTINUOUS
10
253.945
20
-29.7054
11
253.625
21
-29.5131
0
LINE
8
BLACK
6
CONTINUOUS
10
253.625
20
-29.5131
11
253.287
21
-29.3566
0
LINE
8
BLACK
6
CONTINUOUS
10
253.287
20
-29.3566
11
252.933
21
-29.2375
0
LINE
8
BLACK
6
CONTINUOUS
10
252.933
20
-29.2375
11
252.569
21
-29.1573
0
LINE
8
BLACK
6
CONTINUOUS
10
252.569
20
-29.1573
11
252.198
21
-29.117
0
LINE
8
BLACK
6
CONTINUOUS
10
252.198
20
-29.117
11
251.826
21
-29.117
0
LINE
8
BLACK
6
CONTINUOUS
10
251.826
20
-29.117
11
251.455
21
-29.1573
0
LINE
8
BLACK
6
CONTINUOUS
10
251.455
20
-29.1573
11
251.091
21
-29.2375
0
LINE
8
BLACK
6
CONTINUOUS
10
251.091
20
-29.2375
11
250.737
21
-29.3566
0
LINE
8
BLACK
6
CONTINUOUS
10
250.737
20
-29.3566
11
250.399
21
-29.5131
0
LINE
8
BLACK
6
CONTINUOUS
10
250.399
20
-29.5131
11
250.079
21
-29.7054
0
LINE
8
BLACK
6
CONTINUOUS
10
250.079
20
-29.7054
11
249.782
21
-29.9311
0
LINE
8
BLACK
6
CONTINUOUS
10
249.782
20
-29.9311
11
249.512
21
-30.1875
0
LINE
8
BLACK
6
CONTINUOUS
10
249.512
20
-30.1875
11
249.27
21
-30.4717
0
LINE
8
BLACK
6
CONTINUOUS
10
249.27
20
-30.4717
11
249.061
21
-30.7804
0
LINE
8
BLACK
6
CONTINUOUS
10
249.061
20
-30.7804
11
248.886
21
-31.1099
0
LINE
8
BLACK
6
CONTINUOUS
10
248.886
20
-31.1099
11
248.748
21
-31.4563
0
LINE
8
BLACK
6
CONTINUOUS
10
248.748
20
-31.4563
11
248.648
21
-31.8156
0
LINE
8
BLACK
6
CONTINUOUS
10
248.648
20
-31.8156
11
248.588
21
-32.1836
0
LINE
8
BLACK
6
CONTINUOUS
10
248.588
20
-32.1836
11
248.568
21
-32.556
0
LINE
8
BLACK
6
CONTINUOUS
10
52.503
20
-30.734
11
52.5234
21
-30.5004
0
LINE
8
BLACK
6
CONTINUOUS
10
52.5234
20
-30.5004
11
52.5841
21
-30.274
0
LINE
8
BLACK
6
CONTINUOUS
10
52.5841
20
-30.274
11
52.6832
21
-30.0615
0
LINE
8
BLACK
6
CONTINUOUS
10
52.6832
20
-30.0615
11
52.8177
21
-29.8695
0
LINE
8
BLACK
6
CONTINUOUS
10
52.8177
20
-29.8695
11
52.9835
21
-29.7037
0
LINE
8
BLACK
6
CONTINUOUS
10
52.9835
20
-29.7037
11
53.1755
21
-29.5692
0
LINE
8
BLACK
6
CONTINUOUS
10
53.1755
20
-29.5692
11
53.388
21
-29.4701
0
LINE
8
BLACK
6
CONTINUOUS
10
53.388
20
-29.4701
11
53.6144
21
-29.4094
0
LINE
8
BLACK
6
CONTINUOUS
10
53.6144
20
-29.4094
11
53.848
21
-29.389
0
LINE
8
BLACK
6
CONTINUOUS
10
53.848
20
-29.389
11
54.0816
21
-29.4094
0
LINE
8
BLACK
6
CONTINUOUS
10
54.0816
20
-29.4094
11
54.308
21
-29.4701
0
LINE
8
BLACK
6
CONTINUOUS
10
54.308
20
-29.4701
11
54.5205
21
-29.5692
0
LINE
8
BLACK
6
CONTINUOUS
10
54.5205
20
-29.5692
11
54.7125
21
-29.7037
0
LINE
8
BLACK
6
CONTINUOUS
10
54.7125
20
-29.7037
11
54.8783
21
-29.8695
0
LINE
8
BLACK
6
CONTINUOUS
10
54.8783
20
-29.8695
11
55.0128
21
-30.0615
0
LINE
8
BLACK
6
CONTINUOUS
10
55.0128
20
-30.0615
11
55.1119
21
-30.274
0
LINE
8
BLACK
6
CONTINUOUS
10
55.1119
20
-30.274
11
55.1726
21
-30.5004
0
LINE
8
BLACK
6
CONTINUOUS
10
55.1726
20
-30.5004
11
55.193
21
-30.734
0
LINE
8
BLACK
6
CONTINUOUS
10
55.193
20
-30.734
11
55.1726
21
-30.9676
0
LINE
8
BLACK
6
CONTINUOUS
10
55.1726
20
-30.9676
11
55.1119
21
-31.194
0
LINE
8
BLACK
6
CONTINUOUS
10
55.1119
20
-31.194
11
55.0128
21
-31.4065
0
LINE
8
BLACK
6
CONTINUOUS
10
55.0128
20
-31.4065
11
54.8783
21
-31.5985
0
LINE
8
BLACK
6
CONTINUOUS
10
54.8783
20
-31.5985
11
54.7125
21
-31.7643
0
LINE
8
BLACK
6
CONTINUOUS
10
54.7125
20
-31.7643
11
54.5205
21
-31.8988
0
LINE
8
BLACK
6
CONTINUOUS
10
54.5205
20
-31.8988
11
54.308
21
-31.9979
0
LINE
8
BLACK
6
CONTINUOUS
10
54.308
20
-31.9979
11
54.0816
21
-32.0586
0
LINE
8
BLACK
6
CONTINUOUS
10
54.0816
20
-32.0586
11
53.848
21
-32.079
0
LINE
8
BLACK
6
CONTINUOUS
10
53.848
20
-32.079
11
53.6144
21
-32.0586
0
LINE
8
BLACK
6
CONTINUOUS
10
53.6144
20
-32.0586
11
53.388
21
-31.9979
0
LINE
8
BLACK
6
CONTINUOUS
10
53.388
20
-31.9979
11
53.1755
21
-31.8988
0
LINE
8
BLACK
6
CONTINUOUS
10
53.1755
20
-31.8988
11
52.9835
21
-31.7643
0
LINE
8
BLACK
6
CONTINUOUS
10
52.9835
20
-31.7643
11
52.8177
21
-31.5985
0
LINE
8
BLACK
6
CONTINUOUS
10
52.8177
20
-31.5985
11
52.6832
21
-31.4065
0
LINE
8
BLACK
6
CONTINUOUS
10
52.6832
20
-31.4065
11
52.5841
21
-31.194
0
LINE
8
BLACK
6
CONTINUOUS
10
52.5841
20
-31.194
11
52.5234
21
-30.9676
0
LINE
8
BLACK
6
CONTINUOUS
10
52.5234
20
-30.9676
11
52.503
21
-30.734
0
LINE
8
BLACK
6
CONTINUOUS
10
52.6479
20
-30.734
11
52.6683
21
-30.9545
0
LINE
8
BLACK
6
CONTINUOUS
10
52.6683
20
-30.9545
11
52.7289
21
-31.1675
0
LINE
8
BLACK
6
CONTINUOUS
10
52.7289
20
-31.1675
11
52.8276
21
-31.3658
0
LINE
8
BLACK
6
CONTINUOUS
10
52.8276
20
-31.3658
11
52.9611
21
-31.5425
0
LINE
8
BLACK
6
CONTINUOUS
10
52.9611
20
-31.5425
11
53.1248
21
-31.6917
0
LINE
8
BLACK
6
CONTINUOUS
10
53.1248
20
-31.6917
11
53.3131
21
-31.8083
0
LINE
8
BLACK
6
CONTINUOUS
10
53.3131
20
-31.8083
11
53.5196
21
-31.8883
0
LINE
8
BLACK
6
CONTINUOUS
10
53.5196
20
-31.8883
11
53.7373
21
-31.929
0
LINE
8
BLACK
6
CONTINUOUS
10
53.7373
20
-31.929
11
53.9587
21
-31.929
0
LINE
8
BLACK
6
CONTINUOUS
10
53.9587
20
-31.929
11
54.1764
21
-31.8883
0
LINE
8
BLACK
6
CONTINUOUS
10
54.1764
20
-31.8883
11
54.3829
21
-31.8083
0
LINE
8
BLACK
6
CONTINUOUS
10
54.3829
20
-31.8083
11
54.5712
21
-31.6917
0
LINE
8
BLACK
6
CONTINUOUS
10
54.5712
20
-31.6917
11
54.7349
21
-31.5425
0
LINE
8
BLACK
6
CONTINUOUS
10
54.7349
20
-31.5425
11
54.8684
21
-31.3658
0
LINE
8
BLACK
6
CONTINUOUS
10
54.8684
20
-31.3658
11
54.9671
21
-31.1675
0
LINE
8
BLACK
6
CONTINUOUS
10
54.9671
20
-31.1675
11
55.0277
21
-30.9545
0
LINE
8
BLACK
6
CONTINUOUS
10
55.0277
20
-30.9545
11
55.0481
21
-30.734
0
LINE
8
BLACK
6
CONTINUOUS
10
55.0481
20
-30.734
11
55.0277
21
-30.5135
0
LINE
8
BLACK
6
CONTINUOUS
10
55.0277
20
-30.5135
11
54.9671
21
-30.3005
0
LINE
8
BLACK
6
CONTINUOUS
10
54.9671
20
-30.3005
11
54.8684
21
-30.1022
0
LINE
8
BLACK
6
CONTINUOUS
10
54.8684
20
-30.1022
11
54.7349
21
-29.9255
0
LINE
8
BLACK
6
CONTINUOUS
10
54.7349
20
-29.9255
11
54.5712
21
-29.7763
0
LINE
8
BLACK
6
CONTINUOUS
10
54.5712
20
-29.7763
11
54.3829
21
-29.6597
0
LINE
8
BLACK
6
CONTINUOUS
10
54.3829
20
-29.6597
11
54.1764
21
-29.5797
0
LINE
8
BLACK
6
CONTINUOUS
10
54.1764
20
-29.5797
11
53.9587
21
-29.539
0
LINE
8
BLACK
6
CONTINUOUS
10
53.9587
20
-29.539
11
53.7373
21
-29.539
0
LINE
8
BLACK
6
CONTINUOUS
10
53.7373
20
-29.539
11
53.5196
21
-29.5797
0
LINE
8
BLACK
6
CONTINUOUS
10
53.5196
20
-29.5797
11
53.3131
21
-29.6597
0
LINE
8
BLACK
6
CONTINUOUS
10
53.3131
20
-29.6597
11
53.1248
21
-29.7763
0
LINE
8
BLACK
6
CONTINUOUS
10
53.1248
20
-29.7763
11
52.9611
21
-29.9255
0
LINE
8
BLACK
6
CONTINUOUS
10
52.9611
20
-29.9255
11
52.8276
21
-30.1022
0
LINE
8
BLACK
6
CONTINUOUS
10
52.8276
20
-30.1022
11
52.7289
21
-30.3005
0
LINE
8
BLACK
6
CONTINUOUS
10
52.7289
20
-30.3005
11
52.6683
21
-30.5135
0
LINE
8
BLACK
6
CONTINUOUS
10
52.6683
20
-30.5135
11
52.6479
21
-30.734
0
LINE
8
BLACK
6
CONTINUOUS
10
50.2392
20
-30.734
11
50.2589
21
-30.3568
0
LINE
8
BLACK
6
CONTINUOUS
10
50.2589
20
-30.3568
11
50.318
21
-29.9837
0
LINE
8
BLACK
6
CONTINUOUS
10
50.318
20
-29.9837
11
50.4158
21
-29.6188
0
LINE
8
BLACK
6
CONTINUOUS
10
50.4158
20
-29.6188
11
50.5512
21
-29.2662
0
LINE
8
BLACK
6
CONTINUOUS
10
50.5512
20
-29.2662
11
50.7227
21
-28.9296
0
LINE
8
BLACK
6
CONTINUOUS
10
50.7227
20
-28.9296
11
50.9284
21
-28.6128
0
LINE
8
BLACK
6
CONTINUOUS
10
50.9284
20
-28.6128
11
51.1661
21
-28.3192
0
LINE
8
BLACK
6
CONTINUOUS
10
51.1661
20
-28.3192
11
51.4332
21
-28.0521
0
LINE
8
BLACK
6
CONTINUOUS
10
51.4332
20
-28.0521
11
51.7268
21
-27.8144
0
LINE
8
BLACK
6
CONTINUOUS
10
51.7268
20
-27.8144
11
52.0436
21
-27.6087
0
LINE
8
BLACK
6
CONTINUOUS
10
52.0436
20
-27.6087
11
52.3802
21
-27.4372
0
LINE
8
BLACK
6
CONTINUOUS
10
52.3802
20
-27.4372
11
52.7328
21
-27.3018
0
LINE
8
BLACK
6
CONTINUOUS
10
52.7328
20
-27.3018
11
53.0977
21
-27.204
0
LINE
8
BLACK
6
CONTINUOUS
10
53.0977
20
-27.204
11
53.4708
21
-27.1449
0
LINE
8
BLACK
6
CONTINUOUS
10
53.4708
20
-27.1449
11
53.848
21
-27.1252
0
LINE
8
BLACK
6
CONTINUOUS
10
53.848
20
-27.1252
11
54.2252
21
-27.1449
0
LINE
8
BLACK
6
CONTINUOUS
10
54.2252
20
-27.1449
11
54.5983
21
-27.204
0
LINE
8
BLACK
6
CONTINUOUS
10
54.5983
20
-27.204
11
54.9632
21
-27.3018
0
LINE
8
BLACK
6
CONTINUOUS
10
54.9632
20
-27.3018
11
55.3158
21
-27.4372
0
LINE
8
BLACK
6
CONTINUOUS
10
55.3158
20
-27.4372
11
55.6524
21
-27.6087
0
LINE
8
BLACK
6
CONTINUOUS
10
55.6524
20
-27.6087
11
55.9692
21
-27.8144
0
LINE
8
BLACK
6
CONTINUOUS
10
55.9692
20
-27.8144
11
56.2628
21
-28.0521
0
LINE
8
BLACK
6
CONTINUOUS
10
56.2628
20
-28.0521
11
56.5299
21
-28.3192
0
LINE
8
BLACK
6
CONTINUOUS
10
56.5299
20
-28.3192
11
56.7676
21
-28.6128
0
LINE
8
BLACK
6
CONTINUOUS
10
56.7676
20
-28.6128
11
56.9733
21
-28.9296
0
LINE
8
BLACK
6
CONTINUOUS
10
56.9733
20
-28.9296
11
57.1448
21
-29.2662
0
LINE
8
BLACK
6
CONTINUOUS
10
57.1448
20
-29.2662
11
57.2802
21
-29.6188
0
LINE
8
BLACK
6
CONTINUOUS
10
57.2802
20
-29.6188
11
57.378
21
-29.9837
0
LINE
8
BLACK
6
CONTINUOUS
10
57.378
20
-29.9837
11
57.4371
21
-30.3568
0
LINE
8
BLACK
6
CONTINUOUS
10
57.4371
20
-30.3568
11
57.4568
21
-30.734
0
LINE
8
BLACK
6
CONTINUOUS
10
57.4568
20
-30.734
11
57.4371
21
-31.1112
0
LINE
8
BLACK
6
CONTINUOUS
10
57.4371
20
-31.1112
11
57.378
21
-31.4843
0
LINE
8
BLACK
6
CONTINUOUS
10
57.378
20
-31.4843
11
57.2802
21
-31.8492
0
LINE
8
BLACK
6
CONTINUOUS
10
57.2802
20
-31.8492
11
57.1448
21
-32.2018
0
LINE
8
BLACK
6
CONTINUOUS
10
57.1448
20
-32.2018
11
56.9733
21
-32.5384
0
LINE
8
BLACK
6
CONTINUOUS
10
56.9733
20
-32.5384
11
56.7676
21
-32.8552
0
LINE
8
BLACK
6
CONTINUOUS
10
56.7676
20
-32.8552
11
56.5299
21
-33.1488
0
LINE
8
BLACK
6
CONTINUOUS
10
56.5299
20
-33.1488
11
56.2628
21
-33.4159
0
LINE
8
BLACK
6
CONTINUOUS
10
56.2628
20
-33.4159
11
55.9692
21
-33.6536
0
LINE
8
BLACK
6
CONTINUOUS
10
55.9692
20
-33.6536
11
55.6524
21
-33.8593
0
LINE
8
BLACK
6
CONTINUOUS
10
55.6524
20
-33.8593
11
55.3158
21
-34.0308
0
LINE
8
BLACK
6
CONTINUOUS
10
55.3158
20
-34.0308
11
54.9632
21
-34.1662
0
LINE
8
BLACK
6
CONTINUOUS
10
54.9632
20
-34.1662
11
54.5983
21
-34.264
0
LINE
8
BLACK
6
CONTINUOUS
10
54.5983
20
-34.264
11
54.2252
21
-34.3231
0
LINE
8
BLACK
6
CONTINUOUS
10
54.2252
20
-34.3231
11
53.848
21
-34.3428
0
LINE
8
BLACK
6
CONTINUOUS
10
53.848
20
-34.3428
11
53.4708
21
-34.3231
0
LINE
8
BLACK
6
CONTINUOUS
10
53.4708
20
-34.3231
11
53.0977
21
-34.264
0
LINE
8
BLACK
6
CONTINUOUS
10
53.0977
20
-34.264
11
52.7328
21
-34.1662
0
LINE
8
BLACK
6
CONTINUOUS
10
52.7328
20
-34.1662
11
52.3802
21
-34.0308
0
LINE
8
BLACK
6
CONTINUOUS
10
52.3802
20
-34.0308
11
52.0436
21
-33.8593
0
LINE
8
BLACK
6
CONTINUOUS
10
52.0436
20
-33.8593
11
51.7268
21
-33.6536
0
LINE
8
BLACK
6
CONTINUOUS
10
51.7268
20
-33.6536
11
51.4332
21
-33.4159
0
LINE
8
BLACK
6
CONTINUOUS
10
51.4332
20
-33.4159
11
51.1661
21
-33.1488
0
LINE
8
BLACK
6
CONTINUOUS
10
51.1661
20
-33.1488
11
50.9284
21
-32.8552
0
LINE
8
BLACK
6
CONTINUOUS
10
50.9284
20
-32.8552
11
50.7227
21
-32.5384
0
LINE
8
BLACK
6
CONTINUOUS
10
50.7227
20
-32.5384
11
50.5512
21
-32.2018
0
LINE
8
BLACK
6
CONTINUOUS
10
50.5512
20
-32.2018
11
50.4158
21
-31.8492
0
LINE
8
BLACK
6
CONTINUOUS
10
50.4158
20
-31.8492
11
50.318
21
-31.4843
0
LINE
8
BLACK
6
CONTINUOUS
10
50.318
20
-31.4843
11
50.2589
21
-31.1112
0
LINE
8
BLACK
6
CONTINUOUS
10
50.2589
20
-31.1112
11
50.2392
21
-30.734
0
LINE
8
BLACK
6
CONTINUOUS
10
50.3841
20
-30.734
11
50.4044
21
-31.1085
0
LINE
8
BLACK
6
CONTINUOUS
10
50.4044
20
-31.1085
11
50.4651
21
-31.4786
0
LINE
8
BLACK
6
CONTINUOUS
10
50.4651
20
-31.4786
11
50.5654
21
-31.84
0
LINE
8
BLACK
6
CONTINUOUS
10
50.5654
20
-31.84
11
50.7042
21
-32.1885
0
LINE
8
BLACK
6
CONTINUOUS
10
50.7042
20
-32.1885
11
50.8799
21
-32.5198
0
LINE
8
BLACK
6
CONTINUOUS
10
50.8799
20
-32.5198
11
51.0904
21
-32.8303
0
LINE
8
BLACK
6
CONTINUOUS
10
51.0904
20
-32.8303
11
51.3332
21
-33.1161
0
LINE
8
BLACK
6
CONTINUOUS
10
51.3332
20
-33.1161
11
51.6055
21
-33.3741
0
LINE
8
BLACK
6
CONTINUOUS
10
51.6055
20
-33.3741
11
51.9041
21
-33.601
0
LINE
8
BLACK
6
CONTINUOUS
10
51.9041
20
-33.601
11
52.2255
21
-33.7944
0
LINE
8
BLACK
6
CONTINUOUS
10
52.2255
20
-33.7944
11
52.5659
21
-33.9519
0
LINE
8
BLACK
6
CONTINUOUS
10
52.5659
20
-33.9519
11
52.9213
21
-34.0717
0
LINE
8
BLACK
6
CONTINUOUS
10
52.9213
20
-34.0717
11
53.2876
21
-34.1523
0
LINE
8
BLACK
6
CONTINUOUS
10
53.2876
20
-34.1523
11
53.6605
21
-34.1928
0
LINE
8
BLACK
6
CONTINUOUS
10
53.6605
20
-34.1928
11
54.0355
21
-34.1928
0
LINE
8
BLACK
6
CONTINUOUS
10
54.0355
20
-34.1928
11
54.4084
21
-34.1523
0
LINE
8
BLACK
6
CONTINUOUS
10
54.4084
20
-34.1523
11
54.7747
21
-34.0717
0
LINE
8
BLACK
6
CONTINUOUS
10
54.7747
20
-34.0717
11
55.1301
21
-33.9519
0
LINE
8
BLACK
6
CONTINUOUS
10
55.1301
20
-33.9519
11
55.4705
21
-33.7944
0
LINE
8
BLACK
6
CONTINUOUS
10
55.4705
20
-33.7944
11
55.7919
21
-33.601
0
LINE
8
BLACK
6
CONTINUOUS
10
55.7919
20
-33.601
11
56.0905
21
-33.3741
0
LINE
8
BLACK
6
CONTINUOUS
10
56.0905
20
-33.3741
11
56.3628
21
-33.1161
0
LINE
8
BLACK
6
CONTINUOUS
10
56.3628
20
-33.1161
11
56.6056
21
-32.8303
0
LINE
8
BLACK
6
CONTINUOUS
10
56.6056
20
-32.8303
11
56.8161
21
-32.5198
0
LINE
8
BLACK
6
CONTINUOUS
10
56.8161
20
-32.5198
11
56.9918
21
-32.1885
0
LINE
8
BLACK
6
CONTINUOUS
10
56.9918
20
-32.1885
11
57.1306
21
-31.84
0
LINE
8
BLACK
6
CONTINUOUS
10
57.1306
20
-31.84
11
57.2309
21
-31.4786
0
LINE
8
BLACK
6
CONTINUOUS
10
57.2309
20
-31.4786
11
57.2916
21
-31.1085
0
LINE
8
BLACK
6
CONTINUOUS
10
57.2916
20
-31.1085
11
57.3119
21
-30.734
0
LINE
8
BLACK
6
CONTINUOUS
10
57.3119
20
-30.734
11
57.2916
21
-30.3595
0
LINE
8
BLACK
6
CONTINUOUS
10
57.2916
20
-30.3595
11
57.2309
21
-29.9894
0
LINE
8
BLACK
6
CONTINUOUS
10
57.2309
20
-29.9894
11
57.1306
21
-29.628
0
LINE
8
BLACK
6
CONTINUOUS
10
57.1306
20
-29.628
11
56.9918
21
-29.2795
0
LINE
8
BLACK
6
CONTINUOUS
10
56.9918
20
-29.2795
11
56.8161
21
-28.9482
0
LINE
8
BLACK
6
CONTINUOUS
10
56.8161
20
-28.9482
11
56.6056
21
-28.6377
0
LINE
8
BLACK
6
CONTINUOUS
10
56.6056
20
-28.6377
11
56.3628
21
-28.3519
0
LINE
8
BLACK
6
CONTINUOUS
10
56.3628
20
-28.3519
11
56.0905
21
-28.0939
0
LINE
8
BLACK
6
CONTINUOUS
10
56.0905
20
-28.0939
11
55.7919
21
-27.867
0
LINE
8
BLACK
6
CONTINUOUS
10
55.7919
20
-27.867
11
55.4705
21
-27.6736
0
LINE
8
BLACK
6
CONTINUOUS
10
55.4705
20
-27.6736
11
55.1301
21
-27.5161
0
LINE
8
BLACK
6
CONTINUOUS
10
55.1301
20
-27.5161
11
54.7747
21
-27.3963
0
LINE
8
BLACK
6
CONTINUOUS
10
54.7747
20
-27.3963
11
54.4084
21
-27.3157
0
LINE
8
BLACK
6
CONTINUOUS
10
54.4084
20
-27.3157
11
54.0355
21
-27.2752
0
LINE
8
BLACK
6
CONTINUOUS
10
54.0355
20
-27.2752
11
53.6605
21
-27.2752
0
LINE
8
BLACK
6
CONTINUOUS
10
53.6605
20
-27.2752
11
53.2876
21
-27.3157
0
LINE
8
BLACK
6
CONTINUOUS
10
53.2876
20
-27.3157
11
52.9213
21
-27.3963
0
LINE
8
BLACK
6
CONTINUOUS
10
52.9213
20
-27.3963
11
52.5659
21
-27.5161
0
LINE
8
BLACK
6
CONTINUOUS
10
52.5659
20
-27.5161
11
52.2255
21
-27.6736
0
LINE
8
BLACK
6
CONTINUOUS
10
52.2255
20
-27.6736
11
51.9041
21
-27.867
0
LINE
8
BLACK
6
CONTINUOUS
10
51.9041
20
-27.867
11
51.6055
21
-28.0939
0
LINE
8
BLACK
6
CONTINUOUS
10
51.6055
20
-28.0939
11
51.3332
21
-28.3519
0
LINE
8
BLACK
6
CONTINUOUS
10
51.3332
20
-28.3519
11
51.0904
21
-28.6377
0
LINE
8
BLACK
6
CONTINUOUS
10
51.0904
20
-28.6377
11
50.8799
21
-28.9482
0
LINE
8
BLACK
6
CONTINUOUS
10
50.8799
20
-28.9482
11
50.7042
21
-29.2795
0
LINE
8
BLACK
6
CONTINUOUS
10
50.7042
20
-29.2795
11
50.5654
21
-29.628
0
LINE
8
BLACK
6
CONTINUOUS
10
50.5654
20
-29.628
11
50.4651
21
-29.9894
0
LINE
8
BLACK
6
CONTINUOUS
10
50.4651
20
-29.9894
11
50.4044
21
-30.3595
0
LINE
8
BLACK
6
CONTINUOUS
10
50.4044
20
-30.3595
11
50.3841
21
-30.734
  0
ENDSEC
  0
EOF
