  0
SECTION
  2
HEADER
  9
$ANGBASE
  50
0.0
  9
$ANGDIR
  70
1
  9
$MEASUREMENT
  70
1
  0
ENDSEC
  0
SECTION
  2
TABLES
  0
TABLE
  2
LTYPE
  70
4
  0
LTYPE
  5
40F
  2
CONTINUOUS
  70
0
  3
Solid line
  72
65
  73
0
  40
0.0
  0
LTYPE
  5
410
  2
DASHDOT
 70
0
  3
Dash Dot ____ _ ____ _
 72
65
 73
4
 40
2.0
 49
1.25
 49
-0.25
 49
0.25
 49
-0.25
  0
LTYPE
  5
411
  2
DASHED
 70
0
  3
Dashed __ __ __ __ __
 72
65
 73
2
 40
0.75
 49
0.5
 49
-0.25
  0
LTYPE
  5
43B
  2
DOTTED
 70
0
  3
Dotted .  .  .  .
 72
65
 73
2
 40
0.2
 49
0.0
 49
-0.2
  0
ENDTAB
  0
TABLE
  2
STYLE
  70
4
  0
STYLE
  2
KICAD
  70
0
  40
0
  41
1
  42
1
  50
0
  71
0
  3
isocp.shx
  0
STYLE
  2
KICADB
  70
0
  40
0
  41
1
  42
1
  50
0
  71
0
  3
isocp.shx
  0
STYLE
  2
KICADI
  70
0
  40
0
  41
1
  42
1
  50
15
  71
0
  3
isocp.shx
  0
STYLE
  2
KICADBI
  70
0
  40
0
  41
1
  42
1
  50
15
  71
0
  3
isocp.shx
  0
ENDTAB
  0
TABLE
  2
LAYER
  70
1
  0
LAYER
  2
BLACK
  70
0
  62
7
  6
CONTINUOUS
  0
ENDTAB
  0
ENDSEC
  0
SECTION
  2
ENTITIES
0
LINE
8
BLACK
6
CONTINUOUS
10
258.875
20
-24.85
11
258.893
21
-24.8576
0
LINE
8
BLACK
6
CONTINUOUS
10
258.893
20
-24.8576
11
258.91
21
-24.8646
0
LINE
8
BLACK
6
CONTINUOUS
10
258.91
20
-24.8646
11
258.91
21
-24.8647
0
LINE
8
BLACK
6
CONTINUOUS
10
258.91
20
-24.8647
11
258.91
21
-24.8647
0
LINE
8
BLACK
6
CONTINUOUS
10
258.91
20
-24.8647
11
258.918
21
-24.8829
0
LINE
8
BLACK
6
CONTINUOUS
10
258.918
20
-24.8829
11
258.925
21
-24.9
0
LINE
8
BLACK
6
CONTINUOUS
10
258.925
20
-24.9
11
258.925
21
-27.4
0
LINE
8
BLACK
6
CONTINUOUS
10
258.925
20
-27.4
11
258.925
21
-27.4
0
LINE
8
BLACK
6
CONTINUOUS
10
258.925
20
-27.4
11
258.925
21
-27.4
0
LINE
8
BLACK
6
CONTINUOUS
10
258.925
20
-27.4
11
258.875
21
-121.125
0
LINE
8
BLACK
6
CONTINUOUS
10
258.875
20
-121.125
11
258.875
21
-121.125
0
LINE
8
BLACK
6
CONTINUOUS
10
258.875
20
-121.125
11
258.875
21
-121.125
0
LINE
8
BLACK
6
CONTINUOUS
10
258.875
20
-121.125
11
258.868
21
-121.143
0
LINE
8
BLACK
6
CONTINUOUS
10
258.868
20
-121.143
11
258.86
21
-121.16
0
LINE
8
BLACK
6
CONTINUOUS
10
258.86
20
-121.16
11
258.86
21
-121.16
0
LINE
8
BLACK
6
CONTINUOUS
10
258.86
20
-121.16
11
258.86
21
-121.16
0
LINE
8
BLACK
6
CONTINUOUS
10
258.86
20
-121.16
11
258.843
21
-121.168
0
LINE
8
BLACK
6
CONTINUOUS
10
258.843
20
-121.168
11
258.825
21
-121.175
0
LINE
8
BLACK
6
CONTINUOUS
10
258.825
20
-121.175
11
258.825
21
-121.175
0
LINE
8
BLACK
6
CONTINUOUS
10
258.825
20
-121.175
11
258.825
21
-121.175
0
LINE
8
BLACK
6
CONTINUOUS
10
258.825
20
-121.175
11
188.037
21
-121.1
0
LINE
8
BLACK
6
CONTINUOUS
10
188.037
20
-121.1
11
181.948
21
-141.789
0
LINE
8
BLACK
6
CONTINUOUS
10
181.948
20
-141.789
11
181.936
21
-141.804
0
LINE
8
BLACK
6
CONTINUOUS
10
181.936
20
-141.804
11
181.925
21
-141.818
0
LINE
8
BLACK
6
CONTINUOUS
10
181.925
20
-141.818
11
181.924
21
-141.818
0
LINE
8
BLACK
6
CONTINUOUS
10
181.924
20
-141.818
11
181.924
21
-141.819
0
LINE
8
BLACK
6
CONTINUOUS
10
181.924
20
-141.819
11
181.905
21
-141.821
0
LINE
8
BLACK
6
CONTINUOUS
10
181.905
20
-141.821
11
181.887
21
-141.823
0
LINE
8
BLACK
6
CONTINUOUS
10
181.887
20
-141.823
11
109.768
21
-122.6
0
LINE
8
BLACK
6
CONTINUOUS
10
109.768
20
-122.6
11
29.725
21
-122.65
0
LINE
8
BLACK
6
CONTINUOUS
10
29.725
20
-122.65
11
29.725
21
-122.65
0
LINE
8
BLACK
6
CONTINUOUS
10
29.725
20
-122.65
11
29.725
21
-122.65
0
LINE
8
BLACK
6
CONTINUOUS
10
29.725
20
-122.65
11
29.7074
21
-122.643
0
LINE
8
BLACK
6
CONTINUOUS
10
29.7074
20
-122.643
11
29.6897
21
-122.635
0
LINE
8
BLACK
6
CONTINUOUS
10
29.6897
20
-122.635
11
29.6897
21
-122.635
0
LINE
8
BLACK
6
CONTINUOUS
10
29.6897
20
-122.635
11
29.6896
21
-122.635
0
LINE
8
BLACK
6
CONTINUOUS
10
29.6896
20
-122.635
11
29.6823
21
-122.618
0
LINE
8
BLACK
6
CONTINUOUS
10
29.6823
20
-122.618
11
29.675
21
-122.6
0
LINE
8
BLACK
6
CONTINUOUS
10
29.675
20
-122.6
11
29.675
21
-122.6
0
LINE
8
BLACK
6
CONTINUOUS
10
29.675
20
-122.6
11
29.675
21
-122.6
0
LINE
8
BLACK
6
CONTINUOUS
10
29.675
20
-122.6
11
29.675
21
-121.425
0
LINE
8
BLACK
6
CONTINUOUS
10
29.675
20
-121.425
11
29.675
21
-118.375
0
LINE
8
BLACK
6
CONTINUOUS
10
29.675
20
-118.375
11
29.6896
21
-118.34
0
LINE
8
BLACK
6
CONTINUOUS
10
29.6896
20
-118.34
11
29.725
21
-118.325
0
LINE
8
BLACK
6
CONTINUOUS
10
29.725
20
-118.325
11
50.6
21
-118.325
0
LINE
8
BLACK
6
CONTINUOUS
10
50.6
20
-118.325
11
50.6
21
-105.175
0
LINE
8
BLACK
6
CONTINUOUS
10
50.6
20
-105.175
11
29.7501
21
-105.2
0
LINE
8
BLACK
6
CONTINUOUS
10
29.7501
20
-105.2
11
29.75
21
-105.2
0
LINE
8
BLACK
6
CONTINUOUS
10
29.75
20
-105.2
11
29.75
21
-105.2
0
LINE
8
BLACK
6
CONTINUOUS
10
29.75
20
-105.2
11
29.7323
21
-105.193
0
LINE
8
BLACK
6
CONTINUOUS
10
29.7323
20
-105.193
11
29.7147
21
-105.185
0
LINE
8
BLACK
6
CONTINUOUS
10
29.7147
20
-105.185
11
29.7147
21
-105.185
0
LINE
8
BLACK
6
CONTINUOUS
10
29.7147
20
-105.185
11
29.7146
21
-105.185
0
LINE
8
BLACK
6
CONTINUOUS
10
29.7146
20
-105.185
11
29.7074
21
-105.168
0
LINE
8
BLACK
6
CONTINUOUS
10
29.7074
20
-105.168
11
29.7
21
-105.15
0
LINE
8
BLACK
6
CONTINUOUS
10
29.7
20
-105.15
11
29.7
21
-105.15
0
LINE
8
BLACK
6
CONTINUOUS
10
29.7
20
-105.15
11
29.7
21
-105.15
0
LINE
8
BLACK
6
CONTINUOUS
10
29.7
20
-105.15
11
29.7
21
-25
0
LINE
8
BLACK
6
CONTINUOUS
10
29.7
20
-25
11
29.7073
21
-24.9825
0
LINE
8
BLACK
6
CONTINUOUS
10
29.7073
20
-24.9825
11
29.7146
21
-24.9647
0
LINE
8
BLACK
6
CONTINUOUS
10
29.7146
20
-24.9647
11
29.7146
21
-24.9647
0
LINE
8
BLACK
6
CONTINUOUS
10
29.7146
20
-24.9647
11
29.7146
21
-24.9646
0
LINE
8
BLACK
6
CONTINUOUS
10
29.7146
20
-24.9646
11
29.7324
21
-24.9573
0
LINE
8
BLACK
6
CONTINUOUS
10
29.7324
20
-24.9573
11
29.75
21
-24.95
0
LINE
8
BLACK
6
CONTINUOUS
10
29.75
20
-24.95
11
191.7
21
-24.8
0
LINE
8
BLACK
6
CONTINUOUS
10
191.7
20
-24.8
11
191.7
21
-24.8
0
LINE
8
BLACK
6
CONTINUOUS
10
191.7
20
-24.8
11
191.7
21
-24.8
0
LINE
8
BLACK
6
CONTINUOUS
10
191.7
20
-24.8
11
258.875
21
-24.85
0
LINE
8
BLACK
6
CONTINUOUS
10
29.8
20
-25.05
11
29.8
21
-105.1
0
LINE
8
BLACK
6
CONTINUOUS
10
29.8
20
-105.1
11
50.6499
21
-105.075
0
LINE
8
BLACK
6
CONTINUOUS
10
50.6499
20
-105.075
11
50.65
21
-105.075
0
LINE
8
BLACK
6
CONTINUOUS
10
50.65
20
-105.075
11
50.65
21
-105.075
0
LINE
8
BLACK
6
CONTINUOUS
10
50.65
20
-105.075
11
50.6677
21
-105.082
0
LINE
8
BLACK
6
CONTINUOUS
10
50.6677
20
-105.082
11
50.6853
21
-105.09
0
LINE
8
BLACK
6
CONTINUOUS
10
50.6853
20
-105.09
11
50.6853
21
-105.09
0
LINE
8
BLACK
6
CONTINUOUS
10
50.6853
20
-105.09
11
50.6854
21
-105.09
0
LINE
8
BLACK
6
CONTINUOUS
10
50.6854
20
-105.09
11
50.6926
21
-105.107
0
LINE
8
BLACK
6
CONTINUOUS
10
50.6926
20
-105.107
11
50.7
21
-105.125
0
LINE
8
BLACK
6
CONTINUOUS
10
50.7
20
-105.125
11
50.7
21
-105.125
0
LINE
8
BLACK
6
CONTINUOUS
10
50.7
20
-105.125
11
50.7
21
-105.125
0
LINE
8
BLACK
6
CONTINUOUS
10
50.7
20
-105.125
11
50.7
21
-118.375
0
LINE
8
BLACK
6
CONTINUOUS
10
50.7
20
-118.375
11
50.6854
21
-118.41
0
LINE
8
BLACK
6
CONTINUOUS
10
50.6854
20
-118.41
11
50.65
21
-118.425
0
LINE
8
BLACK
6
CONTINUOUS
10
50.65
20
-118.425
11
29.775
21
-118.425
0
LINE
8
BLACK
6
CONTINUOUS
10
29.775
20
-118.425
11
29.775
21
-121.425
0
LINE
8
BLACK
6
CONTINUOUS
10
29.775
20
-121.425
11
29.775
21
-122.55
0
LINE
8
BLACK
6
CONTINUOUS
10
29.775
20
-122.55
11
109.775
21
-122.5
0
LINE
8
BLACK
6
CONTINUOUS
10
109.775
20
-122.5
11
109.781
21
-122.503
0
LINE
8
BLACK
6
CONTINUOUS
10
109.781
20
-122.503
11
109.788
21
-122.502
0
LINE
8
BLACK
6
CONTINUOUS
10
109.788
20
-122.502
11
181.866
21
-141.714
0
LINE
8
BLACK
6
CONTINUOUS
10
181.866
20
-141.714
11
187.952
21
-121.036
0
LINE
8
BLACK
6
CONTINUOUS
10
187.952
20
-121.036
11
187.96
21
-121.026
0
LINE
8
BLACK
6
CONTINUOUS
10
187.96
20
-121.026
11
187.965
21
-121.015
0
LINE
8
BLACK
6
CONTINUOUS
10
187.965
20
-121.015
11
187.971
21
-121.012
0
LINE
8
BLACK
6
CONTINUOUS
10
187.971
20
-121.012
11
187.976
21
-121.006
0
LINE
8
BLACK
6
CONTINUOUS
10
187.976
20
-121.006
11
187.988
21
-121.005
0
LINE
8
BLACK
6
CONTINUOUS
10
187.988
20
-121.005
11
188
21
-121
0
LINE
8
BLACK
6
CONTINUOUS
10
188
20
-121
11
258.775
21
-121.075
0
LINE
8
BLACK
6
CONTINUOUS
10
258.775
20
-121.075
11
258.825
21
-27.4
0
LINE
8
BLACK
6
CONTINUOUS
10
258.825
20
-27.4
11
258.825
21
-24.95
0
LINE
8
BLACK
6
CONTINUOUS
10
258.825
20
-24.95
11
191.7
21
-24.9
0
LINE
8
BLACK
6
CONTINUOUS
10
191.7
20
-24.9
11
29.8
21
-25.05
  0
ENDSEC
  0
EOF
