  0
SECTION
  2
HEADER
  9
$ANGBASE
  50
0.0
  9
$ANGDIR
  70
1
  9
$MEASUREMENT
  70
1
  0
ENDSEC
  0
SECTION
  2
TABLES
  0
TABLE
  2
LTYPE
  70
4
  0
LTYPE
  5
40F
  2
CONTINUOUS
  70
0
  3
Solid line
  72
65
  73
0
  40
0.0
  0
LTYPE
  5
410
  2
DASHDOT
 70
0
  3
Dash Dot ____ _ ____ _
 72
65
 73
4
 40
2.0
 49
1.25
 49
-0.25
 49
0.25
 49
-0.25
  0
LTYPE
  5
411
  2
DASHED
 70
0
  3
Dashed __ __ __ __ __
 72
65
 73
2
 40
0.75
 49
0.5
 49
-0.25
  0
LTYPE
  5
43B
  2
DOTTED
 70
0
  3
Dotted .  .  .  .
 72
65
 73
2
 40
0.2
 49
0.0
 49
-0.2
  0
ENDTAB
  0
TABLE
  2
STYLE
  70
4
  0
STYLE
  2
KICAD
  70
0
  40
0
  41
1
  42
1
  50
0
  71
0
  3
isocp.shx
  0
STYLE
  2
KICADB
  70
0
  40
0
  41
1
  42
1
  50
0
  71
0
  3
isocp.shx
  0
STYLE
  2
KICADI
  70
0
  40
0
  41
1
  42
1
  50
15
  71
0
  3
isocp.shx
  0
STYLE
  2
KICADBI
  70
0
  40
0
  41
1
  42
1
  50
15
  71
0
  3
isocp.shx
  0
ENDTAB
  0
TABLE
  2
LAYER
  70
1
  0
LAYER
  2
BLACK
  70
0
  62
7
  6
CONTINUOUS
  0
ENDTAB
  0
ENDSEC
  0
SECTION
  2
ENTITIES
0
LINE
8
BLACK
6
CONTINUOUS
10
169.705
20
-120.656
11
169.724
21
-120.654
0
LINE
8
BLACK
6
CONTINUOUS
10
169.724
20
-120.654
11
183.054
21
-124.226
0
LINE
8
BLACK
6
CONTINUOUS
10
183.054
20
-124.226
11
183.063
21
-124.23
0
LINE
8
BLACK
6
CONTINUOUS
10
183.063
20
-124.23
11
183.066
21
-124.23
0
LINE
8
BLACK
6
CONTINUOUS
10
183.066
20
-124.23
11
183.069
21
-124.233
0
LINE
8
BLACK
6
CONTINUOUS
10
183.069
20
-124.233
11
183.078
21
-124.237
0
LINE
8
BLACK
6
CONTINUOUS
10
183.078
20
-124.237
11
183.089
21
-124.253
0
LINE
8
BLACK
6
CONTINUOUS
10
183.089
20
-124.253
11
183.103
21
-124.267
0
LINE
8
BLACK
6
CONTINUOUS
10
183.103
20
-124.267
11
183.103
21
-124.273
0
LINE
8
BLACK
6
CONTINUOUS
10
183.103
20
-124.273
11
183.107
21
-124.279
0
LINE
8
BLACK
6
CONTINUOUS
10
183.107
20
-124.279
11
183.105
21
-124.298
0
LINE
8
BLACK
6
CONTINUOUS
10
183.105
20
-124.298
11
183.107
21
-124.318
0
LINE
8
BLACK
6
CONTINUOUS
10
183.107
20
-124.318
11
179.535
21
-137.648
0
LINE
8
BLACK
6
CONTINUOUS
10
179.535
20
-137.648
11
179.531
21
-137.657
0
LINE
8
BLACK
6
CONTINUOUS
10
179.531
20
-137.657
11
179.531
21
-137.66
0
LINE
8
BLACK
6
CONTINUOUS
10
179.531
20
-137.66
11
179.529
21
-137.662
0
LINE
8
BLACK
6
CONTINUOUS
10
179.529
20
-137.662
11
179.524
21
-137.671
0
LINE
8
BLACK
6
CONTINUOUS
10
179.524
20
-137.671
11
179.508
21
-137.682
0
LINE
8
BLACK
6
CONTINUOUS
10
179.508
20
-137.682
11
179.495
21
-137.696
0
LINE
8
BLACK
6
CONTINUOUS
10
179.495
20
-137.696
11
179.488
21
-137.697
0
LINE
8
BLACK
6
CONTINUOUS
10
179.488
20
-137.697
11
179.482
21
-137.701
0
LINE
8
BLACK
6
CONTINUOUS
10
179.482
20
-137.701
11
179.463
21
-137.699
0
LINE
8
BLACK
6
CONTINUOUS
10
179.463
20
-137.699
11
179.443
21
-137.701
0
LINE
8
BLACK
6
CONTINUOUS
10
179.443
20
-137.701
11
166.114
21
-134.129
0
LINE
8
BLACK
6
CONTINUOUS
10
166.114
20
-134.129
11
166.105
21
-134.125
0
LINE
8
BLACK
6
CONTINUOUS
10
166.105
20
-134.125
11
166.101
21
-134.124
0
LINE
8
BLACK
6
CONTINUOUS
10
166.101
20
-134.124
11
166.099
21
-134.122
0
LINE
8
BLACK
6
CONTINUOUS
10
166.099
20
-134.122
11
166.09
21
-134.118
0
LINE
8
BLACK
6
CONTINUOUS
10
166.09
20
-134.118
11
166.079
21
-134.102
0
LINE
8
BLACK
6
CONTINUOUS
10
166.079
20
-134.102
11
166.065
21
-134.088
0
LINE
8
BLACK
6
CONTINUOUS
10
166.065
20
-134.088
11
166.065
21
-134.081
0
LINE
8
BLACK
6
CONTINUOUS
10
166.065
20
-134.081
11
166.061
21
-134.076
0
LINE
8
BLACK
6
CONTINUOUS
10
166.061
20
-134.076
11
166.062
21
-134.056
0
LINE
8
BLACK
6
CONTINUOUS
10
166.062
20
-134.056
11
166.061
21
-134.037
0
LINE
8
BLACK
6
CONTINUOUS
10
166.061
20
-134.037
11
169.632
21
-120.707
0
LINE
8
BLACK
6
CONTINUOUS
10
169.632
20
-120.707
11
169.637
21
-120.698
0
LINE
8
BLACK
6
CONTINUOUS
10
169.637
20
-120.698
11
169.637
21
-120.695
0
LINE
8
BLACK
6
CONTINUOUS
10
169.637
20
-120.695
11
169.639
21
-120.693
0
LINE
8
BLACK
6
CONTINUOUS
10
169.639
20
-120.693
11
169.643
21
-120.684
0
LINE
8
BLACK
6
CONTINUOUS
10
169.643
20
-120.684
11
169.659
21
-120.672
0
LINE
8
BLACK
6
CONTINUOUS
10
169.659
20
-120.672
11
169.673
21
-120.659
0
LINE
8
BLACK
6
CONTINUOUS
10
169.673
20
-120.659
11
169.68
21
-120.658
0
LINE
8
BLACK
6
CONTINUOUS
10
169.68
20
-120.658
11
169.685
21
-120.654
0
LINE
8
BLACK
6
CONTINUOUS
10
169.685
20
-120.654
11
169.705
21
-120.656
0
LINE
8
BLACK
6
CONTINUOUS
10
166.225
20
-134.003
11
179.41
21
-137.536
0
LINE
8
BLACK
6
CONTINUOUS
10
179.41
20
-137.536
11
182.943
21
-124.351
0
LINE
8
BLACK
6
CONTINUOUS
10
182.943
20
-124.351
11
169.758
21
-120.819
0
LINE
8
BLACK
6
CONTINUOUS
10
169.758
20
-120.819
11
166.225
21
-134.003
0
LINE
8
BLACK
6
CONTINUOUS
10
151.304
20
-115.725
11
151.323
21
-115.724
0
LINE
8
BLACK
6
CONTINUOUS
10
151.323
20
-115.724
11
164.653
21
-119.295
0
LINE
8
BLACK
6
CONTINUOUS
10
164.653
20
-119.295
11
164.662
21
-119.3
0
LINE
8
BLACK
6
CONTINUOUS
10
164.662
20
-119.3
11
164.665
21
-119.3
0
LINE
8
BLACK
6
CONTINUOUS
10
164.665
20
-119.3
11
164.668
21
-119.302
0
LINE
8
BLACK
6
CONTINUOUS
10
164.668
20
-119.302
11
164.677
21
-119.306
0
LINE
8
BLACK
6
CONTINUOUS
10
164.677
20
-119.306
11
164.688
21
-119.322
0
LINE
8
BLACK
6
CONTINUOUS
10
164.688
20
-119.322
11
164.702
21
-119.336
0
LINE
8
BLACK
6
CONTINUOUS
10
164.702
20
-119.336
11
164.702
21
-119.343
0
LINE
8
BLACK
6
CONTINUOUS
10
164.702
20
-119.343
11
164.706
21
-119.348
0
LINE
8
BLACK
6
CONTINUOUS
10
164.706
20
-119.348
11
164.704
21
-119.368
0
LINE
8
BLACK
6
CONTINUOUS
10
164.704
20
-119.368
11
164.706
21
-119.387
0
LINE
8
BLACK
6
CONTINUOUS
10
164.706
20
-119.387
11
161.134
21
-132.717
0
LINE
8
BLACK
6
CONTINUOUS
10
161.134
20
-132.717
11
161.13
21
-132.726
0
LINE
8
BLACK
6
CONTINUOUS
10
161.13
20
-132.726
11
161.13
21
-132.729
0
LINE
8
BLACK
6
CONTINUOUS
10
161.13
20
-132.729
11
161.128
21
-132.732
0
LINE
8
BLACK
6
CONTINUOUS
10
161.128
20
-132.732
11
161.123
21
-132.741
0
LINE
8
BLACK
6
CONTINUOUS
10
161.123
20
-132.741
11
161.107
21
-132.752
0
LINE
8
BLACK
6
CONTINUOUS
10
161.107
20
-132.752
11
161.094
21
-132.766
0
LINE
8
BLACK
6
CONTINUOUS
10
161.094
20
-132.766
11
161.087
21
-132.766
0
LINE
8
BLACK
6
CONTINUOUS
10
161.087
20
-132.766
11
161.081
21
-132.77
0
LINE
8
BLACK
6
CONTINUOUS
10
161.081
20
-132.77
11
161.062
21
-132.768
0
LINE
8
BLACK
6
CONTINUOUS
10
161.062
20
-132.768
11
161.043
21
-132.77
0
LINE
8
BLACK
6
CONTINUOUS
10
161.043
20
-132.77
11
147.713
21
-129.198
0
LINE
8
BLACK
6
CONTINUOUS
10
147.713
20
-129.198
11
147.704
21
-129.194
0
LINE
8
BLACK
6
CONTINUOUS
10
147.704
20
-129.194
11
147.701
21
-129.194
0
LINE
8
BLACK
6
CONTINUOUS
10
147.701
20
-129.194
11
147.698
21
-129.192
0
LINE
8
BLACK
6
CONTINUOUS
10
147.698
20
-129.192
11
147.689
21
-129.187
0
LINE
8
BLACK
6
CONTINUOUS
10
147.689
20
-129.187
11
147.678
21
-129.171
0
LINE
8
BLACK
6
CONTINUOUS
10
147.678
20
-129.171
11
147.664
21
-129.158
0
LINE
8
BLACK
6
CONTINUOUS
10
147.664
20
-129.158
11
147.664
21
-129.151
0
LINE
8
BLACK
6
CONTINUOUS
10
147.664
20
-129.151
11
147.66
21
-129.145
0
LINE
8
BLACK
6
CONTINUOUS
10
147.66
20
-129.145
11
147.661
21
-129.126
0
LINE
8
BLACK
6
CONTINUOUS
10
147.661
20
-129.126
11
147.66
21
-129.107
0
LINE
8
BLACK
6
CONTINUOUS
10
147.66
20
-129.107
11
151.231
21
-115.777
0
LINE
8
BLACK
6
CONTINUOUS
10
151.231
20
-115.777
11
151.236
21
-115.768
0
LINE
8
BLACK
6
CONTINUOUS
10
151.236
20
-115.768
11
151.236
21
-115.764
0
LINE
8
BLACK
6
CONTINUOUS
10
151.236
20
-115.764
11
151.238
21
-115.762
0
LINE
8
BLACK
6
CONTINUOUS
10
151.238
20
-115.762
11
151.242
21
-115.753
0
LINE
8
BLACK
6
CONTINUOUS
10
151.242
20
-115.753
11
151.258
21
-115.742
0
LINE
8
BLACK
6
CONTINUOUS
10
151.258
20
-115.742
11
151.272
21
-115.728
0
LINE
8
BLACK
6
CONTINUOUS
10
151.272
20
-115.728
11
151.279
21
-115.728
0
LINE
8
BLACK
6
CONTINUOUS
10
151.279
20
-115.728
11
151.285
21
-115.724
0
LINE
8
BLACK
6
CONTINUOUS
10
151.285
20
-115.724
11
151.304
21
-115.725
0
LINE
8
BLACK
6
CONTINUOUS
10
147.824
20
-129.073
11
161.009
21
-132.606
0
LINE
8
BLACK
6
CONTINUOUS
10
161.009
20
-132.606
11
164.542
21
-119.421
0
LINE
8
BLACK
6
CONTINUOUS
10
164.542
20
-119.421
11
151.357
21
-115.888
0
LINE
8
BLACK
6
CONTINUOUS
10
151.357
20
-115.888
11
147.824
21
-129.073
0
LINE
8
BLACK
6
CONTINUOUS
10
132.903
20
-110.795
11
132.922
21
-110.793
0
LINE
8
BLACK
6
CONTINUOUS
10
132.922
20
-110.793
11
146.252
21
-114.365
0
LINE
8
BLACK
6
CONTINUOUS
10
146.252
20
-114.365
11
146.261
21
-114.369
0
LINE
8
BLACK
6
CONTINUOUS
10
146.261
20
-114.369
11
146.265
21
-114.369
0
LINE
8
BLACK
6
CONTINUOUS
10
146.265
20
-114.369
11
146.267
21
-114.372
0
LINE
8
BLACK
6
CONTINUOUS
10
146.267
20
-114.372
11
146.276
21
-114.376
0
LINE
8
BLACK
6
CONTINUOUS
10
146.276
20
-114.376
11
146.287
21
-114.392
0
LINE
8
BLACK
6
CONTINUOUS
10
146.287
20
-114.392
11
146.301
21
-114.406
0
LINE
8
BLACK
6
CONTINUOUS
10
146.301
20
-114.406
11
146.301
21
-114.412
0
LINE
8
BLACK
6
CONTINUOUS
10
146.301
20
-114.412
11
146.305
21
-114.418
0
LINE
8
BLACK
6
CONTINUOUS
10
146.305
20
-114.418
11
146.304
21
-114.437
0
LINE
8
BLACK
6
CONTINUOUS
10
146.304
20
-114.437
11
146.305
21
-114.457
0
LINE
8
BLACK
6
CONTINUOUS
10
146.305
20
-114.457
11
142.734
21
-127.787
0
LINE
8
BLACK
6
CONTINUOUS
10
142.734
20
-127.787
11
142.729
21
-127.796
0
LINE
8
BLACK
6
CONTINUOUS
10
142.729
20
-127.796
11
142.729
21
-127.799
0
LINE
8
BLACK
6
CONTINUOUS
10
142.729
20
-127.799
11
142.727
21
-127.801
0
LINE
8
BLACK
6
CONTINUOUS
10
142.727
20
-127.801
11
142.723
21
-127.81
0
LINE
8
BLACK
6
CONTINUOUS
10
142.723
20
-127.81
11
142.707
21
-127.821
0
LINE
8
BLACK
6
CONTINUOUS
10
142.707
20
-127.821
11
142.693
21
-127.835
0
LINE
8
BLACK
6
CONTINUOUS
10
142.693
20
-127.835
11
142.686
21
-127.836
0
LINE
8
BLACK
6
CONTINUOUS
10
142.686
20
-127.836
11
142.681
21
-127.84
0
LINE
8
BLACK
6
CONTINUOUS
10
142.681
20
-127.84
11
142.661
21
-127.838
0
LINE
8
BLACK
6
CONTINUOUS
10
142.661
20
-127.838
11
142.642
21
-127.84
0
LINE
8
BLACK
6
CONTINUOUS
10
142.642
20
-127.84
11
129.312
21
-124.268
0
LINE
8
BLACK
6
CONTINUOUS
10
129.312
20
-124.268
11
129.303
21
-124.264
0
LINE
8
BLACK
6
CONTINUOUS
10
129.303
20
-124.264
11
129.3
21
-124.263
0
LINE
8
BLACK
6
CONTINUOUS
10
129.3
20
-124.263
11
129.297
21
-124.261
0
LINE
8
BLACK
6
CONTINUOUS
10
129.297
20
-124.261
11
129.288
21
-124.257
0
LINE
8
BLACK
6
CONTINUOUS
10
129.288
20
-124.257
11
129.277
21
-124.241
0
LINE
8
BLACK
6
CONTINUOUS
10
129.277
20
-124.241
11
129.263
21
-124.227
0
LINE
8
BLACK
6
CONTINUOUS
10
129.263
20
-124.227
11
129.263
21
-124.22
0
LINE
8
BLACK
6
CONTINUOUS
10
129.263
20
-124.22
11
129.259
21
-124.215
0
LINE
8
BLACK
6
CONTINUOUS
10
129.259
20
-124.215
11
129.261
21
-124.195
0
LINE
8
BLACK
6
CONTINUOUS
10
129.261
20
-124.195
11
129.259
21
-124.176
0
LINE
8
BLACK
6
CONTINUOUS
10
129.259
20
-124.176
11
132.831
21
-110.846
0
LINE
8
BLACK
6
CONTINUOUS
10
132.831
20
-110.846
11
132.835
21
-110.837
0
LINE
8
BLACK
6
CONTINUOUS
10
132.835
20
-110.837
11
132.835
21
-110.834
0
LINE
8
BLACK
6
CONTINUOUS
10
132.835
20
-110.834
11
132.837
21
-110.832
0
LINE
8
BLACK
6
CONTINUOUS
10
132.837
20
-110.832
11
132.842
21
-110.823
0
LINE
8
BLACK
6
CONTINUOUS
10
132.842
20
-110.823
11
132.858
21
-110.811
0
LINE
8
BLACK
6
CONTINUOUS
10
132.858
20
-110.811
11
132.871
21
-110.798
0
LINE
8
BLACK
6
CONTINUOUS
10
132.871
20
-110.798
11
132.878
21
-110.797
0
LINE
8
BLACK
6
CONTINUOUS
10
132.878
20
-110.797
11
132.884
21
-110.793
0
LINE
8
BLACK
6
CONTINUOUS
10
132.884
20
-110.793
11
132.903
21
-110.795
0
LINE
8
BLACK
6
CONTINUOUS
10
129.423
20
-124.142
11
142.608
21
-127.675
0
LINE
8
BLACK
6
CONTINUOUS
10
142.608
20
-127.675
11
146.141
21
-114.49
0
LINE
8
BLACK
6
CONTINUOUS
10
146.141
20
-114.49
11
132.956
21
-110.958
0
LINE
8
BLACK
6
CONTINUOUS
10
132.956
20
-110.958
11
129.423
21
-124.142
0
LINE
8
BLACK
6
CONTINUOUS
10
114.502
20
-105.864
11
114.522
21
-105.863
0
LINE
8
BLACK
6
CONTINUOUS
10
114.522
20
-105.863
11
127.851
21
-109.434
0
LINE
8
BLACK
6
CONTINUOUS
10
127.851
20
-109.434
11
127.86
21
-109.439
0
LINE
8
BLACK
6
CONTINUOUS
10
127.86
20
-109.439
11
127.864
21
-109.439
0
LINE
8
BLACK
6
CONTINUOUS
10
127.864
20
-109.439
11
127.866
21
-109.441
0
LINE
8
BLACK
6
CONTINUOUS
10
127.866
20
-109.441
11
127.875
21
-109.445
0
LINE
8
BLACK
6
CONTINUOUS
10
127.875
20
-109.445
11
127.886
21
-109.461
0
LINE
8
BLACK
6
CONTINUOUS
10
127.886
20
-109.461
11
127.9
21
-109.475
0
LINE
8
BLACK
6
CONTINUOUS
10
127.9
20
-109.475
11
127.9
21
-109.482
0
LINE
8
BLACK
6
CONTINUOUS
10
127.9
20
-109.482
11
127.904
21
-109.487
0
LINE
8
BLACK
6
CONTINUOUS
10
127.904
20
-109.487
11
127.903
21
-109.507
0
LINE
8
BLACK
6
CONTINUOUS
10
127.903
20
-109.507
11
127.904
21
-109.526
0
LINE
8
BLACK
6
CONTINUOUS
10
127.904
20
-109.526
11
124.333
21
-122.856
0
LINE
8
BLACK
6
CONTINUOUS
10
124.333
20
-122.856
11
124.328
21
-122.865
0
LINE
8
BLACK
6
CONTINUOUS
10
124.328
20
-122.865
11
124.328
21
-122.868
0
LINE
8
BLACK
6
CONTINUOUS
10
124.328
20
-122.868
11
124.326
21
-122.871
0
LINE
8
BLACK
6
CONTINUOUS
10
124.326
20
-122.871
11
124.322
21
-122.88
0
LINE
8
BLACK
6
CONTINUOUS
10
124.322
20
-122.88
11
124.306
21
-122.891
0
LINE
8
BLACK
6
CONTINUOUS
10
124.306
20
-122.891
11
124.292
21
-122.905
0
LINE
8
BLACK
6
CONTINUOUS
10
124.292
20
-122.905
11
124.285
21
-122.905
0
LINE
8
BLACK
6
CONTINUOUS
10
124.285
20
-122.905
11
124.28
21
-122.909
0
LINE
8
BLACK
6
CONTINUOUS
10
124.28
20
-122.909
11
124.26
21
-122.907
0
LINE
8
BLACK
6
CONTINUOUS
10
124.26
20
-122.907
11
124.241
21
-122.909
0
LINE
8
BLACK
6
CONTINUOUS
10
124.241
20
-122.909
11
110.911
21
-119.337
0
LINE
8
BLACK
6
CONTINUOUS
10
110.911
20
-119.337
11
110.902
21
-119.333
0
LINE
8
BLACK
6
CONTINUOUS
10
110.902
20
-119.333
11
110.899
21
-119.333
0
LINE
8
BLACK
6
CONTINUOUS
10
110.899
20
-119.333
11
110.896
21
-119.331
0
LINE
8
BLACK
6
CONTINUOUS
10
110.896
20
-119.331
11
110.887
21
-119.326
0
LINE
8
BLACK
6
CONTINUOUS
10
110.887
20
-119.326
11
110.876
21
-119.31
0
LINE
8
BLACK
6
CONTINUOUS
10
110.876
20
-119.31
11
110.862
21
-119.297
0
LINE
8
BLACK
6
CONTINUOUS
10
110.862
20
-119.297
11
110.862
21
-119.29
0
LINE
8
BLACK
6
CONTINUOUS
10
110.862
20
-119.29
11
110.858
21
-119.284
0
LINE
8
BLACK
6
CONTINUOUS
10
110.858
20
-119.284
11
110.86
21
-119.265
0
LINE
8
BLACK
6
CONTINUOUS
10
110.86
20
-119.265
11
110.858
21
-119.246
0
LINE
8
BLACK
6
CONTINUOUS
10
110.858
20
-119.246
11
114.43
21
-105.916
0
LINE
8
BLACK
6
CONTINUOUS
10
114.43
20
-105.916
11
114.434
21
-105.907
0
LINE
8
BLACK
6
CONTINUOUS
10
114.434
20
-105.907
11
114.434
21
-105.903
0
LINE
8
BLACK
6
CONTINUOUS
10
114.434
20
-105.903
11
114.437
21
-105.901
0
LINE
8
BLACK
6
CONTINUOUS
10
114.437
20
-105.901
11
114.441
21
-105.892
0
LINE
8
BLACK
6
CONTINUOUS
10
114.441
20
-105.892
11
114.457
21
-105.881
0
LINE
8
BLACK
6
CONTINUOUS
10
114.457
20
-105.881
11
114.47
21
-105.867
0
LINE
8
BLACK
6
CONTINUOUS
10
114.47
20
-105.867
11
114.477
21
-105.867
0
LINE
8
BLACK
6
CONTINUOUS
10
114.477
20
-105.867
11
114.483
21
-105.863
0
LINE
8
BLACK
6
CONTINUOUS
10
114.483
20
-105.863
11
114.502
21
-105.864
0
LINE
8
BLACK
6
CONTINUOUS
10
111.022
20
-119.212
11
124.207
21
-122.745
0
LINE
8
BLACK
6
CONTINUOUS
10
124.207
20
-122.745
11
127.74
21
-109.56
0
LINE
8
BLACK
6
CONTINUOUS
10
127.74
20
-109.56
11
114.555
21
-106.027
0
LINE
8
BLACK
6
CONTINUOUS
10
114.555
20
-106.027
11
111.022
21
-119.212
0
LINE
8
BLACK
6
CONTINUOUS
10
255.747
20
-103.752
11
255.751
21
-103.751
0
LINE
8
BLACK
6
CONTINUOUS
10
255.751
20
-103.751
11
255.753
21
-103.753
0
LINE
8
BLACK
6
CONTINUOUS
10
255.753
20
-103.753
11
255.763
21
-103.755
0
LINE
8
BLACK
6
CONTINUOUS
10
255.763
20
-103.755
11
255.778
21
-103.767
0
LINE
8
BLACK
6
CONTINUOUS
10
255.778
20
-103.767
11
255.795
21
-103.777
0
LINE
8
BLACK
6
CONTINUOUS
10
255.795
20
-103.777
11
255.797
21
-103.783
0
LINE
8
BLACK
6
CONTINUOUS
10
255.797
20
-103.783
11
255.802
21
-103.787
0
LINE
8
BLACK
6
CONTINUOUS
10
255.802
20
-103.787
11
255.806
21
-103.807
0
LINE
8
BLACK
6
CONTINUOUS
10
255.806
20
-103.807
11
255.812
21
-103.825
0
LINE
8
BLACK
6
CONTINUOUS
10
255.812
20
-103.825
11
255.812
21
-117.625
0
LINE
8
BLACK
6
CONTINUOUS
10
255.812
20
-117.625
11
255.811
21
-117.635
0
LINE
8
BLACK
6
CONTINUOUS
10
255.811
20
-117.635
11
255.811
21
-117.638
0
LINE
8
BLACK
6
CONTINUOUS
10
255.811
20
-117.638
11
255.81
21
-117.641
0
LINE
8
BLACK
6
CONTINUOUS
10
255.81
20
-117.641
11
255.808
21
-117.651
0
LINE
8
BLACK
6
CONTINUOUS
10
255.808
20
-117.651
11
255.795
21
-117.666
0
LINE
8
BLACK
6
CONTINUOUS
10
255.795
20
-117.666
11
255.786
21
-117.682
0
LINE
8
BLACK
6
CONTINUOUS
10
255.786
20
-117.682
11
255.779
21
-117.685
0
LINE
8
BLACK
6
CONTINUOUS
10
255.779
20
-117.685
11
255.775
21
-117.69
0
LINE
8
BLACK
6
CONTINUOUS
10
255.775
20
-117.69
11
255.756
21
-117.693
0
LINE
8
BLACK
6
CONTINUOUS
10
255.756
20
-117.693
11
255.737
21
-117.7
0
LINE
8
BLACK
6
CONTINUOUS
10
255.737
20
-117.7
11
241.938
21
-117.7
0
LINE
8
BLACK
6
CONTINUOUS
10
241.938
20
-117.7
11
241.928
21
-117.698
0
LINE
8
BLACK
6
CONTINUOUS
10
241.928
20
-117.698
11
241.924
21
-117.699
0
LINE
8
BLACK
6
CONTINUOUS
10
241.924
20
-117.699
11
241.922
21
-117.697
0
LINE
8
BLACK
6
CONTINUOUS
10
241.922
20
-117.697
11
241.912
21
-117.695
0
LINE
8
BLACK
6
CONTINUOUS
10
241.912
20
-117.695
11
241.897
21
-117.683
0
LINE
8
BLACK
6
CONTINUOUS
10
241.897
20
-117.683
11
241.88
21
-117.673
0
LINE
8
BLACK
6
CONTINUOUS
10
241.88
20
-117.673
11
241.878
21
-117.667
0
LINE
8
BLACK
6
CONTINUOUS
10
241.878
20
-117.667
11
241.873
21
-117.662
0
LINE
8
BLACK
6
CONTINUOUS
10
241.873
20
-117.662
11
241.869
21
-117.643
0
LINE
8
BLACK
6
CONTINUOUS
10
241.869
20
-117.643
11
241.862
21
-117.625
0
LINE
8
BLACK
6
CONTINUOUS
10
241.862
20
-117.625
11
241.862
21
-103.825
0
LINE
8
BLACK
6
CONTINUOUS
10
241.862
20
-103.825
11
241.864
21
-103.815
0
LINE
8
BLACK
6
CONTINUOUS
10
241.864
20
-103.815
11
241.864
21
-103.812
0
LINE
8
BLACK
6
CONTINUOUS
10
241.864
20
-103.812
11
241.865
21
-103.809
0
LINE
8
BLACK
6
CONTINUOUS
10
241.865
20
-103.809
11
241.867
21
-103.799
0
LINE
8
BLACK
6
CONTINUOUS
10
241.867
20
-103.799
11
241.88
21
-103.784
0
LINE
8
BLACK
6
CONTINUOUS
10
241.88
20
-103.784
11
241.889
21
-103.768
0
LINE
8
BLACK
6
CONTINUOUS
10
241.889
20
-103.768
11
241.896
21
-103.765
0
LINE
8
BLACK
6
CONTINUOUS
10
241.896
20
-103.765
11
241.9
21
-103.76
0
LINE
8
BLACK
6
CONTINUOUS
10
241.9
20
-103.76
11
241.919
21
-103.757
0
LINE
8
BLACK
6
CONTINUOUS
10
241.919
20
-103.757
11
241.938
21
-103.75
0
LINE
8
BLACK
6
CONTINUOUS
10
241.938
20
-103.75
11
255.737
21
-103.75
0
LINE
8
BLACK
6
CONTINUOUS
10
255.737
20
-103.75
11
255.747
21
-103.752
0
LINE
8
BLACK
6
CONTINUOUS
10
242.012
20
-103.9
11
242.012
21
-117.55
0
LINE
8
BLACK
6
CONTINUOUS
10
242.012
20
-117.55
11
255.662
21
-117.55
0
LINE
8
BLACK
6
CONTINUOUS
10
255.662
20
-117.55
11
255.662
21
-103.9
0
LINE
8
BLACK
6
CONTINUOUS
10
255.662
20
-103.9
11
242.012
21
-103.9
0
LINE
8
BLACK
6
CONTINUOUS
10
236.697
20
-103.752
11
236.701
21
-103.751
0
LINE
8
BLACK
6
CONTINUOUS
10
236.701
20
-103.751
11
236.703
21
-103.753
0
LINE
8
BLACK
6
CONTINUOUS
10
236.703
20
-103.753
11
236.713
21
-103.755
0
LINE
8
BLACK
6
CONTINUOUS
10
236.713
20
-103.755
11
236.728
21
-103.767
0
LINE
8
BLACK
6
CONTINUOUS
10
236.728
20
-103.767
11
236.745
21
-103.777
0
LINE
8
BLACK
6
CONTINUOUS
10
236.745
20
-103.777
11
236.747
21
-103.783
0
LINE
8
BLACK
6
CONTINUOUS
10
236.747
20
-103.783
11
236.752
21
-103.787
0
LINE
8
BLACK
6
CONTINUOUS
10
236.752
20
-103.787
11
236.756
21
-103.807
0
LINE
8
BLACK
6
CONTINUOUS
10
236.756
20
-103.807
11
236.762
21
-103.825
0
LINE
8
BLACK
6
CONTINUOUS
10
236.762
20
-103.825
11
236.762
21
-117.625
0
LINE
8
BLACK
6
CONTINUOUS
10
236.762
20
-117.625
11
236.761
21
-117.635
0
LINE
8
BLACK
6
CONTINUOUS
10
236.761
20
-117.635
11
236.761
21
-117.638
0
LINE
8
BLACK
6
CONTINUOUS
10
236.761
20
-117.638
11
236.76
21
-117.641
0
LINE
8
BLACK
6
CONTINUOUS
10
236.76
20
-117.641
11
236.758
21
-117.651
0
LINE
8
BLACK
6
CONTINUOUS
10
236.758
20
-117.651
11
236.745
21
-117.666
0
LINE
8
BLACK
6
CONTINUOUS
10
236.745
20
-117.666
11
236.736
21
-117.682
0
LINE
8
BLACK
6
CONTINUOUS
10
236.736
20
-117.682
11
236.729
21
-117.685
0
LINE
8
BLACK
6
CONTINUOUS
10
236.729
20
-117.685
11
236.725
21
-117.69
0
LINE
8
BLACK
6
CONTINUOUS
10
236.725
20
-117.69
11
236.706
21
-117.693
0
LINE
8
BLACK
6
CONTINUOUS
10
236.706
20
-117.693
11
236.688
21
-117.7
0
LINE
8
BLACK
6
CONTINUOUS
10
236.688
20
-117.7
11
222.887
21
-117.7
0
LINE
8
BLACK
6
CONTINUOUS
10
222.887
20
-117.7
11
222.878
21
-117.698
0
LINE
8
BLACK
6
CONTINUOUS
10
222.878
20
-117.698
11
222.874
21
-117.699
0
LINE
8
BLACK
6
CONTINUOUS
10
222.874
20
-117.699
11
222.872
21
-117.697
0
LINE
8
BLACK
6
CONTINUOUS
10
222.872
20
-117.697
11
222.862
21
-117.695
0
LINE
8
BLACK
6
CONTINUOUS
10
222.862
20
-117.695
11
222.847
21
-117.683
0
LINE
8
BLACK
6
CONTINUOUS
10
222.847
20
-117.683
11
222.83
21
-117.673
0
LINE
8
BLACK
6
CONTINUOUS
10
222.83
20
-117.673
11
222.828
21
-117.667
0
LINE
8
BLACK
6
CONTINUOUS
10
222.828
20
-117.667
11
222.823
21
-117.662
0
LINE
8
BLACK
6
CONTINUOUS
10
222.823
20
-117.662
11
222.819
21
-117.643
0
LINE
8
BLACK
6
CONTINUOUS
10
222.819
20
-117.643
11
222.812
21
-117.625
0
LINE
8
BLACK
6
CONTINUOUS
10
222.812
20
-117.625
11
222.812
21
-103.825
0
LINE
8
BLACK
6
CONTINUOUS
10
222.812
20
-103.825
11
222.814
21
-103.815
0
LINE
8
BLACK
6
CONTINUOUS
10
222.814
20
-103.815
11
222.814
21
-103.812
0
LINE
8
BLACK
6
CONTINUOUS
10
222.814
20
-103.812
11
222.815
21
-103.809
0
LINE
8
BLACK
6
CONTINUOUS
10
222.815
20
-103.809
11
222.817
21
-103.799
0
LINE
8
BLACK
6
CONTINUOUS
10
222.817
20
-103.799
11
222.83
21
-103.784
0
LINE
8
BLACK
6
CONTINUOUS
10
222.83
20
-103.784
11
222.839
21
-103.768
0
LINE
8
BLACK
6
CONTINUOUS
10
222.839
20
-103.768
11
222.846
21
-103.765
0
LINE
8
BLACK
6
CONTINUOUS
10
222.846
20
-103.765
11
222.85
21
-103.76
0
LINE
8
BLACK
6
CONTINUOUS
10
222.85
20
-103.76
11
222.869
21
-103.757
0
LINE
8
BLACK
6
CONTINUOUS
10
222.869
20
-103.757
11
222.887
21
-103.75
0
LINE
8
BLACK
6
CONTINUOUS
10
222.887
20
-103.75
11
236.688
21
-103.75
0
LINE
8
BLACK
6
CONTINUOUS
10
236.688
20
-103.75
11
236.697
21
-103.752
0
LINE
8
BLACK
6
CONTINUOUS
10
222.962
20
-103.9
11
222.962
21
-117.55
0
LINE
8
BLACK
6
CONTINUOUS
10
222.962
20
-117.55
11
236.612
21
-117.55
0
LINE
8
BLACK
6
CONTINUOUS
10
236.612
20
-117.55
11
236.612
21
-103.9
0
LINE
8
BLACK
6
CONTINUOUS
10
236.612
20
-103.9
11
222.962
21
-103.9
0
LINE
8
BLACK
6
CONTINUOUS
10
217.647
20
-103.752
11
217.651
21
-103.751
0
LINE
8
BLACK
6
CONTINUOUS
10
217.651
20
-103.751
11
217.653
21
-103.753
0
LINE
8
BLACK
6
CONTINUOUS
10
217.653
20
-103.753
11
217.663
21
-103.755
0
LINE
8
BLACK
6
CONTINUOUS
10
217.663
20
-103.755
11
217.678
21
-103.767
0
LINE
8
BLACK
6
CONTINUOUS
10
217.678
20
-103.767
11
217.695
21
-103.777
0
LINE
8
BLACK
6
CONTINUOUS
10
217.695
20
-103.777
11
217.697
21
-103.783
0
LINE
8
BLACK
6
CONTINUOUS
10
217.697
20
-103.783
11
217.702
21
-103.787
0
LINE
8
BLACK
6
CONTINUOUS
10
217.702
20
-103.787
11
217.706
21
-103.807
0
LINE
8
BLACK
6
CONTINUOUS
10
217.706
20
-103.807
11
217.712
21
-103.825
0
LINE
8
BLACK
6
CONTINUOUS
10
217.712
20
-103.825
11
217.712
21
-117.625
0
LINE
8
BLACK
6
CONTINUOUS
10
217.712
20
-117.625
11
217.711
21
-117.635
0
LINE
8
BLACK
6
CONTINUOUS
10
217.711
20
-117.635
11
217.711
21
-117.638
0
LINE
8
BLACK
6
CONTINUOUS
10
217.711
20
-117.638
11
217.71
21
-117.641
0
LINE
8
BLACK
6
CONTINUOUS
10
217.71
20
-117.641
11
217.708
21
-117.651
0
LINE
8
BLACK
6
CONTINUOUS
10
217.708
20
-117.651
11
217.695
21
-117.666
0
LINE
8
BLACK
6
CONTINUOUS
10
217.695
20
-117.666
11
217.686
21
-117.682
0
LINE
8
BLACK
6
CONTINUOUS
10
217.686
20
-117.682
11
217.679
21
-117.685
0
LINE
8
BLACK
6
CONTINUOUS
10
217.679
20
-117.685
11
217.675
21
-117.69
0
LINE
8
BLACK
6
CONTINUOUS
10
217.675
20
-117.69
11
217.656
21
-117.693
0
LINE
8
BLACK
6
CONTINUOUS
10
217.656
20
-117.693
11
217.637
21
-117.7
0
LINE
8
BLACK
6
CONTINUOUS
10
217.637
20
-117.7
11
203.837
21
-117.7
0
LINE
8
BLACK
6
CONTINUOUS
10
203.837
20
-117.7
11
203.828
21
-117.698
0
LINE
8
BLACK
6
CONTINUOUS
10
203.828
20
-117.698
11
203.824
21
-117.699
0
LINE
8
BLACK
6
CONTINUOUS
10
203.824
20
-117.699
11
203.822
21
-117.697
0
LINE
8
BLACK
6
CONTINUOUS
10
203.822
20
-117.697
11
203.812
21
-117.695
0
LINE
8
BLACK
6
CONTINUOUS
10
203.812
20
-117.695
11
203.797
21
-117.683
0
LINE
8
BLACK
6
CONTINUOUS
10
203.797
20
-117.683
11
203.78
21
-117.673
0
LINE
8
BLACK
6
CONTINUOUS
10
203.78
20
-117.673
11
203.778
21
-117.667
0
LINE
8
BLACK
6
CONTINUOUS
10
203.778
20
-117.667
11
203.773
21
-117.662
0
LINE
8
BLACK
6
CONTINUOUS
10
203.773
20
-117.662
11
203.769
21
-117.643
0
LINE
8
BLACK
6
CONTINUOUS
10
203.769
20
-117.643
11
203.762
21
-117.625
0
LINE
8
BLACK
6
CONTINUOUS
10
203.762
20
-117.625
11
203.762
21
-103.825
0
LINE
8
BLACK
6
CONTINUOUS
10
203.762
20
-103.825
11
203.764
21
-103.815
0
LINE
8
BLACK
6
CONTINUOUS
10
203.764
20
-103.815
11
203.764
21
-103.812
0
LINE
8
BLACK
6
CONTINUOUS
10
203.764
20
-103.812
11
203.765
21
-103.809
0
LINE
8
BLACK
6
CONTINUOUS
10
203.765
20
-103.809
11
203.767
21
-103.799
0
LINE
8
BLACK
6
CONTINUOUS
10
203.767
20
-103.799
11
203.78
21
-103.784
0
LINE
8
BLACK
6
CONTINUOUS
10
203.78
20
-103.784
11
203.789
21
-103.768
0
LINE
8
BLACK
6
CONTINUOUS
10
203.789
20
-103.768
11
203.796
21
-103.765
0
LINE
8
BLACK
6
CONTINUOUS
10
203.796
20
-103.765
11
203.8
21
-103.76
0
LINE
8
BLACK
6
CONTINUOUS
10
203.8
20
-103.76
11
203.819
21
-103.757
0
LINE
8
BLACK
6
CONTINUOUS
10
203.819
20
-103.757
11
203.837
21
-103.75
0
LINE
8
BLACK
6
CONTINUOUS
10
203.837
20
-103.75
11
217.637
21
-103.75
0
LINE
8
BLACK
6
CONTINUOUS
10
217.637
20
-103.75
11
217.647
21
-103.752
0
LINE
8
BLACK
6
CONTINUOUS
10
203.912
20
-103.9
11
203.912
21
-117.55
0
LINE
8
BLACK
6
CONTINUOUS
10
203.912
20
-117.55
11
217.562
21
-117.55
0
LINE
8
BLACK
6
CONTINUOUS
10
217.562
20
-117.55
11
217.562
21
-103.9
0
LINE
8
BLACK
6
CONTINUOUS
10
217.562
20
-103.9
11
203.912
21
-103.9
0
LINE
8
BLACK
6
CONTINUOUS
10
198.597
20
-103.752
11
198.601
21
-103.751
0
LINE
8
BLACK
6
CONTINUOUS
10
198.601
20
-103.751
11
198.603
21
-103.753
0
LINE
8
BLACK
6
CONTINUOUS
10
198.603
20
-103.753
11
198.613
21
-103.755
0
LINE
8
BLACK
6
CONTINUOUS
10
198.613
20
-103.755
11
198.628
21
-103.767
0
LINE
8
BLACK
6
CONTINUOUS
10
198.628
20
-103.767
11
198.645
21
-103.777
0
LINE
8
BLACK
6
CONTINUOUS
10
198.645
20
-103.777
11
198.647
21
-103.783
0
LINE
8
BLACK
6
CONTINUOUS
10
198.647
20
-103.783
11
198.652
21
-103.787
0
LINE
8
BLACK
6
CONTINUOUS
10
198.652
20
-103.787
11
198.656
21
-103.807
0
LINE
8
BLACK
6
CONTINUOUS
10
198.656
20
-103.807
11
198.662
21
-103.825
0
LINE
8
BLACK
6
CONTINUOUS
10
198.662
20
-103.825
11
198.662
21
-117.625
0
LINE
8
BLACK
6
CONTINUOUS
10
198.662
20
-117.625
11
198.661
21
-117.635
0
LINE
8
BLACK
6
CONTINUOUS
10
198.661
20
-117.635
11
198.661
21
-117.638
0
LINE
8
BLACK
6
CONTINUOUS
10
198.661
20
-117.638
11
198.66
21
-117.641
0
LINE
8
BLACK
6
CONTINUOUS
10
198.66
20
-117.641
11
198.658
21
-117.651
0
LINE
8
BLACK
6
CONTINUOUS
10
198.658
20
-117.651
11
198.645
21
-117.666
0
LINE
8
BLACK
6
CONTINUOUS
10
198.645
20
-117.666
11
198.636
21
-117.682
0
LINE
8
BLACK
6
CONTINUOUS
10
198.636
20
-117.682
11
198.629
21
-117.685
0
LINE
8
BLACK
6
CONTINUOUS
10
198.629
20
-117.685
11
198.625
21
-117.69
0
LINE
8
BLACK
6
CONTINUOUS
10
198.625
20
-117.69
11
198.606
21
-117.693
0
LINE
8
BLACK
6
CONTINUOUS
10
198.606
20
-117.693
11
198.587
21
-117.7
0
LINE
8
BLACK
6
CONTINUOUS
10
198.587
20
-117.7
11
184.787
21
-117.7
0
LINE
8
BLACK
6
CONTINUOUS
10
184.787
20
-117.7
11
184.778
21
-117.698
0
LINE
8
BLACK
6
CONTINUOUS
10
184.778
20
-117.698
11
184.774
21
-117.699
0
LINE
8
BLACK
6
CONTINUOUS
10
184.774
20
-117.699
11
184.772
21
-117.697
0
LINE
8
BLACK
6
CONTINUOUS
10
184.772
20
-117.697
11
184.762
21
-117.695
0
LINE
8
BLACK
6
CONTINUOUS
10
184.762
20
-117.695
11
184.747
21
-117.683
0
LINE
8
BLACK
6
CONTINUOUS
10
184.747
20
-117.683
11
184.73
21
-117.673
0
LINE
8
BLACK
6
CONTINUOUS
10
184.73
20
-117.673
11
184.728
21
-117.667
0
LINE
8
BLACK
6
CONTINUOUS
10
184.728
20
-117.667
11
184.723
21
-117.662
0
LINE
8
BLACK
6
CONTINUOUS
10
184.723
20
-117.662
11
184.719
21
-117.643
0
LINE
8
BLACK
6
CONTINUOUS
10
184.719
20
-117.643
11
184.713
21
-117.625
0
LINE
8
BLACK
6
CONTINUOUS
10
184.713
20
-117.625
11
184.713
21
-103.825
0
LINE
8
BLACK
6
CONTINUOUS
10
184.713
20
-103.825
11
184.714
21
-103.815
0
LINE
8
BLACK
6
CONTINUOUS
10
184.714
20
-103.815
11
184.714
21
-103.812
0
LINE
8
BLACK
6
CONTINUOUS
10
184.714
20
-103.812
11
184.715
21
-103.809
0
LINE
8
BLACK
6
CONTINUOUS
10
184.715
20
-103.809
11
184.717
21
-103.799
0
LINE
8
BLACK
6
CONTINUOUS
10
184.717
20
-103.799
11
184.73
21
-103.784
0
LINE
8
BLACK
6
CONTINUOUS
10
184.73
20
-103.784
11
184.739
21
-103.768
0
LINE
8
BLACK
6
CONTINUOUS
10
184.739
20
-103.768
11
184.746
21
-103.765
0
LINE
8
BLACK
6
CONTINUOUS
10
184.746
20
-103.765
11
184.75
21
-103.76
0
LINE
8
BLACK
6
CONTINUOUS
10
184.75
20
-103.76
11
184.769
21
-103.757
0
LINE
8
BLACK
6
CONTINUOUS
10
184.769
20
-103.757
11
184.787
21
-103.75
0
LINE
8
BLACK
6
CONTINUOUS
10
184.787
20
-103.75
11
198.587
21
-103.75
0
LINE
8
BLACK
6
CONTINUOUS
10
198.587
20
-103.75
11
198.597
21
-103.752
0
LINE
8
BLACK
6
CONTINUOUS
10
184.862
20
-103.9
11
184.862
21
-117.55
0
LINE
8
BLACK
6
CONTINUOUS
10
184.862
20
-117.55
11
198.512
21
-117.55
0
LINE
8
BLACK
6
CONTINUOUS
10
198.512
20
-117.55
11
198.512
21
-103.9
0
LINE
8
BLACK
6
CONTINUOUS
10
198.512
20
-103.9
11
184.862
21
-103.9
0
LINE
8
BLACK
6
CONTINUOUS
10
103.347
20
-103.752
11
103.351
21
-103.751
0
LINE
8
BLACK
6
CONTINUOUS
10
103.351
20
-103.751
11
103.353
21
-103.753
0
LINE
8
BLACK
6
CONTINUOUS
10
103.353
20
-103.753
11
103.363
21
-103.755
0
LINE
8
BLACK
6
CONTINUOUS
10
103.363
20
-103.755
11
103.378
21
-103.767
0
LINE
8
BLACK
6
CONTINUOUS
10
103.378
20
-103.767
11
103.395
21
-103.777
0
LINE
8
BLACK
6
CONTINUOUS
10
103.395
20
-103.777
11
103.397
21
-103.783
0
LINE
8
BLACK
6
CONTINUOUS
10
103.397
20
-103.783
11
103.402
21
-103.787
0
LINE
8
BLACK
6
CONTINUOUS
10
103.402
20
-103.787
11
103.406
21
-103.807
0
LINE
8
BLACK
6
CONTINUOUS
10
103.406
20
-103.807
11
103.412
21
-103.825
0
LINE
8
BLACK
6
CONTINUOUS
10
103.412
20
-103.825
11
103.412
21
-117.625
0
LINE
8
BLACK
6
CONTINUOUS
10
103.412
20
-117.625
11
103.411
21
-117.635
0
LINE
8
BLACK
6
CONTINUOUS
10
103.411
20
-117.635
11
103.411
21
-117.638
0
LINE
8
BLACK
6
CONTINUOUS
10
103.411
20
-117.638
11
103.41
21
-117.641
0
LINE
8
BLACK
6
CONTINUOUS
10
103.41
20
-117.641
11
103.408
21
-117.651
0
LINE
8
BLACK
6
CONTINUOUS
10
103.408
20
-117.651
11
103.395
21
-117.666
0
LINE
8
BLACK
6
CONTINUOUS
10
103.395
20
-117.666
11
103.386
21
-117.682
0
LINE
8
BLACK
6
CONTINUOUS
10
103.386
20
-117.682
11
103.379
21
-117.685
0
LINE
8
BLACK
6
CONTINUOUS
10
103.379
20
-117.685
11
103.375
21
-117.69
0
LINE
8
BLACK
6
CONTINUOUS
10
103.375
20
-117.69
11
103.356
21
-117.693
0
LINE
8
BLACK
6
CONTINUOUS
10
103.356
20
-117.693
11
103.337
21
-117.7
0
LINE
8
BLACK
6
CONTINUOUS
10
103.337
20
-117.7
11
89.5375
21
-117.7
0
LINE
8
BLACK
6
CONTINUOUS
10
89.5375
20
-117.7
11
89.5278
21
-117.698
0
LINE
8
BLACK
6
CONTINUOUS
10
89.5278
20
-117.698
11
89.5245
21
-117.699
0
LINE
8
BLACK
6
CONTINUOUS
10
89.5245
20
-117.699
11
89.5216
21
-117.697
0
LINE
8
BLACK
6
CONTINUOUS
10
89.5216
20
-117.697
11
89.5118
21
-117.695
0
LINE
8
BLACK
6
CONTINUOUS
10
89.5118
20
-117.695
11
89.4969
21
-117.683
0
LINE
8
BLACK
6
CONTINUOUS
10
89.4969
20
-117.683
11
89.48
21
-117.673
0
LINE
8
BLACK
6
CONTINUOUS
10
89.48
20
-117.673
11
89.4777
21
-117.667
0
LINE
8
BLACK
6
CONTINUOUS
10
89.4777
20
-117.667
11
89.4725
21
-117.662
0
LINE
8
BLACK
6
CONTINUOUS
10
89.4725
20
-117.662
11
89.4692
21
-117.643
0
LINE
8
BLACK
6
CONTINUOUS
10
89.4692
20
-117.643
11
89.4625
21
-117.625
0
LINE
8
BLACK
6
CONTINUOUS
10
89.4625
20
-117.625
11
89.4625
21
-103.825
0
LINE
8
BLACK
6
CONTINUOUS
10
89.4625
20
-103.825
11
89.4642
21
-103.815
0
LINE
8
BLACK
6
CONTINUOUS
10
89.4642
20
-103.815
11
89.4636
21
-103.812
0
LINE
8
BLACK
6
CONTINUOUS
10
89.4636
20
-103.812
11
89.4653
21
-103.809
0
LINE
8
BLACK
6
CONTINUOUS
10
89.4653
20
-103.809
11
89.467
21
-103.799
0
LINE
8
BLACK
6
CONTINUOUS
10
89.467
20
-103.799
11
89.4795
21
-103.784
0
LINE
8
BLACK
6
CONTINUOUS
10
89.4795
20
-103.784
11
89.4893
21
-103.768
0
LINE
8
BLACK
6
CONTINUOUS
10
89.4893
20
-103.768
11
89.4956
21
-103.765
0
LINE
8
BLACK
6
CONTINUOUS
10
89.4956
20
-103.765
11
89.5
21
-103.76
0
LINE
8
BLACK
6
CONTINUOUS
10
89.5
20
-103.76
11
89.5192
21
-103.757
0
LINE
8
BLACK
6
CONTINUOUS
10
89.5192
20
-103.757
11
89.5375
21
-103.75
0
LINE
8
BLACK
6
CONTINUOUS
10
89.5375
20
-103.75
11
103.337
21
-103.75
0
LINE
8
BLACK
6
CONTINUOUS
10
103.337
20
-103.75
11
103.347
21
-103.752
0
LINE
8
BLACK
6
CONTINUOUS
10
89.6125
20
-103.9
11
89.6125
21
-117.55
0
LINE
8
BLACK
6
CONTINUOUS
10
89.6125
20
-117.55
11
103.262
21
-117.55
0
LINE
8
BLACK
6
CONTINUOUS
10
103.262
20
-117.55
11
103.262
21
-103.9
0
LINE
8
BLACK
6
CONTINUOUS
10
103.262
20
-103.9
11
89.6125
21
-103.9
0
LINE
8
BLACK
6
CONTINUOUS
10
84.2972
20
-103.752
11
84.3005
21
-103.751
0
LINE
8
BLACK
6
CONTINUOUS
10
84.3005
20
-103.751
11
84.3034
21
-103.753
0
LINE
8
BLACK
6
CONTINUOUS
10
84.3034
20
-103.753
11
84.3132
21
-103.755
0
LINE
8
BLACK
6
CONTINUOUS
10
84.3132
20
-103.755
11
84.3281
21
-103.767
0
LINE
8
BLACK
6
CONTINUOUS
10
84.3281
20
-103.767
11
84.345
21
-103.777
0
LINE
8
BLACK
6
CONTINUOUS
10
84.345
20
-103.777
11
84.3473
21
-103.783
0
LINE
8
BLACK
6
CONTINUOUS
10
84.3473
20
-103.783
11
84.3525
21
-103.787
0
LINE
8
BLACK
6
CONTINUOUS
10
84.3525
20
-103.787
11
84.3558
21
-103.807
0
LINE
8
BLACK
6
CONTINUOUS
10
84.3558
20
-103.807
11
84.3625
21
-103.825
0
LINE
8
BLACK
6
CONTINUOUS
10
84.3625
20
-103.825
11
84.3625
21
-117.625
0
LINE
8
BLACK
6
CONTINUOUS
10
84.3625
20
-117.625
11
84.3608
21
-117.635
0
LINE
8
BLACK
6
CONTINUOUS
10
84.3608
20
-117.635
11
84.3614
21
-117.638
0
LINE
8
BLACK
6
CONTINUOUS
10
84.3614
20
-117.638
11
84.3597
21
-117.641
0
LINE
8
BLACK
6
CONTINUOUS
10
84.3597
20
-117.641
11
84.358
21
-117.651
0
LINE
8
BLACK
6
CONTINUOUS
10
84.358
20
-117.651
11
84.3455
21
-117.666
0
LINE
8
BLACK
6
CONTINUOUS
10
84.3455
20
-117.666
11
84.3357
21
-117.682
0
LINE
8
BLACK
6
CONTINUOUS
10
84.3357
20
-117.682
11
84.3293
21
-117.685
0
LINE
8
BLACK
6
CONTINUOUS
10
84.3293
20
-117.685
11
84.325
21
-117.69
0
LINE
8
BLACK
6
CONTINUOUS
10
84.325
20
-117.69
11
84.3058
21
-117.693
0
LINE
8
BLACK
6
CONTINUOUS
10
84.3058
20
-117.693
11
84.2875
21
-117.7
0
LINE
8
BLACK
6
CONTINUOUS
10
84.2875
20
-117.7
11
70.4875
21
-117.7
0
LINE
8
BLACK
6
CONTINUOUS
10
70.4875
20
-117.7
11
70.4778
21
-117.698
0
LINE
8
BLACK
6
CONTINUOUS
10
70.4778
20
-117.698
11
70.4745
21
-117.699
0
LINE
8
BLACK
6
CONTINUOUS
10
70.4745
20
-117.699
11
70.4716
21
-117.697
0
LINE
8
BLACK
6
CONTINUOUS
10
70.4716
20
-117.697
11
70.4618
21
-117.695
0
LINE
8
BLACK
6
CONTINUOUS
10
70.4618
20
-117.695
11
70.4469
21
-117.683
0
LINE
8
BLACK
6
CONTINUOUS
10
70.4469
20
-117.683
11
70.43
21
-117.673
0
LINE
8
BLACK
6
CONTINUOUS
10
70.43
20
-117.673
11
70.4277
21
-117.667
0
LINE
8
BLACK
6
CONTINUOUS
10
70.4277
20
-117.667
11
70.4225
21
-117.662
0
LINE
8
BLACK
6
CONTINUOUS
10
70.4225
20
-117.662
11
70.4192
21
-117.643
0
LINE
8
BLACK
6
CONTINUOUS
10
70.4192
20
-117.643
11
70.4125
21
-117.625
0
LINE
8
BLACK
6
CONTINUOUS
10
70.4125
20
-117.625
11
70.4125
21
-103.825
0
LINE
8
BLACK
6
CONTINUOUS
10
70.4125
20
-103.825
11
70.4142
21
-103.815
0
LINE
8
BLACK
6
CONTINUOUS
10
70.4142
20
-103.815
11
70.4136
21
-103.812
0
LINE
8
BLACK
6
CONTINUOUS
10
70.4136
20
-103.812
11
70.4153
21
-103.809
0
LINE
8
BLACK
6
CONTINUOUS
10
70.4153
20
-103.809
11
70.417
21
-103.799
0
LINE
8
BLACK
6
CONTINUOUS
10
70.417
20
-103.799
11
70.4295
21
-103.784
0
LINE
8
BLACK
6
CONTINUOUS
10
70.4295
20
-103.784
11
70.4393
21
-103.768
0
LINE
8
BLACK
6
CONTINUOUS
10
70.4393
20
-103.768
11
70.4456
21
-103.765
0
LINE
8
BLACK
6
CONTINUOUS
10
70.4456
20
-103.765
11
70.45
21
-103.76
0
LINE
8
BLACK
6
CONTINUOUS
10
70.45
20
-103.76
11
70.4692
21
-103.757
0
LINE
8
BLACK
6
CONTINUOUS
10
70.4692
20
-103.757
11
70.4875
21
-103.75
0
LINE
8
BLACK
6
CONTINUOUS
10
70.4875
20
-103.75
11
84.2875
21
-103.75
0
LINE
8
BLACK
6
CONTINUOUS
10
84.2875
20
-103.75
11
84.2972
21
-103.752
0
LINE
8
BLACK
6
CONTINUOUS
10
70.5625
20
-103.9
11
70.5625
21
-117.55
0
LINE
8
BLACK
6
CONTINUOUS
10
70.5625
20
-117.55
11
84.2125
21
-117.55
0
LINE
8
BLACK
6
CONTINUOUS
10
84.2125
20
-117.55
11
84.2125
21
-103.9
0
LINE
8
BLACK
6
CONTINUOUS
10
84.2125
20
-103.9
11
70.5625
21
-103.9
0
LINE
8
BLACK
6
CONTINUOUS
10
255.747
20
-84.7017
11
255.751
21
-84.7011
0
LINE
8
BLACK
6
CONTINUOUS
10
255.751
20
-84.7011
11
255.753
21
-84.7028
0
LINE
8
BLACK
6
CONTINUOUS
10
255.753
20
-84.7028
11
255.763
21
-84.7045
0
LINE
8
BLACK
6
CONTINUOUS
10
255.763
20
-84.7045
11
255.778
21
-84.717
0
LINE
8
BLACK
6
CONTINUOUS
10
255.778
20
-84.717
11
255.795
21
-84.7268
0
LINE
8
BLACK
6
CONTINUOUS
10
255.795
20
-84.7268
11
255.797
21
-84.7331
0
LINE
8
BLACK
6
CONTINUOUS
10
255.797
20
-84.7331
11
255.802
21
-84.7375
0
LINE
8
BLACK
6
CONTINUOUS
10
255.802
20
-84.7375
11
255.806
21
-84.7567
0
LINE
8
BLACK
6
CONTINUOUS
10
255.806
20
-84.7567
11
255.812
21
-84.775
0
LINE
8
BLACK
6
CONTINUOUS
10
255.812
20
-84.775
11
255.812
21
-98.575
0
LINE
8
BLACK
6
CONTINUOUS
10
255.812
20
-98.575
11
255.811
21
-98.5847
0
LINE
8
BLACK
6
CONTINUOUS
10
255.811
20
-98.5847
11
255.811
21
-98.588
0
LINE
8
BLACK
6
CONTINUOUS
10
255.811
20
-98.588
11
255.81
21
-98.5909
0
LINE
8
BLACK
6
CONTINUOUS
10
255.81
20
-98.5909
11
255.808
21
-98.6007
0
LINE
8
BLACK
6
CONTINUOUS
10
255.808
20
-98.6007
11
255.795
21
-98.6156
0
LINE
8
BLACK
6
CONTINUOUS
10
255.795
20
-98.6156
11
255.786
21
-98.6325
0
LINE
8
BLACK
6
CONTINUOUS
10
255.786
20
-98.6325
11
255.779
21
-98.6348
0
LINE
8
BLACK
6
CONTINUOUS
10
255.779
20
-98.6348
11
255.775
21
-98.64
0
LINE
8
BLACK
6
CONTINUOUS
10
255.775
20
-98.64
11
255.756
21
-98.6433
0
LINE
8
BLACK
6
CONTINUOUS
10
255.756
20
-98.6433
11
255.737
21
-98.65
0
LINE
8
BLACK
6
CONTINUOUS
10
255.737
20
-98.65
11
241.938
21
-98.65
0
LINE
8
BLACK
6
CONTINUOUS
10
241.938
20
-98.65
11
241.928
21
-98.6483
0
LINE
8
BLACK
6
CONTINUOUS
10
241.928
20
-98.6483
11
241.924
21
-98.6489
0
LINE
8
BLACK
6
CONTINUOUS
10
241.924
20
-98.6489
11
241.922
21
-98.6472
0
LINE
8
BLACK
6
CONTINUOUS
10
241.922
20
-98.6472
11
241.912
21
-98.6455
0
LINE
8
BLACK
6
CONTINUOUS
10
241.912
20
-98.6455
11
241.897
21
-98.633
0
LINE
8
BLACK
6
CONTINUOUS
10
241.897
20
-98.633
11
241.88
21
-98.6232
0
LINE
8
BLACK
6
CONTINUOUS
10
241.88
20
-98.6232
11
241.878
21
-98.6168
0
LINE
8
BLACK
6
CONTINUOUS
10
241.878
20
-98.6168
11
241.873
21
-98.6125
0
LINE
8
BLACK
6
CONTINUOUS
10
241.873
20
-98.6125
11
241.869
21
-98.5933
0
LINE
8
BLACK
6
CONTINUOUS
10
241.869
20
-98.5933
11
241.862
21
-98.575
0
LINE
8
BLACK
6
CONTINUOUS
10
241.862
20
-98.575
11
241.862
21
-84.775
0
LINE
8
BLACK
6
CONTINUOUS
10
241.862
20
-84.775
11
241.864
21
-84.7653
0
LINE
8
BLACK
6
CONTINUOUS
10
241.864
20
-84.7653
11
241.864
21
-84.762
0
LINE
8
BLACK
6
CONTINUOUS
10
241.864
20
-84.762
11
241.865
21
-84.7591
0
LINE
8
BLACK
6
CONTINUOUS
10
241.865
20
-84.7591
11
241.867
21
-84.7493
0
LINE
8
BLACK
6
CONTINUOUS
10
241.867
20
-84.7493
11
241.88
21
-84.7344
0
LINE
8
BLACK
6
CONTINUOUS
10
241.88
20
-84.7344
11
241.889
21
-84.7175
0
LINE
8
BLACK
6
CONTINUOUS
10
241.889
20
-84.7175
11
241.896
21
-84.7152
0
LINE
8
BLACK
6
CONTINUOUS
10
241.896
20
-84.7152
11
241.9
21
-84.71
0
LINE
8
BLACK
6
CONTINUOUS
10
241.9
20
-84.71
11
241.919
21
-84.7067
0
LINE
8
BLACK
6
CONTINUOUS
10
241.919
20
-84.7067
11
241.938
21
-84.7
0
LINE
8
BLACK
6
CONTINUOUS
10
241.938
20
-84.7
11
255.737
21
-84.7
0
LINE
8
BLACK
6
CONTINUOUS
10
255.737
20
-84.7
11
255.747
21
-84.7017
0
LINE
8
BLACK
6
CONTINUOUS
10
242.012
20
-84.85
11
242.012
21
-98.5
0
LINE
8
BLACK
6
CONTINUOUS
10
242.012
20
-98.5
11
255.662
21
-98.5
0
LINE
8
BLACK
6
CONTINUOUS
10
255.662
20
-98.5
11
255.662
21
-84.85
0
LINE
8
BLACK
6
CONTINUOUS
10
255.662
20
-84.85
11
242.012
21
-84.85
0
LINE
8
BLACK
6
CONTINUOUS
10
236.697
20
-84.7017
11
236.701
21
-84.7011
0
LINE
8
BLACK
6
CONTINUOUS
10
236.701
20
-84.7011
11
236.703
21
-84.7028
0
LINE
8
BLACK
6
CONTINUOUS
10
236.703
20
-84.7028
11
236.713
21
-84.7045
0
LINE
8
BLACK
6
CONTINUOUS
10
236.713
20
-84.7045
11
236.728
21
-84.717
0
LINE
8
BLACK
6
CONTINUOUS
10
236.728
20
-84.717
11
236.745
21
-84.7268
0
LINE
8
BLACK
6
CONTINUOUS
10
236.745
20
-84.7268
11
236.747
21
-84.7331
0
LINE
8
BLACK
6
CONTINUOUS
10
236.747
20
-84.7331
11
236.752
21
-84.7375
0
LINE
8
BLACK
6
CONTINUOUS
10
236.752
20
-84.7375
11
236.756
21
-84.7567
0
LINE
8
BLACK
6
CONTINUOUS
10
236.756
20
-84.7567
11
236.762
21
-84.775
0
LINE
8
BLACK
6
CONTINUOUS
10
236.762
20
-84.775
11
236.762
21
-98.575
0
LINE
8
BLACK
6
CONTINUOUS
10
236.762
20
-98.575
11
236.761
21
-98.5847
0
LINE
8
BLACK
6
CONTINUOUS
10
236.761
20
-98.5847
11
236.761
21
-98.588
0
LINE
8
BLACK
6
CONTINUOUS
10
236.761
20
-98.588
11
236.76
21
-98.5909
0
LINE
8
BLACK
6
CONTINUOUS
10
236.76
20
-98.5909
11
236.758
21
-98.6007
0
LINE
8
BLACK
6
CONTINUOUS
10
236.758
20
-98.6007
11
236.745
21
-98.6156
0
LINE
8
BLACK
6
CONTINUOUS
10
236.745
20
-98.6156
11
236.736
21
-98.6325
0
LINE
8
BLACK
6
CONTINUOUS
10
236.736
20
-98.6325
11
236.729
21
-98.6348
0
LINE
8
BLACK
6
CONTINUOUS
10
236.729
20
-98.6348
11
236.725
21
-98.64
0
LINE
8
BLACK
6
CONTINUOUS
10
236.725
20
-98.64
11
236.706
21
-98.6433
0
LINE
8
BLACK
6
CONTINUOUS
10
236.706
20
-98.6433
11
236.688
21
-98.65
0
LINE
8
BLACK
6
CONTINUOUS
10
236.688
20
-98.65
11
222.887
21
-98.65
0
LINE
8
BLACK
6
CONTINUOUS
10
222.887
20
-98.65
11
222.878
21
-98.6483
0
LINE
8
BLACK
6
CONTINUOUS
10
222.878
20
-98.6483
11
222.874
21
-98.6489
0
LINE
8
BLACK
6
CONTINUOUS
10
222.874
20
-98.6489
11
222.872
21
-98.6472
0
LINE
8
BLACK
6
CONTINUOUS
10
222.872
20
-98.6472
11
222.862
21
-98.6455
0
LINE
8
BLACK
6
CONTINUOUS
10
222.862
20
-98.6455
11
222.847
21
-98.633
0
LINE
8
BLACK
6
CONTINUOUS
10
222.847
20
-98.633
11
222.83
21
-98.6232
0
LINE
8
BLACK
6
CONTINUOUS
10
222.83
20
-98.6232
11
222.828
21
-98.6168
0
LINE
8
BLACK
6
CONTINUOUS
10
222.828
20
-98.6168
11
222.823
21
-98.6125
0
LINE
8
BLACK
6
CONTINUOUS
10
222.823
20
-98.6125
11
222.819
21
-98.5933
0
LINE
8
BLACK
6
CONTINUOUS
10
222.819
20
-98.5933
11
222.812
21
-98.575
0
LINE
8
BLACK
6
CONTINUOUS
10
222.812
20
-98.575
11
222.812
21
-84.775
0
LINE
8
BLACK
6
CONTINUOUS
10
222.812
20
-84.775
11
222.814
21
-84.7653
0
LINE
8
BLACK
6
CONTINUOUS
10
222.814
20
-84.7653
11
222.814
21
-84.762
0
LINE
8
BLACK
6
CONTINUOUS
10
222.814
20
-84.762
11
222.815
21
-84.7591
0
LINE
8
BLACK
6
CONTINUOUS
10
222.815
20
-84.7591
11
222.817
21
-84.7493
0
LINE
8
BLACK
6
CONTINUOUS
10
222.817
20
-84.7493
11
222.83
21
-84.7344
0
LINE
8
BLACK
6
CONTINUOUS
10
222.83
20
-84.7344
11
222.839
21
-84.7175
0
LINE
8
BLACK
6
CONTINUOUS
10
222.839
20
-84.7175
11
222.846
21
-84.7152
0
LINE
8
BLACK
6
CONTINUOUS
10
222.846
20
-84.7152
11
222.85
21
-84.71
0
LINE
8
BLACK
6
CONTINUOUS
10
222.85
20
-84.71
11
222.869
21
-84.7067
0
LINE
8
BLACK
6
CONTINUOUS
10
222.869
20
-84.7067
11
222.887
21
-84.7
0
LINE
8
BLACK
6
CONTINUOUS
10
222.887
20
-84.7
11
236.688
21
-84.7
0
LINE
8
BLACK
6
CONTINUOUS
10
236.688
20
-84.7
11
236.697
21
-84.7017
0
LINE
8
BLACK
6
CONTINUOUS
10
222.962
20
-84.85
11
222.962
21
-98.5
0
LINE
8
BLACK
6
CONTINUOUS
10
222.962
20
-98.5
11
236.612
21
-98.5
0
LINE
8
BLACK
6
CONTINUOUS
10
236.612
20
-98.5
11
236.612
21
-84.85
0
LINE
8
BLACK
6
CONTINUOUS
10
236.612
20
-84.85
11
222.962
21
-84.85
0
LINE
8
BLACK
6
CONTINUOUS
10
217.647
20
-84.7017
11
217.651
21
-84.7011
0
LINE
8
BLACK
6
CONTINUOUS
10
217.651
20
-84.7011
11
217.653
21
-84.7028
0
LINE
8
BLACK
6
CONTINUOUS
10
217.653
20
-84.7028
11
217.663
21
-84.7045
0
LINE
8
BLACK
6
CONTINUOUS
10
217.663
20
-84.7045
11
217.678
21
-84.717
0
LINE
8
BLACK
6
CONTINUOUS
10
217.678
20
-84.717
11
217.695
21
-84.7268
0
LINE
8
BLACK
6
CONTINUOUS
10
217.695
20
-84.7268
11
217.697
21
-84.7331
0
LINE
8
BLACK
6
CONTINUOUS
10
217.697
20
-84.7331
11
217.702
21
-84.7375
0
LINE
8
BLACK
6
CONTINUOUS
10
217.702
20
-84.7375
11
217.706
21
-84.7567
0
LINE
8
BLACK
6
CONTINUOUS
10
217.706
20
-84.7567
11
217.712
21
-84.775
0
LINE
8
BLACK
6
CONTINUOUS
10
217.712
20
-84.775
11
217.712
21
-98.575
0
LINE
8
BLACK
6
CONTINUOUS
10
217.712
20
-98.575
11
217.711
21
-98.5847
0
LINE
8
BLACK
6
CONTINUOUS
10
217.711
20
-98.5847
11
217.711
21
-98.588
0
LINE
8
BLACK
6
CONTINUOUS
10
217.711
20
-98.588
11
217.71
21
-98.5909
0
LINE
8
BLACK
6
CONTINUOUS
10
217.71
20
-98.5909
11
217.708
21
-98.6007
0
LINE
8
BLACK
6
CONTINUOUS
10
217.708
20
-98.6007
11
217.695
21
-98.6156
0
LINE
8
BLACK
6
CONTINUOUS
10
217.695
20
-98.6156
11
217.686
21
-98.6325
0
LINE
8
BLACK
6
CONTINUOUS
10
217.686
20
-98.6325
11
217.679
21
-98.6348
0
LINE
8
BLACK
6
CONTINUOUS
10
217.679
20
-98.6348
11
217.675
21
-98.64
0
LINE
8
BLACK
6
CONTINUOUS
10
217.675
20
-98.64
11
217.656
21
-98.6433
0
LINE
8
BLACK
6
CONTINUOUS
10
217.656
20
-98.6433
11
217.637
21
-98.65
0
LINE
8
BLACK
6
CONTINUOUS
10
217.637
20
-98.65
11
203.837
21
-98.65
0
LINE
8
BLACK
6
CONTINUOUS
10
203.837
20
-98.65
11
203.828
21
-98.6483
0
LINE
8
BLACK
6
CONTINUOUS
10
203.828
20
-98.6483
11
203.824
21
-98.6489
0
LINE
8
BLACK
6
CONTINUOUS
10
203.824
20
-98.6489
11
203.822
21
-98.6472
0
LINE
8
BLACK
6
CONTINUOUS
10
203.822
20
-98.6472
11
203.812
21
-98.6455
0
LINE
8
BLACK
6
CONTINUOUS
10
203.812
20
-98.6455
11
203.797
21
-98.633
0
LINE
8
BLACK
6
CONTINUOUS
10
203.797
20
-98.633
11
203.78
21
-98.6232
0
LINE
8
BLACK
6
CONTINUOUS
10
203.78
20
-98.6232
11
203.778
21
-98.6168
0
LINE
8
BLACK
6
CONTINUOUS
10
203.778
20
-98.6168
11
203.773
21
-98.6125
0
LINE
8
BLACK
6
CONTINUOUS
10
203.773
20
-98.6125
11
203.769
21
-98.5933
0
LINE
8
BLACK
6
CONTINUOUS
10
203.769
20
-98.5933
11
203.762
21
-98.575
0
LINE
8
BLACK
6
CONTINUOUS
10
203.762
20
-98.575
11
203.762
21
-84.775
0
LINE
8
BLACK
6
CONTINUOUS
10
203.762
20
-84.775
11
203.764
21
-84.7653
0
LINE
8
BLACK
6
CONTINUOUS
10
203.764
20
-84.7653
11
203.764
21
-84.762
0
LINE
8
BLACK
6
CONTINUOUS
10
203.764
20
-84.762
11
203.765
21
-84.7591
0
LINE
8
BLACK
6
CONTINUOUS
10
203.765
20
-84.7591
11
203.767
21
-84.7493
0
LINE
8
BLACK
6
CONTINUOUS
10
203.767
20
-84.7493
11
203.78
21
-84.7344
0
LINE
8
BLACK
6
CONTINUOUS
10
203.78
20
-84.7344
11
203.789
21
-84.7175
0
LINE
8
BLACK
6
CONTINUOUS
10
203.789
20
-84.7175
11
203.796
21
-84.7152
0
LINE
8
BLACK
6
CONTINUOUS
10
203.796
20
-84.7152
11
203.8
21
-84.71
0
LINE
8
BLACK
6
CONTINUOUS
10
203.8
20
-84.71
11
203.819
21
-84.7067
0
LINE
8
BLACK
6
CONTINUOUS
10
203.819
20
-84.7067
11
203.837
21
-84.7
0
LINE
8
BLACK
6
CONTINUOUS
10
203.837
20
-84.7
11
217.637
21
-84.7
0
LINE
8
BLACK
6
CONTINUOUS
10
217.637
20
-84.7
11
217.647
21
-84.7017
0
LINE
8
BLACK
6
CONTINUOUS
10
203.912
20
-84.85
11
203.912
21
-98.5
0
LINE
8
BLACK
6
CONTINUOUS
10
203.912
20
-98.5
11
217.562
21
-98.5
0
LINE
8
BLACK
6
CONTINUOUS
10
217.562
20
-98.5
11
217.562
21
-84.85
0
LINE
8
BLACK
6
CONTINUOUS
10
217.562
20
-84.85
11
203.912
21
-84.85
0
LINE
8
BLACK
6
CONTINUOUS
10
198.597
20
-84.7017
11
198.601
21
-84.7011
0
LINE
8
BLACK
6
CONTINUOUS
10
198.601
20
-84.7011
11
198.603
21
-84.7028
0
LINE
8
BLACK
6
CONTINUOUS
10
198.603
20
-84.7028
11
198.613
21
-84.7045
0
LINE
8
BLACK
6
CONTINUOUS
10
198.613
20
-84.7045
11
198.628
21
-84.717
0
LINE
8
BLACK
6
CONTINUOUS
10
198.628
20
-84.717
11
198.645
21
-84.7268
0
LINE
8
BLACK
6
CONTINUOUS
10
198.645
20
-84.7268
11
198.647
21
-84.7331
0
LINE
8
BLACK
6
CONTINUOUS
10
198.647
20
-84.7331
11
198.652
21
-84.7375
0
LINE
8
BLACK
6
CONTINUOUS
10
198.652
20
-84.7375
11
198.656
21
-84.7567
0
LINE
8
BLACK
6
CONTINUOUS
10
198.656
20
-84.7567
11
198.662
21
-84.775
0
LINE
8
BLACK
6
CONTINUOUS
10
198.662
20
-84.775
11
198.662
21
-98.575
0
LINE
8
BLACK
6
CONTINUOUS
10
198.662
20
-98.575
11
198.661
21
-98.5847
0
LINE
8
BLACK
6
CONTINUOUS
10
198.661
20
-98.5847
11
198.661
21
-98.588
0
LINE
8
BLACK
6
CONTINUOUS
10
198.661
20
-98.588
11
198.66
21
-98.5909
0
LINE
8
BLACK
6
CONTINUOUS
10
198.66
20
-98.5909
11
198.658
21
-98.6007
0
LINE
8
BLACK
6
CONTINUOUS
10
198.658
20
-98.6007
11
198.645
21
-98.6156
0
LINE
8
BLACK
6
CONTINUOUS
10
198.645
20
-98.6156
11
198.636
21
-98.6325
0
LINE
8
BLACK
6
CONTINUOUS
10
198.636
20
-98.6325
11
198.629
21
-98.6348
0
LINE
8
BLACK
6
CONTINUOUS
10
198.629
20
-98.6348
11
198.625
21
-98.64
0
LINE
8
BLACK
6
CONTINUOUS
10
198.625
20
-98.64
11
198.606
21
-98.6433
0
LINE
8
BLACK
6
CONTINUOUS
10
198.606
20
-98.6433
11
198.587
21
-98.65
0
LINE
8
BLACK
6
CONTINUOUS
10
198.587
20
-98.65
11
184.787
21
-98.65
0
LINE
8
BLACK
6
CONTINUOUS
10
184.787
20
-98.65
11
184.778
21
-98.6483
0
LINE
8
BLACK
6
CONTINUOUS
10
184.778
20
-98.6483
11
184.774
21
-98.6489
0
LINE
8
BLACK
6
CONTINUOUS
10
184.774
20
-98.6489
11
184.772
21
-98.6472
0
LINE
8
BLACK
6
CONTINUOUS
10
184.772
20
-98.6472
11
184.762
21
-98.6455
0
LINE
8
BLACK
6
CONTINUOUS
10
184.762
20
-98.6455
11
184.747
21
-98.633
0
LINE
8
BLACK
6
CONTINUOUS
10
184.747
20
-98.633
11
184.73
21
-98.6232
0
LINE
8
BLACK
6
CONTINUOUS
10
184.73
20
-98.6232
11
184.728
21
-98.6168
0
LINE
8
BLACK
6
CONTINUOUS
10
184.728
20
-98.6168
11
184.723
21
-98.6125
0
LINE
8
BLACK
6
CONTINUOUS
10
184.723
20
-98.6125
11
184.719
21
-98.5933
0
LINE
8
BLACK
6
CONTINUOUS
10
184.719
20
-98.5933
11
184.713
21
-98.575
0
LINE
8
BLACK
6
CONTINUOUS
10
184.713
20
-98.575
11
184.713
21
-84.775
0
LINE
8
BLACK
6
CONTINUOUS
10
184.713
20
-84.775
11
184.714
21
-84.7653
0
LINE
8
BLACK
6
CONTINUOUS
10
184.714
20
-84.7653
11
184.714
21
-84.762
0
LINE
8
BLACK
6
CONTINUOUS
10
184.714
20
-84.762
11
184.715
21
-84.7591
0
LINE
8
BLACK
6
CONTINUOUS
10
184.715
20
-84.7591
11
184.717
21
-84.7493
0
LINE
8
BLACK
6
CONTINUOUS
10
184.717
20
-84.7493
11
184.73
21
-84.7344
0
LINE
8
BLACK
6
CONTINUOUS
10
184.73
20
-84.7344
11
184.739
21
-84.7175
0
LINE
8
BLACK
6
CONTINUOUS
10
184.739
20
-84.7175
11
184.746
21
-84.7152
0
LINE
8
BLACK
6
CONTINUOUS
10
184.746
20
-84.7152
11
184.75
21
-84.71
0
LINE
8
BLACK
6
CONTINUOUS
10
184.75
20
-84.71
11
184.769
21
-84.7067
0
LINE
8
BLACK
6
CONTINUOUS
10
184.769
20
-84.7067
11
184.787
21
-84.7
0
LINE
8
BLACK
6
CONTINUOUS
10
184.787
20
-84.7
11
198.587
21
-84.7
0
LINE
8
BLACK
6
CONTINUOUS
10
198.587
20
-84.7
11
198.597
21
-84.7017
0
LINE
8
BLACK
6
CONTINUOUS
10
184.862
20
-84.85
11
184.862
21
-98.5
0
LINE
8
BLACK
6
CONTINUOUS
10
184.862
20
-98.5
11
198.512
21
-98.5
0
LINE
8
BLACK
6
CONTINUOUS
10
198.512
20
-98.5
11
198.512
21
-84.85
0
LINE
8
BLACK
6
CONTINUOUS
10
198.512
20
-84.85
11
184.862
21
-84.85
0
LINE
8
BLACK
6
CONTINUOUS
10
170.022
20
-84.7017
11
170.026
21
-84.7011
0
LINE
8
BLACK
6
CONTINUOUS
10
170.026
20
-84.7011
11
170.028
21
-84.7028
0
LINE
8
BLACK
6
CONTINUOUS
10
170.028
20
-84.7028
11
170.038
21
-84.7045
0
LINE
8
BLACK
6
CONTINUOUS
10
170.038
20
-84.7045
11
170.053
21
-84.717
0
LINE
8
BLACK
6
CONTINUOUS
10
170.053
20
-84.717
11
170.07
21
-84.7268
0
LINE
8
BLACK
6
CONTINUOUS
10
170.07
20
-84.7268
11
170.072
21
-84.7331
0
LINE
8
BLACK
6
CONTINUOUS
10
170.072
20
-84.7331
11
170.077
21
-84.7375
0
LINE
8
BLACK
6
CONTINUOUS
10
170.077
20
-84.7375
11
170.081
21
-84.7567
0
LINE
8
BLACK
6
CONTINUOUS
10
170.081
20
-84.7567
11
170.088
21
-84.775
0
LINE
8
BLACK
6
CONTINUOUS
10
170.088
20
-84.775
11
170.088
21
-98.575
0
LINE
8
BLACK
6
CONTINUOUS
10
170.088
20
-98.575
11
170.086
21
-98.5847
0
LINE
8
BLACK
6
CONTINUOUS
10
170.086
20
-98.5847
11
170.086
21
-98.588
0
LINE
8
BLACK
6
CONTINUOUS
10
170.086
20
-98.588
11
170.085
21
-98.5909
0
LINE
8
BLACK
6
CONTINUOUS
10
170.085
20
-98.5909
11
170.083
21
-98.6007
0
LINE
8
BLACK
6
CONTINUOUS
10
170.083
20
-98.6007
11
170.07
21
-98.6156
0
LINE
8
BLACK
6
CONTINUOUS
10
170.07
20
-98.6156
11
170.061
21
-98.6325
0
LINE
8
BLACK
6
CONTINUOUS
10
170.061
20
-98.6325
11
170.054
21
-98.6348
0
LINE
8
BLACK
6
CONTINUOUS
10
170.054
20
-98.6348
11
170.05
21
-98.64
0
LINE
8
BLACK
6
CONTINUOUS
10
170.05
20
-98.64
11
170.031
21
-98.6433
0
LINE
8
BLACK
6
CONTINUOUS
10
170.031
20
-98.6433
11
170.012
21
-98.65
0
LINE
8
BLACK
6
CONTINUOUS
10
170.012
20
-98.65
11
156.213
21
-98.65
0
LINE
8
BLACK
6
CONTINUOUS
10
156.213
20
-98.65
11
156.203
21
-98.6483
0
LINE
8
BLACK
6
CONTINUOUS
10
156.203
20
-98.6483
11
156.199
21
-98.6489
0
LINE
8
BLACK
6
CONTINUOUS
10
156.199
20
-98.6489
11
156.197
21
-98.6472
0
LINE
8
BLACK
6
CONTINUOUS
10
156.197
20
-98.6472
11
156.187
21
-98.6455
0
LINE
8
BLACK
6
CONTINUOUS
10
156.187
20
-98.6455
11
156.172
21
-98.633
0
LINE
8
BLACK
6
CONTINUOUS
10
156.172
20
-98.633
11
156.155
21
-98.6232
0
LINE
8
BLACK
6
CONTINUOUS
10
156.155
20
-98.6232
11
156.153
21
-98.6168
0
LINE
8
BLACK
6
CONTINUOUS
10
156.153
20
-98.6168
11
156.148
21
-98.6125
0
LINE
8
BLACK
6
CONTINUOUS
10
156.148
20
-98.6125
11
156.144
21
-98.5933
0
LINE
8
BLACK
6
CONTINUOUS
10
156.144
20
-98.5933
11
156.137
21
-98.575
0
LINE
8
BLACK
6
CONTINUOUS
10
156.137
20
-98.575
11
156.137
21
-84.775
0
LINE
8
BLACK
6
CONTINUOUS
10
156.137
20
-84.775
11
156.139
21
-84.7653
0
LINE
8
BLACK
6
CONTINUOUS
10
156.139
20
-84.7653
11
156.139
21
-84.762
0
LINE
8
BLACK
6
CONTINUOUS
10
156.139
20
-84.762
11
156.14
21
-84.7591
0
LINE
8
BLACK
6
CONTINUOUS
10
156.14
20
-84.7591
11
156.142
21
-84.7493
0
LINE
8
BLACK
6
CONTINUOUS
10
156.142
20
-84.7493
11
156.155
21
-84.7344
0
LINE
8
BLACK
6
CONTINUOUS
10
156.155
20
-84.7344
11
156.164
21
-84.7175
0
LINE
8
BLACK
6
CONTINUOUS
10
156.164
20
-84.7175
11
156.171
21
-84.7152
0
LINE
8
BLACK
6
CONTINUOUS
10
156.171
20
-84.7152
11
156.175
21
-84.71
0
LINE
8
BLACK
6
CONTINUOUS
10
156.175
20
-84.71
11
156.194
21
-84.7067
0
LINE
8
BLACK
6
CONTINUOUS
10
156.194
20
-84.7067
11
156.213
21
-84.7
0
LINE
8
BLACK
6
CONTINUOUS
10
156.213
20
-84.7
11
170.012
21
-84.7
0
LINE
8
BLACK
6
CONTINUOUS
10
170.012
20
-84.7
11
170.022
21
-84.7017
0
LINE
8
BLACK
6
CONTINUOUS
10
156.287
20
-84.85
11
156.287
21
-98.5
0
LINE
8
BLACK
6
CONTINUOUS
10
156.287
20
-98.5
11
169.938
21
-98.5
0
LINE
8
BLACK
6
CONTINUOUS
10
169.938
20
-98.5
11
169.938
21
-84.85
0
LINE
8
BLACK
6
CONTINUOUS
10
169.938
20
-84.85
11
156.287
21
-84.85
0
LINE
8
BLACK
6
CONTINUOUS
10
150.972
20
-84.7017
11
150.976
21
-84.7011
0
LINE
8
BLACK
6
CONTINUOUS
10
150.976
20
-84.7011
11
150.978
21
-84.7028
0
LINE
8
BLACK
6
CONTINUOUS
10
150.978
20
-84.7028
11
150.988
21
-84.7045
0
LINE
8
BLACK
6
CONTINUOUS
10
150.988
20
-84.7045
11
151.003
21
-84.717
0
LINE
8
BLACK
6
CONTINUOUS
10
151.003
20
-84.717
11
151.02
21
-84.7268
0
LINE
8
BLACK
6
CONTINUOUS
10
151.02
20
-84.7268
11
151.022
21
-84.7331
0
LINE
8
BLACK
6
CONTINUOUS
10
151.022
20
-84.7331
11
151.027
21
-84.7375
0
LINE
8
BLACK
6
CONTINUOUS
10
151.027
20
-84.7375
11
151.031
21
-84.7567
0
LINE
8
BLACK
6
CONTINUOUS
10
151.031
20
-84.7567
11
151.037
21
-84.775
0
LINE
8
BLACK
6
CONTINUOUS
10
151.037
20
-84.775
11
151.037
21
-98.575
0
LINE
8
BLACK
6
CONTINUOUS
10
151.037
20
-98.575
11
151.036
21
-98.5847
0
LINE
8
BLACK
6
CONTINUOUS
10
151.036
20
-98.5847
11
151.036
21
-98.588
0
LINE
8
BLACK
6
CONTINUOUS
10
151.036
20
-98.588
11
151.035
21
-98.5909
0
LINE
8
BLACK
6
CONTINUOUS
10
151.035
20
-98.5909
11
151.033
21
-98.6007
0
LINE
8
BLACK
6
CONTINUOUS
10
151.033
20
-98.6007
11
151.02
21
-98.6156
0
LINE
8
BLACK
6
CONTINUOUS
10
151.02
20
-98.6156
11
151.011
21
-98.6325
0
LINE
8
BLACK
6
CONTINUOUS
10
151.011
20
-98.6325
11
151.004
21
-98.6348
0
LINE
8
BLACK
6
CONTINUOUS
10
151.004
20
-98.6348
11
151
21
-98.64
0
LINE
8
BLACK
6
CONTINUOUS
10
151
20
-98.64
11
150.981
21
-98.6433
0
LINE
8
BLACK
6
CONTINUOUS
10
150.981
20
-98.6433
11
150.963
21
-98.65
0
LINE
8
BLACK
6
CONTINUOUS
10
150.963
20
-98.65
11
137.162
21
-98.65
0
LINE
8
BLACK
6
CONTINUOUS
10
137.162
20
-98.65
11
137.153
21
-98.6483
0
LINE
8
BLACK
6
CONTINUOUS
10
137.153
20
-98.6483
11
137.149
21
-98.6489
0
LINE
8
BLACK
6
CONTINUOUS
10
137.149
20
-98.6489
11
137.147
21
-98.6472
0
LINE
8
BLACK
6
CONTINUOUS
10
137.147
20
-98.6472
11
137.137
21
-98.6455
0
LINE
8
BLACK
6
CONTINUOUS
10
137.137
20
-98.6455
11
137.122
21
-98.633
0
LINE
8
BLACK
6
CONTINUOUS
10
137.122
20
-98.633
11
137.105
21
-98.6232
0
LINE
8
BLACK
6
CONTINUOUS
10
137.105
20
-98.6232
11
137.103
21
-98.6168
0
LINE
8
BLACK
6
CONTINUOUS
10
137.103
20
-98.6168
11
137.098
21
-98.6125
0
LINE
8
BLACK
6
CONTINUOUS
10
137.098
20
-98.6125
11
137.094
21
-98.5933
0
LINE
8
BLACK
6
CONTINUOUS
10
137.094
20
-98.5933
11
137.088
21
-98.575
0
LINE
8
BLACK
6
CONTINUOUS
10
137.088
20
-98.575
11
137.088
21
-84.775
0
LINE
8
BLACK
6
CONTINUOUS
10
137.088
20
-84.775
11
137.089
21
-84.7653
0
LINE
8
BLACK
6
CONTINUOUS
10
137.089
20
-84.7653
11
137.089
21
-84.762
0
LINE
8
BLACK
6
CONTINUOUS
10
137.089
20
-84.762
11
137.09
21
-84.7591
0
LINE
8
BLACK
6
CONTINUOUS
10
137.09
20
-84.7591
11
137.092
21
-84.7493
0
LINE
8
BLACK
6
CONTINUOUS
10
137.092
20
-84.7493
11
137.105
21
-84.7344
0
LINE
8
BLACK
6
CONTINUOUS
10
137.105
20
-84.7344
11
137.114
21
-84.7175
0
LINE
8
BLACK
6
CONTINUOUS
10
137.114
20
-84.7175
11
137.121
21
-84.7152
0
LINE
8
BLACK
6
CONTINUOUS
10
137.121
20
-84.7152
11
137.125
21
-84.71
0
LINE
8
BLACK
6
CONTINUOUS
10
137.125
20
-84.71
11
137.144
21
-84.7067
0
LINE
8
BLACK
6
CONTINUOUS
10
137.144
20
-84.7067
11
137.162
21
-84.7
0
LINE
8
BLACK
6
CONTINUOUS
10
137.162
20
-84.7
11
150.963
21
-84.7
0
LINE
8
BLACK
6
CONTINUOUS
10
150.963
20
-84.7
11
150.972
21
-84.7017
0
LINE
8
BLACK
6
CONTINUOUS
10
137.237
20
-84.85
11
137.237
21
-98.5
0
LINE
8
BLACK
6
CONTINUOUS
10
137.237
20
-98.5
11
150.887
21
-98.5
0
LINE
8
BLACK
6
CONTINUOUS
10
150.887
20
-98.5
11
150.887
21
-84.85
0
LINE
8
BLACK
6
CONTINUOUS
10
150.887
20
-84.85
11
137.237
21
-84.85
0
LINE
8
BLACK
6
CONTINUOUS
10
131.922
20
-84.7017
11
131.926
21
-84.7011
0
LINE
8
BLACK
6
CONTINUOUS
10
131.926
20
-84.7011
11
131.928
21
-84.7028
0
LINE
8
BLACK
6
CONTINUOUS
10
131.928
20
-84.7028
11
131.938
21
-84.7045
0
LINE
8
BLACK
6
CONTINUOUS
10
131.938
20
-84.7045
11
131.953
21
-84.717
0
LINE
8
BLACK
6
CONTINUOUS
10
131.953
20
-84.717
11
131.97
21
-84.7268
0
LINE
8
BLACK
6
CONTINUOUS
10
131.97
20
-84.7268
11
131.972
21
-84.7331
0
LINE
8
BLACK
6
CONTINUOUS
10
131.972
20
-84.7331
11
131.977
21
-84.7375
0
LINE
8
BLACK
6
CONTINUOUS
10
131.977
20
-84.7375
11
131.981
21
-84.7567
0
LINE
8
BLACK
6
CONTINUOUS
10
131.981
20
-84.7567
11
131.987
21
-84.775
0
LINE
8
BLACK
6
CONTINUOUS
10
131.987
20
-84.775
11
131.987
21
-98.575
0
LINE
8
BLACK
6
CONTINUOUS
10
131.987
20
-98.575
11
131.986
21
-98.5847
0
LINE
8
BLACK
6
CONTINUOUS
10
131.986
20
-98.5847
11
131.986
21
-98.588
0
LINE
8
BLACK
6
CONTINUOUS
10
131.986
20
-98.588
11
131.985
21
-98.5909
0
LINE
8
BLACK
6
CONTINUOUS
10
131.985
20
-98.5909
11
131.983
21
-98.6007
0
LINE
8
BLACK
6
CONTINUOUS
10
131.983
20
-98.6007
11
131.97
21
-98.6156
0
LINE
8
BLACK
6
CONTINUOUS
10
131.97
20
-98.6156
11
131.961
21
-98.6325
0
LINE
8
BLACK
6
CONTINUOUS
10
131.961
20
-98.6325
11
131.954
21
-98.6348
0
LINE
8
BLACK
6
CONTINUOUS
10
131.954
20
-98.6348
11
131.95
21
-98.64
0
LINE
8
BLACK
6
CONTINUOUS
10
131.95
20
-98.64
11
131.931
21
-98.6433
0
LINE
8
BLACK
6
CONTINUOUS
10
131.931
20
-98.6433
11
131.912
21
-98.65
0
LINE
8
BLACK
6
CONTINUOUS
10
131.912
20
-98.65
11
118.112
21
-98.65
0
LINE
8
BLACK
6
CONTINUOUS
10
118.112
20
-98.65
11
118.103
21
-98.6483
0
LINE
8
BLACK
6
CONTINUOUS
10
118.103
20
-98.6483
11
118.099
21
-98.6489
0
LINE
8
BLACK
6
CONTINUOUS
10
118.099
20
-98.6489
11
118.097
21
-98.6472
0
LINE
8
BLACK
6
CONTINUOUS
10
118.097
20
-98.6472
11
118.087
21
-98.6455
0
LINE
8
BLACK
6
CONTINUOUS
10
118.087
20
-98.6455
11
118.072
21
-98.633
0
LINE
8
BLACK
6
CONTINUOUS
10
118.072
20
-98.633
11
118.055
21
-98.6232
0
LINE
8
BLACK
6
CONTINUOUS
10
118.055
20
-98.6232
11
118.053
21
-98.6168
0
LINE
8
BLACK
6
CONTINUOUS
10
118.053
20
-98.6168
11
118.048
21
-98.6125
0
LINE
8
BLACK
6
CONTINUOUS
10
118.048
20
-98.6125
11
118.044
21
-98.5933
0
LINE
8
BLACK
6
CONTINUOUS
10
118.044
20
-98.5933
11
118.037
21
-98.575
0
LINE
8
BLACK
6
CONTINUOUS
10
118.037
20
-98.575
11
118.037
21
-84.775
0
LINE
8
BLACK
6
CONTINUOUS
10
118.037
20
-84.775
11
118.039
21
-84.7653
0
LINE
8
BLACK
6
CONTINUOUS
10
118.039
20
-84.7653
11
118.039
21
-84.762
0
LINE
8
BLACK
6
CONTINUOUS
10
118.039
20
-84.762
11
118.04
21
-84.7591
0
LINE
8
BLACK
6
CONTINUOUS
10
118.04
20
-84.7591
11
118.042
21
-84.7493
0
LINE
8
BLACK
6
CONTINUOUS
10
118.042
20
-84.7493
11
118.055
21
-84.7344
0
LINE
8
BLACK
6
CONTINUOUS
10
118.055
20
-84.7344
11
118.064
21
-84.7175
0
LINE
8
BLACK
6
CONTINUOUS
10
118.064
20
-84.7175
11
118.071
21
-84.7152
0
LINE
8
BLACK
6
CONTINUOUS
10
118.071
20
-84.7152
11
118.075
21
-84.71
0
LINE
8
BLACK
6
CONTINUOUS
10
118.075
20
-84.71
11
118.094
21
-84.7067
0
LINE
8
BLACK
6
CONTINUOUS
10
118.094
20
-84.7067
11
118.112
21
-84.7
0
LINE
8
BLACK
6
CONTINUOUS
10
118.112
20
-84.7
11
131.912
21
-84.7
0
LINE
8
BLACK
6
CONTINUOUS
10
131.912
20
-84.7
11
131.922
21
-84.7017
0
LINE
8
BLACK
6
CONTINUOUS
10
118.188
20
-84.85
11
118.188
21
-98.5
0
LINE
8
BLACK
6
CONTINUOUS
10
118.188
20
-98.5
11
131.838
21
-98.5
0
LINE
8
BLACK
6
CONTINUOUS
10
131.838
20
-98.5
11
131.838
21
-84.85
0
LINE
8
BLACK
6
CONTINUOUS
10
131.838
20
-84.85
11
118.188
21
-84.85
0
LINE
8
BLACK
6
CONTINUOUS
10
112.872
20
-84.7017
11
112.876
21
-84.7011
0
LINE
8
BLACK
6
CONTINUOUS
10
112.876
20
-84.7011
11
112.878
21
-84.7028
0
LINE
8
BLACK
6
CONTINUOUS
10
112.878
20
-84.7028
11
112.888
21
-84.7045
0
LINE
8
BLACK
6
CONTINUOUS
10
112.888
20
-84.7045
11
112.903
21
-84.717
0
LINE
8
BLACK
6
CONTINUOUS
10
112.903
20
-84.717
11
112.92
21
-84.7268
0
LINE
8
BLACK
6
CONTINUOUS
10
112.92
20
-84.7268
11
112.922
21
-84.7331
0
LINE
8
BLACK
6
CONTINUOUS
10
112.922
20
-84.7331
11
112.927
21
-84.7375
0
LINE
8
BLACK
6
CONTINUOUS
10
112.927
20
-84.7375
11
112.931
21
-84.7567
0
LINE
8
BLACK
6
CONTINUOUS
10
112.931
20
-84.7567
11
112.938
21
-84.775
0
LINE
8
BLACK
6
CONTINUOUS
10
112.938
20
-84.775
11
112.938
21
-98.575
0
LINE
8
BLACK
6
CONTINUOUS
10
112.938
20
-98.575
11
112.936
21
-98.5847
0
LINE
8
BLACK
6
CONTINUOUS
10
112.936
20
-98.5847
11
112.936
21
-98.588
0
LINE
8
BLACK
6
CONTINUOUS
10
112.936
20
-98.588
11
112.935
21
-98.5909
0
LINE
8
BLACK
6
CONTINUOUS
10
112.935
20
-98.5909
11
112.933
21
-98.6007
0
LINE
8
BLACK
6
CONTINUOUS
10
112.933
20
-98.6007
11
112.92
21
-98.6156
0
LINE
8
BLACK
6
CONTINUOUS
10
112.92
20
-98.6156
11
112.911
21
-98.6325
0
LINE
8
BLACK
6
CONTINUOUS
10
112.911
20
-98.6325
11
112.904
21
-98.6348
0
LINE
8
BLACK
6
CONTINUOUS
10
112.904
20
-98.6348
11
112.9
21
-98.64
0
LINE
8
BLACK
6
CONTINUOUS
10
112.9
20
-98.64
11
112.881
21
-98.6433
0
LINE
8
BLACK
6
CONTINUOUS
10
112.881
20
-98.6433
11
112.862
21
-98.65
0
LINE
8
BLACK
6
CONTINUOUS
10
112.862
20
-98.65
11
99.0625
21
-98.65
0
LINE
8
BLACK
6
CONTINUOUS
10
99.0625
20
-98.65
11
99.0528
21
-98.6483
0
LINE
8
BLACK
6
CONTINUOUS
10
99.0528
20
-98.6483
11
99.0495
21
-98.6489
0
LINE
8
BLACK
6
CONTINUOUS
10
99.0495
20
-98.6489
11
99.0466
21
-98.6472
0
LINE
8
BLACK
6
CONTINUOUS
10
99.0466
20
-98.6472
11
99.0368
21
-98.6455
0
LINE
8
BLACK
6
CONTINUOUS
10
99.0368
20
-98.6455
11
99.0219
21
-98.633
0
LINE
8
BLACK
6
CONTINUOUS
10
99.0219
20
-98.633
11
99.005
21
-98.6232
0
LINE
8
BLACK
6
CONTINUOUS
10
99.005
20
-98.6232
11
99.0027
21
-98.6168
0
LINE
8
BLACK
6
CONTINUOUS
10
99.0027
20
-98.6168
11
98.9975
21
-98.6125
0
LINE
8
BLACK
6
CONTINUOUS
10
98.9975
20
-98.6125
11
98.9942
21
-98.5933
0
LINE
8
BLACK
6
CONTINUOUS
10
98.9942
20
-98.5933
11
98.9875
21
-98.575
0
LINE
8
BLACK
6
CONTINUOUS
10
98.9875
20
-98.575
11
98.9875
21
-84.775
0
LINE
8
BLACK
6
CONTINUOUS
10
98.9875
20
-84.775
11
98.9892
21
-84.7653
0
LINE
8
BLACK
6
CONTINUOUS
10
98.9892
20
-84.7653
11
98.9886
21
-84.762
0
LINE
8
BLACK
6
CONTINUOUS
10
98.9886
20
-84.762
11
98.9903
21
-84.7591
0
LINE
8
BLACK
6
CONTINUOUS
10
98.9903
20
-84.7591
11
98.992
21
-84.7493
0
LINE
8
BLACK
6
CONTINUOUS
10
98.992
20
-84.7493
11
99.0045
21
-84.7344
0
LINE
8
BLACK
6
CONTINUOUS
10
99.0045
20
-84.7344
11
99.0143
21
-84.7175
0
LINE
8
BLACK
6
CONTINUOUS
10
99.0143
20
-84.7175
11
99.0206
21
-84.7152
0
LINE
8
BLACK
6
CONTINUOUS
10
99.0206
20
-84.7152
11
99.025
21
-84.71
0
LINE
8
BLACK
6
CONTINUOUS
10
99.025
20
-84.71
11
99.0442
21
-84.7067
0
LINE
8
BLACK
6
CONTINUOUS
10
99.0442
20
-84.7067
11
99.0625
21
-84.7
0
LINE
8
BLACK
6
CONTINUOUS
10
99.0625
20
-84.7
11
112.862
21
-84.7
0
LINE
8
BLACK
6
CONTINUOUS
10
112.862
20
-84.7
11
112.872
21
-84.7017
0
LINE
8
BLACK
6
CONTINUOUS
10
99.1375
20
-84.85
11
99.1375
21
-98.5
0
LINE
8
BLACK
6
CONTINUOUS
10
99.1375
20
-98.5
11
112.787
21
-98.5
0
LINE
8
BLACK
6
CONTINUOUS
10
112.787
20
-98.5
11
112.787
21
-84.85
0
LINE
8
BLACK
6
CONTINUOUS
10
112.787
20
-84.85
11
99.1375
21
-84.85
0
LINE
8
BLACK
6
CONTINUOUS
10
93.8222
20
-84.7017
11
93.8255
21
-84.7011
0
LINE
8
BLACK
6
CONTINUOUS
10
93.8255
20
-84.7011
11
93.8284
21
-84.7028
0
LINE
8
BLACK
6
CONTINUOUS
10
93.8284
20
-84.7028
11
93.8382
21
-84.7045
0
LINE
8
BLACK
6
CONTINUOUS
10
93.8382
20
-84.7045
11
93.8531
21
-84.717
0
LINE
8
BLACK
6
CONTINUOUS
10
93.8531
20
-84.717
11
93.87
21
-84.7268
0
LINE
8
BLACK
6
CONTINUOUS
10
93.87
20
-84.7268
11
93.8723
21
-84.7331
0
LINE
8
BLACK
6
CONTINUOUS
10
93.8723
20
-84.7331
11
93.8775
21
-84.7375
0
LINE
8
BLACK
6
CONTINUOUS
10
93.8775
20
-84.7375
11
93.8808
21
-84.7567
0
LINE
8
BLACK
6
CONTINUOUS
10
93.8808
20
-84.7567
11
93.8875
21
-84.775
0
LINE
8
BLACK
6
CONTINUOUS
10
93.8875
20
-84.775
11
93.8875
21
-98.575
0
LINE
8
BLACK
6
CONTINUOUS
10
93.8875
20
-98.575
11
93.8858
21
-98.5847
0
LINE
8
BLACK
6
CONTINUOUS
10
93.8858
20
-98.5847
11
93.8864
21
-98.588
0
LINE
8
BLACK
6
CONTINUOUS
10
93.8864
20
-98.588
11
93.8847
21
-98.5909
0
LINE
8
BLACK
6
CONTINUOUS
10
93.8847
20
-98.5909
11
93.883
21
-98.6007
0
LINE
8
BLACK
6
CONTINUOUS
10
93.883
20
-98.6007
11
93.8705
21
-98.6156
0
LINE
8
BLACK
6
CONTINUOUS
10
93.8705
20
-98.6156
11
93.8607
21
-98.6325
0
LINE
8
BLACK
6
CONTINUOUS
10
93.8607
20
-98.6325
11
93.8543
21
-98.6348
0
LINE
8
BLACK
6
CONTINUOUS
10
93.8543
20
-98.6348
11
93.85
21
-98.64
0
LINE
8
BLACK
6
CONTINUOUS
10
93.85
20
-98.64
11
93.8308
21
-98.6433
0
LINE
8
BLACK
6
CONTINUOUS
10
93.8308
20
-98.6433
11
93.8125
21
-98.65
0
LINE
8
BLACK
6
CONTINUOUS
10
93.8125
20
-98.65
11
80.0125
21
-98.65
0
LINE
8
BLACK
6
CONTINUOUS
10
80.0125
20
-98.65
11
80.0028
21
-98.6483
0
LINE
8
BLACK
6
CONTINUOUS
10
80.0028
20
-98.6483
11
79.9995
21
-98.6489
0
LINE
8
BLACK
6
CONTINUOUS
10
79.9995
20
-98.6489
11
79.9966
21
-98.6472
0
LINE
8
BLACK
6
CONTINUOUS
10
79.9966
20
-98.6472
11
79.9868
21
-98.6455
0
LINE
8
BLACK
6
CONTINUOUS
10
79.9868
20
-98.6455
11
79.9719
21
-98.633
0
LINE
8
BLACK
6
CONTINUOUS
10
79.9719
20
-98.633
11
79.955
21
-98.6232
0
LINE
8
BLACK
6
CONTINUOUS
10
79.955
20
-98.6232
11
79.9527
21
-98.6168
0
LINE
8
BLACK
6
CONTINUOUS
10
79.9527
20
-98.6168
11
79.9475
21
-98.6125
0
LINE
8
BLACK
6
CONTINUOUS
10
79.9475
20
-98.6125
11
79.9442
21
-98.5933
0
LINE
8
BLACK
6
CONTINUOUS
10
79.9442
20
-98.5933
11
79.9375
21
-98.575
0
LINE
8
BLACK
6
CONTINUOUS
10
79.9375
20
-98.575
11
79.9375
21
-84.775
0
LINE
8
BLACK
6
CONTINUOUS
10
79.9375
20
-84.775
11
79.9392
21
-84.7653
0
LINE
8
BLACK
6
CONTINUOUS
10
79.9392
20
-84.7653
11
79.9386
21
-84.762
0
LINE
8
BLACK
6
CONTINUOUS
10
79.9386
20
-84.762
11
79.9403
21
-84.7591
0
LINE
8
BLACK
6
CONTINUOUS
10
79.9403
20
-84.7591
11
79.942
21
-84.7493
0
LINE
8
BLACK
6
CONTINUOUS
10
79.942
20
-84.7493
11
79.9545
21
-84.7344
0
LINE
8
BLACK
6
CONTINUOUS
10
79.9545
20
-84.7344
11
79.9643
21
-84.7175
0
LINE
8
BLACK
6
CONTINUOUS
10
79.9643
20
-84.7175
11
79.9706
21
-84.7152
0
LINE
8
BLACK
6
CONTINUOUS
10
79.9706
20
-84.7152
11
79.975
21
-84.71
0
LINE
8
BLACK
6
CONTINUOUS
10
79.975
20
-84.71
11
79.9942
21
-84.7067
0
LINE
8
BLACK
6
CONTINUOUS
10
79.9942
20
-84.7067
11
80.0125
21
-84.7
0
LINE
8
BLACK
6
CONTINUOUS
10
80.0125
20
-84.7
11
93.8125
21
-84.7
0
LINE
8
BLACK
6
CONTINUOUS
10
93.8125
20
-84.7
11
93.8222
21
-84.7017
0
LINE
8
BLACK
6
CONTINUOUS
10
80.0875
20
-84.85
11
80.0875
21
-98.5
0
LINE
8
BLACK
6
CONTINUOUS
10
80.0875
20
-98.5
11
93.7375
21
-98.5
0
LINE
8
BLACK
6
CONTINUOUS
10
93.7375
20
-98.5
11
93.7375
21
-84.85
0
LINE
8
BLACK
6
CONTINUOUS
10
93.7375
20
-84.85
11
80.0875
21
-84.85
0
LINE
8
BLACK
6
CONTINUOUS
10
74.7722
20
-84.7017
11
74.7755
21
-84.7011
0
LINE
8
BLACK
6
CONTINUOUS
10
74.7755
20
-84.7011
11
74.7784
21
-84.7028
0
LINE
8
BLACK
6
CONTINUOUS
10
74.7784
20
-84.7028
11
74.7882
21
-84.7045
0
LINE
8
BLACK
6
CONTINUOUS
10
74.7882
20
-84.7045
11
74.8031
21
-84.717
0
LINE
8
BLACK
6
CONTINUOUS
10
74.8031
20
-84.717
11
74.82
21
-84.7268
0
LINE
8
BLACK
6
CONTINUOUS
10
74.82
20
-84.7268
11
74.8223
21
-84.7331
0
LINE
8
BLACK
6
CONTINUOUS
10
74.8223
20
-84.7331
11
74.8275
21
-84.7375
0
LINE
8
BLACK
6
CONTINUOUS
10
74.8275
20
-84.7375
11
74.8308
21
-84.7567
0
LINE
8
BLACK
6
CONTINUOUS
10
74.8308
20
-84.7567
11
74.8375
21
-84.775
0
LINE
8
BLACK
6
CONTINUOUS
10
74.8375
20
-84.775
11
74.8375
21
-98.575
0
LINE
8
BLACK
6
CONTINUOUS
10
74.8375
20
-98.575
11
74.8358
21
-98.5847
0
LINE
8
BLACK
6
CONTINUOUS
10
74.8358
20
-98.5847
11
74.8364
21
-98.588
0
LINE
8
BLACK
6
CONTINUOUS
10
74.8364
20
-98.588
11
74.8347
21
-98.5909
0
LINE
8
BLACK
6
CONTINUOUS
10
74.8347
20
-98.5909
11
74.833
21
-98.6007
0
LINE
8
BLACK
6
CONTINUOUS
10
74.833
20
-98.6007
11
74.8205
21
-98.6156
0
LINE
8
BLACK
6
CONTINUOUS
10
74.8205
20
-98.6156
11
74.8107
21
-98.6325
0
LINE
8
BLACK
6
CONTINUOUS
10
74.8107
20
-98.6325
11
74.8043
21
-98.6348
0
LINE
8
BLACK
6
CONTINUOUS
10
74.8043
20
-98.6348
11
74.8
21
-98.64
0
LINE
8
BLACK
6
CONTINUOUS
10
74.8
20
-98.64
11
74.7808
21
-98.6433
0
LINE
8
BLACK
6
CONTINUOUS
10
74.7808
20
-98.6433
11
74.7625
21
-98.65
0
LINE
8
BLACK
6
CONTINUOUS
10
74.7625
20
-98.65
11
60.9625
21
-98.65
0
LINE
8
BLACK
6
CONTINUOUS
10
60.9625
20
-98.65
11
60.9528
21
-98.6483
0
LINE
8
BLACK
6
CONTINUOUS
10
60.9528
20
-98.6483
11
60.9495
21
-98.6489
0
LINE
8
BLACK
6
CONTINUOUS
10
60.9495
20
-98.6489
11
60.9466
21
-98.6472
0
LINE
8
BLACK
6
CONTINUOUS
10
60.9466
20
-98.6472
11
60.9368
21
-98.6455
0
LINE
8
BLACK
6
CONTINUOUS
10
60.9368
20
-98.6455
11
60.9219
21
-98.633
0
LINE
8
BLACK
6
CONTINUOUS
10
60.9219
20
-98.633
11
60.905
21
-98.6232
0
LINE
8
BLACK
6
CONTINUOUS
10
60.905
20
-98.6232
11
60.9027
21
-98.6168
0
LINE
8
BLACK
6
CONTINUOUS
10
60.9027
20
-98.6168
11
60.8975
21
-98.6125
0
LINE
8
BLACK
6
CONTINUOUS
10
60.8975
20
-98.6125
11
60.8942
21
-98.5933
0
LINE
8
BLACK
6
CONTINUOUS
10
60.8942
20
-98.5933
11
60.8875
21
-98.575
0
LINE
8
BLACK
6
CONTINUOUS
10
60.8875
20
-98.575
11
60.8875
21
-84.775
0
LINE
8
BLACK
6
CONTINUOUS
10
60.8875
20
-84.775
11
60.8892
21
-84.7653
0
LINE
8
BLACK
6
CONTINUOUS
10
60.8892
20
-84.7653
11
60.8886
21
-84.762
0
LINE
8
BLACK
6
CONTINUOUS
10
60.8886
20
-84.762
11
60.8903
21
-84.7591
0
LINE
8
BLACK
6
CONTINUOUS
10
60.8903
20
-84.7591
11
60.892
21
-84.7493
0
LINE
8
BLACK
6
CONTINUOUS
10
60.892
20
-84.7493
11
60.9045
21
-84.7344
0
LINE
8
BLACK
6
CONTINUOUS
10
60.9045
20
-84.7344
11
60.9143
21
-84.7175
0
LINE
8
BLACK
6
CONTINUOUS
10
60.9143
20
-84.7175
11
60.9206
21
-84.7152
0
LINE
8
BLACK
6
CONTINUOUS
10
60.9206
20
-84.7152
11
60.925
21
-84.71
0
LINE
8
BLACK
6
CONTINUOUS
10
60.925
20
-84.71
11
60.9442
21
-84.7067
0
LINE
8
BLACK
6
CONTINUOUS
10
60.9442
20
-84.7067
11
60.9625
21
-84.7
0
LINE
8
BLACK
6
CONTINUOUS
10
60.9625
20
-84.7
11
74.7625
21
-84.7
0
LINE
8
BLACK
6
CONTINUOUS
10
74.7625
20
-84.7
11
74.7722
21
-84.7017
0
LINE
8
BLACK
6
CONTINUOUS
10
61.0375
20
-84.85
11
61.0375
21
-98.5
0
LINE
8
BLACK
6
CONTINUOUS
10
61.0375
20
-98.5
11
74.6875
21
-98.5
0
LINE
8
BLACK
6
CONTINUOUS
10
74.6875
20
-98.5
11
74.6875
21
-84.85
0
LINE
8
BLACK
6
CONTINUOUS
10
74.6875
20
-84.85
11
61.0375
21
-84.85
0
LINE
8
BLACK
6
CONTINUOUS
10
46.1972
20
-84.7017
11
46.2005
21
-84.7011
0
LINE
8
BLACK
6
CONTINUOUS
10
46.2005
20
-84.7011
11
46.2034
21
-84.7028
0
LINE
8
BLACK
6
CONTINUOUS
10
46.2034
20
-84.7028
11
46.2132
21
-84.7045
0
LINE
8
BLACK
6
CONTINUOUS
10
46.2132
20
-84.7045
11
46.2281
21
-84.717
0
LINE
8
BLACK
6
CONTINUOUS
10
46.2281
20
-84.717
11
46.245
21
-84.7268
0
LINE
8
BLACK
6
CONTINUOUS
10
46.245
20
-84.7268
11
46.2473
21
-84.7331
0
LINE
8
BLACK
6
CONTINUOUS
10
46.2473
20
-84.7331
11
46.2525
21
-84.7375
0
LINE
8
BLACK
6
CONTINUOUS
10
46.2525
20
-84.7375
11
46.2558
21
-84.7567
0
LINE
8
BLACK
6
CONTINUOUS
10
46.2558
20
-84.7567
11
46.2625
21
-84.775
0
LINE
8
BLACK
6
CONTINUOUS
10
46.2625
20
-84.775
11
46.2625
21
-98.575
0
LINE
8
BLACK
6
CONTINUOUS
10
46.2625
20
-98.575
11
46.2608
21
-98.5847
0
LINE
8
BLACK
6
CONTINUOUS
10
46.2608
20
-98.5847
11
46.2614
21
-98.588
0
LINE
8
BLACK
6
CONTINUOUS
10
46.2614
20
-98.588
11
46.2597
21
-98.5909
0
LINE
8
BLACK
6
CONTINUOUS
10
46.2597
20
-98.5909
11
46.258
21
-98.6007
0
LINE
8
BLACK
6
CONTINUOUS
10
46.258
20
-98.6007
11
46.2455
21
-98.6156
0
LINE
8
BLACK
6
CONTINUOUS
10
46.2455
20
-98.6156
11
46.2357
21
-98.6325
0
LINE
8
BLACK
6
CONTINUOUS
10
46.2357
20
-98.6325
11
46.2293
21
-98.6348
0
LINE
8
BLACK
6
CONTINUOUS
10
46.2293
20
-98.6348
11
46.225
21
-98.64
0
LINE
8
BLACK
6
CONTINUOUS
10
46.225
20
-98.64
11
46.2058
21
-98.6433
0
LINE
8
BLACK
6
CONTINUOUS
10
46.2058
20
-98.6433
11
46.1875
21
-98.65
0
LINE
8
BLACK
6
CONTINUOUS
10
46.1875
20
-98.65
11
32.3875
21
-98.65
0
LINE
8
BLACK
6
CONTINUOUS
10
32.3875
20
-98.65
11
32.3778
21
-98.6483
0
LINE
8
BLACK
6
CONTINUOUS
10
32.3778
20
-98.6483
11
32.3745
21
-98.6489
0
LINE
8
BLACK
6
CONTINUOUS
10
32.3745
20
-98.6489
11
32.3716
21
-98.6472
0
LINE
8
BLACK
6
CONTINUOUS
10
32.3716
20
-98.6472
11
32.3618
21
-98.6455
0
LINE
8
BLACK
6
CONTINUOUS
10
32.3618
20
-98.6455
11
32.3469
21
-98.633
0
LINE
8
BLACK
6
CONTINUOUS
10
32.3469
20
-98.633
11
32.33
21
-98.6232
0
LINE
8
BLACK
6
CONTINUOUS
10
32.33
20
-98.6232
11
32.3277
21
-98.6168
0
LINE
8
BLACK
6
CONTINUOUS
10
32.3277
20
-98.6168
11
32.3225
21
-98.6125
0
LINE
8
BLACK
6
CONTINUOUS
10
32.3225
20
-98.6125
11
32.3192
21
-98.5933
0
LINE
8
BLACK
6
CONTINUOUS
10
32.3192
20
-98.5933
11
32.3125
21
-98.575
0
LINE
8
BLACK
6
CONTINUOUS
10
32.3125
20
-98.575
11
32.3125
21
-84.775
0
LINE
8
BLACK
6
CONTINUOUS
10
32.3125
20
-84.775
11
32.3142
21
-84.7653
0
LINE
8
BLACK
6
CONTINUOUS
10
32.3142
20
-84.7653
11
32.3136
21
-84.762
0
LINE
8
BLACK
6
CONTINUOUS
10
32.3136
20
-84.762
11
32.3153
21
-84.7591
0
LINE
8
BLACK
6
CONTINUOUS
10
32.3153
20
-84.7591
11
32.317
21
-84.7493
0
LINE
8
BLACK
6
CONTINUOUS
10
32.317
20
-84.7493
11
32.3295
21
-84.7344
0
LINE
8
BLACK
6
CONTINUOUS
10
32.3295
20
-84.7344
11
32.3393
21
-84.7175
0
LINE
8
BLACK
6
CONTINUOUS
10
32.3393
20
-84.7175
11
32.3456
21
-84.7152
0
LINE
8
BLACK
6
CONTINUOUS
10
32.3456
20
-84.7152
11
32.35
21
-84.71
0
LINE
8
BLACK
6
CONTINUOUS
10
32.35
20
-84.71
11
32.3692
21
-84.7067
0
LINE
8
BLACK
6
CONTINUOUS
10
32.3692
20
-84.7067
11
32.3875
21
-84.7
0
LINE
8
BLACK
6
CONTINUOUS
10
32.3875
20
-84.7
11
46.1875
21
-84.7
0
LINE
8
BLACK
6
CONTINUOUS
10
46.1875
20
-84.7
11
46.1972
21
-84.7017
0
LINE
8
BLACK
6
CONTINUOUS
10
32.4625
20
-84.85
11
32.4625
21
-98.5
0
LINE
8
BLACK
6
CONTINUOUS
10
32.4625
20
-98.5
11
46.1125
21
-98.5
0
LINE
8
BLACK
6
CONTINUOUS
10
46.1125
20
-98.5
11
46.1125
21
-84.85
0
LINE
8
BLACK
6
CONTINUOUS
10
46.1125
20
-84.85
11
32.4625
21
-84.85
0
LINE
8
BLACK
6
CONTINUOUS
10
255.747
20
-65.6517
11
255.751
21
-65.6511
0
LINE
8
BLACK
6
CONTINUOUS
10
255.751
20
-65.6511
11
255.753
21
-65.6528
0
LINE
8
BLACK
6
CONTINUOUS
10
255.753
20
-65.6528
11
255.763
21
-65.6545
0
LINE
8
BLACK
6
CONTINUOUS
10
255.763
20
-65.6545
11
255.778
21
-65.667
0
LINE
8
BLACK
6
CONTINUOUS
10
255.778
20
-65.667
11
255.795
21
-65.6768
0
LINE
8
BLACK
6
CONTINUOUS
10
255.795
20
-65.6768
11
255.797
21
-65.6831
0
LINE
8
BLACK
6
CONTINUOUS
10
255.797
20
-65.6831
11
255.802
21
-65.6875
0
LINE
8
BLACK
6
CONTINUOUS
10
255.802
20
-65.6875
11
255.806
21
-65.7067
0
LINE
8
BLACK
6
CONTINUOUS
10
255.806
20
-65.7067
11
255.812
21
-65.725
0
LINE
8
BLACK
6
CONTINUOUS
10
255.812
20
-65.725
11
255.812
21
-79.525
0
LINE
8
BLACK
6
CONTINUOUS
10
255.812
20
-79.525
11
255.811
21
-79.5347
0
LINE
8
BLACK
6
CONTINUOUS
10
255.811
20
-79.5347
11
255.811
21
-79.538
0
LINE
8
BLACK
6
CONTINUOUS
10
255.811
20
-79.538
11
255.81
21
-79.5409
0
LINE
8
BLACK
6
CONTINUOUS
10
255.81
20
-79.5409
11
255.808
21
-79.5507
0
LINE
8
BLACK
6
CONTINUOUS
10
255.808
20
-79.5507
11
255.795
21
-79.5656
0
LINE
8
BLACK
6
CONTINUOUS
10
255.795
20
-79.5656
11
255.786
21
-79.5825
0
LINE
8
BLACK
6
CONTINUOUS
10
255.786
20
-79.5825
11
255.779
21
-79.5848
0
LINE
8
BLACK
6
CONTINUOUS
10
255.779
20
-79.5848
11
255.775
21
-79.59
0
LINE
8
BLACK
6
CONTINUOUS
10
255.775
20
-79.59
11
255.756
21
-79.5933
0
LINE
8
BLACK
6
CONTINUOUS
10
255.756
20
-79.5933
11
255.737
21
-79.6
0
LINE
8
BLACK
6
CONTINUOUS
10
255.737
20
-79.6
11
241.938
21
-79.6
0
LINE
8
BLACK
6
CONTINUOUS
10
241.938
20
-79.6
11
241.928
21
-79.5983
0
LINE
8
BLACK
6
CONTINUOUS
10
241.928
20
-79.5983
11
241.924
21
-79.5989
0
LINE
8
BLACK
6
CONTINUOUS
10
241.924
20
-79.5989
11
241.922
21
-79.5972
0
LINE
8
BLACK
6
CONTINUOUS
10
241.922
20
-79.5972
11
241.912
21
-79.5955
0
LINE
8
BLACK
6
CONTINUOUS
10
241.912
20
-79.5955
11
241.897
21
-79.583
0
LINE
8
BLACK
6
CONTINUOUS
10
241.897
20
-79.583
11
241.88
21
-79.5732
0
LINE
8
BLACK
6
CONTINUOUS
10
241.88
20
-79.5732
11
241.878
21
-79.5669
0
LINE
8
BLACK
6
CONTINUOUS
10
241.878
20
-79.5669
11
241.873
21
-79.5625
0
LINE
8
BLACK
6
CONTINUOUS
10
241.873
20
-79.5625
11
241.869
21
-79.5433
0
LINE
8
BLACK
6
CONTINUOUS
10
241.869
20
-79.5433
11
241.862
21
-79.525
0
LINE
8
BLACK
6
CONTINUOUS
10
241.862
20
-79.525
11
241.862
21
-65.725
0
LINE
8
BLACK
6
CONTINUOUS
10
241.862
20
-65.725
11
241.864
21
-65.7153
0
LINE
8
BLACK
6
CONTINUOUS
10
241.864
20
-65.7153
11
241.864
21
-65.712
0
LINE
8
BLACK
6
CONTINUOUS
10
241.864
20
-65.712
11
241.865
21
-65.7091
0
LINE
8
BLACK
6
CONTINUOUS
10
241.865
20
-65.7091
11
241.867
21
-65.6993
0
LINE
8
BLACK
6
CONTINUOUS
10
241.867
20
-65.6993
11
241.88
21
-65.6844
0
LINE
8
BLACK
6
CONTINUOUS
10
241.88
20
-65.6844
11
241.889
21
-65.6675
0
LINE
8
BLACK
6
CONTINUOUS
10
241.889
20
-65.6675
11
241.896
21
-65.6652
0
LINE
8
BLACK
6
CONTINUOUS
10
241.896
20
-65.6652
11
241.9
21
-65.66
0
LINE
8
BLACK
6
CONTINUOUS
10
241.9
20
-65.66
11
241.919
21
-65.6567
0
LINE
8
BLACK
6
CONTINUOUS
10
241.919
20
-65.6567
11
241.938
21
-65.65
0
LINE
8
BLACK
6
CONTINUOUS
10
241.938
20
-65.65
11
255.737
21
-65.65
0
LINE
8
BLACK
6
CONTINUOUS
10
255.737
20
-65.65
11
255.747
21
-65.6517
0
LINE
8
BLACK
6
CONTINUOUS
10
242.012
20
-65.8
11
242.012
21
-79.45
0
LINE
8
BLACK
6
CONTINUOUS
10
242.012
20
-79.45
11
255.662
21
-79.45
0
LINE
8
BLACK
6
CONTINUOUS
10
255.662
20
-79.45
11
255.662
21
-65.8
0
LINE
8
BLACK
6
CONTINUOUS
10
255.662
20
-65.8
11
242.012
21
-65.8
0
LINE
8
BLACK
6
CONTINUOUS
10
236.697
20
-65.6517
11
236.701
21
-65.6511
0
LINE
8
BLACK
6
CONTINUOUS
10
236.701
20
-65.6511
11
236.703
21
-65.6528
0
LINE
8
BLACK
6
CONTINUOUS
10
236.703
20
-65.6528
11
236.713
21
-65.6545
0
LINE
8
BLACK
6
CONTINUOUS
10
236.713
20
-65.6545
11
236.728
21
-65.667
0
LINE
8
BLACK
6
CONTINUOUS
10
236.728
20
-65.667
11
236.745
21
-65.6768
0
LINE
8
BLACK
6
CONTINUOUS
10
236.745
20
-65.6768
11
236.747
21
-65.6831
0
LINE
8
BLACK
6
CONTINUOUS
10
236.747
20
-65.6831
11
236.752
21
-65.6875
0
LINE
8
BLACK
6
CONTINUOUS
10
236.752
20
-65.6875
11
236.756
21
-65.7067
0
LINE
8
BLACK
6
CONTINUOUS
10
236.756
20
-65.7067
11
236.762
21
-65.725
0
LINE
8
BLACK
6
CONTINUOUS
10
236.762
20
-65.725
11
236.762
21
-79.525
0
LINE
8
BLACK
6
CONTINUOUS
10
236.762
20
-79.525
11
236.761
21
-79.5347
0
LINE
8
BLACK
6
CONTINUOUS
10
236.761
20
-79.5347
11
236.761
21
-79.538
0
LINE
8
BLACK
6
CONTINUOUS
10
236.761
20
-79.538
11
236.76
21
-79.5409
0
LINE
8
BLACK
6
CONTINUOUS
10
236.76
20
-79.5409
11
236.758
21
-79.5507
0
LINE
8
BLACK
6
CONTINUOUS
10
236.758
20
-79.5507
11
236.745
21
-79.5656
0
LINE
8
BLACK
6
CONTINUOUS
10
236.745
20
-79.5656
11
236.736
21
-79.5825
0
LINE
8
BLACK
6
CONTINUOUS
10
236.736
20
-79.5825
11
236.729
21
-79.5848
0
LINE
8
BLACK
6
CONTINUOUS
10
236.729
20
-79.5848
11
236.725
21
-79.59
0
LINE
8
BLACK
6
CONTINUOUS
10
236.725
20
-79.59
11
236.706
21
-79.5933
0
LINE
8
BLACK
6
CONTINUOUS
10
236.706
20
-79.5933
11
236.688
21
-79.6
0
LINE
8
BLACK
6
CONTINUOUS
10
236.688
20
-79.6
11
222.887
21
-79.6
0
LINE
8
BLACK
6
CONTINUOUS
10
222.887
20
-79.6
11
222.878
21
-79.5983
0
LINE
8
BLACK
6
CONTINUOUS
10
222.878
20
-79.5983
11
222.874
21
-79.5989
0
LINE
8
BLACK
6
CONTINUOUS
10
222.874
20
-79.5989
11
222.872
21
-79.5972
0
LINE
8
BLACK
6
CONTINUOUS
10
222.872
20
-79.5972
11
222.862
21
-79.5955
0
LINE
8
BLACK
6
CONTINUOUS
10
222.862
20
-79.5955
11
222.847
21
-79.583
0
LINE
8
BLACK
6
CONTINUOUS
10
222.847
20
-79.583
11
222.83
21
-79.5732
0
LINE
8
BLACK
6
CONTINUOUS
10
222.83
20
-79.5732
11
222.828
21
-79.5669
0
LINE
8
BLACK
6
CONTINUOUS
10
222.828
20
-79.5669
11
222.823
21
-79.5625
0
LINE
8
BLACK
6
CONTINUOUS
10
222.823
20
-79.5625
11
222.819
21
-79.5433
0
LINE
8
BLACK
6
CONTINUOUS
10
222.819
20
-79.5433
11
222.812
21
-79.525
0
LINE
8
BLACK
6
CONTINUOUS
10
222.812
20
-79.525
11
222.812
21
-65.725
0
LINE
8
BLACK
6
CONTINUOUS
10
222.812
20
-65.725
11
222.814
21
-65.7153
0
LINE
8
BLACK
6
CONTINUOUS
10
222.814
20
-65.7153
11
222.814
21
-65.712
0
LINE
8
BLACK
6
CONTINUOUS
10
222.814
20
-65.712
11
222.815
21
-65.7091
0
LINE
8
BLACK
6
CONTINUOUS
10
222.815
20
-65.7091
11
222.817
21
-65.6993
0
LINE
8
BLACK
6
CONTINUOUS
10
222.817
20
-65.6993
11
222.83
21
-65.6844
0
LINE
8
BLACK
6
CONTINUOUS
10
222.83
20
-65.6844
11
222.839
21
-65.6675
0
LINE
8
BLACK
6
CONTINUOUS
10
222.839
20
-65.6675
11
222.846
21
-65.6652
0
LINE
8
BLACK
6
CONTINUOUS
10
222.846
20
-65.6652
11
222.85
21
-65.66
0
LINE
8
BLACK
6
CONTINUOUS
10
222.85
20
-65.66
11
222.869
21
-65.6567
0
LINE
8
BLACK
6
CONTINUOUS
10
222.869
20
-65.6567
11
222.887
21
-65.65
0
LINE
8
BLACK
6
CONTINUOUS
10
222.887
20
-65.65
11
236.688
21
-65.65
0
LINE
8
BLACK
6
CONTINUOUS
10
236.688
20
-65.65
11
236.697
21
-65.6517
0
LINE
8
BLACK
6
CONTINUOUS
10
222.962
20
-65.8
11
222.962
21
-79.45
0
LINE
8
BLACK
6
CONTINUOUS
10
222.962
20
-79.45
11
236.612
21
-79.45
0
LINE
8
BLACK
6
CONTINUOUS
10
236.612
20
-79.45
11
236.612
21
-65.8
0
LINE
8
BLACK
6
CONTINUOUS
10
236.612
20
-65.8
11
222.962
21
-65.8
0
LINE
8
BLACK
6
CONTINUOUS
10
217.647
20
-65.6517
11
217.651
21
-65.6511
0
LINE
8
BLACK
6
CONTINUOUS
10
217.651
20
-65.6511
11
217.653
21
-65.6528
0
LINE
8
BLACK
6
CONTINUOUS
10
217.653
20
-65.6528
11
217.663
21
-65.6545
0
LINE
8
BLACK
6
CONTINUOUS
10
217.663
20
-65.6545
11
217.678
21
-65.667
0
LINE
8
BLACK
6
CONTINUOUS
10
217.678
20
-65.667
11
217.695
21
-65.6768
0
LINE
8
BLACK
6
CONTINUOUS
10
217.695
20
-65.6768
11
217.697
21
-65.6831
0
LINE
8
BLACK
6
CONTINUOUS
10
217.697
20
-65.6831
11
217.702
21
-65.6875
0
LINE
8
BLACK
6
CONTINUOUS
10
217.702
20
-65.6875
11
217.706
21
-65.7067
0
LINE
8
BLACK
6
CONTINUOUS
10
217.706
20
-65.7067
11
217.712
21
-65.725
0
LINE
8
BLACK
6
CONTINUOUS
10
217.712
20
-65.725
11
217.712
21
-79.525
0
LINE
8
BLACK
6
CONTINUOUS
10
217.712
20
-79.525
11
217.711
21
-79.5347
0
LINE
8
BLACK
6
CONTINUOUS
10
217.711
20
-79.5347
11
217.711
21
-79.538
0
LINE
8
BLACK
6
CONTINUOUS
10
217.711
20
-79.538
11
217.71
21
-79.5409
0
LINE
8
BLACK
6
CONTINUOUS
10
217.71
20
-79.5409
11
217.708
21
-79.5507
0
LINE
8
BLACK
6
CONTINUOUS
10
217.708
20
-79.5507
11
217.695
21
-79.5656
0
LINE
8
BLACK
6
CONTINUOUS
10
217.695
20
-79.5656
11
217.686
21
-79.5825
0
LINE
8
BLACK
6
CONTINUOUS
10
217.686
20
-79.5825
11
217.679
21
-79.5848
0
LINE
8
BLACK
6
CONTINUOUS
10
217.679
20
-79.5848
11
217.675
21
-79.59
0
LINE
8
BLACK
6
CONTINUOUS
10
217.675
20
-79.59
11
217.656
21
-79.5933
0
LINE
8
BLACK
6
CONTINUOUS
10
217.656
20
-79.5933
11
217.637
21
-79.6
0
LINE
8
BLACK
6
CONTINUOUS
10
217.637
20
-79.6
11
203.837
21
-79.6
0
LINE
8
BLACK
6
CONTINUOUS
10
203.837
20
-79.6
11
203.828
21
-79.5983
0
LINE
8
BLACK
6
CONTINUOUS
10
203.828
20
-79.5983
11
203.824
21
-79.5989
0
LINE
8
BLACK
6
CONTINUOUS
10
203.824
20
-79.5989
11
203.822
21
-79.5972
0
LINE
8
BLACK
6
CONTINUOUS
10
203.822
20
-79.5972
11
203.812
21
-79.5955
0
LINE
8
BLACK
6
CONTINUOUS
10
203.812
20
-79.5955
11
203.797
21
-79.583
0
LINE
8
BLACK
6
CONTINUOUS
10
203.797
20
-79.583
11
203.78
21
-79.5732
0
LINE
8
BLACK
6
CONTINUOUS
10
203.78
20
-79.5732
11
203.778
21
-79.5669
0
LINE
8
BLACK
6
CONTINUOUS
10
203.778
20
-79.5669
11
203.773
21
-79.5625
0
LINE
8
BLACK
6
CONTINUOUS
10
203.773
20
-79.5625
11
203.769
21
-79.5433
0
LINE
8
BLACK
6
CONTINUOUS
10
203.769
20
-79.5433
11
203.762
21
-79.525
0
LINE
8
BLACK
6
CONTINUOUS
10
203.762
20
-79.525
11
203.762
21
-65.725
0
LINE
8
BLACK
6
CONTINUOUS
10
203.762
20
-65.725
11
203.764
21
-65.7153
0
LINE
8
BLACK
6
CONTINUOUS
10
203.764
20
-65.7153
11
203.764
21
-65.712
0
LINE
8
BLACK
6
CONTINUOUS
10
203.764
20
-65.712
11
203.765
21
-65.7091
0
LINE
8
BLACK
6
CONTINUOUS
10
203.765
20
-65.7091
11
203.767
21
-65.6993
0
LINE
8
BLACK
6
CONTINUOUS
10
203.767
20
-65.6993
11
203.78
21
-65.6844
0
LINE
8
BLACK
6
CONTINUOUS
10
203.78
20
-65.6844
11
203.789
21
-65.6675
0
LINE
8
BLACK
6
CONTINUOUS
10
203.789
20
-65.6675
11
203.796
21
-65.6652
0
LINE
8
BLACK
6
CONTINUOUS
10
203.796
20
-65.6652
11
203.8
21
-65.66
0
LINE
8
BLACK
6
CONTINUOUS
10
203.8
20
-65.66
11
203.819
21
-65.6567
0
LINE
8
BLACK
6
CONTINUOUS
10
203.819
20
-65.6567
11
203.837
21
-65.65
0
LINE
8
BLACK
6
CONTINUOUS
10
203.837
20
-65.65
11
217.637
21
-65.65
0
LINE
8
BLACK
6
CONTINUOUS
10
217.637
20
-65.65
11
217.647
21
-65.6517
0
LINE
8
BLACK
6
CONTINUOUS
10
203.912
20
-65.8
11
203.912
21
-79.45
0
LINE
8
BLACK
6
CONTINUOUS
10
203.912
20
-79.45
11
217.562
21
-79.45
0
LINE
8
BLACK
6
CONTINUOUS
10
217.562
20
-79.45
11
217.562
21
-65.8
0
LINE
8
BLACK
6
CONTINUOUS
10
217.562
20
-65.8
11
203.912
21
-65.8
0
LINE
8
BLACK
6
CONTINUOUS
10
198.597
20
-65.6517
11
198.601
21
-65.6511
0
LINE
8
BLACK
6
CONTINUOUS
10
198.601
20
-65.6511
11
198.603
21
-65.6528
0
LINE
8
BLACK
6
CONTINUOUS
10
198.603
20
-65.6528
11
198.613
21
-65.6545
0
LINE
8
BLACK
6
CONTINUOUS
10
198.613
20
-65.6545
11
198.628
21
-65.667
0
LINE
8
BLACK
6
CONTINUOUS
10
198.628
20
-65.667
11
198.645
21
-65.6768
0
LINE
8
BLACK
6
CONTINUOUS
10
198.645
20
-65.6768
11
198.647
21
-65.6831
0
LINE
8
BLACK
6
CONTINUOUS
10
198.647
20
-65.6831
11
198.652
21
-65.6875
0
LINE
8
BLACK
6
CONTINUOUS
10
198.652
20
-65.6875
11
198.656
21
-65.7067
0
LINE
8
BLACK
6
CONTINUOUS
10
198.656
20
-65.7067
11
198.662
21
-65.725
0
LINE
8
BLACK
6
CONTINUOUS
10
198.662
20
-65.725
11
198.662
21
-79.525
0
LINE
8
BLACK
6
CONTINUOUS
10
198.662
20
-79.525
11
198.661
21
-79.5347
0
LINE
8
BLACK
6
CONTINUOUS
10
198.661
20
-79.5347
11
198.661
21
-79.538
0
LINE
8
BLACK
6
CONTINUOUS
10
198.661
20
-79.538
11
198.66
21
-79.5409
0
LINE
8
BLACK
6
CONTINUOUS
10
198.66
20
-79.5409
11
198.658
21
-79.5507
0
LINE
8
BLACK
6
CONTINUOUS
10
198.658
20
-79.5507
11
198.645
21
-79.5656
0
LINE
8
BLACK
6
CONTINUOUS
10
198.645
20
-79.5656
11
198.636
21
-79.5825
0
LINE
8
BLACK
6
CONTINUOUS
10
198.636
20
-79.5825
11
198.629
21
-79.5848
0
LINE
8
BLACK
6
CONTINUOUS
10
198.629
20
-79.5848
11
198.625
21
-79.59
0
LINE
8
BLACK
6
CONTINUOUS
10
198.625
20
-79.59
11
198.606
21
-79.5933
0
LINE
8
BLACK
6
CONTINUOUS
10
198.606
20
-79.5933
11
198.587
21
-79.6
0
LINE
8
BLACK
6
CONTINUOUS
10
198.587
20
-79.6
11
184.787
21
-79.6
0
LINE
8
BLACK
6
CONTINUOUS
10
184.787
20
-79.6
11
184.778
21
-79.5983
0
LINE
8
BLACK
6
CONTINUOUS
10
184.778
20
-79.5983
11
184.774
21
-79.5989
0
LINE
8
BLACK
6
CONTINUOUS
10
184.774
20
-79.5989
11
184.772
21
-79.5972
0
LINE
8
BLACK
6
CONTINUOUS
10
184.772
20
-79.5972
11
184.762
21
-79.5955
0
LINE
8
BLACK
6
CONTINUOUS
10
184.762
20
-79.5955
11
184.747
21
-79.583
0
LINE
8
BLACK
6
CONTINUOUS
10
184.747
20
-79.583
11
184.73
21
-79.5732
0
LINE
8
BLACK
6
CONTINUOUS
10
184.73
20
-79.5732
11
184.728
21
-79.5669
0
LINE
8
BLACK
6
CONTINUOUS
10
184.728
20
-79.5669
11
184.723
21
-79.5625
0
LINE
8
BLACK
6
CONTINUOUS
10
184.723
20
-79.5625
11
184.719
21
-79.5433
0
LINE
8
BLACK
6
CONTINUOUS
10
184.719
20
-79.5433
11
184.713
21
-79.525
0
LINE
8
BLACK
6
CONTINUOUS
10
184.713
20
-79.525
11
184.713
21
-65.725
0
LINE
8
BLACK
6
CONTINUOUS
10
184.713
20
-65.725
11
184.714
21
-65.7153
0
LINE
8
BLACK
6
CONTINUOUS
10
184.714
20
-65.7153
11
184.714
21
-65.712
0
LINE
8
BLACK
6
CONTINUOUS
10
184.714
20
-65.712
11
184.715
21
-65.7091
0
LINE
8
BLACK
6
CONTINUOUS
10
184.715
20
-65.7091
11
184.717
21
-65.6993
0
LINE
8
BLACK
6
CONTINUOUS
10
184.717
20
-65.6993
11
184.73
21
-65.6844
0
LINE
8
BLACK
6
CONTINUOUS
10
184.73
20
-65.6844
11
184.739
21
-65.6675
0
LINE
8
BLACK
6
CONTINUOUS
10
184.739
20
-65.6675
11
184.746
21
-65.6652
0
LINE
8
BLACK
6
CONTINUOUS
10
184.746
20
-65.6652
11
184.75
21
-65.66
0
LINE
8
BLACK
6
CONTINUOUS
10
184.75
20
-65.66
11
184.769
21
-65.6567
0
LINE
8
BLACK
6
CONTINUOUS
10
184.769
20
-65.6567
11
184.787
21
-65.65
0
LINE
8
BLACK
6
CONTINUOUS
10
184.787
20
-65.65
11
198.587
21
-65.65
0
LINE
8
BLACK
6
CONTINUOUS
10
198.587
20
-65.65
11
198.597
21
-65.6517
0
LINE
8
BLACK
6
CONTINUOUS
10
184.862
20
-65.8
11
184.862
21
-79.45
0
LINE
8
BLACK
6
CONTINUOUS
10
184.862
20
-79.45
11
198.512
21
-79.45
0
LINE
8
BLACK
6
CONTINUOUS
10
198.512
20
-79.45
11
198.512
21
-65.8
0
LINE
8
BLACK
6
CONTINUOUS
10
198.512
20
-65.8
11
184.862
21
-65.8
0
LINE
8
BLACK
6
CONTINUOUS
10
170.022
20
-65.6517
11
170.026
21
-65.6511
0
LINE
8
BLACK
6
CONTINUOUS
10
170.026
20
-65.6511
11
170.028
21
-65.6528
0
LINE
8
BLACK
6
CONTINUOUS
10
170.028
20
-65.6528
11
170.038
21
-65.6545
0
LINE
8
BLACK
6
CONTINUOUS
10
170.038
20
-65.6545
11
170.053
21
-65.667
0
LINE
8
BLACK
6
CONTINUOUS
10
170.053
20
-65.667
11
170.07
21
-65.6768
0
LINE
8
BLACK
6
CONTINUOUS
10
170.07
20
-65.6768
11
170.072
21
-65.6831
0
LINE
8
BLACK
6
CONTINUOUS
10
170.072
20
-65.6831
11
170.077
21
-65.6875
0
LINE
8
BLACK
6
CONTINUOUS
10
170.077
20
-65.6875
11
170.081
21
-65.7067
0
LINE
8
BLACK
6
CONTINUOUS
10
170.081
20
-65.7067
11
170.088
21
-65.725
0
LINE
8
BLACK
6
CONTINUOUS
10
170.088
20
-65.725
11
170.088
21
-79.525
0
LINE
8
BLACK
6
CONTINUOUS
10
170.088
20
-79.525
11
170.086
21
-79.5347
0
LINE
8
BLACK
6
CONTINUOUS
10
170.086
20
-79.5347
11
170.086
21
-79.538
0
LINE
8
BLACK
6
CONTINUOUS
10
170.086
20
-79.538
11
170.085
21
-79.5409
0
LINE
8
BLACK
6
CONTINUOUS
10
170.085
20
-79.5409
11
170.083
21
-79.5507
0
LINE
8
BLACK
6
CONTINUOUS
10
170.083
20
-79.5507
11
170.07
21
-79.5656
0
LINE
8
BLACK
6
CONTINUOUS
10
170.07
20
-79.5656
11
170.061
21
-79.5825
0
LINE
8
BLACK
6
CONTINUOUS
10
170.061
20
-79.5825
11
170.054
21
-79.5848
0
LINE
8
BLACK
6
CONTINUOUS
10
170.054
20
-79.5848
11
170.05
21
-79.59
0
LINE
8
BLACK
6
CONTINUOUS
10
170.05
20
-79.59
11
170.031
21
-79.5933
0
LINE
8
BLACK
6
CONTINUOUS
10
170.031
20
-79.5933
11
170.012
21
-79.6
0
LINE
8
BLACK
6
CONTINUOUS
10
170.012
20
-79.6
11
156.213
21
-79.6
0
LINE
8
BLACK
6
CONTINUOUS
10
156.213
20
-79.6
11
156.203
21
-79.5983
0
LINE
8
BLACK
6
CONTINUOUS
10
156.203
20
-79.5983
11
156.199
21
-79.5989
0
LINE
8
BLACK
6
CONTINUOUS
10
156.199
20
-79.5989
11
156.197
21
-79.5972
0
LINE
8
BLACK
6
CONTINUOUS
10
156.197
20
-79.5972
11
156.187
21
-79.5955
0
LINE
8
BLACK
6
CONTINUOUS
10
156.187
20
-79.5955
11
156.172
21
-79.583
0
LINE
8
BLACK
6
CONTINUOUS
10
156.172
20
-79.583
11
156.155
21
-79.5732
0
LINE
8
BLACK
6
CONTINUOUS
10
156.155
20
-79.5732
11
156.153
21
-79.5669
0
LINE
8
BLACK
6
CONTINUOUS
10
156.153
20
-79.5669
11
156.148
21
-79.5625
0
LINE
8
BLACK
6
CONTINUOUS
10
156.148
20
-79.5625
11
156.144
21
-79.5433
0
LINE
8
BLACK
6
CONTINUOUS
10
156.144
20
-79.5433
11
156.137
21
-79.525
0
LINE
8
BLACK
6
CONTINUOUS
10
156.137
20
-79.525
11
156.137
21
-65.725
0
LINE
8
BLACK
6
CONTINUOUS
10
156.137
20
-65.725
11
156.139
21
-65.7153
0
LINE
8
BLACK
6
CONTINUOUS
10
156.139
20
-65.7153
11
156.139
21
-65.712
0
LINE
8
BLACK
6
CONTINUOUS
10
156.139
20
-65.712
11
156.14
21
-65.7091
0
LINE
8
BLACK
6
CONTINUOUS
10
156.14
20
-65.7091
11
156.142
21
-65.6993
0
LINE
8
BLACK
6
CONTINUOUS
10
156.142
20
-65.6993
11
156.155
21
-65.6844
0
LINE
8
BLACK
6
CONTINUOUS
10
156.155
20
-65.6844
11
156.164
21
-65.6675
0
LINE
8
BLACK
6
CONTINUOUS
10
156.164
20
-65.6675
11
156.171
21
-65.6652
0
LINE
8
BLACK
6
CONTINUOUS
10
156.171
20
-65.6652
11
156.175
21
-65.66
0
LINE
8
BLACK
6
CONTINUOUS
10
156.175
20
-65.66
11
156.194
21
-65.6567
0
LINE
8
BLACK
6
CONTINUOUS
10
156.194
20
-65.6567
11
156.213
21
-65.65
0
LINE
8
BLACK
6
CONTINUOUS
10
156.213
20
-65.65
11
170.012
21
-65.65
0
LINE
8
BLACK
6
CONTINUOUS
10
170.012
20
-65.65
11
170.022
21
-65.6517
0
LINE
8
BLACK
6
CONTINUOUS
10
156.287
20
-65.8
11
156.287
21
-79.45
0
LINE
8
BLACK
6
CONTINUOUS
10
156.287
20
-79.45
11
169.938
21
-79.45
0
LINE
8
BLACK
6
CONTINUOUS
10
169.938
20
-79.45
11
169.938
21
-65.8
0
LINE
8
BLACK
6
CONTINUOUS
10
169.938
20
-65.8
11
156.287
21
-65.8
0
LINE
8
BLACK
6
CONTINUOUS
10
150.972
20
-65.6517
11
150.976
21
-65.6511
0
LINE
8
BLACK
6
CONTINUOUS
10
150.976
20
-65.6511
11
150.978
21
-65.6528
0
LINE
8
BLACK
6
CONTINUOUS
10
150.978
20
-65.6528
11
150.988
21
-65.6545
0
LINE
8
BLACK
6
CONTINUOUS
10
150.988
20
-65.6545
11
151.003
21
-65.667
0
LINE
8
BLACK
6
CONTINUOUS
10
151.003
20
-65.667
11
151.02
21
-65.6768
0
LINE
8
BLACK
6
CONTINUOUS
10
151.02
20
-65.6768
11
151.022
21
-65.6831
0
LINE
8
BLACK
6
CONTINUOUS
10
151.022
20
-65.6831
11
151.027
21
-65.6875
0
LINE
8
BLACK
6
CONTINUOUS
10
151.027
20
-65.6875
11
151.031
21
-65.7067
0
LINE
8
BLACK
6
CONTINUOUS
10
151.031
20
-65.7067
11
151.037
21
-65.725
0
LINE
8
BLACK
6
CONTINUOUS
10
151.037
20
-65.725
11
151.037
21
-79.525
0
LINE
8
BLACK
6
CONTINUOUS
10
151.037
20
-79.525
11
151.036
21
-79.5347
0
LINE
8
BLACK
6
CONTINUOUS
10
151.036
20
-79.5347
11
151.036
21
-79.538
0
LINE
8
BLACK
6
CONTINUOUS
10
151.036
20
-79.538
11
151.035
21
-79.5409
0
LINE
8
BLACK
6
CONTINUOUS
10
151.035
20
-79.5409
11
151.033
21
-79.5507
0
LINE
8
BLACK
6
CONTINUOUS
10
151.033
20
-79.5507
11
151.02
21
-79.5656
0
LINE
8
BLACK
6
CONTINUOUS
10
151.02
20
-79.5656
11
151.011
21
-79.5825
0
LINE
8
BLACK
6
CONTINUOUS
10
151.011
20
-79.5825
11
151.004
21
-79.5848
0
LINE
8
BLACK
6
CONTINUOUS
10
151.004
20
-79.5848
11
151
21
-79.59
0
LINE
8
BLACK
6
CONTINUOUS
10
151
20
-79.59
11
150.981
21
-79.5933
0
LINE
8
BLACK
6
CONTINUOUS
10
150.981
20
-79.5933
11
150.963
21
-79.6
0
LINE
8
BLACK
6
CONTINUOUS
10
150.963
20
-79.6
11
137.162
21
-79.6
0
LINE
8
BLACK
6
CONTINUOUS
10
137.162
20
-79.6
11
137.153
21
-79.5983
0
LINE
8
BLACK
6
CONTINUOUS
10
137.153
20
-79.5983
11
137.149
21
-79.5989
0
LINE
8
BLACK
6
CONTINUOUS
10
137.149
20
-79.5989
11
137.147
21
-79.5972
0
LINE
8
BLACK
6
CONTINUOUS
10
137.147
20
-79.5972
11
137.137
21
-79.5955
0
LINE
8
BLACK
6
CONTINUOUS
10
137.137
20
-79.5955
11
137.122
21
-79.583
0
LINE
8
BLACK
6
CONTINUOUS
10
137.122
20
-79.583
11
137.105
21
-79.5732
0
LINE
8
BLACK
6
CONTINUOUS
10
137.105
20
-79.5732
11
137.103
21
-79.5669
0
LINE
8
BLACK
6
CONTINUOUS
10
137.103
20
-79.5669
11
137.098
21
-79.5625
0
LINE
8
BLACK
6
CONTINUOUS
10
137.098
20
-79.5625
11
137.094
21
-79.5433
0
LINE
8
BLACK
6
CONTINUOUS
10
137.094
20
-79.5433
11
137.088
21
-79.525
0
LINE
8
BLACK
6
CONTINUOUS
10
137.088
20
-79.525
11
137.088
21
-65.725
0
LINE
8
BLACK
6
CONTINUOUS
10
137.088
20
-65.725
11
137.089
21
-65.7153
0
LINE
8
BLACK
6
CONTINUOUS
10
137.089
20
-65.7153
11
137.089
21
-65.712
0
LINE
8
BLACK
6
CONTINUOUS
10
137.089
20
-65.712
11
137.09
21
-65.7091
0
LINE
8
BLACK
6
CONTINUOUS
10
137.09
20
-65.7091
11
137.092
21
-65.6993
0
LINE
8
BLACK
6
CONTINUOUS
10
137.092
20
-65.6993
11
137.105
21
-65.6844
0
LINE
8
BLACK
6
CONTINUOUS
10
137.105
20
-65.6844
11
137.114
21
-65.6675
0
LINE
8
BLACK
6
CONTINUOUS
10
137.114
20
-65.6675
11
137.121
21
-65.6652
0
LINE
8
BLACK
6
CONTINUOUS
10
137.121
20
-65.6652
11
137.125
21
-65.66
0
LINE
8
BLACK
6
CONTINUOUS
10
137.125
20
-65.66
11
137.144
21
-65.6567
0
LINE
8
BLACK
6
CONTINUOUS
10
137.144
20
-65.6567
11
137.162
21
-65.65
0
LINE
8
BLACK
6
CONTINUOUS
10
137.162
20
-65.65
11
150.963
21
-65.65
0
LINE
8
BLACK
6
CONTINUOUS
10
150.963
20
-65.65
11
150.972
21
-65.6517
0
LINE
8
BLACK
6
CONTINUOUS
10
137.237
20
-65.8
11
137.237
21
-79.45
0
LINE
8
BLACK
6
CONTINUOUS
10
137.237
20
-79.45
11
150.887
21
-79.45
0
LINE
8
BLACK
6
CONTINUOUS
10
150.887
20
-79.45
11
150.887
21
-65.8
0
LINE
8
BLACK
6
CONTINUOUS
10
150.887
20
-65.8
11
137.237
21
-65.8
0
LINE
8
BLACK
6
CONTINUOUS
10
131.922
20
-65.6517
11
131.926
21
-65.6511
0
LINE
8
BLACK
6
CONTINUOUS
10
131.926
20
-65.6511
11
131.928
21
-65.6528
0
LINE
8
BLACK
6
CONTINUOUS
10
131.928
20
-65.6528
11
131.938
21
-65.6545
0
LINE
8
BLACK
6
CONTINUOUS
10
131.938
20
-65.6545
11
131.953
21
-65.667
0
LINE
8
BLACK
6
CONTINUOUS
10
131.953
20
-65.667
11
131.97
21
-65.6768
0
LINE
8
BLACK
6
CONTINUOUS
10
131.97
20
-65.6768
11
131.972
21
-65.6831
0
LINE
8
BLACK
6
CONTINUOUS
10
131.972
20
-65.6831
11
131.977
21
-65.6875
0
LINE
8
BLACK
6
CONTINUOUS
10
131.977
20
-65.6875
11
131.981
21
-65.7067
0
LINE
8
BLACK
6
CONTINUOUS
10
131.981
20
-65.7067
11
131.987
21
-65.725
0
LINE
8
BLACK
6
CONTINUOUS
10
131.987
20
-65.725
11
131.987
21
-79.525
0
LINE
8
BLACK
6
CONTINUOUS
10
131.987
20
-79.525
11
131.986
21
-79.5347
0
LINE
8
BLACK
6
CONTINUOUS
10
131.986
20
-79.5347
11
131.986
21
-79.538
0
LINE
8
BLACK
6
CONTINUOUS
10
131.986
20
-79.538
11
131.985
21
-79.5409
0
LINE
8
BLACK
6
CONTINUOUS
10
131.985
20
-79.5409
11
131.983
21
-79.5507
0
LINE
8
BLACK
6
CONTINUOUS
10
131.983
20
-79.5507
11
131.97
21
-79.5656
0
LINE
8
BLACK
6
CONTINUOUS
10
131.97
20
-79.5656
11
131.961
21
-79.5825
0
LINE
8
BLACK
6
CONTINUOUS
10
131.961
20
-79.5825
11
131.954
21
-79.5848
0
LINE
8
BLACK
6
CONTINUOUS
10
131.954
20
-79.5848
11
131.95
21
-79.59
0
LINE
8
BLACK
6
CONTINUOUS
10
131.95
20
-79.59
11
131.931
21
-79.5933
0
LINE
8
BLACK
6
CONTINUOUS
10
131.931
20
-79.5933
11
131.912
21
-79.6
0
LINE
8
BLACK
6
CONTINUOUS
10
131.912
20
-79.6
11
118.112
21
-79.6
0
LINE
8
BLACK
6
CONTINUOUS
10
118.112
20
-79.6
11
118.103
21
-79.5983
0
LINE
8
BLACK
6
CONTINUOUS
10
118.103
20
-79.5983
11
118.099
21
-79.5989
0
LINE
8
BLACK
6
CONTINUOUS
10
118.099
20
-79.5989
11
118.097
21
-79.5972
0
LINE
8
BLACK
6
CONTINUOUS
10
118.097
20
-79.5972
11
118.087
21
-79.5955
0
LINE
8
BLACK
6
CONTINUOUS
10
118.087
20
-79.5955
11
118.072
21
-79.583
0
LINE
8
BLACK
6
CONTINUOUS
10
118.072
20
-79.583
11
118.055
21
-79.5732
0
LINE
8
BLACK
6
CONTINUOUS
10
118.055
20
-79.5732
11
118.053
21
-79.5669
0
LINE
8
BLACK
6
CONTINUOUS
10
118.053
20
-79.5669
11
118.048
21
-79.5625
0
LINE
8
BLACK
6
CONTINUOUS
10
118.048
20
-79.5625
11
118.044
21
-79.5433
0
LINE
8
BLACK
6
CONTINUOUS
10
118.044
20
-79.5433
11
118.037
21
-79.525
0
LINE
8
BLACK
6
CONTINUOUS
10
118.037
20
-79.525
11
118.037
21
-65.725
0
LINE
8
BLACK
6
CONTINUOUS
10
118.037
20
-65.725
11
118.039
21
-65.7153
0
LINE
8
BLACK
6
CONTINUOUS
10
118.039
20
-65.7153
11
118.039
21
-65.712
0
LINE
8
BLACK
6
CONTINUOUS
10
118.039
20
-65.712
11
118.04
21
-65.7091
0
LINE
8
BLACK
6
CONTINUOUS
10
118.04
20
-65.7091
11
118.042
21
-65.6993
0
LINE
8
BLACK
6
CONTINUOUS
10
118.042
20
-65.6993
11
118.055
21
-65.6844
0
LINE
8
BLACK
6
CONTINUOUS
10
118.055
20
-65.6844
11
118.064
21
-65.6675
0
LINE
8
BLACK
6
CONTINUOUS
10
118.064
20
-65.6675
11
118.071
21
-65.6652
0
LINE
8
BLACK
6
CONTINUOUS
10
118.071
20
-65.6652
11
118.075
21
-65.66
0
LINE
8
BLACK
6
CONTINUOUS
10
118.075
20
-65.66
11
118.094
21
-65.6567
0
LINE
8
BLACK
6
CONTINUOUS
10
118.094
20
-65.6567
11
118.112
21
-65.65
0
LINE
8
BLACK
6
CONTINUOUS
10
118.112
20
-65.65
11
131.912
21
-65.65
0
LINE
8
BLACK
6
CONTINUOUS
10
131.912
20
-65.65
11
131.922
21
-65.6517
0
LINE
8
BLACK
6
CONTINUOUS
10
118.188
20
-65.8
11
118.188
21
-79.45
0
LINE
8
BLACK
6
CONTINUOUS
10
118.188
20
-79.45
11
131.838
21
-79.45
0
LINE
8
BLACK
6
CONTINUOUS
10
131.838
20
-79.45
11
131.838
21
-65.8
0
LINE
8
BLACK
6
CONTINUOUS
10
131.838
20
-65.8
11
118.188
21
-65.8
0
LINE
8
BLACK
6
CONTINUOUS
10
112.872
20
-65.6517
11
112.876
21
-65.6511
0
LINE
8
BLACK
6
CONTINUOUS
10
112.876
20
-65.6511
11
112.878
21
-65.6528
0
LINE
8
BLACK
6
CONTINUOUS
10
112.878
20
-65.6528
11
112.888
21
-65.6545
0
LINE
8
BLACK
6
CONTINUOUS
10
112.888
20
-65.6545
11
112.903
21
-65.667
0
LINE
8
BLACK
6
CONTINUOUS
10
112.903
20
-65.667
11
112.92
21
-65.6768
0
LINE
8
BLACK
6
CONTINUOUS
10
112.92
20
-65.6768
11
112.922
21
-65.6831
0
LINE
8
BLACK
6
CONTINUOUS
10
112.922
20
-65.6831
11
112.927
21
-65.6875
0
LINE
8
BLACK
6
CONTINUOUS
10
112.927
20
-65.6875
11
112.931
21
-65.7067
0
LINE
8
BLACK
6
CONTINUOUS
10
112.931
20
-65.7067
11
112.938
21
-65.725
0
LINE
8
BLACK
6
CONTINUOUS
10
112.938
20
-65.725
11
112.938
21
-79.525
0
LINE
8
BLACK
6
CONTINUOUS
10
112.938
20
-79.525
11
112.936
21
-79.5347
0
LINE
8
BLACK
6
CONTINUOUS
10
112.936
20
-79.5347
11
112.936
21
-79.538
0
LINE
8
BLACK
6
CONTINUOUS
10
112.936
20
-79.538
11
112.935
21
-79.5409
0
LINE
8
BLACK
6
CONTINUOUS
10
112.935
20
-79.5409
11
112.933
21
-79.5507
0
LINE
8
BLACK
6
CONTINUOUS
10
112.933
20
-79.5507
11
112.92
21
-79.5656
0
LINE
8
BLACK
6
CONTINUOUS
10
112.92
20
-79.5656
11
112.911
21
-79.5825
0
LINE
8
BLACK
6
CONTINUOUS
10
112.911
20
-79.5825
11
112.904
21
-79.5848
0
LINE
8
BLACK
6
CONTINUOUS
10
112.904
20
-79.5848
11
112.9
21
-79.59
0
LINE
8
BLACK
6
CONTINUOUS
10
112.9
20
-79.59
11
112.881
21
-79.5933
0
LINE
8
BLACK
6
CONTINUOUS
10
112.881
20
-79.5933
11
112.862
21
-79.6
0
LINE
8
BLACK
6
CONTINUOUS
10
112.862
20
-79.6
11
99.0625
21
-79.6
0
LINE
8
BLACK
6
CONTINUOUS
10
99.0625
20
-79.6
11
99.0528
21
-79.5983
0
LINE
8
BLACK
6
CONTINUOUS
10
99.0528
20
-79.5983
11
99.0495
21
-79.5989
0
LINE
8
BLACK
6
CONTINUOUS
10
99.0495
20
-79.5989
11
99.0466
21
-79.5972
0
LINE
8
BLACK
6
CONTINUOUS
10
99.0466
20
-79.5972
11
99.0368
21
-79.5955
0
LINE
8
BLACK
6
CONTINUOUS
10
99.0368
20
-79.5955
11
99.0219
21
-79.583
0
LINE
8
BLACK
6
CONTINUOUS
10
99.0219
20
-79.583
11
99.005
21
-79.5732
0
LINE
8
BLACK
6
CONTINUOUS
10
99.005
20
-79.5732
11
99.0027
21
-79.5669
0
LINE
8
BLACK
6
CONTINUOUS
10
99.0027
20
-79.5669
11
98.9975
21
-79.5625
0
LINE
8
BLACK
6
CONTINUOUS
10
98.9975
20
-79.5625
11
98.9942
21
-79.5433
0
LINE
8
BLACK
6
CONTINUOUS
10
98.9942
20
-79.5433
11
98.9875
21
-79.525
0
LINE
8
BLACK
6
CONTINUOUS
10
98.9875
20
-79.525
11
98.9875
21
-65.725
0
LINE
8
BLACK
6
CONTINUOUS
10
98.9875
20
-65.725
11
98.9892
21
-65.7153
0
LINE
8
BLACK
6
CONTINUOUS
10
98.9892
20
-65.7153
11
98.9886
21
-65.712
0
LINE
8
BLACK
6
CONTINUOUS
10
98.9886
20
-65.712
11
98.9903
21
-65.7091
0
LINE
8
BLACK
6
CONTINUOUS
10
98.9903
20
-65.7091
11
98.992
21
-65.6993
0
LINE
8
BLACK
6
CONTINUOUS
10
98.992
20
-65.6993
11
99.0045
21
-65.6844
0
LINE
8
BLACK
6
CONTINUOUS
10
99.0045
20
-65.6844
11
99.0143
21
-65.6675
0
LINE
8
BLACK
6
CONTINUOUS
10
99.0143
20
-65.6675
11
99.0206
21
-65.6652
0
LINE
8
BLACK
6
CONTINUOUS
10
99.0206
20
-65.6652
11
99.025
21
-65.66
0
LINE
8
BLACK
6
CONTINUOUS
10
99.025
20
-65.66
11
99.0442
21
-65.6567
0
LINE
8
BLACK
6
CONTINUOUS
10
99.0442
20
-65.6567
11
99.0625
21
-65.65
0
LINE
8
BLACK
6
CONTINUOUS
10
99.0625
20
-65.65
11
112.862
21
-65.65
0
LINE
8
BLACK
6
CONTINUOUS
10
112.862
20
-65.65
11
112.872
21
-65.6517
0
LINE
8
BLACK
6
CONTINUOUS
10
99.1375
20
-65.8
11
99.1375
21
-79.45
0
LINE
8
BLACK
6
CONTINUOUS
10
99.1375
20
-79.45
11
112.787
21
-79.45
0
LINE
8
BLACK
6
CONTINUOUS
10
112.787
20
-79.45
11
112.787
21
-65.8
0
LINE
8
BLACK
6
CONTINUOUS
10
112.787
20
-65.8
11
99.1375
21
-65.8
0
LINE
8
BLACK
6
CONTINUOUS
10
93.8222
20
-65.6517
11
93.8255
21
-65.6511
0
LINE
8
BLACK
6
CONTINUOUS
10
93.8255
20
-65.6511
11
93.8284
21
-65.6528
0
LINE
8
BLACK
6
CONTINUOUS
10
93.8284
20
-65.6528
11
93.8382
21
-65.6545
0
LINE
8
BLACK
6
CONTINUOUS
10
93.8382
20
-65.6545
11
93.8531
21
-65.667
0
LINE
8
BLACK
6
CONTINUOUS
10
93.8531
20
-65.667
11
93.87
21
-65.6768
0
LINE
8
BLACK
6
CONTINUOUS
10
93.87
20
-65.6768
11
93.8723
21
-65.6831
0
LINE
8
BLACK
6
CONTINUOUS
10
93.8723
20
-65.6831
11
93.8775
21
-65.6875
0
LINE
8
BLACK
6
CONTINUOUS
10
93.8775
20
-65.6875
11
93.8808
21
-65.7067
0
LINE
8
BLACK
6
CONTINUOUS
10
93.8808
20
-65.7067
11
93.8875
21
-65.725
0
LINE
8
BLACK
6
CONTINUOUS
10
93.8875
20
-65.725
11
93.8875
21
-79.525
0
LINE
8
BLACK
6
CONTINUOUS
10
93.8875
20
-79.525
11
93.8858
21
-79.5347
0
LINE
8
BLACK
6
CONTINUOUS
10
93.8858
20
-79.5347
11
93.8864
21
-79.538
0
LINE
8
BLACK
6
CONTINUOUS
10
93.8864
20
-79.538
11
93.8847
21
-79.5409
0
LINE
8
BLACK
6
CONTINUOUS
10
93.8847
20
-79.5409
11
93.883
21
-79.5507
0
LINE
8
BLACK
6
CONTINUOUS
10
93.883
20
-79.5507
11
93.8705
21
-79.5656
0
LINE
8
BLACK
6
CONTINUOUS
10
93.8705
20
-79.5656
11
93.8607
21
-79.5825
0
LINE
8
BLACK
6
CONTINUOUS
10
93.8607
20
-79.5825
11
93.8543
21
-79.5848
0
LINE
8
BLACK
6
CONTINUOUS
10
93.8543
20
-79.5848
11
93.85
21
-79.59
0
LINE
8
BLACK
6
CONTINUOUS
10
93.85
20
-79.59
11
93.8308
21
-79.5933
0
LINE
8
BLACK
6
CONTINUOUS
10
93.8308
20
-79.5933
11
93.8125
21
-79.6
0
LINE
8
BLACK
6
CONTINUOUS
10
93.8125
20
-79.6
11
80.0125
21
-79.6
0
LINE
8
BLACK
6
CONTINUOUS
10
80.0125
20
-79.6
11
80.0028
21
-79.5983
0
LINE
8
BLACK
6
CONTINUOUS
10
80.0028
20
-79.5983
11
79.9995
21
-79.5989
0
LINE
8
BLACK
6
CONTINUOUS
10
79.9995
20
-79.5989
11
79.9966
21
-79.5972
0
LINE
8
BLACK
6
CONTINUOUS
10
79.9966
20
-79.5972
11
79.9868
21
-79.5955
0
LINE
8
BLACK
6
CONTINUOUS
10
79.9868
20
-79.5955
11
79.9719
21
-79.583
0
LINE
8
BLACK
6
CONTINUOUS
10
79.9719
20
-79.583
11
79.955
21
-79.5732
0
LINE
8
BLACK
6
CONTINUOUS
10
79.955
20
-79.5732
11
79.9527
21
-79.5669
0
LINE
8
BLACK
6
CONTINUOUS
10
79.9527
20
-79.5669
11
79.9475
21
-79.5625
0
LINE
8
BLACK
6
CONTINUOUS
10
79.9475
20
-79.5625
11
79.9442
21
-79.5433
0
LINE
8
BLACK
6
CONTINUOUS
10
79.9442
20
-79.5433
11
79.9375
21
-79.525
0
LINE
8
BLACK
6
CONTINUOUS
10
79.9375
20
-79.525
11
79.9375
21
-65.725
0
LINE
8
BLACK
6
CONTINUOUS
10
79.9375
20
-65.725
11
79.9392
21
-65.7153
0
LINE
8
BLACK
6
CONTINUOUS
10
79.9392
20
-65.7153
11
79.9386
21
-65.712
0
LINE
8
BLACK
6
CONTINUOUS
10
79.9386
20
-65.712
11
79.9403
21
-65.7091
0
LINE
8
BLACK
6
CONTINUOUS
10
79.9403
20
-65.7091
11
79.942
21
-65.6993
0
LINE
8
BLACK
6
CONTINUOUS
10
79.942
20
-65.6993
11
79.9545
21
-65.6844
0
LINE
8
BLACK
6
CONTINUOUS
10
79.9545
20
-65.6844
11
79.9643
21
-65.6675
0
LINE
8
BLACK
6
CONTINUOUS
10
79.9643
20
-65.6675
11
79.9706
21
-65.6652
0
LINE
8
BLACK
6
CONTINUOUS
10
79.9706
20
-65.6652
11
79.975
21
-65.66
0
LINE
8
BLACK
6
CONTINUOUS
10
79.975
20
-65.66
11
79.9942
21
-65.6567
0
LINE
8
BLACK
6
CONTINUOUS
10
79.9942
20
-65.6567
11
80.0125
21
-65.65
0
LINE
8
BLACK
6
CONTINUOUS
10
80.0125
20
-65.65
11
93.8125
21
-65.65
0
LINE
8
BLACK
6
CONTINUOUS
10
93.8125
20
-65.65
11
93.8222
21
-65.6517
0
LINE
8
BLACK
6
CONTINUOUS
10
80.0875
20
-65.8
11
80.0875
21
-79.45
0
LINE
8
BLACK
6
CONTINUOUS
10
80.0875
20
-79.45
11
93.7375
21
-79.45
0
LINE
8
BLACK
6
CONTINUOUS
10
93.7375
20
-79.45
11
93.7375
21
-65.8
0
LINE
8
BLACK
6
CONTINUOUS
10
93.7375
20
-65.8
11
80.0875
21
-65.8
0
LINE
8
BLACK
6
CONTINUOUS
10
74.7722
20
-65.6517
11
74.7755
21
-65.6511
0
LINE
8
BLACK
6
CONTINUOUS
10
74.7755
20
-65.6511
11
74.7784
21
-65.6528
0
LINE
8
BLACK
6
CONTINUOUS
10
74.7784
20
-65.6528
11
74.7882
21
-65.6545
0
LINE
8
BLACK
6
CONTINUOUS
10
74.7882
20
-65.6545
11
74.8031
21
-65.667
0
LINE
8
BLACK
6
CONTINUOUS
10
74.8031
20
-65.667
11
74.82
21
-65.6768
0
LINE
8
BLACK
6
CONTINUOUS
10
74.82
20
-65.6768
11
74.8223
21
-65.6831
0
LINE
8
BLACK
6
CONTINUOUS
10
74.8223
20
-65.6831
11
74.8275
21
-65.6875
0
LINE
8
BLACK
6
CONTINUOUS
10
74.8275
20
-65.6875
11
74.8308
21
-65.7067
0
LINE
8
BLACK
6
CONTINUOUS
10
74.8308
20
-65.7067
11
74.8375
21
-65.725
0
LINE
8
BLACK
6
CONTINUOUS
10
74.8375
20
-65.725
11
74.8375
21
-79.525
0
LINE
8
BLACK
6
CONTINUOUS
10
74.8375
20
-79.525
11
74.8358
21
-79.5347
0
LINE
8
BLACK
6
CONTINUOUS
10
74.8358
20
-79.5347
11
74.8364
21
-79.538
0
LINE
8
BLACK
6
CONTINUOUS
10
74.8364
20
-79.538
11
74.8347
21
-79.5409
0
LINE
8
BLACK
6
CONTINUOUS
10
74.8347
20
-79.5409
11
74.833
21
-79.5507
0
LINE
8
BLACK
6
CONTINUOUS
10
74.833
20
-79.5507
11
74.8205
21
-79.5656
0
LINE
8
BLACK
6
CONTINUOUS
10
74.8205
20
-79.5656
11
74.8107
21
-79.5825
0
LINE
8
BLACK
6
CONTINUOUS
10
74.8107
20
-79.5825
11
74.8043
21
-79.5848
0
LINE
8
BLACK
6
CONTINUOUS
10
74.8043
20
-79.5848
11
74.8
21
-79.59
0
LINE
8
BLACK
6
CONTINUOUS
10
74.8
20
-79.59
11
74.7808
21
-79.5933
0
LINE
8
BLACK
6
CONTINUOUS
10
74.7808
20
-79.5933
11
74.7625
21
-79.6
0
LINE
8
BLACK
6
CONTINUOUS
10
74.7625
20
-79.6
11
60.9625
21
-79.6
0
LINE
8
BLACK
6
CONTINUOUS
10
60.9625
20
-79.6
11
60.9528
21
-79.5983
0
LINE
8
BLACK
6
CONTINUOUS
10
60.9528
20
-79.5983
11
60.9495
21
-79.5989
0
LINE
8
BLACK
6
CONTINUOUS
10
60.9495
20
-79.5989
11
60.9466
21
-79.5972
0
LINE
8
BLACK
6
CONTINUOUS
10
60.9466
20
-79.5972
11
60.9368
21
-79.5955
0
LINE
8
BLACK
6
CONTINUOUS
10
60.9368
20
-79.5955
11
60.9219
21
-79.583
0
LINE
8
BLACK
6
CONTINUOUS
10
60.9219
20
-79.583
11
60.905
21
-79.5732
0
LINE
8
BLACK
6
CONTINUOUS
10
60.905
20
-79.5732
11
60.9027
21
-79.5669
0
LINE
8
BLACK
6
CONTINUOUS
10
60.9027
20
-79.5669
11
60.8975
21
-79.5625
0
LINE
8
BLACK
6
CONTINUOUS
10
60.8975
20
-79.5625
11
60.8942
21
-79.5433
0
LINE
8
BLACK
6
CONTINUOUS
10
60.8942
20
-79.5433
11
60.8875
21
-79.525
0
LINE
8
BLACK
6
CONTINUOUS
10
60.8875
20
-79.525
11
60.8875
21
-65.725
0
LINE
8
BLACK
6
CONTINUOUS
10
60.8875
20
-65.725
11
60.8892
21
-65.7153
0
LINE
8
BLACK
6
CONTINUOUS
10
60.8892
20
-65.7153
11
60.8886
21
-65.712
0
LINE
8
BLACK
6
CONTINUOUS
10
60.8886
20
-65.712
11
60.8903
21
-65.7091
0
LINE
8
BLACK
6
CONTINUOUS
10
60.8903
20
-65.7091
11
60.892
21
-65.6993
0
LINE
8
BLACK
6
CONTINUOUS
10
60.892
20
-65.6993
11
60.9045
21
-65.6844
0
LINE
8
BLACK
6
CONTINUOUS
10
60.9045
20
-65.6844
11
60.9143
21
-65.6675
0
LINE
8
BLACK
6
CONTINUOUS
10
60.9143
20
-65.6675
11
60.9206
21
-65.6652
0
LINE
8
BLACK
6
CONTINUOUS
10
60.9206
20
-65.6652
11
60.925
21
-65.66
0
LINE
8
BLACK
6
CONTINUOUS
10
60.925
20
-65.66
11
60.9442
21
-65.6567
0
LINE
8
BLACK
6
CONTINUOUS
10
60.9442
20
-65.6567
11
60.9625
21
-65.65
0
LINE
8
BLACK
6
CONTINUOUS
10
60.9625
20
-65.65
11
74.7625
21
-65.65
0
LINE
8
BLACK
6
CONTINUOUS
10
74.7625
20
-65.65
11
74.7722
21
-65.6517
0
LINE
8
BLACK
6
CONTINUOUS
10
61.0375
20
-65.8
11
61.0375
21
-79.45
0
LINE
8
BLACK
6
CONTINUOUS
10
61.0375
20
-79.45
11
74.6875
21
-79.45
0
LINE
8
BLACK
6
CONTINUOUS
10
74.6875
20
-79.45
11
74.6875
21
-65.8
0
LINE
8
BLACK
6
CONTINUOUS
10
74.6875
20
-65.8
11
61.0375
21
-65.8
0
LINE
8
BLACK
6
CONTINUOUS
10
46.1972
20
-65.6517
11
46.2005
21
-65.6511
0
LINE
8
BLACK
6
CONTINUOUS
10
46.2005
20
-65.6511
11
46.2034
21
-65.6528
0
LINE
8
BLACK
6
CONTINUOUS
10
46.2034
20
-65.6528
11
46.2132
21
-65.6545
0
LINE
8
BLACK
6
CONTINUOUS
10
46.2132
20
-65.6545
11
46.2281
21
-65.667
0
LINE
8
BLACK
6
CONTINUOUS
10
46.2281
20
-65.667
11
46.245
21
-65.6768
0
LINE
8
BLACK
6
CONTINUOUS
10
46.245
20
-65.6768
11
46.2473
21
-65.6831
0
LINE
8
BLACK
6
CONTINUOUS
10
46.2473
20
-65.6831
11
46.2525
21
-65.6875
0
LINE
8
BLACK
6
CONTINUOUS
10
46.2525
20
-65.6875
11
46.2558
21
-65.7067
0
LINE
8
BLACK
6
CONTINUOUS
10
46.2558
20
-65.7067
11
46.2625
21
-65.725
0
LINE
8
BLACK
6
CONTINUOUS
10
46.2625
20
-65.725
11
46.2625
21
-79.525
0
LINE
8
BLACK
6
CONTINUOUS
10
46.2625
20
-79.525
11
46.2608
21
-79.5347
0
LINE
8
BLACK
6
CONTINUOUS
10
46.2608
20
-79.5347
11
46.2614
21
-79.538
0
LINE
8
BLACK
6
CONTINUOUS
10
46.2614
20
-79.538
11
46.2597
21
-79.5409
0
LINE
8
BLACK
6
CONTINUOUS
10
46.2597
20
-79.5409
11
46.258
21
-79.5507
0
LINE
8
BLACK
6
CONTINUOUS
10
46.258
20
-79.5507
11
46.2455
21
-79.5656
0
LINE
8
BLACK
6
CONTINUOUS
10
46.2455
20
-79.5656
11
46.2357
21
-79.5825
0
LINE
8
BLACK
6
CONTINUOUS
10
46.2357
20
-79.5825
11
46.2293
21
-79.5848
0
LINE
8
BLACK
6
CONTINUOUS
10
46.2293
20
-79.5848
11
46.225
21
-79.59
0
LINE
8
BLACK
6
CONTINUOUS
10
46.225
20
-79.59
11
46.2058
21
-79.5933
0
LINE
8
BLACK
6
CONTINUOUS
10
46.2058
20
-79.5933
11
46.1875
21
-79.6
0
LINE
8
BLACK
6
CONTINUOUS
10
46.1875
20
-79.6
11
32.3875
21
-79.6
0
LINE
8
BLACK
6
CONTINUOUS
10
32.3875
20
-79.6
11
32.3778
21
-79.5983
0
LINE
8
BLACK
6
CONTINUOUS
10
32.3778
20
-79.5983
11
32.3745
21
-79.5989
0
LINE
8
BLACK
6
CONTINUOUS
10
32.3745
20
-79.5989
11
32.3716
21
-79.5972
0
LINE
8
BLACK
6
CONTINUOUS
10
32.3716
20
-79.5972
11
32.3618
21
-79.5955
0
LINE
8
BLACK
6
CONTINUOUS
10
32.3618
20
-79.5955
11
32.3469
21
-79.583
0
LINE
8
BLACK
6
CONTINUOUS
10
32.3469
20
-79.583
11
32.33
21
-79.5732
0
LINE
8
BLACK
6
CONTINUOUS
10
32.33
20
-79.5732
11
32.3277
21
-79.5669
0
LINE
8
BLACK
6
CONTINUOUS
10
32.3277
20
-79.5669
11
32.3225
21
-79.5625
0
LINE
8
BLACK
6
CONTINUOUS
10
32.3225
20
-79.5625
11
32.3192
21
-79.5433
0
LINE
8
BLACK
6
CONTINUOUS
10
32.3192
20
-79.5433
11
32.3125
21
-79.525
0
LINE
8
BLACK
6
CONTINUOUS
10
32.3125
20
-79.525
11
32.3125
21
-65.725
0
LINE
8
BLACK
6
CONTINUOUS
10
32.3125
20
-65.725
11
32.3142
21
-65.7153
0
LINE
8
BLACK
6
CONTINUOUS
10
32.3142
20
-65.7153
11
32.3136
21
-65.712
0
LINE
8
BLACK
6
CONTINUOUS
10
32.3136
20
-65.712
11
32.3153
21
-65.7091
0
LINE
8
BLACK
6
CONTINUOUS
10
32.3153
20
-65.7091
11
32.317
21
-65.6993
0
LINE
8
BLACK
6
CONTINUOUS
10
32.317
20
-65.6993
11
32.3295
21
-65.6844
0
LINE
8
BLACK
6
CONTINUOUS
10
32.3295
20
-65.6844
11
32.3393
21
-65.6675
0
LINE
8
BLACK
6
CONTINUOUS
10
32.3393
20
-65.6675
11
32.3456
21
-65.6652
0
LINE
8
BLACK
6
CONTINUOUS
10
32.3456
20
-65.6652
11
32.35
21
-65.66
0
LINE
8
BLACK
6
CONTINUOUS
10
32.35
20
-65.66
11
32.3692
21
-65.6567
0
LINE
8
BLACK
6
CONTINUOUS
10
32.3692
20
-65.6567
11
32.3875
21
-65.65
0
LINE
8
BLACK
6
CONTINUOUS
10
32.3875
20
-65.65
11
46.1875
21
-65.65
0
LINE
8
BLACK
6
CONTINUOUS
10
46.1875
20
-65.65
11
46.1972
21
-65.6517
0
LINE
8
BLACK
6
CONTINUOUS
10
32.4625
20
-65.8
11
32.4625
21
-79.45
0
LINE
8
BLACK
6
CONTINUOUS
10
32.4625
20
-79.45
11
46.1125
21
-79.45
0
LINE
8
BLACK
6
CONTINUOUS
10
46.1125
20
-79.45
11
46.1125
21
-65.8
0
LINE
8
BLACK
6
CONTINUOUS
10
46.1125
20
-65.8
11
32.4625
21
-65.8
0
LINE
8
BLACK
6
CONTINUOUS
10
255.747
20
-46.6017
11
255.751
21
-46.6011
0
LINE
8
BLACK
6
CONTINUOUS
10
255.751
20
-46.6011
11
255.753
21
-46.6028
0
LINE
8
BLACK
6
CONTINUOUS
10
255.753
20
-46.6028
11
255.763
21
-46.6045
0
LINE
8
BLACK
6
CONTINUOUS
10
255.763
20
-46.6045
11
255.778
21
-46.617
0
LINE
8
BLACK
6
CONTINUOUS
10
255.778
20
-46.617
11
255.795
21
-46.6268
0
LINE
8
BLACK
6
CONTINUOUS
10
255.795
20
-46.6268
11
255.797
21
-46.6331
0
LINE
8
BLACK
6
CONTINUOUS
10
255.797
20
-46.6331
11
255.802
21
-46.6375
0
LINE
8
BLACK
6
CONTINUOUS
10
255.802
20
-46.6375
11
255.806
21
-46.6567
0
LINE
8
BLACK
6
CONTINUOUS
10
255.806
20
-46.6567
11
255.812
21
-46.675
0
LINE
8
BLACK
6
CONTINUOUS
10
255.812
20
-46.675
11
255.812
21
-60.475
0
LINE
8
BLACK
6
CONTINUOUS
10
255.812
20
-60.475
11
255.811
21
-60.4847
0
LINE
8
BLACK
6
CONTINUOUS
10
255.811
20
-60.4847
11
255.811
21
-60.488
0
LINE
8
BLACK
6
CONTINUOUS
10
255.811
20
-60.488
11
255.81
21
-60.4909
0
LINE
8
BLACK
6
CONTINUOUS
10
255.81
20
-60.4909
11
255.808
21
-60.5007
0
LINE
8
BLACK
6
CONTINUOUS
10
255.808
20
-60.5007
11
255.795
21
-60.5156
0
LINE
8
BLACK
6
CONTINUOUS
10
255.795
20
-60.5156
11
255.786
21
-60.5325
0
LINE
8
BLACK
6
CONTINUOUS
10
255.786
20
-60.5325
11
255.779
21
-60.5348
0
LINE
8
BLACK
6
CONTINUOUS
10
255.779
20
-60.5348
11
255.775
21
-60.54
0
LINE
8
BLACK
6
CONTINUOUS
10
255.775
20
-60.54
11
255.756
21
-60.5433
0
LINE
8
BLACK
6
CONTINUOUS
10
255.756
20
-60.5433
11
255.737
21
-60.55
0
LINE
8
BLACK
6
CONTINUOUS
10
255.737
20
-60.55
11
241.938
21
-60.55
0
LINE
8
BLACK
6
CONTINUOUS
10
241.938
20
-60.55
11
241.928
21
-60.5483
0
LINE
8
BLACK
6
CONTINUOUS
10
241.928
20
-60.5483
11
241.924
21
-60.5489
0
LINE
8
BLACK
6
CONTINUOUS
10
241.924
20
-60.5489
11
241.922
21
-60.5472
0
LINE
8
BLACK
6
CONTINUOUS
10
241.922
20
-60.5472
11
241.912
21
-60.5455
0
LINE
8
BLACK
6
CONTINUOUS
10
241.912
20
-60.5455
11
241.897
21
-60.533
0
LINE
8
BLACK
6
CONTINUOUS
10
241.897
20
-60.533
11
241.88
21
-60.5232
0
LINE
8
BLACK
6
CONTINUOUS
10
241.88
20
-60.5232
11
241.878
21
-60.5168
0
LINE
8
BLACK
6
CONTINUOUS
10
241.878
20
-60.5168
11
241.873
21
-60.5125
0
LINE
8
BLACK
6
CONTINUOUS
10
241.873
20
-60.5125
11
241.869
21
-60.4933
0
LINE
8
BLACK
6
CONTINUOUS
10
241.869
20
-60.4933
11
241.862
21
-60.475
0
LINE
8
BLACK
6
CONTINUOUS
10
241.862
20
-60.475
11
241.862
21
-46.675
0
LINE
8
BLACK
6
CONTINUOUS
10
241.862
20
-46.675
11
241.864
21
-46.6653
0
LINE
8
BLACK
6
CONTINUOUS
10
241.864
20
-46.6653
11
241.864
21
-46.662
0
LINE
8
BLACK
6
CONTINUOUS
10
241.864
20
-46.662
11
241.865
21
-46.6591
0
LINE
8
BLACK
6
CONTINUOUS
10
241.865
20
-46.6591
11
241.867
21
-46.6493
0
LINE
8
BLACK
6
CONTINUOUS
10
241.867
20
-46.6493
11
241.88
21
-46.6344
0
LINE
8
BLACK
6
CONTINUOUS
10
241.88
20
-46.6344
11
241.889
21
-46.6175
0
LINE
8
BLACK
6
CONTINUOUS
10
241.889
20
-46.6175
11
241.896
21
-46.6152
0
LINE
8
BLACK
6
CONTINUOUS
10
241.896
20
-46.6152
11
241.9
21
-46.61
0
LINE
8
BLACK
6
CONTINUOUS
10
241.9
20
-46.61
11
241.919
21
-46.6067
0
LINE
8
BLACK
6
CONTINUOUS
10
241.919
20
-46.6067
11
241.938
21
-46.6
0
LINE
8
BLACK
6
CONTINUOUS
10
241.938
20
-46.6
11
255.737
21
-46.6
0
LINE
8
BLACK
6
CONTINUOUS
10
255.737
20
-46.6
11
255.747
21
-46.6017
0
LINE
8
BLACK
6
CONTINUOUS
10
242.012
20
-46.75
11
242.012
21
-60.4
0
LINE
8
BLACK
6
CONTINUOUS
10
242.012
20
-60.4
11
255.662
21
-60.4
0
LINE
8
BLACK
6
CONTINUOUS
10
255.662
20
-60.4
11
255.662
21
-46.75
0
LINE
8
BLACK
6
CONTINUOUS
10
255.662
20
-46.75
11
242.012
21
-46.75
0
LINE
8
BLACK
6
CONTINUOUS
10
236.697
20
-46.6017
11
236.701
21
-46.6011
0
LINE
8
BLACK
6
CONTINUOUS
10
236.701
20
-46.6011
11
236.703
21
-46.6028
0
LINE
8
BLACK
6
CONTINUOUS
10
236.703
20
-46.6028
11
236.713
21
-46.6045
0
LINE
8
BLACK
6
CONTINUOUS
10
236.713
20
-46.6045
11
236.728
21
-46.617
0
LINE
8
BLACK
6
CONTINUOUS
10
236.728
20
-46.617
11
236.745
21
-46.6268
0
LINE
8
BLACK
6
CONTINUOUS
10
236.745
20
-46.6268
11
236.747
21
-46.6331
0
LINE
8
BLACK
6
CONTINUOUS
10
236.747
20
-46.6331
11
236.752
21
-46.6375
0
LINE
8
BLACK
6
CONTINUOUS
10
236.752
20
-46.6375
11
236.756
21
-46.6567
0
LINE
8
BLACK
6
CONTINUOUS
10
236.756
20
-46.6567
11
236.762
21
-46.675
0
LINE
8
BLACK
6
CONTINUOUS
10
236.762
20
-46.675
11
236.762
21
-60.475
0
LINE
8
BLACK
6
CONTINUOUS
10
236.762
20
-60.475
11
236.761
21
-60.4847
0
LINE
8
BLACK
6
CONTINUOUS
10
236.761
20
-60.4847
11
236.761
21
-60.488
0
LINE
8
BLACK
6
CONTINUOUS
10
236.761
20
-60.488
11
236.76
21
-60.4909
0
LINE
8
BLACK
6
CONTINUOUS
10
236.76
20
-60.4909
11
236.758
21
-60.5007
0
LINE
8
BLACK
6
CONTINUOUS
10
236.758
20
-60.5007
11
236.745
21
-60.5156
0
LINE
8
BLACK
6
CONTINUOUS
10
236.745
20
-60.5156
11
236.736
21
-60.5325
0
LINE
8
BLACK
6
CONTINUOUS
10
236.736
20
-60.5325
11
236.729
21
-60.5348
0
LINE
8
BLACK
6
CONTINUOUS
10
236.729
20
-60.5348
11
236.725
21
-60.54
0
LINE
8
BLACK
6
CONTINUOUS
10
236.725
20
-60.54
11
236.706
21
-60.5433
0
LINE
8
BLACK
6
CONTINUOUS
10
236.706
20
-60.5433
11
236.688
21
-60.55
0
LINE
8
BLACK
6
CONTINUOUS
10
236.688
20
-60.55
11
222.887
21
-60.55
0
LINE
8
BLACK
6
CONTINUOUS
10
222.887
20
-60.55
11
222.878
21
-60.5483
0
LINE
8
BLACK
6
CONTINUOUS
10
222.878
20
-60.5483
11
222.874
21
-60.5489
0
LINE
8
BLACK
6
CONTINUOUS
10
222.874
20
-60.5489
11
222.872
21
-60.5472
0
LINE
8
BLACK
6
CONTINUOUS
10
222.872
20
-60.5472
11
222.862
21
-60.5455
0
LINE
8
BLACK
6
CONTINUOUS
10
222.862
20
-60.5455
11
222.847
21
-60.533
0
LINE
8
BLACK
6
CONTINUOUS
10
222.847
20
-60.533
11
222.83
21
-60.5232
0
LINE
8
BLACK
6
CONTINUOUS
10
222.83
20
-60.5232
11
222.828
21
-60.5168
0
LINE
8
BLACK
6
CONTINUOUS
10
222.828
20
-60.5168
11
222.823
21
-60.5125
0
LINE
8
BLACK
6
CONTINUOUS
10
222.823
20
-60.5125
11
222.819
21
-60.4933
0
LINE
8
BLACK
6
CONTINUOUS
10
222.819
20
-60.4933
11
222.812
21
-60.475
0
LINE
8
BLACK
6
CONTINUOUS
10
222.812
20
-60.475
11
222.812
21
-46.675
0
LINE
8
BLACK
6
CONTINUOUS
10
222.812
20
-46.675
11
222.814
21
-46.6653
0
LINE
8
BLACK
6
CONTINUOUS
10
222.814
20
-46.6653
11
222.814
21
-46.662
0
LINE
8
BLACK
6
CONTINUOUS
10
222.814
20
-46.662
11
222.815
21
-46.6591
0
LINE
8
BLACK
6
CONTINUOUS
10
222.815
20
-46.6591
11
222.817
21
-46.6493
0
LINE
8
BLACK
6
CONTINUOUS
10
222.817
20
-46.6493
11
222.83
21
-46.6344
0
LINE
8
BLACK
6
CONTINUOUS
10
222.83
20
-46.6344
11
222.839
21
-46.6175
0
LINE
8
BLACK
6
CONTINUOUS
10
222.839
20
-46.6175
11
222.846
21
-46.6152
0
LINE
8
BLACK
6
CONTINUOUS
10
222.846
20
-46.6152
11
222.85
21
-46.61
0
LINE
8
BLACK
6
CONTINUOUS
10
222.85
20
-46.61
11
222.869
21
-46.6067
0
LINE
8
BLACK
6
CONTINUOUS
10
222.869
20
-46.6067
11
222.887
21
-46.6
0
LINE
8
BLACK
6
CONTINUOUS
10
222.887
20
-46.6
11
236.688
21
-46.6
0
LINE
8
BLACK
6
CONTINUOUS
10
236.688
20
-46.6
11
236.697
21
-46.6017
0
LINE
8
BLACK
6
CONTINUOUS
10
222.962
20
-46.75
11
222.962
21
-60.4
0
LINE
8
BLACK
6
CONTINUOUS
10
222.962
20
-60.4
11
236.612
21
-60.4
0
LINE
8
BLACK
6
CONTINUOUS
10
236.612
20
-60.4
11
236.612
21
-46.75
0
LINE
8
BLACK
6
CONTINUOUS
10
236.612
20
-46.75
11
222.962
21
-46.75
0
LINE
8
BLACK
6
CONTINUOUS
10
217.647
20
-46.6017
11
217.651
21
-46.6011
0
LINE
8
BLACK
6
CONTINUOUS
10
217.651
20
-46.6011
11
217.653
21
-46.6028
0
LINE
8
BLACK
6
CONTINUOUS
10
217.653
20
-46.6028
11
217.663
21
-46.6045
0
LINE
8
BLACK
6
CONTINUOUS
10
217.663
20
-46.6045
11
217.678
21
-46.617
0
LINE
8
BLACK
6
CONTINUOUS
10
217.678
20
-46.617
11
217.695
21
-46.6268
0
LINE
8
BLACK
6
CONTINUOUS
10
217.695
20
-46.6268
11
217.697
21
-46.6331
0
LINE
8
BLACK
6
CONTINUOUS
10
217.697
20
-46.6331
11
217.702
21
-46.6375
0
LINE
8
BLACK
6
CONTINUOUS
10
217.702
20
-46.6375
11
217.706
21
-46.6567
0
LINE
8
BLACK
6
CONTINUOUS
10
217.706
20
-46.6567
11
217.712
21
-46.675
0
LINE
8
BLACK
6
CONTINUOUS
10
217.712
20
-46.675
11
217.712
21
-60.475
0
LINE
8
BLACK
6
CONTINUOUS
10
217.712
20
-60.475
11
217.711
21
-60.4847
0
LINE
8
BLACK
6
CONTINUOUS
10
217.711
20
-60.4847
11
217.711
21
-60.488
0
LINE
8
BLACK
6
CONTINUOUS
10
217.711
20
-60.488
11
217.71
21
-60.4909
0
LINE
8
BLACK
6
CONTINUOUS
10
217.71
20
-60.4909
11
217.708
21
-60.5007
0
LINE
8
BLACK
6
CONTINUOUS
10
217.708
20
-60.5007
11
217.695
21
-60.5156
0
LINE
8
BLACK
6
CONTINUOUS
10
217.695
20
-60.5156
11
217.686
21
-60.5325
0
LINE
8
BLACK
6
CONTINUOUS
10
217.686
20
-60.5325
11
217.679
21
-60.5348
0
LINE
8
BLACK
6
CONTINUOUS
10
217.679
20
-60.5348
11
217.675
21
-60.54
0
LINE
8
BLACK
6
CONTINUOUS
10
217.675
20
-60.54
11
217.656
21
-60.5433
0
LINE
8
BLACK
6
CONTINUOUS
10
217.656
20
-60.5433
11
217.637
21
-60.55
0
LINE
8
BLACK
6
CONTINUOUS
10
217.637
20
-60.55
11
203.837
21
-60.55
0
LINE
8
BLACK
6
CONTINUOUS
10
203.837
20
-60.55
11
203.828
21
-60.5483
0
LINE
8
BLACK
6
CONTINUOUS
10
203.828
20
-60.5483
11
203.824
21
-60.5489
0
LINE
8
BLACK
6
CONTINUOUS
10
203.824
20
-60.5489
11
203.822
21
-60.5472
0
LINE
8
BLACK
6
CONTINUOUS
10
203.822
20
-60.5472
11
203.812
21
-60.5455
0
LINE
8
BLACK
6
CONTINUOUS
10
203.812
20
-60.5455
11
203.797
21
-60.533
0
LINE
8
BLACK
6
CONTINUOUS
10
203.797
20
-60.533
11
203.78
21
-60.5232
0
LINE
8
BLACK
6
CONTINUOUS
10
203.78
20
-60.5232
11
203.778
21
-60.5168
0
LINE
8
BLACK
6
CONTINUOUS
10
203.778
20
-60.5168
11
203.773
21
-60.5125
0
LINE
8
BLACK
6
CONTINUOUS
10
203.773
20
-60.5125
11
203.769
21
-60.4933
0
LINE
8
BLACK
6
CONTINUOUS
10
203.769
20
-60.4933
11
203.762
21
-60.475
0
LINE
8
BLACK
6
CONTINUOUS
10
203.762
20
-60.475
11
203.762
21
-46.675
0
LINE
8
BLACK
6
CONTINUOUS
10
203.762
20
-46.675
11
203.764
21
-46.6653
0
LINE
8
BLACK
6
CONTINUOUS
10
203.764
20
-46.6653
11
203.764
21
-46.662
0
LINE
8
BLACK
6
CONTINUOUS
10
203.764
20
-46.662
11
203.765
21
-46.6591
0
LINE
8
BLACK
6
CONTINUOUS
10
203.765
20
-46.6591
11
203.767
21
-46.6493
0
LINE
8
BLACK
6
CONTINUOUS
10
203.767
20
-46.6493
11
203.78
21
-46.6344
0
LINE
8
BLACK
6
CONTINUOUS
10
203.78
20
-46.6344
11
203.789
21
-46.6175
0
LINE
8
BLACK
6
CONTINUOUS
10
203.789
20
-46.6175
11
203.796
21
-46.6152
0
LINE
8
BLACK
6
CONTINUOUS
10
203.796
20
-46.6152
11
203.8
21
-46.61
0
LINE
8
BLACK
6
CONTINUOUS
10
203.8
20
-46.61
11
203.819
21
-46.6067
0
LINE
8
BLACK
6
CONTINUOUS
10
203.819
20
-46.6067
11
203.837
21
-46.6
0
LINE
8
BLACK
6
CONTINUOUS
10
203.837
20
-46.6
11
217.637
21
-46.6
0
LINE
8
BLACK
6
CONTINUOUS
10
217.637
20
-46.6
11
217.647
21
-46.6017
0
LINE
8
BLACK
6
CONTINUOUS
10
203.912
20
-46.75
11
203.912
21
-60.4
0
LINE
8
BLACK
6
CONTINUOUS
10
203.912
20
-60.4
11
217.562
21
-60.4
0
LINE
8
BLACK
6
CONTINUOUS
10
217.562
20
-60.4
11
217.562
21
-46.75
0
LINE
8
BLACK
6
CONTINUOUS
10
217.562
20
-46.75
11
203.912
21
-46.75
0
LINE
8
BLACK
6
CONTINUOUS
10
198.597
20
-46.6017
11
198.601
21
-46.6011
0
LINE
8
BLACK
6
CONTINUOUS
10
198.601
20
-46.6011
11
198.603
21
-46.6028
0
LINE
8
BLACK
6
CONTINUOUS
10
198.603
20
-46.6028
11
198.613
21
-46.6045
0
LINE
8
BLACK
6
CONTINUOUS
10
198.613
20
-46.6045
11
198.628
21
-46.617
0
LINE
8
BLACK
6
CONTINUOUS
10
198.628
20
-46.617
11
198.645
21
-46.6268
0
LINE
8
BLACK
6
CONTINUOUS
10
198.645
20
-46.6268
11
198.647
21
-46.6331
0
LINE
8
BLACK
6
CONTINUOUS
10
198.647
20
-46.6331
11
198.652
21
-46.6375
0
LINE
8
BLACK
6
CONTINUOUS
10
198.652
20
-46.6375
11
198.656
21
-46.6567
0
LINE
8
BLACK
6
CONTINUOUS
10
198.656
20
-46.6567
11
198.662
21
-46.675
0
LINE
8
BLACK
6
CONTINUOUS
10
198.662
20
-46.675
11
198.662
21
-60.475
0
LINE
8
BLACK
6
CONTINUOUS
10
198.662
20
-60.475
11
198.661
21
-60.4847
0
LINE
8
BLACK
6
CONTINUOUS
10
198.661
20
-60.4847
11
198.661
21
-60.488
0
LINE
8
BLACK
6
CONTINUOUS
10
198.661
20
-60.488
11
198.66
21
-60.4909
0
LINE
8
BLACK
6
CONTINUOUS
10
198.66
20
-60.4909
11
198.658
21
-60.5007
0
LINE
8
BLACK
6
CONTINUOUS
10
198.658
20
-60.5007
11
198.645
21
-60.5156
0
LINE
8
BLACK
6
CONTINUOUS
10
198.645
20
-60.5156
11
198.636
21
-60.5325
0
LINE
8
BLACK
6
CONTINUOUS
10
198.636
20
-60.5325
11
198.629
21
-60.5348
0
LINE
8
BLACK
6
CONTINUOUS
10
198.629
20
-60.5348
11
198.625
21
-60.54
0
LINE
8
BLACK
6
CONTINUOUS
10
198.625
20
-60.54
11
198.606
21
-60.5433
0
LINE
8
BLACK
6
CONTINUOUS
10
198.606
20
-60.5433
11
198.587
21
-60.55
0
LINE
8
BLACK
6
CONTINUOUS
10
198.587
20
-60.55
11
184.787
21
-60.55
0
LINE
8
BLACK
6
CONTINUOUS
10
184.787
20
-60.55
11
184.778
21
-60.5483
0
LINE
8
BLACK
6
CONTINUOUS
10
184.778
20
-60.5483
11
184.774
21
-60.5489
0
LINE
8
BLACK
6
CONTINUOUS
10
184.774
20
-60.5489
11
184.772
21
-60.5472
0
LINE
8
BLACK
6
CONTINUOUS
10
184.772
20
-60.5472
11
184.762
21
-60.5455
0
LINE
8
BLACK
6
CONTINUOUS
10
184.762
20
-60.5455
11
184.747
21
-60.533
0
LINE
8
BLACK
6
CONTINUOUS
10
184.747
20
-60.533
11
184.73
21
-60.5232
0
LINE
8
BLACK
6
CONTINUOUS
10
184.73
20
-60.5232
11
184.728
21
-60.5168
0
LINE
8
BLACK
6
CONTINUOUS
10
184.728
20
-60.5168
11
184.723
21
-60.5125
0
LINE
8
BLACK
6
CONTINUOUS
10
184.723
20
-60.5125
11
184.719
21
-60.4933
0
LINE
8
BLACK
6
CONTINUOUS
10
184.719
20
-60.4933
11
184.713
21
-60.475
0
LINE
8
BLACK
6
CONTINUOUS
10
184.713
20
-60.475
11
184.713
21
-46.675
0
LINE
8
BLACK
6
CONTINUOUS
10
184.713
20
-46.675
11
184.714
21
-46.6653
0
LINE
8
BLACK
6
CONTINUOUS
10
184.714
20
-46.6653
11
184.714
21
-46.662
0
LINE
8
BLACK
6
CONTINUOUS
10
184.714
20
-46.662
11
184.715
21
-46.6591
0
LINE
8
BLACK
6
CONTINUOUS
10
184.715
20
-46.6591
11
184.717
21
-46.6493
0
LINE
8
BLACK
6
CONTINUOUS
10
184.717
20
-46.6493
11
184.73
21
-46.6344
0
LINE
8
BLACK
6
CONTINUOUS
10
184.73
20
-46.6344
11
184.739
21
-46.6175
0
LINE
8
BLACK
6
CONTINUOUS
10
184.739
20
-46.6175
11
184.746
21
-46.6152
0
LINE
8
BLACK
6
CONTINUOUS
10
184.746
20
-46.6152
11
184.75
21
-46.61
0
LINE
8
BLACK
6
CONTINUOUS
10
184.75
20
-46.61
11
184.769
21
-46.6067
0
LINE
8
BLACK
6
CONTINUOUS
10
184.769
20
-46.6067
11
184.787
21
-46.6
0
LINE
8
BLACK
6
CONTINUOUS
10
184.787
20
-46.6
11
198.587
21
-46.6
0
LINE
8
BLACK
6
CONTINUOUS
10
198.587
20
-46.6
11
198.597
21
-46.6017
0
LINE
8
BLACK
6
CONTINUOUS
10
184.862
20
-46.75
11
184.862
21
-60.4
0
LINE
8
BLACK
6
CONTINUOUS
10
184.862
20
-60.4
11
198.512
21
-60.4
0
LINE
8
BLACK
6
CONTINUOUS
10
198.512
20
-60.4
11
198.512
21
-46.75
0
LINE
8
BLACK
6
CONTINUOUS
10
198.512
20
-46.75
11
184.862
21
-46.75
0
LINE
8
BLACK
6
CONTINUOUS
10
170.022
20
-46.6017
11
170.026
21
-46.6011
0
LINE
8
BLACK
6
CONTINUOUS
10
170.026
20
-46.6011
11
170.028
21
-46.6028
0
LINE
8
BLACK
6
CONTINUOUS
10
170.028
20
-46.6028
11
170.038
21
-46.6045
0
LINE
8
BLACK
6
CONTINUOUS
10
170.038
20
-46.6045
11
170.053
21
-46.617
0
LINE
8
BLACK
6
CONTINUOUS
10
170.053
20
-46.617
11
170.07
21
-46.6268
0
LINE
8
BLACK
6
CONTINUOUS
10
170.07
20
-46.6268
11
170.072
21
-46.6331
0
LINE
8
BLACK
6
CONTINUOUS
10
170.072
20
-46.6331
11
170.077
21
-46.6375
0
LINE
8
BLACK
6
CONTINUOUS
10
170.077
20
-46.6375
11
170.081
21
-46.6567
0
LINE
8
BLACK
6
CONTINUOUS
10
170.081
20
-46.6567
11
170.088
21
-46.675
0
LINE
8
BLACK
6
CONTINUOUS
10
170.088
20
-46.675
11
170.088
21
-60.475
0
LINE
8
BLACK
6
CONTINUOUS
10
170.088
20
-60.475
11
170.086
21
-60.4847
0
LINE
8
BLACK
6
CONTINUOUS
10
170.086
20
-60.4847
11
170.086
21
-60.488
0
LINE
8
BLACK
6
CONTINUOUS
10
170.086
20
-60.488
11
170.085
21
-60.4909
0
LINE
8
BLACK
6
CONTINUOUS
10
170.085
20
-60.4909
11
170.083
21
-60.5007
0
LINE
8
BLACK
6
CONTINUOUS
10
170.083
20
-60.5007
11
170.07
21
-60.5156
0
LINE
8
BLACK
6
CONTINUOUS
10
170.07
20
-60.5156
11
170.061
21
-60.5325
0
LINE
8
BLACK
6
CONTINUOUS
10
170.061
20
-60.5325
11
170.054
21
-60.5348
0
LINE
8
BLACK
6
CONTINUOUS
10
170.054
20
-60.5348
11
170.05
21
-60.54
0
LINE
8
BLACK
6
CONTINUOUS
10
170.05
20
-60.54
11
170.031
21
-60.5433
0
LINE
8
BLACK
6
CONTINUOUS
10
170.031
20
-60.5433
11
170.012
21
-60.55
0
LINE
8
BLACK
6
CONTINUOUS
10
170.012
20
-60.55
11
156.213
21
-60.55
0
LINE
8
BLACK
6
CONTINUOUS
10
156.213
20
-60.55
11
156.203
21
-60.5483
0
LINE
8
BLACK
6
CONTINUOUS
10
156.203
20
-60.5483
11
156.199
21
-60.5489
0
LINE
8
BLACK
6
CONTINUOUS
10
156.199
20
-60.5489
11
156.197
21
-60.5472
0
LINE
8
BLACK
6
CONTINUOUS
10
156.197
20
-60.5472
11
156.187
21
-60.5455
0
LINE
8
BLACK
6
CONTINUOUS
10
156.187
20
-60.5455
11
156.172
21
-60.533
0
LINE
8
BLACK
6
CONTINUOUS
10
156.172
20
-60.533
11
156.155
21
-60.5232
0
LINE
8
BLACK
6
CONTINUOUS
10
156.155
20
-60.5232
11
156.153
21
-60.5168
0
LINE
8
BLACK
6
CONTINUOUS
10
156.153
20
-60.5168
11
156.148
21
-60.5125
0
LINE
8
BLACK
6
CONTINUOUS
10
156.148
20
-60.5125
11
156.144
21
-60.4933
0
LINE
8
BLACK
6
CONTINUOUS
10
156.144
20
-60.4933
11
156.137
21
-60.475
0
LINE
8
BLACK
6
CONTINUOUS
10
156.137
20
-60.475
11
156.137
21
-46.675
0
LINE
8
BLACK
6
CONTINUOUS
10
156.137
20
-46.675
11
156.139
21
-46.6653
0
LINE
8
BLACK
6
CONTINUOUS
10
156.139
20
-46.6653
11
156.139
21
-46.662
0
LINE
8
BLACK
6
CONTINUOUS
10
156.139
20
-46.662
11
156.14
21
-46.6591
0
LINE
8
BLACK
6
CONTINUOUS
10
156.14
20
-46.6591
11
156.142
21
-46.6493
0
LINE
8
BLACK
6
CONTINUOUS
10
156.142
20
-46.6493
11
156.155
21
-46.6344
0
LINE
8
BLACK
6
CONTINUOUS
10
156.155
20
-46.6344
11
156.164
21
-46.6175
0
LINE
8
BLACK
6
CONTINUOUS
10
156.164
20
-46.6175
11
156.171
21
-46.6152
0
LINE
8
BLACK
6
CONTINUOUS
10
156.171
20
-46.6152
11
156.175
21
-46.61
0
LINE
8
BLACK
6
CONTINUOUS
10
156.175
20
-46.61
11
156.194
21
-46.6067
0
LINE
8
BLACK
6
CONTINUOUS
10
156.194
20
-46.6067
11
156.213
21
-46.6
0
LINE
8
BLACK
6
CONTINUOUS
10
156.213
20
-46.6
11
170.012
21
-46.6
0
LINE
8
BLACK
6
CONTINUOUS
10
170.012
20
-46.6
11
170.022
21
-46.6017
0
LINE
8
BLACK
6
CONTINUOUS
10
156.287
20
-46.75
11
156.287
21
-60.4
0
LINE
8
BLACK
6
CONTINUOUS
10
156.287
20
-60.4
11
169.938
21
-60.4
0
LINE
8
BLACK
6
CONTINUOUS
10
169.938
20
-60.4
11
169.938
21
-46.75
0
LINE
8
BLACK
6
CONTINUOUS
10
169.938
20
-46.75
11
156.287
21
-46.75
0
LINE
8
BLACK
6
CONTINUOUS
10
150.972
20
-46.6017
11
150.976
21
-46.6011
0
LINE
8
BLACK
6
CONTINUOUS
10
150.976
20
-46.6011
11
150.978
21
-46.6028
0
LINE
8
BLACK
6
CONTINUOUS
10
150.978
20
-46.6028
11
150.988
21
-46.6045
0
LINE
8
BLACK
6
CONTINUOUS
10
150.988
20
-46.6045
11
151.003
21
-46.617
0
LINE
8
BLACK
6
CONTINUOUS
10
151.003
20
-46.617
11
151.02
21
-46.6268
0
LINE
8
BLACK
6
CONTINUOUS
10
151.02
20
-46.6268
11
151.022
21
-46.6331
0
LINE
8
BLACK
6
CONTINUOUS
10
151.022
20
-46.6331
11
151.027
21
-46.6375
0
LINE
8
BLACK
6
CONTINUOUS
10
151.027
20
-46.6375
11
151.031
21
-46.6567
0
LINE
8
BLACK
6
CONTINUOUS
10
151.031
20
-46.6567
11
151.037
21
-46.675
0
LINE
8
BLACK
6
CONTINUOUS
10
151.037
20
-46.675
11
151.037
21
-60.475
0
LINE
8
BLACK
6
CONTINUOUS
10
151.037
20
-60.475
11
151.036
21
-60.4847
0
LINE
8
BLACK
6
CONTINUOUS
10
151.036
20
-60.4847
11
151.036
21
-60.488
0
LINE
8
BLACK
6
CONTINUOUS
10
151.036
20
-60.488
11
151.035
21
-60.4909
0
LINE
8
BLACK
6
CONTINUOUS
10
151.035
20
-60.4909
11
151.033
21
-60.5007
0
LINE
8
BLACK
6
CONTINUOUS
10
151.033
20
-60.5007
11
151.02
21
-60.5156
0
LINE
8
BLACK
6
CONTINUOUS
10
151.02
20
-60.5156
11
151.011
21
-60.5325
0
LINE
8
BLACK
6
CONTINUOUS
10
151.011
20
-60.5325
11
151.004
21
-60.5348
0
LINE
8
BLACK
6
CONTINUOUS
10
151.004
20
-60.5348
11
151
21
-60.54
0
LINE
8
BLACK
6
CONTINUOUS
10
151
20
-60.54
11
150.981
21
-60.5433
0
LINE
8
BLACK
6
CONTINUOUS
10
150.981
20
-60.5433
11
150.963
21
-60.55
0
LINE
8
BLACK
6
CONTINUOUS
10
150.963
20
-60.55
11
137.162
21
-60.55
0
LINE
8
BLACK
6
CONTINUOUS
10
137.162
20
-60.55
11
137.153
21
-60.5483
0
LINE
8
BLACK
6
CONTINUOUS
10
137.153
20
-60.5483
11
137.149
21
-60.5489
0
LINE
8
BLACK
6
CONTINUOUS
10
137.149
20
-60.5489
11
137.147
21
-60.5472
0
LINE
8
BLACK
6
CONTINUOUS
10
137.147
20
-60.5472
11
137.137
21
-60.5455
0
LINE
8
BLACK
6
CONTINUOUS
10
137.137
20
-60.5455
11
137.122
21
-60.533
0
LINE
8
BLACK
6
CONTINUOUS
10
137.122
20
-60.533
11
137.105
21
-60.5232
0
LINE
8
BLACK
6
CONTINUOUS
10
137.105
20
-60.5232
11
137.103
21
-60.5168
0
LINE
8
BLACK
6
CONTINUOUS
10
137.103
20
-60.5168
11
137.098
21
-60.5125
0
LINE
8
BLACK
6
CONTINUOUS
10
137.098
20
-60.5125
11
137.094
21
-60.4933
0
LINE
8
BLACK
6
CONTINUOUS
10
137.094
20
-60.4933
11
137.088
21
-60.475
0
LINE
8
BLACK
6
CONTINUOUS
10
137.088
20
-60.475
11
137.088
21
-46.675
0
LINE
8
BLACK
6
CONTINUOUS
10
137.088
20
-46.675
11
137.089
21
-46.6653
0
LINE
8
BLACK
6
CONTINUOUS
10
137.089
20
-46.6653
11
137.089
21
-46.662
0
LINE
8
BLACK
6
CONTINUOUS
10
137.089
20
-46.662
11
137.09
21
-46.6591
0
LINE
8
BLACK
6
CONTINUOUS
10
137.09
20
-46.6591
11
137.092
21
-46.6493
0
LINE
8
BLACK
6
CONTINUOUS
10
137.092
20
-46.6493
11
137.105
21
-46.6344
0
LINE
8
BLACK
6
CONTINUOUS
10
137.105
20
-46.6344
11
137.114
21
-46.6175
0
LINE
8
BLACK
6
CONTINUOUS
10
137.114
20
-46.6175
11
137.121
21
-46.6152
0
LINE
8
BLACK
6
CONTINUOUS
10
137.121
20
-46.6152
11
137.125
21
-46.61
0
LINE
8
BLACK
6
CONTINUOUS
10
137.125
20
-46.61
11
137.144
21
-46.6067
0
LINE
8
BLACK
6
CONTINUOUS
10
137.144
20
-46.6067
11
137.162
21
-46.6
0
LINE
8
BLACK
6
CONTINUOUS
10
137.162
20
-46.6
11
150.963
21
-46.6
0
LINE
8
BLACK
6
CONTINUOUS
10
150.963
20
-46.6
11
150.972
21
-46.6017
0
LINE
8
BLACK
6
CONTINUOUS
10
137.237
20
-46.75
11
137.237
21
-60.4
0
LINE
8
BLACK
6
CONTINUOUS
10
137.237
20
-60.4
11
150.887
21
-60.4
0
LINE
8
BLACK
6
CONTINUOUS
10
150.887
20
-60.4
11
150.887
21
-46.75
0
LINE
8
BLACK
6
CONTINUOUS
10
150.887
20
-46.75
11
137.237
21
-46.75
0
LINE
8
BLACK
6
CONTINUOUS
10
131.922
20
-46.6017
11
131.926
21
-46.6011
0
LINE
8
BLACK
6
CONTINUOUS
10
131.926
20
-46.6011
11
131.928
21
-46.6028
0
LINE
8
BLACK
6
CONTINUOUS
10
131.928
20
-46.6028
11
131.938
21
-46.6045
0
LINE
8
BLACK
6
CONTINUOUS
10
131.938
20
-46.6045
11
131.953
21
-46.617
0
LINE
8
BLACK
6
CONTINUOUS
10
131.953
20
-46.617
11
131.97
21
-46.6268
0
LINE
8
BLACK
6
CONTINUOUS
10
131.97
20
-46.6268
11
131.972
21
-46.6331
0
LINE
8
BLACK
6
CONTINUOUS
10
131.972
20
-46.6331
11
131.977
21
-46.6375
0
LINE
8
BLACK
6
CONTINUOUS
10
131.977
20
-46.6375
11
131.981
21
-46.6567
0
LINE
8
BLACK
6
CONTINUOUS
10
131.981
20
-46.6567
11
131.987
21
-46.675
0
LINE
8
BLACK
6
CONTINUOUS
10
131.987
20
-46.675
11
131.987
21
-60.475
0
LINE
8
BLACK
6
CONTINUOUS
10
131.987
20
-60.475
11
131.986
21
-60.4847
0
LINE
8
BLACK
6
CONTINUOUS
10
131.986
20
-60.4847
11
131.986
21
-60.488
0
LINE
8
BLACK
6
CONTINUOUS
10
131.986
20
-60.488
11
131.985
21
-60.4909
0
LINE
8
BLACK
6
CONTINUOUS
10
131.985
20
-60.4909
11
131.983
21
-60.5007
0
LINE
8
BLACK
6
CONTINUOUS
10
131.983
20
-60.5007
11
131.97
21
-60.5156
0
LINE
8
BLACK
6
CONTINUOUS
10
131.97
20
-60.5156
11
131.961
21
-60.5325
0
LINE
8
BLACK
6
CONTINUOUS
10
131.961
20
-60.5325
11
131.954
21
-60.5348
0
LINE
8
BLACK
6
CONTINUOUS
10
131.954
20
-60.5348
11
131.95
21
-60.54
0
LINE
8
BLACK
6
CONTINUOUS
10
131.95
20
-60.54
11
131.931
21
-60.5433
0
LINE
8
BLACK
6
CONTINUOUS
10
131.931
20
-60.5433
11
131.912
21
-60.55
0
LINE
8
BLACK
6
CONTINUOUS
10
131.912
20
-60.55
11
118.112
21
-60.55
0
LINE
8
BLACK
6
CONTINUOUS
10
118.112
20
-60.55
11
118.103
21
-60.5483
0
LINE
8
BLACK
6
CONTINUOUS
10
118.103
20
-60.5483
11
118.099
21
-60.5489
0
LINE
8
BLACK
6
CONTINUOUS
10
118.099
20
-60.5489
11
118.097
21
-60.5472
0
LINE
8
BLACK
6
CONTINUOUS
10
118.097
20
-60.5472
11
118.087
21
-60.5455
0
LINE
8
BLACK
6
CONTINUOUS
10
118.087
20
-60.5455
11
118.072
21
-60.533
0
LINE
8
BLACK
6
CONTINUOUS
10
118.072
20
-60.533
11
118.055
21
-60.5232
0
LINE
8
BLACK
6
CONTINUOUS
10
118.055
20
-60.5232
11
118.053
21
-60.5168
0
LINE
8
BLACK
6
CONTINUOUS
10
118.053
20
-60.5168
11
118.048
21
-60.5125
0
LINE
8
BLACK
6
CONTINUOUS
10
118.048
20
-60.5125
11
118.044
21
-60.4933
0
LINE
8
BLACK
6
CONTINUOUS
10
118.044
20
-60.4933
11
118.037
21
-60.475
0
LINE
8
BLACK
6
CONTINUOUS
10
118.037
20
-60.475
11
118.037
21
-46.675
0
LINE
8
BLACK
6
CONTINUOUS
10
118.037
20
-46.675
11
118.039
21
-46.6653
0
LINE
8
BLACK
6
CONTINUOUS
10
118.039
20
-46.6653
11
118.039
21
-46.662
0
LINE
8
BLACK
6
CONTINUOUS
10
118.039
20
-46.662
11
118.04
21
-46.6591
0
LINE
8
BLACK
6
CONTINUOUS
10
118.04
20
-46.6591
11
118.042
21
-46.6493
0
LINE
8
BLACK
6
CONTINUOUS
10
118.042
20
-46.6493
11
118.055
21
-46.6344
0
LINE
8
BLACK
6
CONTINUOUS
10
118.055
20
-46.6344
11
118.064
21
-46.6175
0
LINE
8
BLACK
6
CONTINUOUS
10
118.064
20
-46.6175
11
118.071
21
-46.6152
0
LINE
8
BLACK
6
CONTINUOUS
10
118.071
20
-46.6152
11
118.075
21
-46.61
0
LINE
8
BLACK
6
CONTINUOUS
10
118.075
20
-46.61
11
118.094
21
-46.6067
0
LINE
8
BLACK
6
CONTINUOUS
10
118.094
20
-46.6067
11
118.112
21
-46.6
0
LINE
8
BLACK
6
CONTINUOUS
10
118.112
20
-46.6
11
131.912
21
-46.6
0
LINE
8
BLACK
6
CONTINUOUS
10
131.912
20
-46.6
11
131.922
21
-46.6017
0
LINE
8
BLACK
6
CONTINUOUS
10
118.188
20
-46.75
11
118.188
21
-60.4
0
LINE
8
BLACK
6
CONTINUOUS
10
118.188
20
-60.4
11
131.838
21
-60.4
0
LINE
8
BLACK
6
CONTINUOUS
10
131.838
20
-60.4
11
131.838
21
-46.75
0
LINE
8
BLACK
6
CONTINUOUS
10
131.838
20
-46.75
11
118.188
21
-46.75
0
LINE
8
BLACK
6
CONTINUOUS
10
112.872
20
-46.6017
11
112.876
21
-46.6011
0
LINE
8
BLACK
6
CONTINUOUS
10
112.876
20
-46.6011
11
112.878
21
-46.6028
0
LINE
8
BLACK
6
CONTINUOUS
10
112.878
20
-46.6028
11
112.888
21
-46.6045
0
LINE
8
BLACK
6
CONTINUOUS
10
112.888
20
-46.6045
11
112.903
21
-46.617
0
LINE
8
BLACK
6
CONTINUOUS
10
112.903
20
-46.617
11
112.92
21
-46.6268
0
LINE
8
BLACK
6
CONTINUOUS
10
112.92
20
-46.6268
11
112.922
21
-46.6331
0
LINE
8
BLACK
6
CONTINUOUS
10
112.922
20
-46.6331
11
112.927
21
-46.6375
0
LINE
8
BLACK
6
CONTINUOUS
10
112.927
20
-46.6375
11
112.931
21
-46.6567
0
LINE
8
BLACK
6
CONTINUOUS
10
112.931
20
-46.6567
11
112.938
21
-46.675
0
LINE
8
BLACK
6
CONTINUOUS
10
112.938
20
-46.675
11
112.938
21
-60.475
0
LINE
8
BLACK
6
CONTINUOUS
10
112.938
20
-60.475
11
112.936
21
-60.4847
0
LINE
8
BLACK
6
CONTINUOUS
10
112.936
20
-60.4847
11
112.936
21
-60.488
0
LINE
8
BLACK
6
CONTINUOUS
10
112.936
20
-60.488
11
112.935
21
-60.4909
0
LINE
8
BLACK
6
CONTINUOUS
10
112.935
20
-60.4909
11
112.933
21
-60.5007
0
LINE
8
BLACK
6
CONTINUOUS
10
112.933
20
-60.5007
11
112.92
21
-60.5156
0
LINE
8
BLACK
6
CONTINUOUS
10
112.92
20
-60.5156
11
112.911
21
-60.5325
0
LINE
8
BLACK
6
CONTINUOUS
10
112.911
20
-60.5325
11
112.904
21
-60.5348
0
LINE
8
BLACK
6
CONTINUOUS
10
112.904
20
-60.5348
11
112.9
21
-60.54
0
LINE
8
BLACK
6
CONTINUOUS
10
112.9
20
-60.54
11
112.881
21
-60.5433
0
LINE
8
BLACK
6
CONTINUOUS
10
112.881
20
-60.5433
11
112.862
21
-60.55
0
LINE
8
BLACK
6
CONTINUOUS
10
112.862
20
-60.55
11
99.0625
21
-60.55
0
LINE
8
BLACK
6
CONTINUOUS
10
99.0625
20
-60.55
11
99.0528
21
-60.5483
0
LINE
8
BLACK
6
CONTINUOUS
10
99.0528
20
-60.5483
11
99.0495
21
-60.5489
0
LINE
8
BLACK
6
CONTINUOUS
10
99.0495
20
-60.5489
11
99.0466
21
-60.5472
0
LINE
8
BLACK
6
CONTINUOUS
10
99.0466
20
-60.5472
11
99.0368
21
-60.5455
0
LINE
8
BLACK
6
CONTINUOUS
10
99.0368
20
-60.5455
11
99.0219
21
-60.533
0
LINE
8
BLACK
6
CONTINUOUS
10
99.0219
20
-60.533
11
99.005
21
-60.5232
0
LINE
8
BLACK
6
CONTINUOUS
10
99.005
20
-60.5232
11
99.0027
21
-60.5168
0
LINE
8
BLACK
6
CONTINUOUS
10
99.0027
20
-60.5168
11
98.9975
21
-60.5125
0
LINE
8
BLACK
6
CONTINUOUS
10
98.9975
20
-60.5125
11
98.9942
21
-60.4933
0
LINE
8
BLACK
6
CONTINUOUS
10
98.9942
20
-60.4933
11
98.9875
21
-60.475
0
LINE
8
BLACK
6
CONTINUOUS
10
98.9875
20
-60.475
11
98.9875
21
-46.675
0
LINE
8
BLACK
6
CONTINUOUS
10
98.9875
20
-46.675
11
98.9892
21
-46.6653
0
LINE
8
BLACK
6
CONTINUOUS
10
98.9892
20
-46.6653
11
98.9886
21
-46.662
0
LINE
8
BLACK
6
CONTINUOUS
10
98.9886
20
-46.662
11
98.9903
21
-46.6591
0
LINE
8
BLACK
6
CONTINUOUS
10
98.9903
20
-46.6591
11
98.992
21
-46.6493
0
LINE
8
BLACK
6
CONTINUOUS
10
98.992
20
-46.6493
11
99.0045
21
-46.6344
0
LINE
8
BLACK
6
CONTINUOUS
10
99.0045
20
-46.6344
11
99.0143
21
-46.6175
0
LINE
8
BLACK
6
CONTINUOUS
10
99.0143
20
-46.6175
11
99.0206
21
-46.6152
0
LINE
8
BLACK
6
CONTINUOUS
10
99.0206
20
-46.6152
11
99.025
21
-46.61
0
LINE
8
BLACK
6
CONTINUOUS
10
99.025
20
-46.61
11
99.0442
21
-46.6067
0
LINE
8
BLACK
6
CONTINUOUS
10
99.0442
20
-46.6067
11
99.0625
21
-46.6
0
LINE
8
BLACK
6
CONTINUOUS
10
99.0625
20
-46.6
11
112.862
21
-46.6
0
LINE
8
BLACK
6
CONTINUOUS
10
112.862
20
-46.6
11
112.872
21
-46.6017
0
LINE
8
BLACK
6
CONTINUOUS
10
99.1375
20
-46.75
11
99.1375
21
-60.4
0
LINE
8
BLACK
6
CONTINUOUS
10
99.1375
20
-60.4
11
112.787
21
-60.4
0
LINE
8
BLACK
6
CONTINUOUS
10
112.787
20
-60.4
11
112.787
21
-46.75
0
LINE
8
BLACK
6
CONTINUOUS
10
112.787
20
-46.75
11
99.1375
21
-46.75
0
LINE
8
BLACK
6
CONTINUOUS
10
93.8222
20
-46.6017
11
93.8255
21
-46.6011
0
LINE
8
BLACK
6
CONTINUOUS
10
93.8255
20
-46.6011
11
93.8284
21
-46.6028
0
LINE
8
BLACK
6
CONTINUOUS
10
93.8284
20
-46.6028
11
93.8382
21
-46.6045
0
LINE
8
BLACK
6
CONTINUOUS
10
93.8382
20
-46.6045
11
93.8531
21
-46.617
0
LINE
8
BLACK
6
CONTINUOUS
10
93.8531
20
-46.617
11
93.87
21
-46.6268
0
LINE
8
BLACK
6
CONTINUOUS
10
93.87
20
-46.6268
11
93.8723
21
-46.6331
0
LINE
8
BLACK
6
CONTINUOUS
10
93.8723
20
-46.6331
11
93.8775
21
-46.6375
0
LINE
8
BLACK
6
CONTINUOUS
10
93.8775
20
-46.6375
11
93.8808
21
-46.6567
0
LINE
8
BLACK
6
CONTINUOUS
10
93.8808
20
-46.6567
11
93.8875
21
-46.675
0
LINE
8
BLACK
6
CONTINUOUS
10
93.8875
20
-46.675
11
93.8875
21
-60.475
0
LINE
8
BLACK
6
CONTINUOUS
10
93.8875
20
-60.475
11
93.8858
21
-60.4847
0
LINE
8
BLACK
6
CONTINUOUS
10
93.8858
20
-60.4847
11
93.8864
21
-60.488
0
LINE
8
BLACK
6
CONTINUOUS
10
93.8864
20
-60.488
11
93.8847
21
-60.4909
0
LINE
8
BLACK
6
CONTINUOUS
10
93.8847
20
-60.4909
11
93.883
21
-60.5007
0
LINE
8
BLACK
6
CONTINUOUS
10
93.883
20
-60.5007
11
93.8705
21
-60.5156
0
LINE
8
BLACK
6
CONTINUOUS
10
93.8705
20
-60.5156
11
93.8607
21
-60.5325
0
LINE
8
BLACK
6
CONTINUOUS
10
93.8607
20
-60.5325
11
93.8543
21
-60.5348
0
LINE
8
BLACK
6
CONTINUOUS
10
93.8543
20
-60.5348
11
93.85
21
-60.54
0
LINE
8
BLACK
6
CONTINUOUS
10
93.85
20
-60.54
11
93.8308
21
-60.5433
0
LINE
8
BLACK
6
CONTINUOUS
10
93.8308
20
-60.5433
11
93.8125
21
-60.55
0
LINE
8
BLACK
6
CONTINUOUS
10
93.8125
20
-60.55
11
80.0125
21
-60.55
0
LINE
8
BLACK
6
CONTINUOUS
10
80.0125
20
-60.55
11
80.0028
21
-60.5483
0
LINE
8
BLACK
6
CONTINUOUS
10
80.0028
20
-60.5483
11
79.9995
21
-60.5489
0
LINE
8
BLACK
6
CONTINUOUS
10
79.9995
20
-60.5489
11
79.9966
21
-60.5472
0
LINE
8
BLACK
6
CONTINUOUS
10
79.9966
20
-60.5472
11
79.9868
21
-60.5455
0
LINE
8
BLACK
6
CONTINUOUS
10
79.9868
20
-60.5455
11
79.9719
21
-60.533
0
LINE
8
BLACK
6
CONTINUOUS
10
79.9719
20
-60.533
11
79.955
21
-60.5232
0
LINE
8
BLACK
6
CONTINUOUS
10
79.955
20
-60.5232
11
79.9527
21
-60.5168
0
LINE
8
BLACK
6
CONTINUOUS
10
79.9527
20
-60.5168
11
79.9475
21
-60.5125
0
LINE
8
BLACK
6
CONTINUOUS
10
79.9475
20
-60.5125
11
79.9442
21
-60.4933
0
LINE
8
BLACK
6
CONTINUOUS
10
79.9442
20
-60.4933
11
79.9375
21
-60.475
0
LINE
8
BLACK
6
CONTINUOUS
10
79.9375
20
-60.475
11
79.9375
21
-46.675
0
LINE
8
BLACK
6
CONTINUOUS
10
79.9375
20
-46.675
11
79.9392
21
-46.6653
0
LINE
8
BLACK
6
CONTINUOUS
10
79.9392
20
-46.6653
11
79.9386
21
-46.662
0
LINE
8
BLACK
6
CONTINUOUS
10
79.9386
20
-46.662
11
79.9403
21
-46.6591
0
LINE
8
BLACK
6
CONTINUOUS
10
79.9403
20
-46.6591
11
79.942
21
-46.6493
0
LINE
8
BLACK
6
CONTINUOUS
10
79.942
20
-46.6493
11
79.9545
21
-46.6344
0
LINE
8
BLACK
6
CONTINUOUS
10
79.9545
20
-46.6344
11
79.9643
21
-46.6175
0
LINE
8
BLACK
6
CONTINUOUS
10
79.9643
20
-46.6175
11
79.9706
21
-46.6152
0
LINE
8
BLACK
6
CONTINUOUS
10
79.9706
20
-46.6152
11
79.975
21
-46.61
0
LINE
8
BLACK
6
CONTINUOUS
10
79.975
20
-46.61
11
79.9942
21
-46.6067
0
LINE
8
BLACK
6
CONTINUOUS
10
79.9942
20
-46.6067
11
80.0125
21
-46.6
0
LINE
8
BLACK
6
CONTINUOUS
10
80.0125
20
-46.6
11
93.8125
21
-46.6
0
LINE
8
BLACK
6
CONTINUOUS
10
93.8125
20
-46.6
11
93.8222
21
-46.6017
0
LINE
8
BLACK
6
CONTINUOUS
10
80.0875
20
-46.75
11
80.0875
21
-60.4
0
LINE
8
BLACK
6
CONTINUOUS
10
80.0875
20
-60.4
11
93.7375
21
-60.4
0
LINE
8
BLACK
6
CONTINUOUS
10
93.7375
20
-60.4
11
93.7375
21
-46.75
0
LINE
8
BLACK
6
CONTINUOUS
10
93.7375
20
-46.75
11
80.0875
21
-46.75
0
LINE
8
BLACK
6
CONTINUOUS
10
74.7722
20
-46.6017
11
74.7755
21
-46.6011
0
LINE
8
BLACK
6
CONTINUOUS
10
74.7755
20
-46.6011
11
74.7784
21
-46.6028
0
LINE
8
BLACK
6
CONTINUOUS
10
74.7784
20
-46.6028
11
74.7882
21
-46.6045
0
LINE
8
BLACK
6
CONTINUOUS
10
74.7882
20
-46.6045
11
74.8031
21
-46.617
0
LINE
8
BLACK
6
CONTINUOUS
10
74.8031
20
-46.617
11
74.82
21
-46.6268
0
LINE
8
BLACK
6
CONTINUOUS
10
74.82
20
-46.6268
11
74.8223
21
-46.6331
0
LINE
8
BLACK
6
CONTINUOUS
10
74.8223
20
-46.6331
11
74.8275
21
-46.6375
0
LINE
8
BLACK
6
CONTINUOUS
10
74.8275
20
-46.6375
11
74.8308
21
-46.6567
0
LINE
8
BLACK
6
CONTINUOUS
10
74.8308
20
-46.6567
11
74.8375
21
-46.675
0
LINE
8
BLACK
6
CONTINUOUS
10
74.8375
20
-46.675
11
74.8375
21
-60.475
0
LINE
8
BLACK
6
CONTINUOUS
10
74.8375
20
-60.475
11
74.8358
21
-60.4847
0
LINE
8
BLACK
6
CONTINUOUS
10
74.8358
20
-60.4847
11
74.8364
21
-60.488
0
LINE
8
BLACK
6
CONTINUOUS
10
74.8364
20
-60.488
11
74.8347
21
-60.4909
0
LINE
8
BLACK
6
CONTINUOUS
10
74.8347
20
-60.4909
11
74.833
21
-60.5007
0
LINE
8
BLACK
6
CONTINUOUS
10
74.833
20
-60.5007
11
74.8205
21
-60.5156
0
LINE
8
BLACK
6
CONTINUOUS
10
74.8205
20
-60.5156
11
74.8107
21
-60.5325
0
LINE
8
BLACK
6
CONTINUOUS
10
74.8107
20
-60.5325
11
74.8043
21
-60.5348
0
LINE
8
BLACK
6
CONTINUOUS
10
74.8043
20
-60.5348
11
74.8
21
-60.54
0
LINE
8
BLACK
6
CONTINUOUS
10
74.8
20
-60.54
11
74.7808
21
-60.5433
0
LINE
8
BLACK
6
CONTINUOUS
10
74.7808
20
-60.5433
11
74.7625
21
-60.55
0
LINE
8
BLACK
6
CONTINUOUS
10
74.7625
20
-60.55
11
60.9625
21
-60.55
0
LINE
8
BLACK
6
CONTINUOUS
10
60.9625
20
-60.55
11
60.9528
21
-60.5483
0
LINE
8
BLACK
6
CONTINUOUS
10
60.9528
20
-60.5483
11
60.9495
21
-60.5489
0
LINE
8
BLACK
6
CONTINUOUS
10
60.9495
20
-60.5489
11
60.9466
21
-60.5472
0
LINE
8
BLACK
6
CONTINUOUS
10
60.9466
20
-60.5472
11
60.9368
21
-60.5455
0
LINE
8
BLACK
6
CONTINUOUS
10
60.9368
20
-60.5455
11
60.9219
21
-60.533
0
LINE
8
BLACK
6
CONTINUOUS
10
60.9219
20
-60.533
11
60.905
21
-60.5232
0
LINE
8
BLACK
6
CONTINUOUS
10
60.905
20
-60.5232
11
60.9027
21
-60.5168
0
LINE
8
BLACK
6
CONTINUOUS
10
60.9027
20
-60.5168
11
60.8975
21
-60.5125
0
LINE
8
BLACK
6
CONTINUOUS
10
60.8975
20
-60.5125
11
60.8942
21
-60.4933
0
LINE
8
BLACK
6
CONTINUOUS
10
60.8942
20
-60.4933
11
60.8875
21
-60.475
0
LINE
8
BLACK
6
CONTINUOUS
10
60.8875
20
-60.475
11
60.8875
21
-46.675
0
LINE
8
BLACK
6
CONTINUOUS
10
60.8875
20
-46.675
11
60.8892
21
-46.6653
0
LINE
8
BLACK
6
CONTINUOUS
10
60.8892
20
-46.6653
11
60.8886
21
-46.662
0
LINE
8
BLACK
6
CONTINUOUS
10
60.8886
20
-46.662
11
60.8903
21
-46.6591
0
LINE
8
BLACK
6
CONTINUOUS
10
60.8903
20
-46.6591
11
60.892
21
-46.6493
0
LINE
8
BLACK
6
CONTINUOUS
10
60.892
20
-46.6493
11
60.9045
21
-46.6344
0
LINE
8
BLACK
6
CONTINUOUS
10
60.9045
20
-46.6344
11
60.9143
21
-46.6175
0
LINE
8
BLACK
6
CONTINUOUS
10
60.9143
20
-46.6175
11
60.9206
21
-46.6152
0
LINE
8
BLACK
6
CONTINUOUS
10
60.9206
20
-46.6152
11
60.925
21
-46.61
0
LINE
8
BLACK
6
CONTINUOUS
10
60.925
20
-46.61
11
60.9442
21
-46.6067
0
LINE
8
BLACK
6
CONTINUOUS
10
60.9442
20
-46.6067
11
60.9625
21
-46.6
0
LINE
8
BLACK
6
CONTINUOUS
10
60.9625
20
-46.6
11
74.7625
21
-46.6
0
LINE
8
BLACK
6
CONTINUOUS
10
74.7625
20
-46.6
11
74.7722
21
-46.6017
0
LINE
8
BLACK
6
CONTINUOUS
10
61.0375
20
-46.75
11
61.0375
21
-60.4
0
LINE
8
BLACK
6
CONTINUOUS
10
61.0375
20
-60.4
11
74.6875
21
-60.4
0
LINE
8
BLACK
6
CONTINUOUS
10
74.6875
20
-60.4
11
74.6875
21
-46.75
0
LINE
8
BLACK
6
CONTINUOUS
10
74.6875
20
-46.75
11
61.0375
21
-46.75
0
LINE
8
BLACK
6
CONTINUOUS
10
46.1972
20
-46.6017
11
46.2005
21
-46.6011
0
LINE
8
BLACK
6
CONTINUOUS
10
46.2005
20
-46.6011
11
46.2034
21
-46.6028
0
LINE
8
BLACK
6
CONTINUOUS
10
46.2034
20
-46.6028
11
46.2132
21
-46.6045
0
LINE
8
BLACK
6
CONTINUOUS
10
46.2132
20
-46.6045
11
46.2281
21
-46.617
0
LINE
8
BLACK
6
CONTINUOUS
10
46.2281
20
-46.617
11
46.245
21
-46.6268
0
LINE
8
BLACK
6
CONTINUOUS
10
46.245
20
-46.6268
11
46.2473
21
-46.6331
0
LINE
8
BLACK
6
CONTINUOUS
10
46.2473
20
-46.6331
11
46.2525
21
-46.6375
0
LINE
8
BLACK
6
CONTINUOUS
10
46.2525
20
-46.6375
11
46.2558
21
-46.6567
0
LINE
8
BLACK
6
CONTINUOUS
10
46.2558
20
-46.6567
11
46.2625
21
-46.675
0
LINE
8
BLACK
6
CONTINUOUS
10
46.2625
20
-46.675
11
46.2625
21
-60.475
0
LINE
8
BLACK
6
CONTINUOUS
10
46.2625
20
-60.475
11
46.2608
21
-60.4847
0
LINE
8
BLACK
6
CONTINUOUS
10
46.2608
20
-60.4847
11
46.2614
21
-60.488
0
LINE
8
BLACK
6
CONTINUOUS
10
46.2614
20
-60.488
11
46.2597
21
-60.4909
0
LINE
8
BLACK
6
CONTINUOUS
10
46.2597
20
-60.4909
11
46.258
21
-60.5007
0
LINE
8
BLACK
6
CONTINUOUS
10
46.258
20
-60.5007
11
46.2455
21
-60.5156
0
LINE
8
BLACK
6
CONTINUOUS
10
46.2455
20
-60.5156
11
46.2357
21
-60.5325
0
LINE
8
BLACK
6
CONTINUOUS
10
46.2357
20
-60.5325
11
46.2293
21
-60.5348
0
LINE
8
BLACK
6
CONTINUOUS
10
46.2293
20
-60.5348
11
46.225
21
-60.54
0
LINE
8
BLACK
6
CONTINUOUS
10
46.225
20
-60.54
11
46.2058
21
-60.5433
0
LINE
8
BLACK
6
CONTINUOUS
10
46.2058
20
-60.5433
11
46.1875
21
-60.55
0
LINE
8
BLACK
6
CONTINUOUS
10
46.1875
20
-60.55
11
32.3875
21
-60.55
0
LINE
8
BLACK
6
CONTINUOUS
10
32.3875
20
-60.55
11
32.3778
21
-60.5483
0
LINE
8
BLACK
6
CONTINUOUS
10
32.3778
20
-60.5483
11
32.3745
21
-60.5489
0
LINE
8
BLACK
6
CONTINUOUS
10
32.3745
20
-60.5489
11
32.3716
21
-60.5472
0
LINE
8
BLACK
6
CONTINUOUS
10
32.3716
20
-60.5472
11
32.3618
21
-60.5455
0
LINE
8
BLACK
6
CONTINUOUS
10
32.3618
20
-60.5455
11
32.3469
21
-60.533
0
LINE
8
BLACK
6
CONTINUOUS
10
32.3469
20
-60.533
11
32.33
21
-60.5232
0
LINE
8
BLACK
6
CONTINUOUS
10
32.33
20
-60.5232
11
32.3277
21
-60.5168
0
LINE
8
BLACK
6
CONTINUOUS
10
32.3277
20
-60.5168
11
32.3225
21
-60.5125
0
LINE
8
BLACK
6
CONTINUOUS
10
32.3225
20
-60.5125
11
32.3192
21
-60.4933
0
LINE
8
BLACK
6
CONTINUOUS
10
32.3192
20
-60.4933
11
32.3125
21
-60.475
0
LINE
8
BLACK
6
CONTINUOUS
10
32.3125
20
-60.475
11
32.3125
21
-46.675
0
LINE
8
BLACK
6
CONTINUOUS
10
32.3125
20
-46.675
11
32.3142
21
-46.6653
0
LINE
8
BLACK
6
CONTINUOUS
10
32.3142
20
-46.6653
11
32.3136
21
-46.662
0
LINE
8
BLACK
6
CONTINUOUS
10
32.3136
20
-46.662
11
32.3153
21
-46.6591
0
LINE
8
BLACK
6
CONTINUOUS
10
32.3153
20
-46.6591
11
32.317
21
-46.6493
0
LINE
8
BLACK
6
CONTINUOUS
10
32.317
20
-46.6493
11
32.3295
21
-46.6344
0
LINE
8
BLACK
6
CONTINUOUS
10
32.3295
20
-46.6344
11
32.3393
21
-46.6175
0
LINE
8
BLACK
6
CONTINUOUS
10
32.3393
20
-46.6175
11
32.3456
21
-46.6152
0
LINE
8
BLACK
6
CONTINUOUS
10
32.3456
20
-46.6152
11
32.35
21
-46.61
0
LINE
8
BLACK
6
CONTINUOUS
10
32.35
20
-46.61
11
32.3692
21
-46.6067
0
LINE
8
BLACK
6
CONTINUOUS
10
32.3692
20
-46.6067
11
32.3875
21
-46.6
0
LINE
8
BLACK
6
CONTINUOUS
10
32.3875
20
-46.6
11
46.1875
21
-46.6
0
LINE
8
BLACK
6
CONTINUOUS
10
46.1875
20
-46.6
11
46.1972
21
-46.6017
0
LINE
8
BLACK
6
CONTINUOUS
10
32.4625
20
-46.75
11
32.4625
21
-60.4
0
LINE
8
BLACK
6
CONTINUOUS
10
32.4625
20
-60.4
11
46.1125
21
-60.4
0
LINE
8
BLACK
6
CONTINUOUS
10
46.1125
20
-60.4
11
46.1125
21
-46.75
0
LINE
8
BLACK
6
CONTINUOUS
10
46.1125
20
-46.75
11
32.4625
21
-46.75
0
LINE
8
BLACK
6
CONTINUOUS
10
189.072
20
-27.5517
11
189.076
21
-27.5511
0
LINE
8
BLACK
6
CONTINUOUS
10
189.076
20
-27.5511
11
189.078
21
-27.5528
0
LINE
8
BLACK
6
CONTINUOUS
10
189.078
20
-27.5528
11
189.088
21
-27.5545
0
LINE
8
BLACK
6
CONTINUOUS
10
189.088
20
-27.5545
11
189.103
21
-27.567
0
LINE
8
BLACK
6
CONTINUOUS
10
189.103
20
-27.567
11
189.12
21
-27.5768
0
LINE
8
BLACK
6
CONTINUOUS
10
189.12
20
-27.5768
11
189.122
21
-27.5831
0
LINE
8
BLACK
6
CONTINUOUS
10
189.122
20
-27.5831
11
189.127
21
-27.5875
0
LINE
8
BLACK
6
CONTINUOUS
10
189.127
20
-27.5875
11
189.131
21
-27.6067
0
LINE
8
BLACK
6
CONTINUOUS
10
189.131
20
-27.6067
11
189.137
21
-27.625
0
LINE
8
BLACK
6
CONTINUOUS
10
189.137
20
-27.625
11
189.137
21
-41.425
0
LINE
8
BLACK
6
CONTINUOUS
10
189.137
20
-41.425
11
189.136
21
-41.4347
0
LINE
8
BLACK
6
CONTINUOUS
10
189.136
20
-41.4347
11
189.136
21
-41.438
0
LINE
8
BLACK
6
CONTINUOUS
10
189.136
20
-41.438
11
189.135
21
-41.4409
0
LINE
8
BLACK
6
CONTINUOUS
10
189.135
20
-41.4409
11
189.133
21
-41.4507
0
LINE
8
BLACK
6
CONTINUOUS
10
189.133
20
-41.4507
11
189.12
21
-41.4656
0
LINE
8
BLACK
6
CONTINUOUS
10
189.12
20
-41.4656
11
189.111
21
-41.4825
0
LINE
8
BLACK
6
CONTINUOUS
10
189.111
20
-41.4825
11
189.104
21
-41.4848
0
LINE
8
BLACK
6
CONTINUOUS
10
189.104
20
-41.4848
11
189.1
21
-41.49
0
LINE
8
BLACK
6
CONTINUOUS
10
189.1
20
-41.49
11
189.081
21
-41.4933
0
LINE
8
BLACK
6
CONTINUOUS
10
189.081
20
-41.4933
11
189.062
21
-41.5
0
LINE
8
BLACK
6
CONTINUOUS
10
189.062
20
-41.5
11
175.262
21
-41.5
0
LINE
8
BLACK
6
CONTINUOUS
10
175.262
20
-41.5
11
175.253
21
-41.4983
0
LINE
8
BLACK
6
CONTINUOUS
10
175.253
20
-41.4983
11
175.249
21
-41.4989
0
LINE
8
BLACK
6
CONTINUOUS
10
175.249
20
-41.4989
11
175.247
21
-41.4972
0
LINE
8
BLACK
6
CONTINUOUS
10
175.247
20
-41.4972
11
175.237
21
-41.4955
0
LINE
8
BLACK
6
CONTINUOUS
10
175.237
20
-41.4955
11
175.222
21
-41.483
0
LINE
8
BLACK
6
CONTINUOUS
10
175.222
20
-41.483
11
175.205
21
-41.4732
0
LINE
8
BLACK
6
CONTINUOUS
10
175.205
20
-41.4732
11
175.203
21
-41.4669
0
LINE
8
BLACK
6
CONTINUOUS
10
175.203
20
-41.4669
11
175.198
21
-41.4625
0
LINE
8
BLACK
6
CONTINUOUS
10
175.198
20
-41.4625
11
175.194
21
-41.4433
0
LINE
8
BLACK
6
CONTINUOUS
10
175.194
20
-41.4433
11
175.188
21
-41.425
0
LINE
8
BLACK
6
CONTINUOUS
10
175.188
20
-41.425
11
175.188
21
-27.625
0
LINE
8
BLACK
6
CONTINUOUS
10
175.188
20
-27.625
11
175.189
21
-27.6153
0
LINE
8
BLACK
6
CONTINUOUS
10
175.189
20
-27.6153
11
175.189
21
-27.612
0
LINE
8
BLACK
6
CONTINUOUS
10
175.189
20
-27.612
11
175.19
21
-27.6091
0
LINE
8
BLACK
6
CONTINUOUS
10
175.19
20
-27.6091
11
175.192
21
-27.5993
0
LINE
8
BLACK
6
CONTINUOUS
10
175.192
20
-27.5993
11
175.205
21
-27.5844
0
LINE
8
BLACK
6
CONTINUOUS
10
175.205
20
-27.5844
11
175.214
21
-27.5675
0
LINE
8
BLACK
6
CONTINUOUS
10
175.214
20
-27.5675
11
175.221
21
-27.5652
0
LINE
8
BLACK
6
CONTINUOUS
10
175.221
20
-27.5652
11
175.225
21
-27.56
0
LINE
8
BLACK
6
CONTINUOUS
10
175.225
20
-27.56
11
175.244
21
-27.5567
0
LINE
8
BLACK
6
CONTINUOUS
10
175.244
20
-27.5567
11
175.262
21
-27.55
0
LINE
8
BLACK
6
CONTINUOUS
10
175.262
20
-27.55
11
189.062
21
-27.55
0
LINE
8
BLACK
6
CONTINUOUS
10
189.062
20
-27.55
11
189.072
21
-27.5517
0
LINE
8
BLACK
6
CONTINUOUS
10
175.338
20
-27.7
11
175.338
21
-41.35
0
LINE
8
BLACK
6
CONTINUOUS
10
175.338
20
-41.35
11
188.987
21
-41.35
0
LINE
8
BLACK
6
CONTINUOUS
10
188.987
20
-41.35
11
188.987
21
-27.7
0
LINE
8
BLACK
6
CONTINUOUS
10
188.987
20
-27.7
11
175.338
21
-27.7
0
LINE
8
BLACK
6
CONTINUOUS
10
170.022
20
-27.5517
11
170.026
21
-27.5511
0
LINE
8
BLACK
6
CONTINUOUS
10
170.026
20
-27.5511
11
170.028
21
-27.5528
0
LINE
8
BLACK
6
CONTINUOUS
10
170.028
20
-27.5528
11
170.038
21
-27.5545
0
LINE
8
BLACK
6
CONTINUOUS
10
170.038
20
-27.5545
11
170.053
21
-27.567
0
LINE
8
BLACK
6
CONTINUOUS
10
170.053
20
-27.567
11
170.07
21
-27.5768
0
LINE
8
BLACK
6
CONTINUOUS
10
170.07
20
-27.5768
11
170.072
21
-27.5831
0
LINE
8
BLACK
6
CONTINUOUS
10
170.072
20
-27.5831
11
170.077
21
-27.5875
0
LINE
8
BLACK
6
CONTINUOUS
10
170.077
20
-27.5875
11
170.081
21
-27.6067
0
LINE
8
BLACK
6
CONTINUOUS
10
170.081
20
-27.6067
11
170.088
21
-27.625
0
LINE
8
BLACK
6
CONTINUOUS
10
170.088
20
-27.625
11
170.088
21
-41.425
0
LINE
8
BLACK
6
CONTINUOUS
10
170.088
20
-41.425
11
170.086
21
-41.4347
0
LINE
8
BLACK
6
CONTINUOUS
10
170.086
20
-41.4347
11
170.086
21
-41.438
0
LINE
8
BLACK
6
CONTINUOUS
10
170.086
20
-41.438
11
170.085
21
-41.4409
0
LINE
8
BLACK
6
CONTINUOUS
10
170.085
20
-41.4409
11
170.083
21
-41.4507
0
LINE
8
BLACK
6
CONTINUOUS
10
170.083
20
-41.4507
11
170.07
21
-41.4656
0
LINE
8
BLACK
6
CONTINUOUS
10
170.07
20
-41.4656
11
170.061
21
-41.4825
0
LINE
8
BLACK
6
CONTINUOUS
10
170.061
20
-41.4825
11
170.054
21
-41.4848
0
LINE
8
BLACK
6
CONTINUOUS
10
170.054
20
-41.4848
11
170.05
21
-41.49
0
LINE
8
BLACK
6
CONTINUOUS
10
170.05
20
-41.49
11
170.031
21
-41.4933
0
LINE
8
BLACK
6
CONTINUOUS
10
170.031
20
-41.4933
11
170.012
21
-41.5
0
LINE
8
BLACK
6
CONTINUOUS
10
170.012
20
-41.5
11
156.213
21
-41.5
0
LINE
8
BLACK
6
CONTINUOUS
10
156.213
20
-41.5
11
156.203
21
-41.4983
0
LINE
8
BLACK
6
CONTINUOUS
10
156.203
20
-41.4983
11
156.199
21
-41.4989
0
LINE
8
BLACK
6
CONTINUOUS
10
156.199
20
-41.4989
11
156.197
21
-41.4972
0
LINE
8
BLACK
6
CONTINUOUS
10
156.197
20
-41.4972
11
156.187
21
-41.4955
0
LINE
8
BLACK
6
CONTINUOUS
10
156.187
20
-41.4955
11
156.172
21
-41.483
0
LINE
8
BLACK
6
CONTINUOUS
10
156.172
20
-41.483
11
156.155
21
-41.4732
0
LINE
8
BLACK
6
CONTINUOUS
10
156.155
20
-41.4732
11
156.153
21
-41.4669
0
LINE
8
BLACK
6
CONTINUOUS
10
156.153
20
-41.4669
11
156.148
21
-41.4625
0
LINE
8
BLACK
6
CONTINUOUS
10
156.148
20
-41.4625
11
156.144
21
-41.4433
0
LINE
8
BLACK
6
CONTINUOUS
10
156.144
20
-41.4433
11
156.137
21
-41.425
0
LINE
8
BLACK
6
CONTINUOUS
10
156.137
20
-41.425
11
156.137
21
-27.625
0
LINE
8
BLACK
6
CONTINUOUS
10
156.137
20
-27.625
11
156.139
21
-27.6153
0
LINE
8
BLACK
6
CONTINUOUS
10
156.139
20
-27.6153
11
156.139
21
-27.612
0
LINE
8
BLACK
6
CONTINUOUS
10
156.139
20
-27.612
11
156.14
21
-27.6091
0
LINE
8
BLACK
6
CONTINUOUS
10
156.14
20
-27.6091
11
156.142
21
-27.5993
0
LINE
8
BLACK
6
CONTINUOUS
10
156.142
20
-27.5993
11
156.155
21
-27.5844
0
LINE
8
BLACK
6
CONTINUOUS
10
156.155
20
-27.5844
11
156.164
21
-27.5675
0
LINE
8
BLACK
6
CONTINUOUS
10
156.164
20
-27.5675
11
156.171
21
-27.5652
0
LINE
8
BLACK
6
CONTINUOUS
10
156.171
20
-27.5652
11
156.175
21
-27.56
0
LINE
8
BLACK
6
CONTINUOUS
10
156.175
20
-27.56
11
156.194
21
-27.5567
0
LINE
8
BLACK
6
CONTINUOUS
10
156.194
20
-27.5567
11
156.213
21
-27.55
0
LINE
8
BLACK
6
CONTINUOUS
10
156.213
20
-27.55
11
170.012
21
-27.55
0
LINE
8
BLACK
6
CONTINUOUS
10
170.012
20
-27.55
11
170.022
21
-27.5517
0
LINE
8
BLACK
6
CONTINUOUS
10
156.287
20
-27.7
11
156.287
21
-41.35
0
LINE
8
BLACK
6
CONTINUOUS
10
156.287
20
-41.35
11
169.938
21
-41.35
0
LINE
8
BLACK
6
CONTINUOUS
10
169.938
20
-41.35
11
169.938
21
-27.7
0
LINE
8
BLACK
6
CONTINUOUS
10
169.938
20
-27.7
11
156.287
21
-27.7
0
LINE
8
BLACK
6
CONTINUOUS
10
150.972
20
-27.5517
11
150.976
21
-27.5511
0
LINE
8
BLACK
6
CONTINUOUS
10
150.976
20
-27.5511
11
150.978
21
-27.5528
0
LINE
8
BLACK
6
CONTINUOUS
10
150.978
20
-27.5528
11
150.988
21
-27.5545
0
LINE
8
BLACK
6
CONTINUOUS
10
150.988
20
-27.5545
11
151.003
21
-27.567
0
LINE
8
BLACK
6
CONTINUOUS
10
151.003
20
-27.567
11
151.02
21
-27.5768
0
LINE
8
BLACK
6
CONTINUOUS
10
151.02
20
-27.5768
11
151.022
21
-27.5831
0
LINE
8
BLACK
6
CONTINUOUS
10
151.022
20
-27.5831
11
151.027
21
-27.5875
0
LINE
8
BLACK
6
CONTINUOUS
10
151.027
20
-27.5875
11
151.031
21
-27.6067
0
LINE
8
BLACK
6
CONTINUOUS
10
151.031
20
-27.6067
11
151.037
21
-27.625
0
LINE
8
BLACK
6
CONTINUOUS
10
151.037
20
-27.625
11
151.037
21
-41.425
0
LINE
8
BLACK
6
CONTINUOUS
10
151.037
20
-41.425
11
151.036
21
-41.4347
0
LINE
8
BLACK
6
CONTINUOUS
10
151.036
20
-41.4347
11
151.036
21
-41.438
0
LINE
8
BLACK
6
CONTINUOUS
10
151.036
20
-41.438
11
151.035
21
-41.4409
0
LINE
8
BLACK
6
CONTINUOUS
10
151.035
20
-41.4409
11
151.033
21
-41.4507
0
LINE
8
BLACK
6
CONTINUOUS
10
151.033
20
-41.4507
11
151.02
21
-41.4656
0
LINE
8
BLACK
6
CONTINUOUS
10
151.02
20
-41.4656
11
151.011
21
-41.4825
0
LINE
8
BLACK
6
CONTINUOUS
10
151.011
20
-41.4825
11
151.004
21
-41.4848
0
LINE
8
BLACK
6
CONTINUOUS
10
151.004
20
-41.4848
11
151
21
-41.49
0
LINE
8
BLACK
6
CONTINUOUS
10
151
20
-41.49
11
150.981
21
-41.4933
0
LINE
8
BLACK
6
CONTINUOUS
10
150.981
20
-41.4933
11
150.963
21
-41.5
0
LINE
8
BLACK
6
CONTINUOUS
10
150.963
20
-41.5
11
137.162
21
-41.5
0
LINE
8
BLACK
6
CONTINUOUS
10
137.162
20
-41.5
11
137.153
21
-41.4983
0
LINE
8
BLACK
6
CONTINUOUS
10
137.153
20
-41.4983
11
137.149
21
-41.4989
0
LINE
8
BLACK
6
CONTINUOUS
10
137.149
20
-41.4989
11
137.147
21
-41.4972
0
LINE
8
BLACK
6
CONTINUOUS
10
137.147
20
-41.4972
11
137.137
21
-41.4955
0
LINE
8
BLACK
6
CONTINUOUS
10
137.137
20
-41.4955
11
137.122
21
-41.483
0
LINE
8
BLACK
6
CONTINUOUS
10
137.122
20
-41.483
11
137.105
21
-41.4732
0
LINE
8
BLACK
6
CONTINUOUS
10
137.105
20
-41.4732
11
137.103
21
-41.4669
0
LINE
8
BLACK
6
CONTINUOUS
10
137.103
20
-41.4669
11
137.098
21
-41.4625
0
LINE
8
BLACK
6
CONTINUOUS
10
137.098
20
-41.4625
11
137.094
21
-41.4433
0
LINE
8
BLACK
6
CONTINUOUS
10
137.094
20
-41.4433
11
137.088
21
-41.425
0
LINE
8
BLACK
6
CONTINUOUS
10
137.088
20
-41.425
11
137.088
21
-27.625
0
LINE
8
BLACK
6
CONTINUOUS
10
137.088
20
-27.625
11
137.089
21
-27.6153
0
LINE
8
BLACK
6
CONTINUOUS
10
137.089
20
-27.6153
11
137.089
21
-27.612
0
LINE
8
BLACK
6
CONTINUOUS
10
137.089
20
-27.612
11
137.09
21
-27.6091
0
LINE
8
BLACK
6
CONTINUOUS
10
137.09
20
-27.6091
11
137.092
21
-27.5993
0
LINE
8
BLACK
6
CONTINUOUS
10
137.092
20
-27.5993
11
137.105
21
-27.5844
0
LINE
8
BLACK
6
CONTINUOUS
10
137.105
20
-27.5844
11
137.114
21
-27.5675
0
LINE
8
BLACK
6
CONTINUOUS
10
137.114
20
-27.5675
11
137.121
21
-27.5652
0
LINE
8
BLACK
6
CONTINUOUS
10
137.121
20
-27.5652
11
137.125
21
-27.56
0
LINE
8
BLACK
6
CONTINUOUS
10
137.125
20
-27.56
11
137.144
21
-27.5567
0
LINE
8
BLACK
6
CONTINUOUS
10
137.144
20
-27.5567
11
137.162
21
-27.55
0
LINE
8
BLACK
6
CONTINUOUS
10
137.162
20
-27.55
11
150.963
21
-27.55
0
LINE
8
BLACK
6
CONTINUOUS
10
150.963
20
-27.55
11
150.972
21
-27.5517
0
LINE
8
BLACK
6
CONTINUOUS
10
137.237
20
-27.7
11
137.237
21
-41.35
0
LINE
8
BLACK
6
CONTINUOUS
10
137.237
20
-41.35
11
150.887
21
-41.35
0
LINE
8
BLACK
6
CONTINUOUS
10
150.887
20
-41.35
11
150.887
21
-27.7
0
LINE
8
BLACK
6
CONTINUOUS
10
150.887
20
-27.7
11
137.237
21
-27.7
0
LINE
8
BLACK
6
CONTINUOUS
10
131.922
20
-27.5517
11
131.926
21
-27.5511
0
LINE
8
BLACK
6
CONTINUOUS
10
131.926
20
-27.5511
11
131.928
21
-27.5528
0
LINE
8
BLACK
6
CONTINUOUS
10
131.928
20
-27.5528
11
131.938
21
-27.5545
0
LINE
8
BLACK
6
CONTINUOUS
10
131.938
20
-27.5545
11
131.953
21
-27.567
0
LINE
8
BLACK
6
CONTINUOUS
10
131.953
20
-27.567
11
131.97
21
-27.5768
0
LINE
8
BLACK
6
CONTINUOUS
10
131.97
20
-27.5768
11
131.972
21
-27.5831
0
LINE
8
BLACK
6
CONTINUOUS
10
131.972
20
-27.5831
11
131.977
21
-27.5875
0
LINE
8
BLACK
6
CONTINUOUS
10
131.977
20
-27.5875
11
131.981
21
-27.6067
0
LINE
8
BLACK
6
CONTINUOUS
10
131.981
20
-27.6067
11
131.987
21
-27.625
0
LINE
8
BLACK
6
CONTINUOUS
10
131.987
20
-27.625
11
131.987
21
-41.425
0
LINE
8
BLACK
6
CONTINUOUS
10
131.987
20
-41.425
11
131.986
21
-41.4347
0
LINE
8
BLACK
6
CONTINUOUS
10
131.986
20
-41.4347
11
131.986
21
-41.438
0
LINE
8
BLACK
6
CONTINUOUS
10
131.986
20
-41.438
11
131.985
21
-41.4409
0
LINE
8
BLACK
6
CONTINUOUS
10
131.985
20
-41.4409
11
131.983
21
-41.4507
0
LINE
8
BLACK
6
CONTINUOUS
10
131.983
20
-41.4507
11
131.97
21
-41.4656
0
LINE
8
BLACK
6
CONTINUOUS
10
131.97
20
-41.4656
11
131.961
21
-41.4825
0
LINE
8
BLACK
6
CONTINUOUS
10
131.961
20
-41.4825
11
131.954
21
-41.4848
0
LINE
8
BLACK
6
CONTINUOUS
10
131.954
20
-41.4848
11
131.95
21
-41.49
0
LINE
8
BLACK
6
CONTINUOUS
10
131.95
20
-41.49
11
131.931
21
-41.4933
0
LINE
8
BLACK
6
CONTINUOUS
10
131.931
20
-41.4933
11
131.912
21
-41.5
0
LINE
8
BLACK
6
CONTINUOUS
10
131.912
20
-41.5
11
118.112
21
-41.5
0
LINE
8
BLACK
6
CONTINUOUS
10
118.112
20
-41.5
11
118.103
21
-41.4983
0
LINE
8
BLACK
6
CONTINUOUS
10
118.103
20
-41.4983
11
118.099
21
-41.4989
0
LINE
8
BLACK
6
CONTINUOUS
10
118.099
20
-41.4989
11
118.097
21
-41.4972
0
LINE
8
BLACK
6
CONTINUOUS
10
118.097
20
-41.4972
11
118.087
21
-41.4955
0
LINE
8
BLACK
6
CONTINUOUS
10
118.087
20
-41.4955
11
118.072
21
-41.483
0
LINE
8
BLACK
6
CONTINUOUS
10
118.072
20
-41.483
11
118.055
21
-41.4732
0
LINE
8
BLACK
6
CONTINUOUS
10
118.055
20
-41.4732
11
118.053
21
-41.4669
0
LINE
8
BLACK
6
CONTINUOUS
10
118.053
20
-41.4669
11
118.048
21
-41.4625
0
LINE
8
BLACK
6
CONTINUOUS
10
118.048
20
-41.4625
11
118.044
21
-41.4433
0
LINE
8
BLACK
6
CONTINUOUS
10
118.044
20
-41.4433
11
118.037
21
-41.425
0
LINE
8
BLACK
6
CONTINUOUS
10
118.037
20
-41.425
11
118.037
21
-27.625
0
LINE
8
BLACK
6
CONTINUOUS
10
118.037
20
-27.625
11
118.039
21
-27.6153
0
LINE
8
BLACK
6
CONTINUOUS
10
118.039
20
-27.6153
11
118.039
21
-27.612
0
LINE
8
BLACK
6
CONTINUOUS
10
118.039
20
-27.612
11
118.04
21
-27.6091
0
LINE
8
BLACK
6
CONTINUOUS
10
118.04
20
-27.6091
11
118.042
21
-27.5993
0
LINE
8
BLACK
6
CONTINUOUS
10
118.042
20
-27.5993
11
118.055
21
-27.5844
0
LINE
8
BLACK
6
CONTINUOUS
10
118.055
20
-27.5844
11
118.064
21
-27.5675
0
LINE
8
BLACK
6
CONTINUOUS
10
118.064
20
-27.5675
11
118.071
21
-27.5652
0
LINE
8
BLACK
6
CONTINUOUS
10
118.071
20
-27.5652
11
118.075
21
-27.56
0
LINE
8
BLACK
6
CONTINUOUS
10
118.075
20
-27.56
11
118.094
21
-27.5567
0
LINE
8
BLACK
6
CONTINUOUS
10
118.094
20
-27.5567
11
118.112
21
-27.55
0
LINE
8
BLACK
6
CONTINUOUS
10
118.112
20
-27.55
11
131.912
21
-27.55
0
LINE
8
BLACK
6
CONTINUOUS
10
131.912
20
-27.55
11
131.922
21
-27.5517
0
LINE
8
BLACK
6
CONTINUOUS
10
118.188
20
-27.7
11
118.188
21
-41.35
0
LINE
8
BLACK
6
CONTINUOUS
10
118.188
20
-41.35
11
131.838
21
-41.35
0
LINE
8
BLACK
6
CONTINUOUS
10
131.838
20
-41.35
11
131.838
21
-27.7
0
LINE
8
BLACK
6
CONTINUOUS
10
131.838
20
-27.7
11
118.188
21
-27.7
0
LINE
8
BLACK
6
CONTINUOUS
10
112.872
20
-27.5517
11
112.876
21
-27.5511
0
LINE
8
BLACK
6
CONTINUOUS
10
112.876
20
-27.5511
11
112.878
21
-27.5528
0
LINE
8
BLACK
6
CONTINUOUS
10
112.878
20
-27.5528
11
112.888
21
-27.5545
0
LINE
8
BLACK
6
CONTINUOUS
10
112.888
20
-27.5545
11
112.903
21
-27.567
0
LINE
8
BLACK
6
CONTINUOUS
10
112.903
20
-27.567
11
112.92
21
-27.5768
0
LINE
8
BLACK
6
CONTINUOUS
10
112.92
20
-27.5768
11
112.922
21
-27.5831
0
LINE
8
BLACK
6
CONTINUOUS
10
112.922
20
-27.5831
11
112.927
21
-27.5875
0
LINE
8
BLACK
6
CONTINUOUS
10
112.927
20
-27.5875
11
112.931
21
-27.6067
0
LINE
8
BLACK
6
CONTINUOUS
10
112.931
20
-27.6067
11
112.938
21
-27.625
0
LINE
8
BLACK
6
CONTINUOUS
10
112.938
20
-27.625
11
112.938
21
-41.425
0
LINE
8
BLACK
6
CONTINUOUS
10
112.938
20
-41.425
11
112.936
21
-41.4347
0
LINE
8
BLACK
6
CONTINUOUS
10
112.936
20
-41.4347
11
112.936
21
-41.438
0
LINE
8
BLACK
6
CONTINUOUS
10
112.936
20
-41.438
11
112.935
21
-41.4409
0
LINE
8
BLACK
6
CONTINUOUS
10
112.935
20
-41.4409
11
112.933
21
-41.4507
0
LINE
8
BLACK
6
CONTINUOUS
10
112.933
20
-41.4507
11
112.92
21
-41.4656
0
LINE
8
BLACK
6
CONTINUOUS
10
112.92
20
-41.4656
11
112.911
21
-41.4825
0
LINE
8
BLACK
6
CONTINUOUS
10
112.911
20
-41.4825
11
112.904
21
-41.4848
0
LINE
8
BLACK
6
CONTINUOUS
10
112.904
20
-41.4848
11
112.9
21
-41.49
0
LINE
8
BLACK
6
CONTINUOUS
10
112.9
20
-41.49
11
112.881
21
-41.4933
0
LINE
8
BLACK
6
CONTINUOUS
10
112.881
20
-41.4933
11
112.862
21
-41.5
0
LINE
8
BLACK
6
CONTINUOUS
10
112.862
20
-41.5
11
99.0625
21
-41.5
0
LINE
8
BLACK
6
CONTINUOUS
10
99.0625
20
-41.5
11
99.0528
21
-41.4983
0
LINE
8
BLACK
6
CONTINUOUS
10
99.0528
20
-41.4983
11
99.0495
21
-41.4989
0
LINE
8
BLACK
6
CONTINUOUS
10
99.0495
20
-41.4989
11
99.0466
21
-41.4972
0
LINE
8
BLACK
6
CONTINUOUS
10
99.0466
20
-41.4972
11
99.0368
21
-41.4955
0
LINE
8
BLACK
6
CONTINUOUS
10
99.0368
20
-41.4955
11
99.0219
21
-41.483
0
LINE
8
BLACK
6
CONTINUOUS
10
99.0219
20
-41.483
11
99.005
21
-41.4732
0
LINE
8
BLACK
6
CONTINUOUS
10
99.005
20
-41.4732
11
99.0027
21
-41.4669
0
LINE
8
BLACK
6
CONTINUOUS
10
99.0027
20
-41.4669
11
98.9975
21
-41.4625
0
LINE
8
BLACK
6
CONTINUOUS
10
98.9975
20
-41.4625
11
98.9942
21
-41.4433
0
LINE
8
BLACK
6
CONTINUOUS
10
98.9942
20
-41.4433
11
98.9875
21
-41.425
0
LINE
8
BLACK
6
CONTINUOUS
10
98.9875
20
-41.425
11
98.9875
21
-27.625
0
LINE
8
BLACK
6
CONTINUOUS
10
98.9875
20
-27.625
11
98.9892
21
-27.6153
0
LINE
8
BLACK
6
CONTINUOUS
10
98.9892
20
-27.6153
11
98.9886
21
-27.612
0
LINE
8
BLACK
6
CONTINUOUS
10
98.9886
20
-27.612
11
98.9903
21
-27.6091
0
LINE
8
BLACK
6
CONTINUOUS
10
98.9903
20
-27.6091
11
98.992
21
-27.5993
0
LINE
8
BLACK
6
CONTINUOUS
10
98.992
20
-27.5993
11
99.0045
21
-27.5844
0
LINE
8
BLACK
6
CONTINUOUS
10
99.0045
20
-27.5844
11
99.0143
21
-27.5675
0
LINE
8
BLACK
6
CONTINUOUS
10
99.0143
20
-27.5675
11
99.0206
21
-27.5652
0
LINE
8
BLACK
6
CONTINUOUS
10
99.0206
20
-27.5652
11
99.025
21
-27.56
0
LINE
8
BLACK
6
CONTINUOUS
10
99.025
20
-27.56
11
99.0442
21
-27.5567
0
LINE
8
BLACK
6
CONTINUOUS
10
99.0442
20
-27.5567
11
99.0625
21
-27.55
0
LINE
8
BLACK
6
CONTINUOUS
10
99.0625
20
-27.55
11
112.862
21
-27.55
0
LINE
8
BLACK
6
CONTINUOUS
10
112.862
20
-27.55
11
112.872
21
-27.5517
0
LINE
8
BLACK
6
CONTINUOUS
10
99.1375
20
-27.7
11
99.1375
21
-41.35
0
LINE
8
BLACK
6
CONTINUOUS
10
99.1375
20
-41.35
11
112.787
21
-41.35
0
LINE
8
BLACK
6
CONTINUOUS
10
112.787
20
-41.35
11
112.787
21
-27.7
0
LINE
8
BLACK
6
CONTINUOUS
10
112.787
20
-27.7
11
99.1375
21
-27.7
0
LINE
8
BLACK
6
CONTINUOUS
10
93.8222
20
-27.5517
11
93.8255
21
-27.5511
0
LINE
8
BLACK
6
CONTINUOUS
10
93.8255
20
-27.5511
11
93.8284
21
-27.5528
0
LINE
8
BLACK
6
CONTINUOUS
10
93.8284
20
-27.5528
11
93.8382
21
-27.5545
0
LINE
8
BLACK
6
CONTINUOUS
10
93.8382
20
-27.5545
11
93.8531
21
-27.567
0
LINE
8
BLACK
6
CONTINUOUS
10
93.8531
20
-27.567
11
93.87
21
-27.5768
0
LINE
8
BLACK
6
CONTINUOUS
10
93.87
20
-27.5768
11
93.8723
21
-27.5831
0
LINE
8
BLACK
6
CONTINUOUS
10
93.8723
20
-27.5831
11
93.8775
21
-27.5875
0
LINE
8
BLACK
6
CONTINUOUS
10
93.8775
20
-27.5875
11
93.8808
21
-27.6067
0
LINE
8
BLACK
6
CONTINUOUS
10
93.8808
20
-27.6067
11
93.8875
21
-27.625
0
LINE
8
BLACK
6
CONTINUOUS
10
93.8875
20
-27.625
11
93.8875
21
-41.425
0
LINE
8
BLACK
6
CONTINUOUS
10
93.8875
20
-41.425
11
93.8858
21
-41.4347
0
LINE
8
BLACK
6
CONTINUOUS
10
93.8858
20
-41.4347
11
93.8864
21
-41.438
0
LINE
8
BLACK
6
CONTINUOUS
10
93.8864
20
-41.438
11
93.8847
21
-41.4409
0
LINE
8
BLACK
6
CONTINUOUS
10
93.8847
20
-41.4409
11
93.883
21
-41.4507
0
LINE
8
BLACK
6
CONTINUOUS
10
93.883
20
-41.4507
11
93.8705
21
-41.4656
0
LINE
8
BLACK
6
CONTINUOUS
10
93.8705
20
-41.4656
11
93.8607
21
-41.4825
0
LINE
8
BLACK
6
CONTINUOUS
10
93.8607
20
-41.4825
11
93.8543
21
-41.4848
0
LINE
8
BLACK
6
CONTINUOUS
10
93.8543
20
-41.4848
11
93.85
21
-41.49
0
LINE
8
BLACK
6
CONTINUOUS
10
93.85
20
-41.49
11
93.8308
21
-41.4933
0
LINE
8
BLACK
6
CONTINUOUS
10
93.8308
20
-41.4933
11
93.8125
21
-41.5
0
LINE
8
BLACK
6
CONTINUOUS
10
93.8125
20
-41.5
11
80.0125
21
-41.5
0
LINE
8
BLACK
6
CONTINUOUS
10
80.0125
20
-41.5
11
80.0028
21
-41.4983
0
LINE
8
BLACK
6
CONTINUOUS
10
80.0028
20
-41.4983
11
79.9995
21
-41.4989
0
LINE
8
BLACK
6
CONTINUOUS
10
79.9995
20
-41.4989
11
79.9966
21
-41.4972
0
LINE
8
BLACK
6
CONTINUOUS
10
79.9966
20
-41.4972
11
79.9868
21
-41.4955
0
LINE
8
BLACK
6
CONTINUOUS
10
79.9868
20
-41.4955
11
79.9719
21
-41.483
0
LINE
8
BLACK
6
CONTINUOUS
10
79.9719
20
-41.483
11
79.955
21
-41.4732
0
LINE
8
BLACK
6
CONTINUOUS
10
79.955
20
-41.4732
11
79.9527
21
-41.4669
0
LINE
8
BLACK
6
CONTINUOUS
10
79.9527
20
-41.4669
11
79.9475
21
-41.4625
0
LINE
8
BLACK
6
CONTINUOUS
10
79.9475
20
-41.4625
11
79.9442
21
-41.4433
0
LINE
8
BLACK
6
CONTINUOUS
10
79.9442
20
-41.4433
11
79.9375
21
-41.425
0
LINE
8
BLACK
6
CONTINUOUS
10
79.9375
20
-41.425
11
79.9375
21
-27.625
0
LINE
8
BLACK
6
CONTINUOUS
10
79.9375
20
-27.625
11
79.9392
21
-27.6153
0
LINE
8
BLACK
6
CONTINUOUS
10
79.9392
20
-27.6153
11
79.9386
21
-27.612
0
LINE
8
BLACK
6
CONTINUOUS
10
79.9386
20
-27.612
11
79.9403
21
-27.6091
0
LINE
8
BLACK
6
CONTINUOUS
10
79.9403
20
-27.6091
11
79.942
21
-27.5993
0
LINE
8
BLACK
6
CONTINUOUS
10
79.942
20
-27.5993
11
79.9545
21
-27.5844
0
LINE
8
BLACK
6
CONTINUOUS
10
79.9545
20
-27.5844
11
79.9643
21
-27.5675
0
LINE
8
BLACK
6
CONTINUOUS
10
79.9643
20
-27.5675
11
79.9706
21
-27.5652
0
LINE
8
BLACK
6
CONTINUOUS
10
79.9706
20
-27.5652
11
79.975
21
-27.56
0
LINE
8
BLACK
6
CONTINUOUS
10
79.975
20
-27.56
11
79.9942
21
-27.5567
0
LINE
8
BLACK
6
CONTINUOUS
10
79.9942
20
-27.5567
11
80.0125
21
-27.55
0
LINE
8
BLACK
6
CONTINUOUS
10
80.0125
20
-27.55
11
93.8125
21
-27.55
0
LINE
8
BLACK
6
CONTINUOUS
10
93.8125
20
-27.55
11
93.8222
21
-27.5517
0
LINE
8
BLACK
6
CONTINUOUS
10
80.0875
20
-27.7
11
80.0875
21
-41.35
0
LINE
8
BLACK
6
CONTINUOUS
10
80.0875
20
-41.35
11
93.7375
21
-41.35
0
LINE
8
BLACK
6
CONTINUOUS
10
93.7375
20
-41.35
11
93.7375
21
-27.7
0
LINE
8
BLACK
6
CONTINUOUS
10
93.7375
20
-27.7
11
80.0875
21
-27.7
0
LINE
8
BLACK
6
CONTINUOUS
10
74.7722
20
-27.5517
11
74.7755
21
-27.5511
0
LINE
8
BLACK
6
CONTINUOUS
10
74.7755
20
-27.5511
11
74.7784
21
-27.5528
0
LINE
8
BLACK
6
CONTINUOUS
10
74.7784
20
-27.5528
11
74.7882
21
-27.5545
0
LINE
8
BLACK
6
CONTINUOUS
10
74.7882
20
-27.5545
11
74.8031
21
-27.567
0
LINE
8
BLACK
6
CONTINUOUS
10
74.8031
20
-27.567
11
74.82
21
-27.5768
0
LINE
8
BLACK
6
CONTINUOUS
10
74.82
20
-27.5768
11
74.8223
21
-27.5831
0
LINE
8
BLACK
6
CONTINUOUS
10
74.8223
20
-27.5831
11
74.8275
21
-27.5875
0
LINE
8
BLACK
6
CONTINUOUS
10
74.8275
20
-27.5875
11
74.8308
21
-27.6067
0
LINE
8
BLACK
6
CONTINUOUS
10
74.8308
20
-27.6067
11
74.8375
21
-27.625
0
LINE
8
BLACK
6
CONTINUOUS
10
74.8375
20
-27.625
11
74.8375
21
-41.425
0
LINE
8
BLACK
6
CONTINUOUS
10
74.8375
20
-41.425
11
74.8358
21
-41.4347
0
LINE
8
BLACK
6
CONTINUOUS
10
74.8358
20
-41.4347
11
74.8364
21
-41.438
0
LINE
8
BLACK
6
CONTINUOUS
10
74.8364
20
-41.438
11
74.8347
21
-41.4409
0
LINE
8
BLACK
6
CONTINUOUS
10
74.8347
20
-41.4409
11
74.833
21
-41.4507
0
LINE
8
BLACK
6
CONTINUOUS
10
74.833
20
-41.4507
11
74.8205
21
-41.4656
0
LINE
8
BLACK
6
CONTINUOUS
10
74.8205
20
-41.4656
11
74.8107
21
-41.4825
0
LINE
8
BLACK
6
CONTINUOUS
10
74.8107
20
-41.4825
11
74.8043
21
-41.4848
0
LINE
8
BLACK
6
CONTINUOUS
10
74.8043
20
-41.4848
11
74.8
21
-41.49
0
LINE
8
BLACK
6
CONTINUOUS
10
74.8
20
-41.49
11
74.7808
21
-41.4933
0
LINE
8
BLACK
6
CONTINUOUS
10
74.7808
20
-41.4933
11
74.7625
21
-41.5
0
LINE
8
BLACK
6
CONTINUOUS
10
74.7625
20
-41.5
11
60.9625
21
-41.5
0
LINE
8
BLACK
6
CONTINUOUS
10
60.9625
20
-41.5
11
60.9528
21
-41.4983
0
LINE
8
BLACK
6
CONTINUOUS
10
60.9528
20
-41.4983
11
60.9495
21
-41.4989
0
LINE
8
BLACK
6
CONTINUOUS
10
60.9495
20
-41.4989
11
60.9466
21
-41.4972
0
LINE
8
BLACK
6
CONTINUOUS
10
60.9466
20
-41.4972
11
60.9368
21
-41.4955
0
LINE
8
BLACK
6
CONTINUOUS
10
60.9368
20
-41.4955
11
60.9219
21
-41.483
0
LINE
8
BLACK
6
CONTINUOUS
10
60.9219
20
-41.483
11
60.905
21
-41.4732
0
LINE
8
BLACK
6
CONTINUOUS
10
60.905
20
-41.4732
11
60.9027
21
-41.4669
0
LINE
8
BLACK
6
CONTINUOUS
10
60.9027
20
-41.4669
11
60.8975
21
-41.4625
0
LINE
8
BLACK
6
CONTINUOUS
10
60.8975
20
-41.4625
11
60.8942
21
-41.4433
0
LINE
8
BLACK
6
CONTINUOUS
10
60.8942
20
-41.4433
11
60.8875
21
-41.425
0
LINE
8
BLACK
6
CONTINUOUS
10
60.8875
20
-41.425
11
60.8875
21
-27.625
0
LINE
8
BLACK
6
CONTINUOUS
10
60.8875
20
-27.625
11
60.8892
21
-27.6153
0
LINE
8
BLACK
6
CONTINUOUS
10
60.8892
20
-27.6153
11
60.8886
21
-27.612
0
LINE
8
BLACK
6
CONTINUOUS
10
60.8886
20
-27.612
11
60.8903
21
-27.6091
0
LINE
8
BLACK
6
CONTINUOUS
10
60.8903
20
-27.6091
11
60.892
21
-27.5993
0
LINE
8
BLACK
6
CONTINUOUS
10
60.892
20
-27.5993
11
60.9045
21
-27.5844
0
LINE
8
BLACK
6
CONTINUOUS
10
60.9045
20
-27.5844
11
60.9143
21
-27.5675
0
LINE
8
BLACK
6
CONTINUOUS
10
60.9143
20
-27.5675
11
60.9206
21
-27.5652
0
LINE
8
BLACK
6
CONTINUOUS
10
60.9206
20
-27.5652
11
60.925
21
-27.56
0
LINE
8
BLACK
6
CONTINUOUS
10
60.925
20
-27.56
11
60.9442
21
-27.5567
0
LINE
8
BLACK
6
CONTINUOUS
10
60.9442
20
-27.5567
11
60.9625
21
-27.55
0
LINE
8
BLACK
6
CONTINUOUS
10
60.9625
20
-27.55
11
74.7625
21
-27.55
0
LINE
8
BLACK
6
CONTINUOUS
10
74.7625
20
-27.55
11
74.7722
21
-27.5517
0
LINE
8
BLACK
6
CONTINUOUS
10
61.0375
20
-27.7
11
61.0375
21
-41.35
0
LINE
8
BLACK
6
CONTINUOUS
10
61.0375
20
-41.35
11
74.6875
21
-41.35
0
LINE
8
BLACK
6
CONTINUOUS
10
74.6875
20
-41.35
11
74.6875
21
-27.7
0
LINE
8
BLACK
6
CONTINUOUS
10
74.6875
20
-27.7
11
61.0375
21
-27.7
0
LINE
8
BLACK
6
CONTINUOUS
10
46.1972
20
-27.5517
11
46.2005
21
-27.5511
0
LINE
8
BLACK
6
CONTINUOUS
10
46.2005
20
-27.5511
11
46.2034
21
-27.5528
0
LINE
8
BLACK
6
CONTINUOUS
10
46.2034
20
-27.5528
11
46.2132
21
-27.5545
0
LINE
8
BLACK
6
CONTINUOUS
10
46.2132
20
-27.5545
11
46.2281
21
-27.567
0
LINE
8
BLACK
6
CONTINUOUS
10
46.2281
20
-27.567
11
46.245
21
-27.5768
0
LINE
8
BLACK
6
CONTINUOUS
10
46.245
20
-27.5768
11
46.2473
21
-27.5831
0
LINE
8
BLACK
6
CONTINUOUS
10
46.2473
20
-27.5831
11
46.2525
21
-27.5875
0
LINE
8
BLACK
6
CONTINUOUS
10
46.2525
20
-27.5875
11
46.2558
21
-27.6067
0
LINE
8
BLACK
6
CONTINUOUS
10
46.2558
20
-27.6067
11
46.2625
21
-27.625
0
LINE
8
BLACK
6
CONTINUOUS
10
46.2625
20
-27.625
11
46.2625
21
-41.425
0
LINE
8
BLACK
6
CONTINUOUS
10
46.2625
20
-41.425
11
46.2608
21
-41.4347
0
LINE
8
BLACK
6
CONTINUOUS
10
46.2608
20
-41.4347
11
46.2614
21
-41.438
0
LINE
8
BLACK
6
CONTINUOUS
10
46.2614
20
-41.438
11
46.2597
21
-41.4409
0
LINE
8
BLACK
6
CONTINUOUS
10
46.2597
20
-41.4409
11
46.258
21
-41.4507
0
LINE
8
BLACK
6
CONTINUOUS
10
46.258
20
-41.4507
11
46.2455
21
-41.4656
0
LINE
8
BLACK
6
CONTINUOUS
10
46.2455
20
-41.4656
11
46.2357
21
-41.4825
0
LINE
8
BLACK
6
CONTINUOUS
10
46.2357
20
-41.4825
11
46.2293
21
-41.4848
0
LINE
8
BLACK
6
CONTINUOUS
10
46.2293
20
-41.4848
11
46.225
21
-41.49
0
LINE
8
BLACK
6
CONTINUOUS
10
46.225
20
-41.49
11
46.2058
21
-41.4933
0
LINE
8
BLACK
6
CONTINUOUS
10
46.2058
20
-41.4933
11
46.1875
21
-41.5
0
LINE
8
BLACK
6
CONTINUOUS
10
46.1875
20
-41.5
11
32.3875
21
-41.5
0
LINE
8
BLACK
6
CONTINUOUS
10
32.3875
20
-41.5
11
32.3778
21
-41.4983
0
LINE
8
BLACK
6
CONTINUOUS
10
32.3778
20
-41.4983
11
32.3745
21
-41.4989
0
LINE
8
BLACK
6
CONTINUOUS
10
32.3745
20
-41.4989
11
32.3716
21
-41.4972
0
LINE
8
BLACK
6
CONTINUOUS
10
32.3716
20
-41.4972
11
32.3618
21
-41.4955
0
LINE
8
BLACK
6
CONTINUOUS
10
32.3618
20
-41.4955
11
32.3469
21
-41.483
0
LINE
8
BLACK
6
CONTINUOUS
10
32.3469
20
-41.483
11
32.33
21
-41.4732
0
LINE
8
BLACK
6
CONTINUOUS
10
32.33
20
-41.4732
11
32.3277
21
-41.4669
0
LINE
8
BLACK
6
CONTINUOUS
10
32.3277
20
-41.4669
11
32.3225
21
-41.4625
0
LINE
8
BLACK
6
CONTINUOUS
10
32.3225
20
-41.4625
11
32.3192
21
-41.4433
0
LINE
8
BLACK
6
CONTINUOUS
10
32.3192
20
-41.4433
11
32.3125
21
-41.425
0
LINE
8
BLACK
6
CONTINUOUS
10
32.3125
20
-41.425
11
32.3125
21
-27.625
0
LINE
8
BLACK
6
CONTINUOUS
10
32.3125
20
-27.625
11
32.3142
21
-27.6153
0
LINE
8
BLACK
6
CONTINUOUS
10
32.3142
20
-27.6153
11
32.3136
21
-27.612
0
LINE
8
BLACK
6
CONTINUOUS
10
32.3136
20
-27.612
11
32.3153
21
-27.6091
0
LINE
8
BLACK
6
CONTINUOUS
10
32.3153
20
-27.6091
11
32.317
21
-27.5993
0
LINE
8
BLACK
6
CONTINUOUS
10
32.317
20
-27.5993
11
32.3295
21
-27.5844
0
LINE
8
BLACK
6
CONTINUOUS
10
32.3295
20
-27.5844
11
32.3393
21
-27.5675
0
LINE
8
BLACK
6
CONTINUOUS
10
32.3393
20
-27.5675
11
32.3456
21
-27.5652
0
LINE
8
BLACK
6
CONTINUOUS
10
32.3456
20
-27.5652
11
32.35
21
-27.56
0
LINE
8
BLACK
6
CONTINUOUS
10
32.35
20
-27.56
11
32.3692
21
-27.5567
0
LINE
8
BLACK
6
CONTINUOUS
10
32.3692
20
-27.5567
11
32.3875
21
-27.55
0
LINE
8
BLACK
6
CONTINUOUS
10
32.3875
20
-27.55
11
46.1875
21
-27.55
0
LINE
8
BLACK
6
CONTINUOUS
10
46.1875
20
-27.55
11
46.1972
21
-27.5517
0
LINE
8
BLACK
6
CONTINUOUS
10
32.4625
20
-27.7
11
32.4625
21
-41.35
0
LINE
8
BLACK
6
CONTINUOUS
10
32.4625
20
-41.35
11
46.1125
21
-41.35
0
LINE
8
BLACK
6
CONTINUOUS
10
46.1125
20
-41.35
11
46.1125
21
-27.7
0
LINE
8
BLACK
6
CONTINUOUS
10
46.1125
20
-27.7
11
32.4625
21
-27.7
  0
ENDSEC
  0
EOF
