  0
SECTION
  2
HEADER
  9
$ANGBASE
  50
0.0
  9
$ANGDIR
  70
1
  9
$MEASUREMENT
  70
1
  0
ENDSEC
  0
SECTION
  2
TABLES
  0
TABLE
  2
LTYPE
  70
4
  0
LTYPE
  5
40F
  2
CONTINUOUS
  70
0
  3
Solid line
  72
65
  73
0
  40
0.0
  0
LTYPE
  5
410
  2
DASHDOT
 70
0
  3
Dash Dot ____ _ ____ _
 72
65
 73
4
 40
2.0
 49
1.25
 49
-0.25
 49
0.25
 49
-0.25
  0
LTYPE
  5
411
  2
DASHED
 70
0
  3
Dashed __ __ __ __ __
 72
65
 73
2
 40
0.75
 49
0.5
 49
-0.25
  0
LTYPE
  5
43B
  2
DOTTED
 70
0
  3
Dotted .  .  .  .
 72
65
 73
2
 40
0.2
 49
0.0
 49
-0.2
  0
ENDTAB
  0
TABLE
  2
STYLE
  70
4
  0
STYLE
  2
KICAD
  70
0
  40
0
  41
1
  42
1
  50
0
  71
0
  3
isocp.shx
  0
STYLE
  2
KICADB
  70
0
  40
0
  41
1
  42
1
  50
0
  71
0
  3
isocp.shx
  0
STYLE
  2
KICADI
  70
0
  40
0
  41
1
  42
1
  50
15
  71
0
  3
isocp.shx
  0
STYLE
  2
KICADBI
  70
0
  40
0
  41
1
  42
1
  50
15
  71
0
  3
isocp.shx
  0
ENDTAB
  0
TABLE
  2
LAYER
  70
1
  0
LAYER
  2
BLACK
  70
0
  62
7
  6
CONTINUOUS
  0
ENDTAB
  0
ENDSEC
  0
SECTION
  2
ENTITIES
0
LINE
8
BLACK
6
CONTINUOUS
10
166.357
20
-133.203
11
167.081
21
-133.397
0
LINE
8
BLACK
6
CONTINUOUS
10
167.081
20
-133.397
11
167.16
21
-133.436
0
LINE
8
BLACK
6
CONTINUOUS
10
167.16
20
-133.436
11
167.218
21
-133.502
0
LINE
8
BLACK
6
CONTINUOUS
10
167.218
20
-133.502
11
167.246
21
-133.585
0
LINE
8
BLACK
6
CONTINUOUS
10
167.246
20
-133.585
11
167.24
21
-133.672
0
LINE
8
BLACK
6
CONTINUOUS
10
167.24
20
-133.672
11
167.124
21
-134.107
0
LINE
8
BLACK
6
CONTINUOUS
10
167.124
20
-134.107
11
167.085
21
-134.186
0
LINE
8
BLACK
6
CONTINUOUS
10
167.085
20
-134.186
11
167.019
21
-134.244
0
LINE
8
BLACK
6
CONTINUOUS
10
167.019
20
-134.244
11
166.936
21
-134.272
0
LINE
8
BLACK
6
CONTINUOUS
10
166.936
20
-134.272
11
166.848
21
-134.266
0
LINE
8
BLACK
6
CONTINUOUS
10
166.848
20
-134.266
11
166.124
21
-134.072
0
LINE
8
BLACK
6
CONTINUOUS
10
166.124
20
-134.072
11
166.045
21
-134.033
0
LINE
8
BLACK
6
CONTINUOUS
10
166.045
20
-134.033
11
165.987
21
-133.967
0
LINE
8
BLACK
6
CONTINUOUS
10
165.987
20
-133.967
11
165.959
21
-133.884
0
LINE
8
BLACK
6
CONTINUOUS
10
165.959
20
-133.884
11
165.965
21
-133.796
0
LINE
8
BLACK
6
CONTINUOUS
10
165.965
20
-133.796
11
166.081
21
-133.362
0
LINE
8
BLACK
6
CONTINUOUS
10
166.081
20
-133.362
11
166.12
21
-133.283
0
LINE
8
BLACK
6
CONTINUOUS
10
166.12
20
-133.283
11
166.186
21
-133.225
0
LINE
8
BLACK
6
CONTINUOUS
10
166.186
20
-133.225
11
166.269
21
-133.197
0
LINE
8
BLACK
6
CONTINUOUS
10
166.269
20
-133.197
11
166.357
21
-133.203
0
LINE
8
BLACK
6
CONTINUOUS
10
167.211
20
-130.015
11
167.935
21
-130.209
0
LINE
8
BLACK
6
CONTINUOUS
10
167.935
20
-130.209
11
168.014
21
-130.248
0
LINE
8
BLACK
6
CONTINUOUS
10
168.014
20
-130.248
11
168.072
21
-130.314
0
LINE
8
BLACK
6
CONTINUOUS
10
168.072
20
-130.314
11
168.1
21
-130.397
0
LINE
8
BLACK
6
CONTINUOUS
10
168.1
20
-130.397
11
168.094
21
-130.485
0
LINE
8
BLACK
6
CONTINUOUS
10
168.094
20
-130.485
11
167.978
21
-130.92
0
LINE
8
BLACK
6
CONTINUOUS
10
167.978
20
-130.92
11
167.939
21
-130.998
0
LINE
8
BLACK
6
CONTINUOUS
10
167.939
20
-130.998
11
167.873
21
-131.056
0
LINE
8
BLACK
6
CONTINUOUS
10
167.873
20
-131.056
11
167.79
21
-131.084
0
LINE
8
BLACK
6
CONTINUOUS
10
167.79
20
-131.084
11
167.702
21
-131.079
0
LINE
8
BLACK
6
CONTINUOUS
10
167.702
20
-131.079
11
166.978
21
-130.884
0
LINE
8
BLACK
6
CONTINUOUS
10
166.978
20
-130.884
11
166.899
21
-130.846
0
LINE
8
BLACK
6
CONTINUOUS
10
166.899
20
-130.846
11
166.841
21
-130.78
0
LINE
8
BLACK
6
CONTINUOUS
10
166.841
20
-130.78
11
166.813
21
-130.697
0
LINE
8
BLACK
6
CONTINUOUS
10
166.813
20
-130.697
11
166.819
21
-130.609
0
LINE
8
BLACK
6
CONTINUOUS
10
166.819
20
-130.609
11
166.935
21
-130.174
0
LINE
8
BLACK
6
CONTINUOUS
10
166.935
20
-130.174
11
166.974
21
-130.096
0
LINE
8
BLACK
6
CONTINUOUS
10
166.974
20
-130.096
11
167.04
21
-130.038
0
LINE
8
BLACK
6
CONTINUOUS
10
167.04
20
-130.038
11
167.123
21
-130.009
0
LINE
8
BLACK
6
CONTINUOUS
10
167.123
20
-130.009
11
167.211
21
-130.015
0
LINE
8
BLACK
6
CONTINUOUS
10
147.956
20
-128.272
11
148.68
21
-128.466
0
LINE
8
BLACK
6
CONTINUOUS
10
148.68
20
-128.466
11
148.759
21
-128.505
0
LINE
8
BLACK
6
CONTINUOUS
10
148.759
20
-128.505
11
148.817
21
-128.571
0
LINE
8
BLACK
6
CONTINUOUS
10
148.817
20
-128.571
11
148.845
21
-128.654
0
LINE
8
BLACK
6
CONTINUOUS
10
148.845
20
-128.654
11
148.839
21
-128.742
0
LINE
8
BLACK
6
CONTINUOUS
10
148.839
20
-128.742
11
148.723
21
-129.177
0
LINE
8
BLACK
6
CONTINUOUS
10
148.723
20
-129.177
11
148.684
21
-129.255
0
LINE
8
BLACK
6
CONTINUOUS
10
148.684
20
-129.255
11
148.618
21
-129.313
0
LINE
8
BLACK
6
CONTINUOUS
10
148.618
20
-129.313
11
148.535
21
-129.341
0
LINE
8
BLACK
6
CONTINUOUS
10
148.535
20
-129.341
11
148.447
21
-129.336
0
LINE
8
BLACK
6
CONTINUOUS
10
148.447
20
-129.336
11
147.723
21
-129.142
0
LINE
8
BLACK
6
CONTINUOUS
10
147.723
20
-129.142
11
147.644
21
-129.103
0
LINE
8
BLACK
6
CONTINUOUS
10
147.644
20
-129.103
11
147.586
21
-129.037
0
LINE
8
BLACK
6
CONTINUOUS
10
147.586
20
-129.037
11
147.558
21
-128.954
0
LINE
8
BLACK
6
CONTINUOUS
10
147.558
20
-128.954
11
147.564
21
-128.866
0
LINE
8
BLACK
6
CONTINUOUS
10
147.564
20
-128.866
11
147.68
21
-128.431
0
LINE
8
BLACK
6
CONTINUOUS
10
147.68
20
-128.431
11
147.719
21
-128.353
0
LINE
8
BLACK
6
CONTINUOUS
10
147.719
20
-128.353
11
147.785
21
-128.295
0
LINE
8
BLACK
6
CONTINUOUS
10
147.785
20
-128.295
11
147.868
21
-128.266
0
LINE
8
BLACK
6
CONTINUOUS
10
147.868
20
-128.266
11
147.956
21
-128.272
0
LINE
8
BLACK
6
CONTINUOUS
10
183.529
20
-125.021
11
182.882
21
-127.436
0
LINE
8
BLACK
6
CONTINUOUS
10
182.882
20
-127.436
11
180.419
21
-126.776
0
LINE
8
BLACK
6
CONTINUOUS
10
180.419
20
-126.776
11
181.066
21
-124.361
0
LINE
8
BLACK
6
CONTINUOUS
10
181.066
20
-124.361
11
183.529
21
-125.021
0
LINE
8
BLACK
6
CONTINUOUS
10
169.494
20
-123.89
11
168.847
21
-126.305
0
LINE
8
BLACK
6
CONTINUOUS
10
168.847
20
-126.305
11
166.384
21
-125.645
0
LINE
8
BLACK
6
CONTINUOUS
10
166.384
20
-125.645
11
167.031
21
-123.23
0
LINE
8
BLACK
6
CONTINUOUS
10
167.031
20
-123.23
11
169.494
21
-123.89
0
LINE
8
BLACK
6
CONTINUOUS
10
148.81
20
-125.085
11
149.534
21
-125.279
0
LINE
8
BLACK
6
CONTINUOUS
10
149.534
20
-125.279
11
149.613
21
-125.318
0
LINE
8
BLACK
6
CONTINUOUS
10
149.613
20
-125.318
11
149.671
21
-125.384
0
LINE
8
BLACK
6
CONTINUOUS
10
149.671
20
-125.384
11
149.699
21
-125.467
0
LINE
8
BLACK
6
CONTINUOUS
10
149.699
20
-125.467
11
149.693
21
-125.554
0
LINE
8
BLACK
6
CONTINUOUS
10
149.693
20
-125.554
11
149.577
21
-125.989
0
LINE
8
BLACK
6
CONTINUOUS
10
149.577
20
-125.989
11
149.538
21
-126.068
0
LINE
8
BLACK
6
CONTINUOUS
10
149.538
20
-126.068
11
149.472
21
-126.126
0
LINE
8
BLACK
6
CONTINUOUS
10
149.472
20
-126.126
11
149.389
21
-126.154
0
LINE
8
BLACK
6
CONTINUOUS
10
149.389
20
-126.154
11
149.301
21
-126.148
0
LINE
8
BLACK
6
CONTINUOUS
10
149.301
20
-126.148
11
148.577
21
-125.954
0
LINE
8
BLACK
6
CONTINUOUS
10
148.577
20
-125.954
11
148.498
21
-125.915
0
LINE
8
BLACK
6
CONTINUOUS
10
148.498
20
-125.915
11
148.44
21
-125.849
0
LINE
8
BLACK
6
CONTINUOUS
10
148.44
20
-125.849
11
148.412
21
-125.766
0
LINE
8
BLACK
6
CONTINUOUS
10
148.412
20
-125.766
11
148.418
21
-125.678
0
LINE
8
BLACK
6
CONTINUOUS
10
148.418
20
-125.678
11
148.534
21
-125.244
0
LINE
8
BLACK
6
CONTINUOUS
10
148.534
20
-125.244
11
148.573
21
-125.165
0
LINE
8
BLACK
6
CONTINUOUS
10
148.573
20
-125.165
11
148.639
21
-125.107
0
LINE
8
BLACK
6
CONTINUOUS
10
148.639
20
-125.107
11
148.722
21
-125.079
0
LINE
8
BLACK
6
CONTINUOUS
10
148.722
20
-125.079
11
148.81
21
-125.085
0
LINE
8
BLACK
6
CONTINUOUS
10
129.555
20
-123.342
11
130.279
21
-123.536
0
LINE
8
BLACK
6
CONTINUOUS
10
130.279
20
-123.536
11
130.358
21
-123.575
0
LINE
8
BLACK
6
CONTINUOUS
10
130.358
20
-123.575
11
130.416
21
-123.641
0
LINE
8
BLACK
6
CONTINUOUS
10
130.416
20
-123.641
11
130.444
21
-123.724
0
LINE
8
BLACK
6
CONTINUOUS
10
130.444
20
-123.724
11
130.438
21
-123.811
0
LINE
8
BLACK
6
CONTINUOUS
10
130.438
20
-123.811
11
130.322
21
-124.246
0
LINE
8
BLACK
6
CONTINUOUS
10
130.322
20
-124.246
11
130.283
21
-124.325
0
LINE
8
BLACK
6
CONTINUOUS
10
130.283
20
-124.325
11
130.217
21
-124.383
0
LINE
8
BLACK
6
CONTINUOUS
10
130.217
20
-124.383
11
130.134
21
-124.411
0
LINE
8
BLACK
6
CONTINUOUS
10
130.134
20
-124.411
11
130.046
21
-124.405
0
LINE
8
BLACK
6
CONTINUOUS
10
130.046
20
-124.405
11
129.322
21
-124.211
0
LINE
8
BLACK
6
CONTINUOUS
10
129.322
20
-124.211
11
129.243
21
-124.172
0
LINE
8
BLACK
6
CONTINUOUS
10
129.243
20
-124.172
11
129.185
21
-124.106
0
LINE
8
BLACK
6
CONTINUOUS
10
129.185
20
-124.106
11
129.157
21
-124.023
0
LINE
8
BLACK
6
CONTINUOUS
10
129.157
20
-124.023
11
129.163
21
-123.935
0
LINE
8
BLACK
6
CONTINUOUS
10
129.163
20
-123.935
11
129.279
21
-123.501
0
LINE
8
BLACK
6
CONTINUOUS
10
129.279
20
-123.501
11
129.318
21
-123.422
0
LINE
8
BLACK
6
CONTINUOUS
10
129.318
20
-123.422
11
129.384
21
-123.364
0
LINE
8
BLACK
6
CONTINUOUS
10
129.384
20
-123.364
11
129.467
21
-123.336
0
LINE
8
BLACK
6
CONTINUOUS
10
129.467
20
-123.336
11
129.555
21
-123.342
0
LINE
8
BLACK
6
CONTINUOUS
10
165.129
20
-120.091
11
164.481
21
-122.505
0
LINE
8
BLACK
6
CONTINUOUS
10
164.481
20
-122.505
11
162.018
21
-121.845
0
LINE
8
BLACK
6
CONTINUOUS
10
162.018
20
-121.845
11
162.665
21
-119.431
0
LINE
8
BLACK
6
CONTINUOUS
10
162.665
20
-119.431
11
165.129
21
-120.091
0
LINE
8
BLACK
6
CONTINUOUS
10
151.093
20
-118.959
11
150.446
21
-121.374
0
LINE
8
BLACK
6
CONTINUOUS
10
150.446
20
-121.374
11
147.983
21
-120.714
0
LINE
8
BLACK
6
CONTINUOUS
10
147.983
20
-120.714
11
148.63
21
-118.299
0
LINE
8
BLACK
6
CONTINUOUS
10
148.63
20
-118.299
11
151.093
21
-118.959
0
LINE
8
BLACK
6
CONTINUOUS
10
130.409
20
-120.154
11
131.133
21
-120.348
0
LINE
8
BLACK
6
CONTINUOUS
10
131.133
20
-120.348
11
131.212
21
-120.387
0
LINE
8
BLACK
6
CONTINUOUS
10
131.212
20
-120.387
11
131.27
21
-120.453
0
LINE
8
BLACK
6
CONTINUOUS
10
131.27
20
-120.453
11
131.298
21
-120.536
0
LINE
8
BLACK
6
CONTINUOUS
10
131.298
20
-120.536
11
131.293
21
-120.624
0
LINE
8
BLACK
6
CONTINUOUS
10
131.293
20
-120.624
11
131.176
21
-121.059
0
LINE
8
BLACK
6
CONTINUOUS
10
131.176
20
-121.059
11
131.137
21
-121.137
0
LINE
8
BLACK
6
CONTINUOUS
10
131.137
20
-121.137
11
131.071
21
-121.195
0
LINE
8
BLACK
6
CONTINUOUS
10
131.071
20
-121.195
11
130.988
21
-121.223
0
LINE
8
BLACK
6
CONTINUOUS
10
130.988
20
-121.223
11
130.901
21
-121.218
0
LINE
8
BLACK
6
CONTINUOUS
10
130.901
20
-121.218
11
130.176
21
-121.023
0
LINE
8
BLACK
6
CONTINUOUS
10
130.176
20
-121.023
11
130.097
21
-120.985
0
LINE
8
BLACK
6
CONTINUOUS
10
130.097
20
-120.985
11
130.039
21
-120.919
0
LINE
8
BLACK
6
CONTINUOUS
10
130.039
20
-120.919
11
130.011
21
-120.836
0
LINE
8
BLACK
6
CONTINUOUS
10
130.011
20
-120.836
11
130.017
21
-120.748
0
LINE
8
BLACK
6
CONTINUOUS
10
130.017
20
-120.748
11
130.133
21
-120.313
0
LINE
8
BLACK
6
CONTINUOUS
10
130.133
20
-120.313
11
130.172
21
-120.235
0
LINE
8
BLACK
6
CONTINUOUS
10
130.172
20
-120.235
11
130.238
21
-120.177
0
LINE
8
BLACK
6
CONTINUOUS
10
130.238
20
-120.177
11
130.321
21
-120.148
0
LINE
8
BLACK
6
CONTINUOUS
10
130.321
20
-120.148
11
130.409
21
-120.154
0
LINE
8
BLACK
6
CONTINUOUS
10
111.154
20
-118.411
11
111.878
21
-118.605
0
LINE
8
BLACK
6
CONTINUOUS
10
111.878
20
-118.605
11
111.957
21
-118.644
0
LINE
8
BLACK
6
CONTINUOUS
10
111.957
20
-118.644
11
112.015
21
-118.71
0
LINE
8
BLACK
6
CONTINUOUS
10
112.015
20
-118.71
11
112.043
21
-118.793
0
LINE
8
BLACK
6
CONTINUOUS
10
112.043
20
-118.793
11
112.038
21
-118.881
0
LINE
8
BLACK
6
CONTINUOUS
10
112.038
20
-118.881
11
111.921
21
-119.316
0
LINE
8
BLACK
6
CONTINUOUS
10
111.921
20
-119.316
11
111.882
21
-119.394
0
LINE
8
BLACK
6
CONTINUOUS
10
111.882
20
-119.394
11
111.816
21
-119.452
0
LINE
8
BLACK
6
CONTINUOUS
10
111.816
20
-119.452
11
111.733
21
-119.48
0
LINE
8
BLACK
6
CONTINUOUS
10
111.733
20
-119.48
11
111.646
21
-119.475
0
LINE
8
BLACK
6
CONTINUOUS
10
111.646
20
-119.475
11
110.921
21
-119.281
0
LINE
8
BLACK
6
CONTINUOUS
10
110.921
20
-119.281
11
110.842
21
-119.242
0
LINE
8
BLACK
6
CONTINUOUS
10
110.842
20
-119.242
11
110.784
21
-119.176
0
LINE
8
BLACK
6
CONTINUOUS
10
110.784
20
-119.176
11
110.756
21
-119.093
0
LINE
8
BLACK
6
CONTINUOUS
10
110.756
20
-119.093
11
110.762
21
-119.005
0
LINE
8
BLACK
6
CONTINUOUS
10
110.762
20
-119.005
11
110.878
21
-118.57
0
LINE
8
BLACK
6
CONTINUOUS
10
110.878
20
-118.57
11
110.917
21
-118.492
0
LINE
8
BLACK
6
CONTINUOUS
10
110.917
20
-118.492
11
110.983
21
-118.434
0
LINE
8
BLACK
6
CONTINUOUS
10
110.983
20
-118.434
11
111.066
21
-118.405
0
LINE
8
BLACK
6
CONTINUOUS
10
111.066
20
-118.405
11
111.154
21
-118.411
0
LINE
8
BLACK
6
CONTINUOUS
10
242.769
20
-116.76
11
242.842
21
-116.808
0
LINE
8
BLACK
6
CONTINUOUS
10
242.842
20
-116.808
11
242.89
21
-116.881
0
LINE
8
BLACK
6
CONTINUOUS
10
242.89
20
-116.881
11
242.907
21
-116.968
0
LINE
8
BLACK
6
CONTINUOUS
10
242.907
20
-116.968
11
242.907
21
-117.417
0
LINE
8
BLACK
6
CONTINUOUS
10
242.907
20
-117.417
11
242.89
21
-117.504
0
LINE
8
BLACK
6
CONTINUOUS
10
242.89
20
-117.504
11
242.842
21
-117.577
0
LINE
8
BLACK
6
CONTINUOUS
10
242.842
20
-117.577
11
242.769
21
-117.625
0
LINE
8
BLACK
6
CONTINUOUS
10
242.769
20
-117.625
11
242.682
21
-117.642
0
LINE
8
BLACK
6
CONTINUOUS
10
242.682
20
-117.642
11
241.932
21
-117.642
0
LINE
8
BLACK
6
CONTINUOUS
10
241.932
20
-117.642
11
241.846
21
-117.625
0
LINE
8
BLACK
6
CONTINUOUS
10
241.846
20
-117.625
11
241.773
21
-117.577
0
LINE
8
BLACK
6
CONTINUOUS
10
241.773
20
-117.577
11
241.725
21
-117.504
0
LINE
8
BLACK
6
CONTINUOUS
10
241.725
20
-117.504
11
241.707
21
-117.417
0
LINE
8
BLACK
6
CONTINUOUS
10
241.707
20
-117.417
11
241.707
21
-116.968
0
LINE
8
BLACK
6
CONTINUOUS
10
241.707
20
-116.968
11
241.725
21
-116.881
0
LINE
8
BLACK
6
CONTINUOUS
10
241.725
20
-116.881
11
241.773
21
-116.808
0
LINE
8
BLACK
6
CONTINUOUS
10
241.773
20
-116.808
11
241.846
21
-116.76
0
LINE
8
BLACK
6
CONTINUOUS
10
241.846
20
-116.76
11
241.932
21
-116.742
0
LINE
8
BLACK
6
CONTINUOUS
10
241.932
20
-116.742
11
242.682
21
-116.742
0
LINE
8
BLACK
6
CONTINUOUS
10
242.682
20
-116.742
11
242.769
21
-116.76
0
LINE
8
BLACK
6
CONTINUOUS
10
223.719
20
-116.76
11
223.792
21
-116.808
0
LINE
8
BLACK
6
CONTINUOUS
10
223.792
20
-116.808
11
223.84
21
-116.881
0
LINE
8
BLACK
6
CONTINUOUS
10
223.84
20
-116.881
11
223.857
21
-116.968
0
LINE
8
BLACK
6
CONTINUOUS
10
223.857
20
-116.968
11
223.857
21
-117.417
0
LINE
8
BLACK
6
CONTINUOUS
10
223.857
20
-117.417
11
223.84
21
-117.504
0
LINE
8
BLACK
6
CONTINUOUS
10
223.84
20
-117.504
11
223.792
21
-117.577
0
LINE
8
BLACK
6
CONTINUOUS
10
223.792
20
-117.577
11
223.719
21
-117.625
0
LINE
8
BLACK
6
CONTINUOUS
10
223.719
20
-117.625
11
223.632
21
-117.642
0
LINE
8
BLACK
6
CONTINUOUS
10
223.632
20
-117.642
11
222.882
21
-117.642
0
LINE
8
BLACK
6
CONTINUOUS
10
222.882
20
-117.642
11
222.796
21
-117.625
0
LINE
8
BLACK
6
CONTINUOUS
10
222.796
20
-117.625
11
222.723
21
-117.577
0
LINE
8
BLACK
6
CONTINUOUS
10
222.723
20
-117.577
11
222.675
21
-117.504
0
LINE
8
BLACK
6
CONTINUOUS
10
222.675
20
-117.504
11
222.657
21
-117.417
0
LINE
8
BLACK
6
CONTINUOUS
10
222.657
20
-117.417
11
222.657
21
-116.968
0
LINE
8
BLACK
6
CONTINUOUS
10
222.657
20
-116.968
11
222.675
21
-116.881
0
LINE
8
BLACK
6
CONTINUOUS
10
222.675
20
-116.881
11
222.723
21
-116.808
0
LINE
8
BLACK
6
CONTINUOUS
10
222.723
20
-116.808
11
222.796
21
-116.76
0
LINE
8
BLACK
6
CONTINUOUS
10
222.796
20
-116.76
11
222.882
21
-116.742
0
LINE
8
BLACK
6
CONTINUOUS
10
222.882
20
-116.742
11
223.632
21
-116.742
0
LINE
8
BLACK
6
CONTINUOUS
10
223.632
20
-116.742
11
223.719
21
-116.76
0
LINE
8
BLACK
6
CONTINUOUS
10
204.669
20
-116.76
11
204.742
21
-116.808
0
LINE
8
BLACK
6
CONTINUOUS
10
204.742
20
-116.808
11
204.79
21
-116.881
0
LINE
8
BLACK
6
CONTINUOUS
10
204.79
20
-116.881
11
204.808
21
-116.968
0
LINE
8
BLACK
6
CONTINUOUS
10
204.808
20
-116.968
11
204.808
21
-117.417
0
LINE
8
BLACK
6
CONTINUOUS
10
204.808
20
-117.417
11
204.79
21
-117.504
0
LINE
8
BLACK
6
CONTINUOUS
10
204.79
20
-117.504
11
204.742
21
-117.577
0
LINE
8
BLACK
6
CONTINUOUS
10
204.742
20
-117.577
11
204.669
21
-117.625
0
LINE
8
BLACK
6
CONTINUOUS
10
204.669
20
-117.625
11
204.582
21
-117.642
0
LINE
8
BLACK
6
CONTINUOUS
10
204.582
20
-117.642
11
203.832
21
-117.642
0
LINE
8
BLACK
6
CONTINUOUS
10
203.832
20
-117.642
11
203.746
21
-117.625
0
LINE
8
BLACK
6
CONTINUOUS
10
203.746
20
-117.625
11
203.673
21
-117.577
0
LINE
8
BLACK
6
CONTINUOUS
10
203.673
20
-117.577
11
203.625
21
-117.504
0
LINE
8
BLACK
6
CONTINUOUS
10
203.625
20
-117.504
11
203.607
21
-117.417
0
LINE
8
BLACK
6
CONTINUOUS
10
203.607
20
-117.417
11
203.607
21
-116.968
0
LINE
8
BLACK
6
CONTINUOUS
10
203.607
20
-116.968
11
203.625
21
-116.881
0
LINE
8
BLACK
6
CONTINUOUS
10
203.625
20
-116.881
11
203.673
21
-116.808
0
LINE
8
BLACK
6
CONTINUOUS
10
203.673
20
-116.808
11
203.746
21
-116.76
0
LINE
8
BLACK
6
CONTINUOUS
10
203.746
20
-116.76
11
203.832
21
-116.742
0
LINE
8
BLACK
6
CONTINUOUS
10
203.832
20
-116.742
11
204.582
21
-116.742
0
LINE
8
BLACK
6
CONTINUOUS
10
204.582
20
-116.742
11
204.669
21
-116.76
0
LINE
8
BLACK
6
CONTINUOUS
10
185.619
20
-116.76
11
185.692
21
-116.808
0
LINE
8
BLACK
6
CONTINUOUS
10
185.692
20
-116.808
11
185.74
21
-116.881
0
LINE
8
BLACK
6
CONTINUOUS
10
185.74
20
-116.881
11
185.757
21
-116.968
0
LINE
8
BLACK
6
CONTINUOUS
10
185.757
20
-116.968
11
185.757
21
-117.417
0
LINE
8
BLACK
6
CONTINUOUS
10
185.757
20
-117.417
11
185.74
21
-117.504
0
LINE
8
BLACK
6
CONTINUOUS
10
185.74
20
-117.504
11
185.692
21
-117.577
0
LINE
8
BLACK
6
CONTINUOUS
10
185.692
20
-117.577
11
185.619
21
-117.625
0
LINE
8
BLACK
6
CONTINUOUS
10
185.619
20
-117.625
11
185.532
21
-117.642
0
LINE
8
BLACK
6
CONTINUOUS
10
185.532
20
-117.642
11
184.782
21
-117.642
0
LINE
8
BLACK
6
CONTINUOUS
10
184.782
20
-117.642
11
184.696
21
-117.625
0
LINE
8
BLACK
6
CONTINUOUS
10
184.696
20
-117.625
11
184.623
21
-117.577
0
LINE
8
BLACK
6
CONTINUOUS
10
184.623
20
-117.577
11
184.575
21
-117.504
0
LINE
8
BLACK
6
CONTINUOUS
10
184.575
20
-117.504
11
184.558
21
-117.417
0
LINE
8
BLACK
6
CONTINUOUS
10
184.558
20
-117.417
11
184.558
21
-116.968
0
LINE
8
BLACK
6
CONTINUOUS
10
184.558
20
-116.968
11
184.575
21
-116.881
0
LINE
8
BLACK
6
CONTINUOUS
10
184.575
20
-116.881
11
184.623
21
-116.808
0
LINE
8
BLACK
6
CONTINUOUS
10
184.623
20
-116.808
11
184.696
21
-116.76
0
LINE
8
BLACK
6
CONTINUOUS
10
184.696
20
-116.76
11
184.782
21
-116.742
0
LINE
8
BLACK
6
CONTINUOUS
10
184.782
20
-116.742
11
185.532
21
-116.742
0
LINE
8
BLACK
6
CONTINUOUS
10
185.532
20
-116.742
11
185.619
21
-116.76
0
LINE
8
BLACK
6
CONTINUOUS
10
90.3686
20
-116.76
11
90.4416
21
-116.808
0
LINE
8
BLACK
6
CONTINUOUS
10
90.4416
20
-116.808
11
90.4904
21
-116.881
0
LINE
8
BLACK
6
CONTINUOUS
10
90.4904
20
-116.881
11
90.5075
21
-116.968
0
LINE
8
BLACK
6
CONTINUOUS
10
90.5075
20
-116.968
11
90.5075
21
-117.417
0
LINE
8
BLACK
6
CONTINUOUS
10
90.5075
20
-117.417
11
90.4904
21
-117.504
0
LINE
8
BLACK
6
CONTINUOUS
10
90.4904
20
-117.504
11
90.4416
21
-117.577
0
LINE
8
BLACK
6
CONTINUOUS
10
90.4416
20
-117.577
11
90.3686
21
-117.625
0
LINE
8
BLACK
6
CONTINUOUS
10
90.3686
20
-117.625
11
90.2825
21
-117.642
0
LINE
8
BLACK
6
CONTINUOUS
10
90.2825
20
-117.642
11
89.5325
21
-117.642
0
LINE
8
BLACK
6
CONTINUOUS
10
89.5325
20
-117.642
11
89.4464
21
-117.625
0
LINE
8
BLACK
6
CONTINUOUS
10
89.4464
20
-117.625
11
89.3734
21
-117.577
0
LINE
8
BLACK
6
CONTINUOUS
10
89.3734
20
-117.577
11
89.3246
21
-117.504
0
LINE
8
BLACK
6
CONTINUOUS
10
89.3246
20
-117.504
11
89.3075
21
-117.417
0
LINE
8
BLACK
6
CONTINUOUS
10
89.3075
20
-117.417
11
89.3075
21
-116.968
0
LINE
8
BLACK
6
CONTINUOUS
10
89.3075
20
-116.968
11
89.3246
21
-116.881
0
LINE
8
BLACK
6
CONTINUOUS
10
89.3246
20
-116.881
11
89.3734
21
-116.808
0
LINE
8
BLACK
6
CONTINUOUS
10
89.3734
20
-116.808
11
89.4464
21
-116.76
0
LINE
8
BLACK
6
CONTINUOUS
10
89.4464
20
-116.76
11
89.5325
21
-116.742
0
LINE
8
BLACK
6
CONTINUOUS
10
89.5325
20
-116.742
11
90.2825
21
-116.742
0
LINE
8
BLACK
6
CONTINUOUS
10
90.2825
20
-116.742
11
90.3686
21
-116.76
0
LINE
8
BLACK
6
CONTINUOUS
10
71.3186
20
-116.76
11
71.3916
21
-116.808
0
LINE
8
BLACK
6
CONTINUOUS
10
71.3916
20
-116.808
11
71.4404
21
-116.881
0
LINE
8
BLACK
6
CONTINUOUS
10
71.4404
20
-116.881
11
71.4575
21
-116.968
0
LINE
8
BLACK
6
CONTINUOUS
10
71.4575
20
-116.968
11
71.4575
21
-117.417
0
LINE
8
BLACK
6
CONTINUOUS
10
71.4575
20
-117.417
11
71.4404
21
-117.504
0
LINE
8
BLACK
6
CONTINUOUS
10
71.4404
20
-117.504
11
71.3916
21
-117.577
0
LINE
8
BLACK
6
CONTINUOUS
10
71.3916
20
-117.577
11
71.3186
21
-117.625
0
LINE
8
BLACK
6
CONTINUOUS
10
71.3186
20
-117.625
11
71.2325
21
-117.642
0
LINE
8
BLACK
6
CONTINUOUS
10
71.2325
20
-117.642
11
70.4825
21
-117.642
0
LINE
8
BLACK
6
CONTINUOUS
10
70.4825
20
-117.642
11
70.3964
21
-117.625
0
LINE
8
BLACK
6
CONTINUOUS
10
70.3964
20
-117.625
11
70.3234
21
-117.577
0
LINE
8
BLACK
6
CONTINUOUS
10
70.3234
20
-117.577
11
70.2746
21
-117.504
0
LINE
8
BLACK
6
CONTINUOUS
10
70.2746
20
-117.504
11
70.2575
21
-117.417
0
LINE
8
BLACK
6
CONTINUOUS
10
70.2575
20
-117.417
11
70.2575
21
-116.968
0
LINE
8
BLACK
6
CONTINUOUS
10
70.2575
20
-116.968
11
70.2746
21
-116.881
0
LINE
8
BLACK
6
CONTINUOUS
10
70.2746
20
-116.881
11
70.3234
21
-116.808
0
LINE
8
BLACK
6
CONTINUOUS
10
70.3234
20
-116.808
11
70.3964
21
-116.76
0
LINE
8
BLACK
6
CONTINUOUS
10
70.3964
20
-116.76
11
70.4825
21
-116.742
0
LINE
8
BLACK
6
CONTINUOUS
10
70.4825
20
-116.742
11
71.2325
21
-116.742
0
LINE
8
BLACK
6
CONTINUOUS
10
71.2325
20
-116.742
11
71.3186
21
-116.76
0
LINE
8
BLACK
6
CONTINUOUS
10
146.728
20
-115.16
11
146.081
21
-117.575
0
LINE
8
BLACK
6
CONTINUOUS
10
146.081
20
-117.575
11
143.617
21
-116.915
0
LINE
8
BLACK
6
CONTINUOUS
10
143.617
20
-116.915
11
144.265
21
-114.5
0
LINE
8
BLACK
6
CONTINUOUS
10
144.265
20
-114.5
11
146.728
21
-115.16
0
LINE
8
BLACK
6
CONTINUOUS
10
132.692
20
-114.029
11
132.045
21
-116.444
0
LINE
8
BLACK
6
CONTINUOUS
10
132.045
20
-116.444
11
129.582
21
-115.784
0
LINE
8
BLACK
6
CONTINUOUS
10
129.582
20
-115.784
11
130.229
21
-113.369
0
LINE
8
BLACK
6
CONTINUOUS
10
130.229
20
-113.369
11
132.692
21
-114.029
0
LINE
8
BLACK
6
CONTINUOUS
10
112.008
20
-115.224
11
112.733
21
-115.418
0
LINE
8
BLACK
6
CONTINUOUS
10
112.733
20
-115.418
11
112.811
21
-115.457
0
LINE
8
BLACK
6
CONTINUOUS
10
112.811
20
-115.457
11
112.869
21
-115.523
0
LINE
8
BLACK
6
CONTINUOUS
10
112.869
20
-115.523
11
112.897
21
-115.606
0
LINE
8
BLACK
6
CONTINUOUS
10
112.897
20
-115.606
11
112.892
21
-115.693
0
LINE
8
BLACK
6
CONTINUOUS
10
112.892
20
-115.693
11
112.775
21
-116.128
0
LINE
8
BLACK
6
CONTINUOUS
10
112.775
20
-116.128
11
112.736
21
-116.207
0
LINE
8
BLACK
6
CONTINUOUS
10
112.736
20
-116.207
11
112.67
21
-116.265
0
LINE
8
BLACK
6
CONTINUOUS
10
112.67
20
-116.265
11
112.587
21
-116.293
0
LINE
8
BLACK
6
CONTINUOUS
10
112.587
20
-116.293
11
112.5
21
-116.287
0
LINE
8
BLACK
6
CONTINUOUS
10
112.5
20
-116.287
11
111.775
21
-116.093
0
LINE
8
BLACK
6
CONTINUOUS
10
111.775
20
-116.093
11
111.696
21
-116.054
0
LINE
8
BLACK
6
CONTINUOUS
10
111.696
20
-116.054
11
111.639
21
-115.988
0
LINE
8
BLACK
6
CONTINUOUS
10
111.639
20
-115.988
11
111.61
21
-115.905
0
LINE
8
BLACK
6
CONTINUOUS
10
111.61
20
-115.905
11
111.616
21
-115.817
0
LINE
8
BLACK
6
CONTINUOUS
10
111.616
20
-115.817
11
111.733
21
-115.383
0
LINE
8
BLACK
6
CONTINUOUS
10
111.733
20
-115.383
11
111.771
21
-115.304
0
LINE
8
BLACK
6
CONTINUOUS
10
111.771
20
-115.304
11
111.837
21
-115.246
0
LINE
8
BLACK
6
CONTINUOUS
10
111.837
20
-115.246
11
111.921
21
-115.218
0
LINE
8
BLACK
6
CONTINUOUS
10
111.921
20
-115.218
11
112.008
21
-115.224
0
LINE
8
BLACK
6
CONTINUOUS
10
242.769
20
-113.46
11
242.842
21
-113.508
0
LINE
8
BLACK
6
CONTINUOUS
10
242.842
20
-113.508
11
242.89
21
-113.581
0
LINE
8
BLACK
6
CONTINUOUS
10
242.89
20
-113.581
11
242.907
21
-113.667
0
LINE
8
BLACK
6
CONTINUOUS
10
242.907
20
-113.667
11
242.907
21
-114.117
0
LINE
8
BLACK
6
CONTINUOUS
10
242.907
20
-114.117
11
242.89
21
-114.204
0
LINE
8
BLACK
6
CONTINUOUS
10
242.89
20
-114.204
11
242.842
21
-114.277
0
LINE
8
BLACK
6
CONTINUOUS
10
242.842
20
-114.277
11
242.769
21
-114.325
0
LINE
8
BLACK
6
CONTINUOUS
10
242.769
20
-114.325
11
242.682
21
-114.343
0
LINE
8
BLACK
6
CONTINUOUS
10
242.682
20
-114.343
11
241.932
21
-114.343
0
LINE
8
BLACK
6
CONTINUOUS
10
241.932
20
-114.343
11
241.846
21
-114.325
0
LINE
8
BLACK
6
CONTINUOUS
10
241.846
20
-114.325
11
241.773
21
-114.277
0
LINE
8
BLACK
6
CONTINUOUS
10
241.773
20
-114.277
11
241.725
21
-114.204
0
LINE
8
BLACK
6
CONTINUOUS
10
241.725
20
-114.204
11
241.707
21
-114.117
0
LINE
8
BLACK
6
CONTINUOUS
10
241.707
20
-114.117
11
241.707
21
-113.667
0
LINE
8
BLACK
6
CONTINUOUS
10
241.707
20
-113.667
11
241.725
21
-113.581
0
LINE
8
BLACK
6
CONTINUOUS
10
241.725
20
-113.581
11
241.773
21
-113.508
0
LINE
8
BLACK
6
CONTINUOUS
10
241.773
20
-113.508
11
241.846
21
-113.46
0
LINE
8
BLACK
6
CONTINUOUS
10
241.846
20
-113.46
11
241.932
21
-113.442
0
LINE
8
BLACK
6
CONTINUOUS
10
241.932
20
-113.442
11
242.682
21
-113.442
0
LINE
8
BLACK
6
CONTINUOUS
10
242.682
20
-113.442
11
242.769
21
-113.46
0
LINE
8
BLACK
6
CONTINUOUS
10
223.719
20
-113.46
11
223.792
21
-113.508
0
LINE
8
BLACK
6
CONTINUOUS
10
223.792
20
-113.508
11
223.84
21
-113.581
0
LINE
8
BLACK
6
CONTINUOUS
10
223.84
20
-113.581
11
223.857
21
-113.667
0
LINE
8
BLACK
6
CONTINUOUS
10
223.857
20
-113.667
11
223.857
21
-114.117
0
LINE
8
BLACK
6
CONTINUOUS
10
223.857
20
-114.117
11
223.84
21
-114.204
0
LINE
8
BLACK
6
CONTINUOUS
10
223.84
20
-114.204
11
223.792
21
-114.277
0
LINE
8
BLACK
6
CONTINUOUS
10
223.792
20
-114.277
11
223.719
21
-114.325
0
LINE
8
BLACK
6
CONTINUOUS
10
223.719
20
-114.325
11
223.632
21
-114.343
0
LINE
8
BLACK
6
CONTINUOUS
10
223.632
20
-114.343
11
222.882
21
-114.343
0
LINE
8
BLACK
6
CONTINUOUS
10
222.882
20
-114.343
11
222.796
21
-114.325
0
LINE
8
BLACK
6
CONTINUOUS
10
222.796
20
-114.325
11
222.723
21
-114.277
0
LINE
8
BLACK
6
CONTINUOUS
10
222.723
20
-114.277
11
222.675
21
-114.204
0
LINE
8
BLACK
6
CONTINUOUS
10
222.675
20
-114.204
11
222.657
21
-114.117
0
LINE
8
BLACK
6
CONTINUOUS
10
222.657
20
-114.117
11
222.657
21
-113.667
0
LINE
8
BLACK
6
CONTINUOUS
10
222.657
20
-113.667
11
222.675
21
-113.581
0
LINE
8
BLACK
6
CONTINUOUS
10
222.675
20
-113.581
11
222.723
21
-113.508
0
LINE
8
BLACK
6
CONTINUOUS
10
222.723
20
-113.508
11
222.796
21
-113.46
0
LINE
8
BLACK
6
CONTINUOUS
10
222.796
20
-113.46
11
222.882
21
-113.442
0
LINE
8
BLACK
6
CONTINUOUS
10
222.882
20
-113.442
11
223.632
21
-113.442
0
LINE
8
BLACK
6
CONTINUOUS
10
223.632
20
-113.442
11
223.719
21
-113.46
0
LINE
8
BLACK
6
CONTINUOUS
10
204.669
20
-113.46
11
204.742
21
-113.508
0
LINE
8
BLACK
6
CONTINUOUS
10
204.742
20
-113.508
11
204.79
21
-113.581
0
LINE
8
BLACK
6
CONTINUOUS
10
204.79
20
-113.581
11
204.808
21
-113.667
0
LINE
8
BLACK
6
CONTINUOUS
10
204.808
20
-113.667
11
204.808
21
-114.117
0
LINE
8
BLACK
6
CONTINUOUS
10
204.808
20
-114.117
11
204.79
21
-114.204
0
LINE
8
BLACK
6
CONTINUOUS
10
204.79
20
-114.204
11
204.742
21
-114.277
0
LINE
8
BLACK
6
CONTINUOUS
10
204.742
20
-114.277
11
204.669
21
-114.325
0
LINE
8
BLACK
6
CONTINUOUS
10
204.669
20
-114.325
11
204.582
21
-114.343
0
LINE
8
BLACK
6
CONTINUOUS
10
204.582
20
-114.343
11
203.832
21
-114.343
0
LINE
8
BLACK
6
CONTINUOUS
10
203.832
20
-114.343
11
203.746
21
-114.325
0
LINE
8
BLACK
6
CONTINUOUS
10
203.746
20
-114.325
11
203.673
21
-114.277
0
LINE
8
BLACK
6
CONTINUOUS
10
203.673
20
-114.277
11
203.625
21
-114.204
0
LINE
8
BLACK
6
CONTINUOUS
10
203.625
20
-114.204
11
203.607
21
-114.117
0
LINE
8
BLACK
6
CONTINUOUS
10
203.607
20
-114.117
11
203.607
21
-113.667
0
LINE
8
BLACK
6
CONTINUOUS
10
203.607
20
-113.667
11
203.625
21
-113.581
0
LINE
8
BLACK
6
CONTINUOUS
10
203.625
20
-113.581
11
203.673
21
-113.508
0
LINE
8
BLACK
6
CONTINUOUS
10
203.673
20
-113.508
11
203.746
21
-113.46
0
LINE
8
BLACK
6
CONTINUOUS
10
203.746
20
-113.46
11
203.832
21
-113.442
0
LINE
8
BLACK
6
CONTINUOUS
10
203.832
20
-113.442
11
204.582
21
-113.442
0
LINE
8
BLACK
6
CONTINUOUS
10
204.582
20
-113.442
11
204.669
21
-113.46
0
LINE
8
BLACK
6
CONTINUOUS
10
185.619
20
-113.46
11
185.692
21
-113.508
0
LINE
8
BLACK
6
CONTINUOUS
10
185.692
20
-113.508
11
185.74
21
-113.581
0
LINE
8
BLACK
6
CONTINUOUS
10
185.74
20
-113.581
11
185.757
21
-113.667
0
LINE
8
BLACK
6
CONTINUOUS
10
185.757
20
-113.667
11
185.757
21
-114.117
0
LINE
8
BLACK
6
CONTINUOUS
10
185.757
20
-114.117
11
185.74
21
-114.204
0
LINE
8
BLACK
6
CONTINUOUS
10
185.74
20
-114.204
11
185.692
21
-114.277
0
LINE
8
BLACK
6
CONTINUOUS
10
185.692
20
-114.277
11
185.619
21
-114.325
0
LINE
8
BLACK
6
CONTINUOUS
10
185.619
20
-114.325
11
185.532
21
-114.343
0
LINE
8
BLACK
6
CONTINUOUS
10
185.532
20
-114.343
11
184.782
21
-114.343
0
LINE
8
BLACK
6
CONTINUOUS
10
184.782
20
-114.343
11
184.696
21
-114.325
0
LINE
8
BLACK
6
CONTINUOUS
10
184.696
20
-114.325
11
184.623
21
-114.277
0
LINE
8
BLACK
6
CONTINUOUS
10
184.623
20
-114.277
11
184.575
21
-114.204
0
LINE
8
BLACK
6
CONTINUOUS
10
184.575
20
-114.204
11
184.558
21
-114.117
0
LINE
8
BLACK
6
CONTINUOUS
10
184.558
20
-114.117
11
184.558
21
-113.667
0
LINE
8
BLACK
6
CONTINUOUS
10
184.558
20
-113.667
11
184.575
21
-113.581
0
LINE
8
BLACK
6
CONTINUOUS
10
184.575
20
-113.581
11
184.623
21
-113.508
0
LINE
8
BLACK
6
CONTINUOUS
10
184.623
20
-113.508
11
184.696
21
-113.46
0
LINE
8
BLACK
6
CONTINUOUS
10
184.696
20
-113.46
11
184.782
21
-113.442
0
LINE
8
BLACK
6
CONTINUOUS
10
184.782
20
-113.442
11
185.532
21
-113.442
0
LINE
8
BLACK
6
CONTINUOUS
10
185.532
20
-113.442
11
185.619
21
-113.46
0
LINE
8
BLACK
6
CONTINUOUS
10
90.3686
20
-113.46
11
90.4416
21
-113.508
0
LINE
8
BLACK
6
CONTINUOUS
10
90.4416
20
-113.508
11
90.4904
21
-113.581
0
LINE
8
BLACK
6
CONTINUOUS
10
90.4904
20
-113.581
11
90.5075
21
-113.667
0
LINE
8
BLACK
6
CONTINUOUS
10
90.5075
20
-113.667
11
90.5075
21
-114.117
0
LINE
8
BLACK
6
CONTINUOUS
10
90.5075
20
-114.117
11
90.4904
21
-114.204
0
LINE
8
BLACK
6
CONTINUOUS
10
90.4904
20
-114.204
11
90.4416
21
-114.277
0
LINE
8
BLACK
6
CONTINUOUS
10
90.4416
20
-114.277
11
90.3686
21
-114.325
0
LINE
8
BLACK
6
CONTINUOUS
10
90.3686
20
-114.325
11
90.2825
21
-114.343
0
LINE
8
BLACK
6
CONTINUOUS
10
90.2825
20
-114.343
11
89.5325
21
-114.343
0
LINE
8
BLACK
6
CONTINUOUS
10
89.5325
20
-114.343
11
89.4464
21
-114.325
0
LINE
8
BLACK
6
CONTINUOUS
10
89.4464
20
-114.325
11
89.3734
21
-114.277
0
LINE
8
BLACK
6
CONTINUOUS
10
89.3734
20
-114.277
11
89.3246
21
-114.204
0
LINE
8
BLACK
6
CONTINUOUS
10
89.3246
20
-114.204
11
89.3075
21
-114.117
0
LINE
8
BLACK
6
CONTINUOUS
10
89.3075
20
-114.117
11
89.3075
21
-113.667
0
LINE
8
BLACK
6
CONTINUOUS
10
89.3075
20
-113.667
11
89.3246
21
-113.581
0
LINE
8
BLACK
6
CONTINUOUS
10
89.3246
20
-113.581
11
89.3734
21
-113.508
0
LINE
8
BLACK
6
CONTINUOUS
10
89.3734
20
-113.508
11
89.4464
21
-113.46
0
LINE
8
BLACK
6
CONTINUOUS
10
89.4464
20
-113.46
11
89.5325
21
-113.442
0
LINE
8
BLACK
6
CONTINUOUS
10
89.5325
20
-113.442
11
90.2825
21
-113.442
0
LINE
8
BLACK
6
CONTINUOUS
10
90.2825
20
-113.442
11
90.3686
21
-113.46
0
LINE
8
BLACK
6
CONTINUOUS
10
71.3186
20
-113.46
11
71.3916
21
-113.508
0
LINE
8
BLACK
6
CONTINUOUS
10
71.3916
20
-113.508
11
71.4404
21
-113.581
0
LINE
8
BLACK
6
CONTINUOUS
10
71.4404
20
-113.581
11
71.4575
21
-113.667
0
LINE
8
BLACK
6
CONTINUOUS
10
71.4575
20
-113.667
11
71.4575
21
-114.117
0
LINE
8
BLACK
6
CONTINUOUS
10
71.4575
20
-114.117
11
71.4404
21
-114.204
0
LINE
8
BLACK
6
CONTINUOUS
10
71.4404
20
-114.204
11
71.3916
21
-114.277
0
LINE
8
BLACK
6
CONTINUOUS
10
71.3916
20
-114.277
11
71.3186
21
-114.325
0
LINE
8
BLACK
6
CONTINUOUS
10
71.3186
20
-114.325
11
71.2325
21
-114.343
0
LINE
8
BLACK
6
CONTINUOUS
10
71.2325
20
-114.343
11
70.4825
21
-114.343
0
LINE
8
BLACK
6
CONTINUOUS
10
70.4825
20
-114.343
11
70.3964
21
-114.325
0
LINE
8
BLACK
6
CONTINUOUS
10
70.3964
20
-114.325
11
70.3234
21
-114.277
0
LINE
8
BLACK
6
CONTINUOUS
10
70.3234
20
-114.277
11
70.2746
21
-114.204
0
LINE
8
BLACK
6
CONTINUOUS
10
70.2746
20
-114.204
11
70.2575
21
-114.117
0
LINE
8
BLACK
6
CONTINUOUS
10
70.2575
20
-114.117
11
70.2575
21
-113.667
0
LINE
8
BLACK
6
CONTINUOUS
10
70.2575
20
-113.667
11
70.2746
21
-113.581
0
LINE
8
BLACK
6
CONTINUOUS
10
70.2746
20
-113.581
11
70.3234
21
-113.508
0
LINE
8
BLACK
6
CONTINUOUS
10
70.3234
20
-113.508
11
70.3964
21
-113.46
0
LINE
8
BLACK
6
CONTINUOUS
10
70.3964
20
-113.46
11
70.4825
21
-113.442
0
LINE
8
BLACK
6
CONTINUOUS
10
70.4825
20
-113.442
11
71.2325
21
-113.442
0
LINE
8
BLACK
6
CONTINUOUS
10
71.2325
20
-113.442
11
71.3186
21
-113.46
0
LINE
8
BLACK
6
CONTINUOUS
10
128.327
20
-110.23
11
127.68
21
-112.644
0
LINE
8
BLACK
6
CONTINUOUS
10
127.68
20
-112.644
11
125.217
21
-111.984
0
LINE
8
BLACK
6
CONTINUOUS
10
125.217
20
-111.984
11
125.864
21
-109.57
0
LINE
8
BLACK
6
CONTINUOUS
10
125.864
20
-109.57
11
128.327
21
-110.23
0
LINE
8
BLACK
6
CONTINUOUS
10
114.291
20
-109.098
11
113.644
21
-111.513
0
LINE
8
BLACK
6
CONTINUOUS
10
113.644
20
-111.513
11
111.181
21
-110.853
0
LINE
8
BLACK
6
CONTINUOUS
10
111.181
20
-110.853
11
111.828
21
-108.438
0
LINE
8
BLACK
6
CONTINUOUS
10
111.828
20
-108.438
11
114.291
21
-109.098
0
LINE
8
BLACK
6
CONTINUOUS
10
242.552
20
-109.435
11
240.002
21
-109.435
0
LINE
8
BLACK
6
CONTINUOUS
10
240.002
20
-109.435
11
240.002
21
-106.935
0
LINE
8
BLACK
6
CONTINUOUS
10
240.002
20
-106.935
11
242.552
21
-106.935
0
LINE
8
BLACK
6
CONTINUOUS
10
242.552
20
-106.935
11
242.552
21
-109.435
0
LINE
8
BLACK
6
CONTINUOUS
10
223.502
20
-109.435
11
220.952
21
-109.435
0
LINE
8
BLACK
6
CONTINUOUS
10
220.952
20
-109.435
11
220.952
21
-106.935
0
LINE
8
BLACK
6
CONTINUOUS
10
220.952
20
-106.935
11
223.502
21
-106.935
0
LINE
8
BLACK
6
CONTINUOUS
10
223.502
20
-106.935
11
223.502
21
-109.435
0
LINE
8
BLACK
6
CONTINUOUS
10
204.452
20
-109.435
11
201.903
21
-109.435
0
LINE
8
BLACK
6
CONTINUOUS
10
201.903
20
-109.435
11
201.903
21
-106.935
0
LINE
8
BLACK
6
CONTINUOUS
10
201.903
20
-106.935
11
204.452
21
-106.935
0
LINE
8
BLACK
6
CONTINUOUS
10
204.452
20
-106.935
11
204.452
21
-109.435
0
LINE
8
BLACK
6
CONTINUOUS
10
185.403
20
-109.435
11
182.852
21
-109.435
0
LINE
8
BLACK
6
CONTINUOUS
10
182.852
20
-109.435
11
182.852
21
-106.935
0
LINE
8
BLACK
6
CONTINUOUS
10
182.852
20
-106.935
11
185.403
21
-106.935
0
LINE
8
BLACK
6
CONTINUOUS
10
185.403
20
-106.935
11
185.403
21
-109.435
0
LINE
8
BLACK
6
CONTINUOUS
10
90.1525
20
-109.435
11
87.6025
21
-109.435
0
LINE
8
BLACK
6
CONTINUOUS
10
87.6025
20
-109.435
11
87.6025
21
-106.935
0
LINE
8
BLACK
6
CONTINUOUS
10
87.6025
20
-106.935
11
90.1525
21
-106.935
0
LINE
8
BLACK
6
CONTINUOUS
10
90.1525
20
-106.935
11
90.1525
21
-109.435
0
LINE
8
BLACK
6
CONTINUOUS
10
71.1025
20
-109.435
11
68.5525
21
-109.435
0
LINE
8
BLACK
6
CONTINUOUS
10
68.5525
20
-109.435
11
68.5525
21
-106.935
0
LINE
8
BLACK
6
CONTINUOUS
10
68.5525
20
-106.935
11
71.1025
21
-106.935
0
LINE
8
BLACK
6
CONTINUOUS
10
71.1025
20
-106.935
11
71.1025
21
-109.435
0
LINE
8
BLACK
6
CONTINUOUS
10
256.402
20
-106.895
11
253.852
21
-106.895
0
LINE
8
BLACK
6
CONTINUOUS
10
253.852
20
-106.895
11
253.852
21
-104.395
0
LINE
8
BLACK
6
CONTINUOUS
10
253.852
20
-104.395
11
256.402
21
-104.395
0
LINE
8
BLACK
6
CONTINUOUS
10
256.402
20
-104.395
11
256.402
21
-106.895
0
LINE
8
BLACK
6
CONTINUOUS
10
237.352
20
-106.895
11
234.802
21
-106.895
0
LINE
8
BLACK
6
CONTINUOUS
10
234.802
20
-106.895
11
234.802
21
-104.395
0
LINE
8
BLACK
6
CONTINUOUS
10
234.802
20
-104.395
11
237.352
21
-104.395
0
LINE
8
BLACK
6
CONTINUOUS
10
237.352
20
-104.395
11
237.352
21
-106.895
0
LINE
8
BLACK
6
CONTINUOUS
10
218.302
20
-106.895
11
215.752
21
-106.895
0
LINE
8
BLACK
6
CONTINUOUS
10
215.752
20
-106.895
11
215.752
21
-104.395
0
LINE
8
BLACK
6
CONTINUOUS
10
215.752
20
-104.395
11
218.302
21
-104.395
0
LINE
8
BLACK
6
CONTINUOUS
10
218.302
20
-104.395
11
218.302
21
-106.895
0
LINE
8
BLACK
6
CONTINUOUS
10
199.252
20
-106.895
11
196.702
21
-106.895
0
LINE
8
BLACK
6
CONTINUOUS
10
196.702
20
-106.895
11
196.702
21
-104.395
0
LINE
8
BLACK
6
CONTINUOUS
10
196.702
20
-104.395
11
199.252
21
-104.395
0
LINE
8
BLACK
6
CONTINUOUS
10
199.252
20
-104.395
11
199.252
21
-106.895
0
LINE
8
BLACK
6
CONTINUOUS
10
104.002
20
-106.895
11
101.453
21
-106.895
0
LINE
8
BLACK
6
CONTINUOUS
10
101.453
20
-106.895
11
101.453
21
-104.395
0
LINE
8
BLACK
6
CONTINUOUS
10
101.453
20
-104.395
11
104.002
21
-104.395
0
LINE
8
BLACK
6
CONTINUOUS
10
104.002
20
-104.395
11
104.002
21
-106.895
0
LINE
8
BLACK
6
CONTINUOUS
10
84.9525
20
-106.895
11
82.4025
21
-106.895
0
LINE
8
BLACK
6
CONTINUOUS
10
82.4025
20
-106.895
11
82.4025
21
-104.395
0
LINE
8
BLACK
6
CONTINUOUS
10
82.4025
20
-104.395
11
84.9525
21
-104.395
0
LINE
8
BLACK
6
CONTINUOUS
10
84.9525
20
-104.395
11
84.9525
21
-106.895
0
LINE
8
BLACK
6
CONTINUOUS
10
242.769
20
-97.7096
11
242.842
21
-97.7584
0
LINE
8
BLACK
6
CONTINUOUS
10
242.842
20
-97.7584
11
242.89
21
-97.8314
0
LINE
8
BLACK
6
CONTINUOUS
10
242.89
20
-97.8314
11
242.907
21
-97.9175
0
LINE
8
BLACK
6
CONTINUOUS
10
242.907
20
-97.9175
11
242.907
21
-98.3675
0
LINE
8
BLACK
6
CONTINUOUS
10
242.907
20
-98.3675
11
242.89
21
-98.4536
0
LINE
8
BLACK
6
CONTINUOUS
10
242.89
20
-98.4536
11
242.842
21
-98.5266
0
LINE
8
BLACK
6
CONTINUOUS
10
242.842
20
-98.5266
11
242.769
21
-98.5754
0
LINE
8
BLACK
6
CONTINUOUS
10
242.769
20
-98.5754
11
242.682
21
-98.5925
0
LINE
8
BLACK
6
CONTINUOUS
10
242.682
20
-98.5925
11
241.932
21
-98.5925
0
LINE
8
BLACK
6
CONTINUOUS
10
241.932
20
-98.5925
11
241.846
21
-98.5754
0
LINE
8
BLACK
6
CONTINUOUS
10
241.846
20
-98.5754
11
241.773
21
-98.5266
0
LINE
8
BLACK
6
CONTINUOUS
10
241.773
20
-98.5266
11
241.725
21
-98.4536
0
LINE
8
BLACK
6
CONTINUOUS
10
241.725
20
-98.4536
11
241.707
21
-98.3675
0
LINE
8
BLACK
6
CONTINUOUS
10
241.707
20
-98.3675
11
241.707
21
-97.9175
0
LINE
8
BLACK
6
CONTINUOUS
10
241.707
20
-97.9175
11
241.725
21
-97.8314
0
LINE
8
BLACK
6
CONTINUOUS
10
241.725
20
-97.8314
11
241.773
21
-97.7584
0
LINE
8
BLACK
6
CONTINUOUS
10
241.773
20
-97.7584
11
241.846
21
-97.7096
0
LINE
8
BLACK
6
CONTINUOUS
10
241.846
20
-97.7096
11
241.932
21
-97.6925
0
LINE
8
BLACK
6
CONTINUOUS
10
241.932
20
-97.6925
11
242.682
21
-97.6925
0
LINE
8
BLACK
6
CONTINUOUS
10
242.682
20
-97.6925
11
242.769
21
-97.7096
0
LINE
8
BLACK
6
CONTINUOUS
10
223.719
20
-97.7096
11
223.792
21
-97.7584
0
LINE
8
BLACK
6
CONTINUOUS
10
223.792
20
-97.7584
11
223.84
21
-97.8314
0
LINE
8
BLACK
6
CONTINUOUS
10
223.84
20
-97.8314
11
223.857
21
-97.9175
0
LINE
8
BLACK
6
CONTINUOUS
10
223.857
20
-97.9175
11
223.857
21
-98.3675
0
LINE
8
BLACK
6
CONTINUOUS
10
223.857
20
-98.3675
11
223.84
21
-98.4536
0
LINE
8
BLACK
6
CONTINUOUS
10
223.84
20
-98.4536
11
223.792
21
-98.5266
0
LINE
8
BLACK
6
CONTINUOUS
10
223.792
20
-98.5266
11
223.719
21
-98.5754
0
LINE
8
BLACK
6
CONTINUOUS
10
223.719
20
-98.5754
11
223.632
21
-98.5925
0
LINE
8
BLACK
6
CONTINUOUS
10
223.632
20
-98.5925
11
222.882
21
-98.5925
0
LINE
8
BLACK
6
CONTINUOUS
10
222.882
20
-98.5925
11
222.796
21
-98.5754
0
LINE
8
BLACK
6
CONTINUOUS
10
222.796
20
-98.5754
11
222.723
21
-98.5266
0
LINE
8
BLACK
6
CONTINUOUS
10
222.723
20
-98.5266
11
222.675
21
-98.4536
0
LINE
8
BLACK
6
CONTINUOUS
10
222.675
20
-98.4536
11
222.657
21
-98.3675
0
LINE
8
BLACK
6
CONTINUOUS
10
222.657
20
-98.3675
11
222.657
21
-97.9175
0
LINE
8
BLACK
6
CONTINUOUS
10
222.657
20
-97.9175
11
222.675
21
-97.8314
0
LINE
8
BLACK
6
CONTINUOUS
10
222.675
20
-97.8314
11
222.723
21
-97.7584
0
LINE
8
BLACK
6
CONTINUOUS
10
222.723
20
-97.7584
11
222.796
21
-97.7096
0
LINE
8
BLACK
6
CONTINUOUS
10
222.796
20
-97.7096
11
222.882
21
-97.6925
0
LINE
8
BLACK
6
CONTINUOUS
10
222.882
20
-97.6925
11
223.632
21
-97.6925
0
LINE
8
BLACK
6
CONTINUOUS
10
223.632
20
-97.6925
11
223.719
21
-97.7096
0
LINE
8
BLACK
6
CONTINUOUS
10
204.669
20
-97.7096
11
204.742
21
-97.7584
0
LINE
8
BLACK
6
CONTINUOUS
10
204.742
20
-97.7584
11
204.79
21
-97.8314
0
LINE
8
BLACK
6
CONTINUOUS
10
204.79
20
-97.8314
11
204.808
21
-97.9175
0
LINE
8
BLACK
6
CONTINUOUS
10
204.808
20
-97.9175
11
204.808
21
-98.3675
0
LINE
8
BLACK
6
CONTINUOUS
10
204.808
20
-98.3675
11
204.79
21
-98.4536
0
LINE
8
BLACK
6
CONTINUOUS
10
204.79
20
-98.4536
11
204.742
21
-98.5266
0
LINE
8
BLACK
6
CONTINUOUS
10
204.742
20
-98.5266
11
204.669
21
-98.5754
0
LINE
8
BLACK
6
CONTINUOUS
10
204.669
20
-98.5754
11
204.582
21
-98.5925
0
LINE
8
BLACK
6
CONTINUOUS
10
204.582
20
-98.5925
11
203.832
21
-98.5925
0
LINE
8
BLACK
6
CONTINUOUS
10
203.832
20
-98.5925
11
203.746
21
-98.5754
0
LINE
8
BLACK
6
CONTINUOUS
10
203.746
20
-98.5754
11
203.673
21
-98.5266
0
LINE
8
BLACK
6
CONTINUOUS
10
203.673
20
-98.5266
11
203.625
21
-98.4536
0
LINE
8
BLACK
6
CONTINUOUS
10
203.625
20
-98.4536
11
203.607
21
-98.3675
0
LINE
8
BLACK
6
CONTINUOUS
10
203.607
20
-98.3675
11
203.607
21
-97.9175
0
LINE
8
BLACK
6
CONTINUOUS
10
203.607
20
-97.9175
11
203.625
21
-97.8314
0
LINE
8
BLACK
6
CONTINUOUS
10
203.625
20
-97.8314
11
203.673
21
-97.7584
0
LINE
8
BLACK
6
CONTINUOUS
10
203.673
20
-97.7584
11
203.746
21
-97.7096
0
LINE
8
BLACK
6
CONTINUOUS
10
203.746
20
-97.7096
11
203.832
21
-97.6925
0
LINE
8
BLACK
6
CONTINUOUS
10
203.832
20
-97.6925
11
204.582
21
-97.6925
0
LINE
8
BLACK
6
CONTINUOUS
10
204.582
20
-97.6925
11
204.669
21
-97.7096
0
LINE
8
BLACK
6
CONTINUOUS
10
185.619
20
-97.7096
11
185.692
21
-97.7584
0
LINE
8
BLACK
6
CONTINUOUS
10
185.692
20
-97.7584
11
185.74
21
-97.8314
0
LINE
8
BLACK
6
CONTINUOUS
10
185.74
20
-97.8314
11
185.757
21
-97.9175
0
LINE
8
BLACK
6
CONTINUOUS
10
185.757
20
-97.9175
11
185.757
21
-98.3675
0
LINE
8
BLACK
6
CONTINUOUS
10
185.757
20
-98.3675
11
185.74
21
-98.4536
0
LINE
8
BLACK
6
CONTINUOUS
10
185.74
20
-98.4536
11
185.692
21
-98.5266
0
LINE
8
BLACK
6
CONTINUOUS
10
185.692
20
-98.5266
11
185.619
21
-98.5754
0
LINE
8
BLACK
6
CONTINUOUS
10
185.619
20
-98.5754
11
185.532
21
-98.5925
0
LINE
8
BLACK
6
CONTINUOUS
10
185.532
20
-98.5925
11
184.782
21
-98.5925
0
LINE
8
BLACK
6
CONTINUOUS
10
184.782
20
-98.5925
11
184.696
21
-98.5754
0
LINE
8
BLACK
6
CONTINUOUS
10
184.696
20
-98.5754
11
184.623
21
-98.5266
0
LINE
8
BLACK
6
CONTINUOUS
10
184.623
20
-98.5266
11
184.575
21
-98.4536
0
LINE
8
BLACK
6
CONTINUOUS
10
184.575
20
-98.4536
11
184.558
21
-98.3675
0
LINE
8
BLACK
6
CONTINUOUS
10
184.558
20
-98.3675
11
184.558
21
-97.9175
0
LINE
8
BLACK
6
CONTINUOUS
10
184.558
20
-97.9175
11
184.575
21
-97.8314
0
LINE
8
BLACK
6
CONTINUOUS
10
184.575
20
-97.8314
11
184.623
21
-97.7584
0
LINE
8
BLACK
6
CONTINUOUS
10
184.623
20
-97.7584
11
184.696
21
-97.7096
0
LINE
8
BLACK
6
CONTINUOUS
10
184.696
20
-97.7096
11
184.782
21
-97.6925
0
LINE
8
BLACK
6
CONTINUOUS
10
184.782
20
-97.6925
11
185.532
21
-97.6925
0
LINE
8
BLACK
6
CONTINUOUS
10
185.532
20
-97.6925
11
185.619
21
-97.7096
0
LINE
8
BLACK
6
CONTINUOUS
10
157.044
20
-97.7096
11
157.117
21
-97.7584
0
LINE
8
BLACK
6
CONTINUOUS
10
157.117
20
-97.7584
11
157.165
21
-97.8314
0
LINE
8
BLACK
6
CONTINUOUS
10
157.165
20
-97.8314
11
157.183
21
-97.9175
0
LINE
8
BLACK
6
CONTINUOUS
10
157.183
20
-97.9175
11
157.183
21
-98.3675
0
LINE
8
BLACK
6
CONTINUOUS
10
157.183
20
-98.3675
11
157.165
21
-98.4536
0
LINE
8
BLACK
6
CONTINUOUS
10
157.165
20
-98.4536
11
157.117
21
-98.5266
0
LINE
8
BLACK
6
CONTINUOUS
10
157.117
20
-98.5266
11
157.044
21
-98.5754
0
LINE
8
BLACK
6
CONTINUOUS
10
157.044
20
-98.5754
11
156.957
21
-98.5925
0
LINE
8
BLACK
6
CONTINUOUS
10
156.957
20
-98.5925
11
156.207
21
-98.5925
0
LINE
8
BLACK
6
CONTINUOUS
10
156.207
20
-98.5925
11
156.121
21
-98.5754
0
LINE
8
BLACK
6
CONTINUOUS
10
156.121
20
-98.5754
11
156.048
21
-98.5266
0
LINE
8
BLACK
6
CONTINUOUS
10
156.048
20
-98.5266
11
156
21
-98.4536
0
LINE
8
BLACK
6
CONTINUOUS
10
156
20
-98.4536
11
155.982
21
-98.3675
0
LINE
8
BLACK
6
CONTINUOUS
10
155.982
20
-98.3675
11
155.982
21
-97.9175
0
LINE
8
BLACK
6
CONTINUOUS
10
155.982
20
-97.9175
11
156
21
-97.8314
0
LINE
8
BLACK
6
CONTINUOUS
10
156
20
-97.8314
11
156.048
21
-97.7584
0
LINE
8
BLACK
6
CONTINUOUS
10
156.048
20
-97.7584
11
156.121
21
-97.7096
0
LINE
8
BLACK
6
CONTINUOUS
10
156.121
20
-97.7096
11
156.207
21
-97.6925
0
LINE
8
BLACK
6
CONTINUOUS
10
156.207
20
-97.6925
11
156.957
21
-97.6925
0
LINE
8
BLACK
6
CONTINUOUS
10
156.957
20
-97.6925
11
157.044
21
-97.7096
0
LINE
8
BLACK
6
CONTINUOUS
10
137.994
20
-97.7096
11
138.067
21
-97.7584
0
LINE
8
BLACK
6
CONTINUOUS
10
138.067
20
-97.7584
11
138.115
21
-97.8314
0
LINE
8
BLACK
6
CONTINUOUS
10
138.115
20
-97.8314
11
138.132
21
-97.9175
0
LINE
8
BLACK
6
CONTINUOUS
10
138.132
20
-97.9175
11
138.132
21
-98.3675
0
LINE
8
BLACK
6
CONTINUOUS
10
138.132
20
-98.3675
11
138.115
21
-98.4536
0
LINE
8
BLACK
6
CONTINUOUS
10
138.115
20
-98.4536
11
138.067
21
-98.5266
0
LINE
8
BLACK
6
CONTINUOUS
10
138.067
20
-98.5266
11
137.994
21
-98.5754
0
LINE
8
BLACK
6
CONTINUOUS
10
137.994
20
-98.5754
11
137.907
21
-98.5925
0
LINE
8
BLACK
6
CONTINUOUS
10
137.907
20
-98.5925
11
137.157
21
-98.5925
0
LINE
8
BLACK
6
CONTINUOUS
10
137.157
20
-98.5925
11
137.071
21
-98.5754
0
LINE
8
BLACK
6
CONTINUOUS
10
137.071
20
-98.5754
11
136.998
21
-98.5266
0
LINE
8
BLACK
6
CONTINUOUS
10
136.998
20
-98.5266
11
136.95
21
-98.4536
0
LINE
8
BLACK
6
CONTINUOUS
10
136.95
20
-98.4536
11
136.933
21
-98.3675
0
LINE
8
BLACK
6
CONTINUOUS
10
136.933
20
-98.3675
11
136.933
21
-97.9175
0
LINE
8
BLACK
6
CONTINUOUS
10
136.933
20
-97.9175
11
136.95
21
-97.8314
0
LINE
8
BLACK
6
CONTINUOUS
10
136.95
20
-97.8314
11
136.998
21
-97.7584
0
LINE
8
BLACK
6
CONTINUOUS
10
136.998
20
-97.7584
11
137.071
21
-97.7096
0
LINE
8
BLACK
6
CONTINUOUS
10
137.071
20
-97.7096
11
137.157
21
-97.6925
0
LINE
8
BLACK
6
CONTINUOUS
10
137.157
20
-97.6925
11
137.907
21
-97.6925
0
LINE
8
BLACK
6
CONTINUOUS
10
137.907
20
-97.6925
11
137.994
21
-97.7096
0
LINE
8
BLACK
6
CONTINUOUS
10
118.944
20
-97.7096
11
119.017
21
-97.7584
0
LINE
8
BLACK
6
CONTINUOUS
10
119.017
20
-97.7584
11
119.065
21
-97.8314
0
LINE
8
BLACK
6
CONTINUOUS
10
119.065
20
-97.8314
11
119.082
21
-97.9175
0
LINE
8
BLACK
6
CONTINUOUS
10
119.082
20
-97.9175
11
119.082
21
-98.3675
0
LINE
8
BLACK
6
CONTINUOUS
10
119.082
20
-98.3675
11
119.065
21
-98.4536
0
LINE
8
BLACK
6
CONTINUOUS
10
119.065
20
-98.4536
11
119.017
21
-98.5266
0
LINE
8
BLACK
6
CONTINUOUS
10
119.017
20
-98.5266
11
118.944
21
-98.5754
0
LINE
8
BLACK
6
CONTINUOUS
10
118.944
20
-98.5754
11
118.858
21
-98.5925
0
LINE
8
BLACK
6
CONTINUOUS
10
118.858
20
-98.5925
11
118.108
21
-98.5925
0
LINE
8
BLACK
6
CONTINUOUS
10
118.108
20
-98.5925
11
118.021
21
-98.5754
0
LINE
8
BLACK
6
CONTINUOUS
10
118.021
20
-98.5754
11
117.948
21
-98.5266
0
LINE
8
BLACK
6
CONTINUOUS
10
117.948
20
-98.5266
11
117.9
21
-98.4536
0
LINE
8
BLACK
6
CONTINUOUS
10
117.9
20
-98.4536
11
117.882
21
-98.3675
0
LINE
8
BLACK
6
CONTINUOUS
10
117.882
20
-98.3675
11
117.882
21
-97.9175
0
LINE
8
BLACK
6
CONTINUOUS
10
117.882
20
-97.9175
11
117.9
21
-97.8314
0
LINE
8
BLACK
6
CONTINUOUS
10
117.9
20
-97.8314
11
117.948
21
-97.7584
0
LINE
8
BLACK
6
CONTINUOUS
10
117.948
20
-97.7584
11
118.021
21
-97.7096
0
LINE
8
BLACK
6
CONTINUOUS
10
118.021
20
-97.7096
11
118.108
21
-97.6925
0
LINE
8
BLACK
6
CONTINUOUS
10
118.108
20
-97.6925
11
118.858
21
-97.6925
0
LINE
8
BLACK
6
CONTINUOUS
10
118.858
20
-97.6925
11
118.944
21
-97.7096
0
LINE
8
BLACK
6
CONTINUOUS
10
99.8936
20
-97.7096
11
99.9666
21
-97.7584
0
LINE
8
BLACK
6
CONTINUOUS
10
99.9666
20
-97.7584
11
100.015
21
-97.8314
0
LINE
8
BLACK
6
CONTINUOUS
10
100.015
20
-97.8314
11
100.032
21
-97.9175
0
LINE
8
BLACK
6
CONTINUOUS
10
100.032
20
-97.9175
11
100.032
21
-98.3675
0
LINE
8
BLACK
6
CONTINUOUS
10
100.032
20
-98.3675
11
100.015
21
-98.4536
0
LINE
8
BLACK
6
CONTINUOUS
10
100.015
20
-98.4536
11
99.9666
21
-98.5266
0
LINE
8
BLACK
6
CONTINUOUS
10
99.9666
20
-98.5266
11
99.8936
21
-98.5754
0
LINE
8
BLACK
6
CONTINUOUS
10
99.8936
20
-98.5754
11
99.8075
21
-98.5925
0
LINE
8
BLACK
6
CONTINUOUS
10
99.8075
20
-98.5925
11
99.0575
21
-98.5925
0
LINE
8
BLACK
6
CONTINUOUS
10
99.0575
20
-98.5925
11
98.9714
21
-98.5754
0
LINE
8
BLACK
6
CONTINUOUS
10
98.9714
20
-98.5754
11
98.8984
21
-98.5266
0
LINE
8
BLACK
6
CONTINUOUS
10
98.8984
20
-98.5266
11
98.8496
21
-98.4536
0
LINE
8
BLACK
6
CONTINUOUS
10
98.8496
20
-98.4536
11
98.8325
21
-98.3675
0
LINE
8
BLACK
6
CONTINUOUS
10
98.8325
20
-98.3675
11
98.8325
21
-97.9175
0
LINE
8
BLACK
6
CONTINUOUS
10
98.8325
20
-97.9175
11
98.8496
21
-97.8314
0
LINE
8
BLACK
6
CONTINUOUS
10
98.8496
20
-97.8314
11
98.8984
21
-97.7584
0
LINE
8
BLACK
6
CONTINUOUS
10
98.8984
20
-97.7584
11
98.9714
21
-97.7096
0
LINE
8
BLACK
6
CONTINUOUS
10
98.9714
20
-97.7096
11
99.0575
21
-97.6925
0
LINE
8
BLACK
6
CONTINUOUS
10
99.0575
20
-97.6925
11
99.8075
21
-97.6925
0
LINE
8
BLACK
6
CONTINUOUS
10
99.8075
20
-97.6925
11
99.8936
21
-97.7096
0
LINE
8
BLACK
6
CONTINUOUS
10
80.8436
20
-97.7096
11
80.9166
21
-97.7584
0
LINE
8
BLACK
6
CONTINUOUS
10
80.9166
20
-97.7584
11
80.9654
21
-97.8314
0
LINE
8
BLACK
6
CONTINUOUS
10
80.9654
20
-97.8314
11
80.9825
21
-97.9175
0
LINE
8
BLACK
6
CONTINUOUS
10
80.9825
20
-97.9175
11
80.9825
21
-98.3675
0
LINE
8
BLACK
6
CONTINUOUS
10
80.9825
20
-98.3675
11
80.9654
21
-98.4536
0
LINE
8
BLACK
6
CONTINUOUS
10
80.9654
20
-98.4536
11
80.9166
21
-98.5266
0
LINE
8
BLACK
6
CONTINUOUS
10
80.9166
20
-98.5266
11
80.8436
21
-98.5754
0
LINE
8
BLACK
6
CONTINUOUS
10
80.8436
20
-98.5754
11
80.7575
21
-98.5925
0
LINE
8
BLACK
6
CONTINUOUS
10
80.7575
20
-98.5925
11
80.0075
21
-98.5925
0
LINE
8
BLACK
6
CONTINUOUS
10
80.0075
20
-98.5925
11
79.9214
21
-98.5754
0
LINE
8
BLACK
6
CONTINUOUS
10
79.9214
20
-98.5754
11
79.8484
21
-98.5266
0
LINE
8
BLACK
6
CONTINUOUS
10
79.8484
20
-98.5266
11
79.7996
21
-98.4536
0
LINE
8
BLACK
6
CONTINUOUS
10
79.7996
20
-98.4536
11
79.7825
21
-98.3675
0
LINE
8
BLACK
6
CONTINUOUS
10
79.7825
20
-98.3675
11
79.7825
21
-97.9175
0
LINE
8
BLACK
6
CONTINUOUS
10
79.7825
20
-97.9175
11
79.7996
21
-97.8314
0
LINE
8
BLACK
6
CONTINUOUS
10
79.7996
20
-97.8314
11
79.8484
21
-97.7584
0
LINE
8
BLACK
6
CONTINUOUS
10
79.8484
20
-97.7584
11
79.9214
21
-97.7096
0
LINE
8
BLACK
6
CONTINUOUS
10
79.9214
20
-97.7096
11
80.0075
21
-97.6925
0
LINE
8
BLACK
6
CONTINUOUS
10
80.0075
20
-97.6925
11
80.7575
21
-97.6925
0
LINE
8
BLACK
6
CONTINUOUS
10
80.7575
20
-97.6925
11
80.8436
21
-97.7096
0
LINE
8
BLACK
6
CONTINUOUS
10
61.7936
20
-97.7096
11
61.8666
21
-97.7584
0
LINE
8
BLACK
6
CONTINUOUS
10
61.8666
20
-97.7584
11
61.9154
21
-97.8314
0
LINE
8
BLACK
6
CONTINUOUS
10
61.9154
20
-97.8314
11
61.9325
21
-97.9175
0
LINE
8
BLACK
6
CONTINUOUS
10
61.9325
20
-97.9175
11
61.9325
21
-98.3675
0
LINE
8
BLACK
6
CONTINUOUS
10
61.9325
20
-98.3675
11
61.9154
21
-98.4536
0
LINE
8
BLACK
6
CONTINUOUS
10
61.9154
20
-98.4536
11
61.8666
21
-98.5266
0
LINE
8
BLACK
6
CONTINUOUS
10
61.8666
20
-98.5266
11
61.7936
21
-98.5754
0
LINE
8
BLACK
6
CONTINUOUS
10
61.7936
20
-98.5754
11
61.7075
21
-98.5925
0
LINE
8
BLACK
6
CONTINUOUS
10
61.7075
20
-98.5925
11
60.9575
21
-98.5925
0
LINE
8
BLACK
6
CONTINUOUS
10
60.9575
20
-98.5925
11
60.8714
21
-98.5754
0
LINE
8
BLACK
6
CONTINUOUS
10
60.8714
20
-98.5754
11
60.7984
21
-98.5266
0
LINE
8
BLACK
6
CONTINUOUS
10
60.7984
20
-98.5266
11
60.7496
21
-98.4536
0
LINE
8
BLACK
6
CONTINUOUS
10
60.7496
20
-98.4536
11
60.7325
21
-98.3675
0
LINE
8
BLACK
6
CONTINUOUS
10
60.7325
20
-98.3675
11
60.7325
21
-97.9175
0
LINE
8
BLACK
6
CONTINUOUS
10
60.7325
20
-97.9175
11
60.7496
21
-97.8314
0
LINE
8
BLACK
6
CONTINUOUS
10
60.7496
20
-97.8314
11
60.7984
21
-97.7584
0
LINE
8
BLACK
6
CONTINUOUS
10
60.7984
20
-97.7584
11
60.8714
21
-97.7096
0
LINE
8
BLACK
6
CONTINUOUS
10
60.8714
20
-97.7096
11
60.9575
21
-97.6925
0
LINE
8
BLACK
6
CONTINUOUS
10
60.9575
20
-97.6925
11
61.7075
21
-97.6925
0
LINE
8
BLACK
6
CONTINUOUS
10
61.7075
20
-97.6925
11
61.7936
21
-97.7096
0
LINE
8
BLACK
6
CONTINUOUS
10
33.2186
20
-97.7096
11
33.2916
21
-97.7584
0
LINE
8
BLACK
6
CONTINUOUS
10
33.2916
20
-97.7584
11
33.3404
21
-97.8314
0
LINE
8
BLACK
6
CONTINUOUS
10
33.3404
20
-97.8314
11
33.3575
21
-97.9175
0
LINE
8
BLACK
6
CONTINUOUS
10
33.3575
20
-97.9175
11
33.3575
21
-98.3675
0
LINE
8
BLACK
6
CONTINUOUS
10
33.3575
20
-98.3675
11
33.3404
21
-98.4536
0
LINE
8
BLACK
6
CONTINUOUS
10
33.3404
20
-98.4536
11
33.2916
21
-98.5266
0
LINE
8
BLACK
6
CONTINUOUS
10
33.2916
20
-98.5266
11
33.2186
21
-98.5754
0
LINE
8
BLACK
6
CONTINUOUS
10
33.2186
20
-98.5754
11
33.1325
21
-98.5925
0
LINE
8
BLACK
6
CONTINUOUS
10
33.1325
20
-98.5925
11
32.3825
21
-98.5925
0
LINE
8
BLACK
6
CONTINUOUS
10
32.3825
20
-98.5925
11
32.2964
21
-98.5754
0
LINE
8
BLACK
6
CONTINUOUS
10
32.2964
20
-98.5754
11
32.2234
21
-98.5266
0
LINE
8
BLACK
6
CONTINUOUS
10
32.2234
20
-98.5266
11
32.1746
21
-98.4536
0
LINE
8
BLACK
6
CONTINUOUS
10
32.1746
20
-98.4536
11
32.1575
21
-98.3675
0
LINE
8
BLACK
6
CONTINUOUS
10
32.1575
20
-98.3675
11
32.1575
21
-97.9175
0
LINE
8
BLACK
6
CONTINUOUS
10
32.1575
20
-97.9175
11
32.1746
21
-97.8314
0
LINE
8
BLACK
6
CONTINUOUS
10
32.1746
20
-97.8314
11
32.2234
21
-97.7584
0
LINE
8
BLACK
6
CONTINUOUS
10
32.2234
20
-97.7584
11
32.2964
21
-97.7096
0
LINE
8
BLACK
6
CONTINUOUS
10
32.2964
20
-97.7096
11
32.3825
21
-97.6925
0
LINE
8
BLACK
6
CONTINUOUS
10
32.3825
20
-97.6925
11
33.1325
21
-97.6925
0
LINE
8
BLACK
6
CONTINUOUS
10
33.1325
20
-97.6925
11
33.2186
21
-97.7096
0
LINE
8
BLACK
6
CONTINUOUS
10
242.769
20
-94.4096
11
242.842
21
-94.4584
0
LINE
8
BLACK
6
CONTINUOUS
10
242.842
20
-94.4584
11
242.89
21
-94.5314
0
LINE
8
BLACK
6
CONTINUOUS
10
242.89
20
-94.5314
11
242.907
21
-94.6175
0
LINE
8
BLACK
6
CONTINUOUS
10
242.907
20
-94.6175
11
242.907
21
-95.0675
0
LINE
8
BLACK
6
CONTINUOUS
10
242.907
20
-95.0675
11
242.89
21
-95.1536
0
LINE
8
BLACK
6
CONTINUOUS
10
242.89
20
-95.1536
11
242.842
21
-95.2266
0
LINE
8
BLACK
6
CONTINUOUS
10
242.842
20
-95.2266
11
242.769
21
-95.2754
0
LINE
8
BLACK
6
CONTINUOUS
10
242.769
20
-95.2754
11
242.682
21
-95.2925
0
LINE
8
BLACK
6
CONTINUOUS
10
242.682
20
-95.2925
11
241.932
21
-95.2925
0
LINE
8
BLACK
6
CONTINUOUS
10
241.932
20
-95.2925
11
241.846
21
-95.2754
0
LINE
8
BLACK
6
CONTINUOUS
10
241.846
20
-95.2754
11
241.773
21
-95.2266
0
LINE
8
BLACK
6
CONTINUOUS
10
241.773
20
-95.2266
11
241.725
21
-95.1536
0
LINE
8
BLACK
6
CONTINUOUS
10
241.725
20
-95.1536
11
241.707
21
-95.0675
0
LINE
8
BLACK
6
CONTINUOUS
10
241.707
20
-95.0675
11
241.707
21
-94.6175
0
LINE
8
BLACK
6
CONTINUOUS
10
241.707
20
-94.6175
11
241.725
21
-94.5314
0
LINE
8
BLACK
6
CONTINUOUS
10
241.725
20
-94.5314
11
241.773
21
-94.4584
0
LINE
8
BLACK
6
CONTINUOUS
10
241.773
20
-94.4584
11
241.846
21
-94.4096
0
LINE
8
BLACK
6
CONTINUOUS
10
241.846
20
-94.4096
11
241.932
21
-94.3925
0
LINE
8
BLACK
6
CONTINUOUS
10
241.932
20
-94.3925
11
242.682
21
-94.3925
0
LINE
8
BLACK
6
CONTINUOUS
10
242.682
20
-94.3925
11
242.769
21
-94.4096
0
LINE
8
BLACK
6
CONTINUOUS
10
223.719
20
-94.4096
11
223.792
21
-94.4584
0
LINE
8
BLACK
6
CONTINUOUS
10
223.792
20
-94.4584
11
223.84
21
-94.5314
0
LINE
8
BLACK
6
CONTINUOUS
10
223.84
20
-94.5314
11
223.857
21
-94.6175
0
LINE
8
BLACK
6
CONTINUOUS
10
223.857
20
-94.6175
11
223.857
21
-95.0675
0
LINE
8
BLACK
6
CONTINUOUS
10
223.857
20
-95.0675
11
223.84
21
-95.1536
0
LINE
8
BLACK
6
CONTINUOUS
10
223.84
20
-95.1536
11
223.792
21
-95.2266
0
LINE
8
BLACK
6
CONTINUOUS
10
223.792
20
-95.2266
11
223.719
21
-95.2754
0
LINE
8
BLACK
6
CONTINUOUS
10
223.719
20
-95.2754
11
223.632
21
-95.2925
0
LINE
8
BLACK
6
CONTINUOUS
10
223.632
20
-95.2925
11
222.882
21
-95.2925
0
LINE
8
BLACK
6
CONTINUOUS
10
222.882
20
-95.2925
11
222.796
21
-95.2754
0
LINE
8
BLACK
6
CONTINUOUS
10
222.796
20
-95.2754
11
222.723
21
-95.2266
0
LINE
8
BLACK
6
CONTINUOUS
10
222.723
20
-95.2266
11
222.675
21
-95.1536
0
LINE
8
BLACK
6
CONTINUOUS
10
222.675
20
-95.1536
11
222.657
21
-95.0675
0
LINE
8
BLACK
6
CONTINUOUS
10
222.657
20
-95.0675
11
222.657
21
-94.6175
0
LINE
8
BLACK
6
CONTINUOUS
10
222.657
20
-94.6175
11
222.675
21
-94.5314
0
LINE
8
BLACK
6
CONTINUOUS
10
222.675
20
-94.5314
11
222.723
21
-94.4584
0
LINE
8
BLACK
6
CONTINUOUS
10
222.723
20
-94.4584
11
222.796
21
-94.4096
0
LINE
8
BLACK
6
CONTINUOUS
10
222.796
20
-94.4096
11
222.882
21
-94.3925
0
LINE
8
BLACK
6
CONTINUOUS
10
222.882
20
-94.3925
11
223.632
21
-94.3925
0
LINE
8
BLACK
6
CONTINUOUS
10
223.632
20
-94.3925
11
223.719
21
-94.4096
0
LINE
8
BLACK
6
CONTINUOUS
10
204.669
20
-94.4096
11
204.742
21
-94.4584
0
LINE
8
BLACK
6
CONTINUOUS
10
204.742
20
-94.4584
11
204.79
21
-94.5314
0
LINE
8
BLACK
6
CONTINUOUS
10
204.79
20
-94.5314
11
204.808
21
-94.6175
0
LINE
8
BLACK
6
CONTINUOUS
10
204.808
20
-94.6175
11
204.808
21
-95.0675
0
LINE
8
BLACK
6
CONTINUOUS
10
204.808
20
-95.0675
11
204.79
21
-95.1536
0
LINE
8
BLACK
6
CONTINUOUS
10
204.79
20
-95.1536
11
204.742
21
-95.2266
0
LINE
8
BLACK
6
CONTINUOUS
10
204.742
20
-95.2266
11
204.669
21
-95.2754
0
LINE
8
BLACK
6
CONTINUOUS
10
204.669
20
-95.2754
11
204.582
21
-95.2925
0
LINE
8
BLACK
6
CONTINUOUS
10
204.582
20
-95.2925
11
203.832
21
-95.2925
0
LINE
8
BLACK
6
CONTINUOUS
10
203.832
20
-95.2925
11
203.746
21
-95.2754
0
LINE
8
BLACK
6
CONTINUOUS
10
203.746
20
-95.2754
11
203.673
21
-95.2266
0
LINE
8
BLACK
6
CONTINUOUS
10
203.673
20
-95.2266
11
203.625
21
-95.1536
0
LINE
8
BLACK
6
CONTINUOUS
10
203.625
20
-95.1536
11
203.607
21
-95.0675
0
LINE
8
BLACK
6
CONTINUOUS
10
203.607
20
-95.0675
11
203.607
21
-94.6175
0
LINE
8
BLACK
6
CONTINUOUS
10
203.607
20
-94.6175
11
203.625
21
-94.5314
0
LINE
8
BLACK
6
CONTINUOUS
10
203.625
20
-94.5314
11
203.673
21
-94.4584
0
LINE
8
BLACK
6
CONTINUOUS
10
203.673
20
-94.4584
11
203.746
21
-94.4096
0
LINE
8
BLACK
6
CONTINUOUS
10
203.746
20
-94.4096
11
203.832
21
-94.3925
0
LINE
8
BLACK
6
CONTINUOUS
10
203.832
20
-94.3925
11
204.582
21
-94.3925
0
LINE
8
BLACK
6
CONTINUOUS
10
204.582
20
-94.3925
11
204.669
21
-94.4096
0
LINE
8
BLACK
6
CONTINUOUS
10
185.619
20
-94.4096
11
185.692
21
-94.4584
0
LINE
8
BLACK
6
CONTINUOUS
10
185.692
20
-94.4584
11
185.74
21
-94.5314
0
LINE
8
BLACK
6
CONTINUOUS
10
185.74
20
-94.5314
11
185.757
21
-94.6175
0
LINE
8
BLACK
6
CONTINUOUS
10
185.757
20
-94.6175
11
185.757
21
-95.0675
0
LINE
8
BLACK
6
CONTINUOUS
10
185.757
20
-95.0675
11
185.74
21
-95.1536
0
LINE
8
BLACK
6
CONTINUOUS
10
185.74
20
-95.1536
11
185.692
21
-95.2266
0
LINE
8
BLACK
6
CONTINUOUS
10
185.692
20
-95.2266
11
185.619
21
-95.2754
0
LINE
8
BLACK
6
CONTINUOUS
10
185.619
20
-95.2754
11
185.532
21
-95.2925
0
LINE
8
BLACK
6
CONTINUOUS
10
185.532
20
-95.2925
11
184.782
21
-95.2925
0
LINE
8
BLACK
6
CONTINUOUS
10
184.782
20
-95.2925
11
184.696
21
-95.2754
0
LINE
8
BLACK
6
CONTINUOUS
10
184.696
20
-95.2754
11
184.623
21
-95.2266
0
LINE
8
BLACK
6
CONTINUOUS
10
184.623
20
-95.2266
11
184.575
21
-95.1536
0
LINE
8
BLACK
6
CONTINUOUS
10
184.575
20
-95.1536
11
184.558
21
-95.0675
0
LINE
8
BLACK
6
CONTINUOUS
10
184.558
20
-95.0675
11
184.558
21
-94.6175
0
LINE
8
BLACK
6
CONTINUOUS
10
184.558
20
-94.6175
11
184.575
21
-94.5314
0
LINE
8
BLACK
6
CONTINUOUS
10
184.575
20
-94.5314
11
184.623
21
-94.4584
0
LINE
8
BLACK
6
CONTINUOUS
10
184.623
20
-94.4584
11
184.696
21
-94.4096
0
LINE
8
BLACK
6
CONTINUOUS
10
184.696
20
-94.4096
11
184.782
21
-94.3925
0
LINE
8
BLACK
6
CONTINUOUS
10
184.782
20
-94.3925
11
185.532
21
-94.3925
0
LINE
8
BLACK
6
CONTINUOUS
10
185.532
20
-94.3925
11
185.619
21
-94.4096
0
LINE
8
BLACK
6
CONTINUOUS
10
157.044
20
-94.4096
11
157.117
21
-94.4584
0
LINE
8
BLACK
6
CONTINUOUS
10
157.117
20
-94.4584
11
157.165
21
-94.5314
0
LINE
8
BLACK
6
CONTINUOUS
10
157.165
20
-94.5314
11
157.183
21
-94.6175
0
LINE
8
BLACK
6
CONTINUOUS
10
157.183
20
-94.6175
11
157.183
21
-95.0675
0
LINE
8
BLACK
6
CONTINUOUS
10
157.183
20
-95.0675
11
157.165
21
-95.1536
0
LINE
8
BLACK
6
CONTINUOUS
10
157.165
20
-95.1536
11
157.117
21
-95.2266
0
LINE
8
BLACK
6
CONTINUOUS
10
157.117
20
-95.2266
11
157.044
21
-95.2754
0
LINE
8
BLACK
6
CONTINUOUS
10
157.044
20
-95.2754
11
156.957
21
-95.2925
0
LINE
8
BLACK
6
CONTINUOUS
10
156.957
20
-95.2925
11
156.207
21
-95.2925
0
LINE
8
BLACK
6
CONTINUOUS
10
156.207
20
-95.2925
11
156.121
21
-95.2754
0
LINE
8
BLACK
6
CONTINUOUS
10
156.121
20
-95.2754
11
156.048
21
-95.2266
0
LINE
8
BLACK
6
CONTINUOUS
10
156.048
20
-95.2266
11
156
21
-95.1536
0
LINE
8
BLACK
6
CONTINUOUS
10
156
20
-95.1536
11
155.982
21
-95.0675
0
LINE
8
BLACK
6
CONTINUOUS
10
155.982
20
-95.0675
11
155.982
21
-94.6175
0
LINE
8
BLACK
6
CONTINUOUS
10
155.982
20
-94.6175
11
156
21
-94.5314
0
LINE
8
BLACK
6
CONTINUOUS
10
156
20
-94.5314
11
156.048
21
-94.4584
0
LINE
8
BLACK
6
CONTINUOUS
10
156.048
20
-94.4584
11
156.121
21
-94.4096
0
LINE
8
BLACK
6
CONTINUOUS
10
156.121
20
-94.4096
11
156.207
21
-94.3925
0
LINE
8
BLACK
6
CONTINUOUS
10
156.207
20
-94.3925
11
156.957
21
-94.3925
0
LINE
8
BLACK
6
CONTINUOUS
10
156.957
20
-94.3925
11
157.044
21
-94.4096
0
LINE
8
BLACK
6
CONTINUOUS
10
137.994
20
-94.4096
11
138.067
21
-94.4584
0
LINE
8
BLACK
6
CONTINUOUS
10
138.067
20
-94.4584
11
138.115
21
-94.5314
0
LINE
8
BLACK
6
CONTINUOUS
10
138.115
20
-94.5314
11
138.132
21
-94.6175
0
LINE
8
BLACK
6
CONTINUOUS
10
138.132
20
-94.6175
11
138.132
21
-95.0675
0
LINE
8
BLACK
6
CONTINUOUS
10
138.132
20
-95.0675
11
138.115
21
-95.1536
0
LINE
8
BLACK
6
CONTINUOUS
10
138.115
20
-95.1536
11
138.067
21
-95.2266
0
LINE
8
BLACK
6
CONTINUOUS
10
138.067
20
-95.2266
11
137.994
21
-95.2754
0
LINE
8
BLACK
6
CONTINUOUS
10
137.994
20
-95.2754
11
137.907
21
-95.2925
0
LINE
8
BLACK
6
CONTINUOUS
10
137.907
20
-95.2925
11
137.157
21
-95.2925
0
LINE
8
BLACK
6
CONTINUOUS
10
137.157
20
-95.2925
11
137.071
21
-95.2754
0
LINE
8
BLACK
6
CONTINUOUS
10
137.071
20
-95.2754
11
136.998
21
-95.2266
0
LINE
8
BLACK
6
CONTINUOUS
10
136.998
20
-95.2266
11
136.95
21
-95.1536
0
LINE
8
BLACK
6
CONTINUOUS
10
136.95
20
-95.1536
11
136.933
21
-95.0675
0
LINE
8
BLACK
6
CONTINUOUS
10
136.933
20
-95.0675
11
136.933
21
-94.6175
0
LINE
8
BLACK
6
CONTINUOUS
10
136.933
20
-94.6175
11
136.95
21
-94.5314
0
LINE
8
BLACK
6
CONTINUOUS
10
136.95
20
-94.5314
11
136.998
21
-94.4584
0
LINE
8
BLACK
6
CONTINUOUS
10
136.998
20
-94.4584
11
137.071
21
-94.4096
0
LINE
8
BLACK
6
CONTINUOUS
10
137.071
20
-94.4096
11
137.157
21
-94.3925
0
LINE
8
BLACK
6
CONTINUOUS
10
137.157
20
-94.3925
11
137.907
21
-94.3925
0
LINE
8
BLACK
6
CONTINUOUS
10
137.907
20
-94.3925
11
137.994
21
-94.4096
0
LINE
8
BLACK
6
CONTINUOUS
10
118.944
20
-94.4096
11
119.017
21
-94.4584
0
LINE
8
BLACK
6
CONTINUOUS
10
119.017
20
-94.4584
11
119.065
21
-94.5314
0
LINE
8
BLACK
6
CONTINUOUS
10
119.065
20
-94.5314
11
119.082
21
-94.6175
0
LINE
8
BLACK
6
CONTINUOUS
10
119.082
20
-94.6175
11
119.082
21
-95.0675
0
LINE
8
BLACK
6
CONTINUOUS
10
119.082
20
-95.0675
11
119.065
21
-95.1536
0
LINE
8
BLACK
6
CONTINUOUS
10
119.065
20
-95.1536
11
119.017
21
-95.2266
0
LINE
8
BLACK
6
CONTINUOUS
10
119.017
20
-95.2266
11
118.944
21
-95.2754
0
LINE
8
BLACK
6
CONTINUOUS
10
118.944
20
-95.2754
11
118.858
21
-95.2925
0
LINE
8
BLACK
6
CONTINUOUS
10
118.858
20
-95.2925
11
118.108
21
-95.2925
0
LINE
8
BLACK
6
CONTINUOUS
10
118.108
20
-95.2925
11
118.021
21
-95.2754
0
LINE
8
BLACK
6
CONTINUOUS
10
118.021
20
-95.2754
11
117.948
21
-95.2266
0
LINE
8
BLACK
6
CONTINUOUS
10
117.948
20
-95.2266
11
117.9
21
-95.1536
0
LINE
8
BLACK
6
CONTINUOUS
10
117.9
20
-95.1536
11
117.882
21
-95.0675
0
LINE
8
BLACK
6
CONTINUOUS
10
117.882
20
-95.0675
11
117.882
21
-94.6175
0
LINE
8
BLACK
6
CONTINUOUS
10
117.882
20
-94.6175
11
117.9
21
-94.5314
0
LINE
8
BLACK
6
CONTINUOUS
10
117.9
20
-94.5314
11
117.948
21
-94.4584
0
LINE
8
BLACK
6
CONTINUOUS
10
117.948
20
-94.4584
11
118.021
21
-94.4096
0
LINE
8
BLACK
6
CONTINUOUS
10
118.021
20
-94.4096
11
118.108
21
-94.3925
0
LINE
8
BLACK
6
CONTINUOUS
10
118.108
20
-94.3925
11
118.858
21
-94.3925
0
LINE
8
BLACK
6
CONTINUOUS
10
118.858
20
-94.3925
11
118.944
21
-94.4096
0
LINE
8
BLACK
6
CONTINUOUS
10
99.8936
20
-94.4096
11
99.9666
21
-94.4584
0
LINE
8
BLACK
6
CONTINUOUS
10
99.9666
20
-94.4584
11
100.015
21
-94.5314
0
LINE
8
BLACK
6
CONTINUOUS
10
100.015
20
-94.5314
11
100.032
21
-94.6175
0
LINE
8
BLACK
6
CONTINUOUS
10
100.032
20
-94.6175
11
100.032
21
-95.0675
0
LINE
8
BLACK
6
CONTINUOUS
10
100.032
20
-95.0675
11
100.015
21
-95.1536
0
LINE
8
BLACK
6
CONTINUOUS
10
100.015
20
-95.1536
11
99.9666
21
-95.2266
0
LINE
8
BLACK
6
CONTINUOUS
10
99.9666
20
-95.2266
11
99.8936
21
-95.2754
0
LINE
8
BLACK
6
CONTINUOUS
10
99.8936
20
-95.2754
11
99.8075
21
-95.2925
0
LINE
8
BLACK
6
CONTINUOUS
10
99.8075
20
-95.2925
11
99.0575
21
-95.2925
0
LINE
8
BLACK
6
CONTINUOUS
10
99.0575
20
-95.2925
11
98.9714
21
-95.2754
0
LINE
8
BLACK
6
CONTINUOUS
10
98.9714
20
-95.2754
11
98.8984
21
-95.2266
0
LINE
8
BLACK
6
CONTINUOUS
10
98.8984
20
-95.2266
11
98.8496
21
-95.1536
0
LINE
8
BLACK
6
CONTINUOUS
10
98.8496
20
-95.1536
11
98.8325
21
-95.0675
0
LINE
8
BLACK
6
CONTINUOUS
10
98.8325
20
-95.0675
11
98.8325
21
-94.6175
0
LINE
8
BLACK
6
CONTINUOUS
10
98.8325
20
-94.6175
11
98.8496
21
-94.5314
0
LINE
8
BLACK
6
CONTINUOUS
10
98.8496
20
-94.5314
11
98.8984
21
-94.4584
0
LINE
8
BLACK
6
CONTINUOUS
10
98.8984
20
-94.4584
11
98.9714
21
-94.4096
0
LINE
8
BLACK
6
CONTINUOUS
10
98.9714
20
-94.4096
11
99.0575
21
-94.3925
0
LINE
8
BLACK
6
CONTINUOUS
10
99.0575
20
-94.3925
11
99.8075
21
-94.3925
0
LINE
8
BLACK
6
CONTINUOUS
10
99.8075
20
-94.3925
11
99.8936
21
-94.4096
0
LINE
8
BLACK
6
CONTINUOUS
10
80.8436
20
-94.4096
11
80.9166
21
-94.4584
0
LINE
8
BLACK
6
CONTINUOUS
10
80.9166
20
-94.4584
11
80.9654
21
-94.5314
0
LINE
8
BLACK
6
CONTINUOUS
10
80.9654
20
-94.5314
11
80.9825
21
-94.6175
0
LINE
8
BLACK
6
CONTINUOUS
10
80.9825
20
-94.6175
11
80.9825
21
-95.0675
0
LINE
8
BLACK
6
CONTINUOUS
10
80.9825
20
-95.0675
11
80.9654
21
-95.1536
0
LINE
8
BLACK
6
CONTINUOUS
10
80.9654
20
-95.1536
11
80.9166
21
-95.2266
0
LINE
8
BLACK
6
CONTINUOUS
10
80.9166
20
-95.2266
11
80.8436
21
-95.2754
0
LINE
8
BLACK
6
CONTINUOUS
10
80.8436
20
-95.2754
11
80.7575
21
-95.2925
0
LINE
8
BLACK
6
CONTINUOUS
10
80.7575
20
-95.2925
11
80.0075
21
-95.2925
0
LINE
8
BLACK
6
CONTINUOUS
10
80.0075
20
-95.2925
11
79.9214
21
-95.2754
0
LINE
8
BLACK
6
CONTINUOUS
10
79.9214
20
-95.2754
11
79.8484
21
-95.2266
0
LINE
8
BLACK
6
CONTINUOUS
10
79.8484
20
-95.2266
11
79.7996
21
-95.1536
0
LINE
8
BLACK
6
CONTINUOUS
10
79.7996
20
-95.1536
11
79.7825
21
-95.0675
0
LINE
8
BLACK
6
CONTINUOUS
10
79.7825
20
-95.0675
11
79.7825
21
-94.6175
0
LINE
8
BLACK
6
CONTINUOUS
10
79.7825
20
-94.6175
11
79.7996
21
-94.5314
0
LINE
8
BLACK
6
CONTINUOUS
10
79.7996
20
-94.5314
11
79.8484
21
-94.4584
0
LINE
8
BLACK
6
CONTINUOUS
10
79.8484
20
-94.4584
11
79.9214
21
-94.4096
0
LINE
8
BLACK
6
CONTINUOUS
10
79.9214
20
-94.4096
11
80.0075
21
-94.3925
0
LINE
8
BLACK
6
CONTINUOUS
10
80.0075
20
-94.3925
11
80.7575
21
-94.3925
0
LINE
8
BLACK
6
CONTINUOUS
10
80.7575
20
-94.3925
11
80.8436
21
-94.4096
0
LINE
8
BLACK
6
CONTINUOUS
10
61.7936
20
-94.4096
11
61.8666
21
-94.4584
0
LINE
8
BLACK
6
CONTINUOUS
10
61.8666
20
-94.4584
11
61.9154
21
-94.5314
0
LINE
8
BLACK
6
CONTINUOUS
10
61.9154
20
-94.5314
11
61.9325
21
-94.6175
0
LINE
8
BLACK
6
CONTINUOUS
10
61.9325
20
-94.6175
11
61.9325
21
-95.0675
0
LINE
8
BLACK
6
CONTINUOUS
10
61.9325
20
-95.0675
11
61.9154
21
-95.1536
0
LINE
8
BLACK
6
CONTINUOUS
10
61.9154
20
-95.1536
11
61.8666
21
-95.2266
0
LINE
8
BLACK
6
CONTINUOUS
10
61.8666
20
-95.2266
11
61.7936
21
-95.2754
0
LINE
8
BLACK
6
CONTINUOUS
10
61.7936
20
-95.2754
11
61.7075
21
-95.2925
0
LINE
8
BLACK
6
CONTINUOUS
10
61.7075
20
-95.2925
11
60.9575
21
-95.2925
0
LINE
8
BLACK
6
CONTINUOUS
10
60.9575
20
-95.2925
11
60.8714
21
-95.2754
0
LINE
8
BLACK
6
CONTINUOUS
10
60.8714
20
-95.2754
11
60.7984
21
-95.2266
0
LINE
8
BLACK
6
CONTINUOUS
10
60.7984
20
-95.2266
11
60.7496
21
-95.1536
0
LINE
8
BLACK
6
CONTINUOUS
10
60.7496
20
-95.1536
11
60.7325
21
-95.0675
0
LINE
8
BLACK
6
CONTINUOUS
10
60.7325
20
-95.0675
11
60.7325
21
-94.6175
0
LINE
8
BLACK
6
CONTINUOUS
10
60.7325
20
-94.6175
11
60.7496
21
-94.5314
0
LINE
8
BLACK
6
CONTINUOUS
10
60.7496
20
-94.5314
11
60.7984
21
-94.4584
0
LINE
8
BLACK
6
CONTINUOUS
10
60.7984
20
-94.4584
11
60.8714
21
-94.4096
0
LINE
8
BLACK
6
CONTINUOUS
10
60.8714
20
-94.4096
11
60.9575
21
-94.3925
0
LINE
8
BLACK
6
CONTINUOUS
10
60.9575
20
-94.3925
11
61.7075
21
-94.3925
0
LINE
8
BLACK
6
CONTINUOUS
10
61.7075
20
-94.3925
11
61.7936
21
-94.4096
0
LINE
8
BLACK
6
CONTINUOUS
10
33.2186
20
-94.4096
11
33.2916
21
-94.4584
0
LINE
8
BLACK
6
CONTINUOUS
10
33.2916
20
-94.4584
11
33.3404
21
-94.5314
0
LINE
8
BLACK
6
CONTINUOUS
10
33.3404
20
-94.5314
11
33.3575
21
-94.6175
0
LINE
8
BLACK
6
CONTINUOUS
10
33.3575
20
-94.6175
11
33.3575
21
-95.0675
0
LINE
8
BLACK
6
CONTINUOUS
10
33.3575
20
-95.0675
11
33.3404
21
-95.1536
0
LINE
8
BLACK
6
CONTINUOUS
10
33.3404
20
-95.1536
11
33.2916
21
-95.2266
0
LINE
8
BLACK
6
CONTINUOUS
10
33.2916
20
-95.2266
11
33.2186
21
-95.2754
0
LINE
8
BLACK
6
CONTINUOUS
10
33.2186
20
-95.2754
11
33.1325
21
-95.2925
0
LINE
8
BLACK
6
CONTINUOUS
10
33.1325
20
-95.2925
11
32.3825
21
-95.2925
0
LINE
8
BLACK
6
CONTINUOUS
10
32.3825
20
-95.2925
11
32.2964
21
-95.2754
0
LINE
8
BLACK
6
CONTINUOUS
10
32.2964
20
-95.2754
11
32.2234
21
-95.2266
0
LINE
8
BLACK
6
CONTINUOUS
10
32.2234
20
-95.2266
11
32.1746
21
-95.1536
0
LINE
8
BLACK
6
CONTINUOUS
10
32.1746
20
-95.1536
11
32.1575
21
-95.0675
0
LINE
8
BLACK
6
CONTINUOUS
10
32.1575
20
-95.0675
11
32.1575
21
-94.6175
0
LINE
8
BLACK
6
CONTINUOUS
10
32.1575
20
-94.6175
11
32.1746
21
-94.5314
0
LINE
8
BLACK
6
CONTINUOUS
10
32.1746
20
-94.5314
11
32.2234
21
-94.4584
0
LINE
8
BLACK
6
CONTINUOUS
10
32.2234
20
-94.4584
11
32.2964
21
-94.4096
0
LINE
8
BLACK
6
CONTINUOUS
10
32.2964
20
-94.4096
11
32.3825
21
-94.3925
0
LINE
8
BLACK
6
CONTINUOUS
10
32.3825
20
-94.3925
11
33.1325
21
-94.3925
0
LINE
8
BLACK
6
CONTINUOUS
10
33.1325
20
-94.3925
11
33.2186
21
-94.4096
0
LINE
8
BLACK
6
CONTINUOUS
10
242.552
20
-90.385
11
240.002
21
-90.385
0
LINE
8
BLACK
6
CONTINUOUS
10
240.002
20
-90.385
11
240.002
21
-87.885
0
LINE
8
BLACK
6
CONTINUOUS
10
240.002
20
-87.885
11
242.552
21
-87.885
0
LINE
8
BLACK
6
CONTINUOUS
10
242.552
20
-87.885
11
242.552
21
-90.385
0
LINE
8
BLACK
6
CONTINUOUS
10
223.502
20
-90.385
11
220.952
21
-90.385
0
LINE
8
BLACK
6
CONTINUOUS
10
220.952
20
-90.385
11
220.952
21
-87.885
0
LINE
8
BLACK
6
CONTINUOUS
10
220.952
20
-87.885
11
223.502
21
-87.885
0
LINE
8
BLACK
6
CONTINUOUS
10
223.502
20
-87.885
11
223.502
21
-90.385
0
LINE
8
BLACK
6
CONTINUOUS
10
204.452
20
-90.385
11
201.903
21
-90.385
0
LINE
8
BLACK
6
CONTINUOUS
10
201.903
20
-90.385
11
201.903
21
-87.885
0
LINE
8
BLACK
6
CONTINUOUS
10
201.903
20
-87.885
11
204.452
21
-87.885
0
LINE
8
BLACK
6
CONTINUOUS
10
204.452
20
-87.885
11
204.452
21
-90.385
0
LINE
8
BLACK
6
CONTINUOUS
10
185.403
20
-90.385
11
182.852
21
-90.385
0
LINE
8
BLACK
6
CONTINUOUS
10
182.852
20
-90.385
11
182.852
21
-87.885
0
LINE
8
BLACK
6
CONTINUOUS
10
182.852
20
-87.885
11
185.403
21
-87.885
0
LINE
8
BLACK
6
CONTINUOUS
10
185.403
20
-87.885
11
185.403
21
-90.385
0
LINE
8
BLACK
6
CONTINUOUS
10
156.827
20
-90.385
11
154.278
21
-90.385
0
LINE
8
BLACK
6
CONTINUOUS
10
154.278
20
-90.385
11
154.278
21
-87.885
0
LINE
8
BLACK
6
CONTINUOUS
10
154.278
20
-87.885
11
156.827
21
-87.885
0
LINE
8
BLACK
6
CONTINUOUS
10
156.827
20
-87.885
11
156.827
21
-90.385
0
LINE
8
BLACK
6
CONTINUOUS
10
137.778
20
-90.385
11
135.227
21
-90.385
0
LINE
8
BLACK
6
CONTINUOUS
10
135.227
20
-90.385
11
135.227
21
-87.885
0
LINE
8
BLACK
6
CONTINUOUS
10
135.227
20
-87.885
11
137.778
21
-87.885
0
LINE
8
BLACK
6
CONTINUOUS
10
137.778
20
-87.885
11
137.778
21
-90.385
0
LINE
8
BLACK
6
CONTINUOUS
10
118.727
20
-90.385
11
116.177
21
-90.385
0
LINE
8
BLACK
6
CONTINUOUS
10
116.177
20
-90.385
11
116.177
21
-87.885
0
LINE
8
BLACK
6
CONTINUOUS
10
116.177
20
-87.885
11
118.727
21
-87.885
0
LINE
8
BLACK
6
CONTINUOUS
10
118.727
20
-87.885
11
118.727
21
-90.385
0
LINE
8
BLACK
6
CONTINUOUS
10
99.6775
20
-90.385
11
97.1275
21
-90.385
0
LINE
8
BLACK
6
CONTINUOUS
10
97.1275
20
-90.385
11
97.1275
21
-87.885
0
LINE
8
BLACK
6
CONTINUOUS
10
97.1275
20
-87.885
11
99.6775
21
-87.885
0
LINE
8
BLACK
6
CONTINUOUS
10
99.6775
20
-87.885
11
99.6775
21
-90.385
0
LINE
8
BLACK
6
CONTINUOUS
10
80.6275
20
-90.385
11
78.0775
21
-90.385
0
LINE
8
BLACK
6
CONTINUOUS
10
78.0775
20
-90.385
11
78.0775
21
-87.885
0
LINE
8
BLACK
6
CONTINUOUS
10
78.0775
20
-87.885
11
80.6275
21
-87.885
0
LINE
8
BLACK
6
CONTINUOUS
10
80.6275
20
-87.885
11
80.6275
21
-90.385
0
LINE
8
BLACK
6
CONTINUOUS
10
61.5775
20
-90.385
11
59.0275
21
-90.385
0
LINE
8
BLACK
6
CONTINUOUS
10
59.0275
20
-90.385
11
59.0275
21
-87.885
0
LINE
8
BLACK
6
CONTINUOUS
10
59.0275
20
-87.885
11
61.5775
21
-87.885
0
LINE
8
BLACK
6
CONTINUOUS
10
61.5775
20
-87.885
11
61.5775
21
-90.385
0
LINE
8
BLACK
6
CONTINUOUS
10
33.0025
20
-90.385
11
30.4525
21
-90.385
0
LINE
8
BLACK
6
CONTINUOUS
10
30.4525
20
-90.385
11
30.4525
21
-87.885
0
LINE
8
BLACK
6
CONTINUOUS
10
30.4525
20
-87.885
11
33.0025
21
-87.885
0
LINE
8
BLACK
6
CONTINUOUS
10
33.0025
20
-87.885
11
33.0025
21
-90.385
0
LINE
8
BLACK
6
CONTINUOUS
10
256.402
20
-87.845
11
253.852
21
-87.845
0
LINE
8
BLACK
6
CONTINUOUS
10
253.852
20
-87.845
11
253.852
21
-85.345
0
LINE
8
BLACK
6
CONTINUOUS
10
253.852
20
-85.345
11
256.402
21
-85.345
0
LINE
8
BLACK
6
CONTINUOUS
10
256.402
20
-85.345
11
256.402
21
-87.845
0
LINE
8
BLACK
6
CONTINUOUS
10
237.352
20
-87.845
11
234.802
21
-87.845
0
LINE
8
BLACK
6
CONTINUOUS
10
234.802
20
-87.845
11
234.802
21
-85.345
0
LINE
8
BLACK
6
CONTINUOUS
10
234.802
20
-85.345
11
237.352
21
-85.345
0
LINE
8
BLACK
6
CONTINUOUS
10
237.352
20
-85.345
11
237.352
21
-87.845
0
LINE
8
BLACK
6
CONTINUOUS
10
218.302
20
-87.845
11
215.752
21
-87.845
0
LINE
8
BLACK
6
CONTINUOUS
10
215.752
20
-87.845
11
215.752
21
-85.345
0
LINE
8
BLACK
6
CONTINUOUS
10
215.752
20
-85.345
11
218.302
21
-85.345
0
LINE
8
BLACK
6
CONTINUOUS
10
218.302
20
-85.345
11
218.302
21
-87.845
0
LINE
8
BLACK
6
CONTINUOUS
10
199.252
20
-87.845
11
196.702
21
-87.845
0
LINE
8
BLACK
6
CONTINUOUS
10
196.702
20
-87.845
11
196.702
21
-85.345
0
LINE
8
BLACK
6
CONTINUOUS
10
196.702
20
-85.345
11
199.252
21
-85.345
0
LINE
8
BLACK
6
CONTINUOUS
10
199.252
20
-85.345
11
199.252
21
-87.845
0
LINE
8
BLACK
6
CONTINUOUS
10
170.677
20
-87.845
11
168.127
21
-87.845
0
LINE
8
BLACK
6
CONTINUOUS
10
168.127
20
-87.845
11
168.127
21
-85.345
0
LINE
8
BLACK
6
CONTINUOUS
10
168.127
20
-85.345
11
170.677
21
-85.345
0
LINE
8
BLACK
6
CONTINUOUS
10
170.677
20
-85.345
11
170.677
21
-87.845
0
LINE
8
BLACK
6
CONTINUOUS
10
151.627
20
-87.845
11
149.077
21
-87.845
0
LINE
8
BLACK
6
CONTINUOUS
10
149.077
20
-87.845
11
149.077
21
-85.345
0
LINE
8
BLACK
6
CONTINUOUS
10
149.077
20
-85.345
11
151.627
21
-85.345
0
LINE
8
BLACK
6
CONTINUOUS
10
151.627
20
-85.345
11
151.627
21
-87.845
0
LINE
8
BLACK
6
CONTINUOUS
10
132.577
20
-87.845
11
130.028
21
-87.845
0
LINE
8
BLACK
6
CONTINUOUS
10
130.028
20
-87.845
11
130.028
21
-85.345
0
LINE
8
BLACK
6
CONTINUOUS
10
130.028
20
-85.345
11
132.577
21
-85.345
0
LINE
8
BLACK
6
CONTINUOUS
10
132.577
20
-85.345
11
132.577
21
-87.845
0
LINE
8
BLACK
6
CONTINUOUS
10
113.527
20
-87.845
11
110.977
21
-87.845
0
LINE
8
BLACK
6
CONTINUOUS
10
110.977
20
-87.845
11
110.977
21
-85.345
0
LINE
8
BLACK
6
CONTINUOUS
10
110.977
20
-85.345
11
113.527
21
-85.345
0
LINE
8
BLACK
6
CONTINUOUS
10
113.527
20
-85.345
11
113.527
21
-87.845
0
LINE
8
BLACK
6
CONTINUOUS
10
94.4775
20
-87.845
11
91.9275
21
-87.845
0
LINE
8
BLACK
6
CONTINUOUS
10
91.9275
20
-87.845
11
91.9275
21
-85.345
0
LINE
8
BLACK
6
CONTINUOUS
10
91.9275
20
-85.345
11
94.4775
21
-85.345
0
LINE
8
BLACK
6
CONTINUOUS
10
94.4775
20
-85.345
11
94.4775
21
-87.845
0
LINE
8
BLACK
6
CONTINUOUS
10
75.4275
20
-87.845
11
72.8775
21
-87.845
0
LINE
8
BLACK
6
CONTINUOUS
10
72.8775
20
-87.845
11
72.8775
21
-85.345
0
LINE
8
BLACK
6
CONTINUOUS
10
72.8775
20
-85.345
11
75.4275
21
-85.345
0
LINE
8
BLACK
6
CONTINUOUS
10
75.4275
20
-85.345
11
75.4275
21
-87.845
0
LINE
8
BLACK
6
CONTINUOUS
10
46.8525
20
-87.845
11
44.3025
21
-87.845
0
LINE
8
BLACK
6
CONTINUOUS
10
44.3025
20
-87.845
11
44.3025
21
-85.345
0
LINE
8
BLACK
6
CONTINUOUS
10
44.3025
20
-85.345
11
46.8525
21
-85.345
0
LINE
8
BLACK
6
CONTINUOUS
10
46.8525
20
-85.345
11
46.8525
21
-87.845
0
LINE
8
BLACK
6
CONTINUOUS
10
242.769
20
-78.6596
11
242.842
21
-78.7084
0
LINE
8
BLACK
6
CONTINUOUS
10
242.842
20
-78.7084
11
242.89
21
-78.7814
0
LINE
8
BLACK
6
CONTINUOUS
10
242.89
20
-78.7814
11
242.907
21
-78.8675
0
LINE
8
BLACK
6
CONTINUOUS
10
242.907
20
-78.8675
11
242.907
21
-79.3175
0
LINE
8
BLACK
6
CONTINUOUS
10
242.907
20
-79.3175
11
242.89
21
-79.4036
0
LINE
8
BLACK
6
CONTINUOUS
10
242.89
20
-79.4036
11
242.842
21
-79.4766
0
LINE
8
BLACK
6
CONTINUOUS
10
242.842
20
-79.4766
11
242.769
21
-79.5254
0
LINE
8
BLACK
6
CONTINUOUS
10
242.769
20
-79.5254
11
242.682
21
-79.5425
0
LINE
8
BLACK
6
CONTINUOUS
10
242.682
20
-79.5425
11
241.932
21
-79.5425
0
LINE
8
BLACK
6
CONTINUOUS
10
241.932
20
-79.5425
11
241.846
21
-79.5254
0
LINE
8
BLACK
6
CONTINUOUS
10
241.846
20
-79.5254
11
241.773
21
-79.4766
0
LINE
8
BLACK
6
CONTINUOUS
10
241.773
20
-79.4766
11
241.725
21
-79.4036
0
LINE
8
BLACK
6
CONTINUOUS
10
241.725
20
-79.4036
11
241.707
21
-79.3175
0
LINE
8
BLACK
6
CONTINUOUS
10
241.707
20
-79.3175
11
241.707
21
-78.8675
0
LINE
8
BLACK
6
CONTINUOUS
10
241.707
20
-78.8675
11
241.725
21
-78.7814
0
LINE
8
BLACK
6
CONTINUOUS
10
241.725
20
-78.7814
11
241.773
21
-78.7084
0
LINE
8
BLACK
6
CONTINUOUS
10
241.773
20
-78.7084
11
241.846
21
-78.6596
0
LINE
8
BLACK
6
CONTINUOUS
10
241.846
20
-78.6596
11
241.932
21
-78.6425
0
LINE
8
BLACK
6
CONTINUOUS
10
241.932
20
-78.6425
11
242.682
21
-78.6425
0
LINE
8
BLACK
6
CONTINUOUS
10
242.682
20
-78.6425
11
242.769
21
-78.6596
0
LINE
8
BLACK
6
CONTINUOUS
10
223.719
20
-78.6596
11
223.792
21
-78.7084
0
LINE
8
BLACK
6
CONTINUOUS
10
223.792
20
-78.7084
11
223.84
21
-78.7814
0
LINE
8
BLACK
6
CONTINUOUS
10
223.84
20
-78.7814
11
223.857
21
-78.8675
0
LINE
8
BLACK
6
CONTINUOUS
10
223.857
20
-78.8675
11
223.857
21
-79.3175
0
LINE
8
BLACK
6
CONTINUOUS
10
223.857
20
-79.3175
11
223.84
21
-79.4036
0
LINE
8
BLACK
6
CONTINUOUS
10
223.84
20
-79.4036
11
223.792
21
-79.4766
0
LINE
8
BLACK
6
CONTINUOUS
10
223.792
20
-79.4766
11
223.719
21
-79.5254
0
LINE
8
BLACK
6
CONTINUOUS
10
223.719
20
-79.5254
11
223.632
21
-79.5425
0
LINE
8
BLACK
6
CONTINUOUS
10
223.632
20
-79.5425
11
222.882
21
-79.5425
0
LINE
8
BLACK
6
CONTINUOUS
10
222.882
20
-79.5425
11
222.796
21
-79.5254
0
LINE
8
BLACK
6
CONTINUOUS
10
222.796
20
-79.5254
11
222.723
21
-79.4766
0
LINE
8
BLACK
6
CONTINUOUS
10
222.723
20
-79.4766
11
222.675
21
-79.4036
0
LINE
8
BLACK
6
CONTINUOUS
10
222.675
20
-79.4036
11
222.657
21
-79.3175
0
LINE
8
BLACK
6
CONTINUOUS
10
222.657
20
-79.3175
11
222.657
21
-78.8675
0
LINE
8
BLACK
6
CONTINUOUS
10
222.657
20
-78.8675
11
222.675
21
-78.7814
0
LINE
8
BLACK
6
CONTINUOUS
10
222.675
20
-78.7814
11
222.723
21
-78.7084
0
LINE
8
BLACK
6
CONTINUOUS
10
222.723
20
-78.7084
11
222.796
21
-78.6596
0
LINE
8
BLACK
6
CONTINUOUS
10
222.796
20
-78.6596
11
222.882
21
-78.6425
0
LINE
8
BLACK
6
CONTINUOUS
10
222.882
20
-78.6425
11
223.632
21
-78.6425
0
LINE
8
BLACK
6
CONTINUOUS
10
223.632
20
-78.6425
11
223.719
21
-78.6596
0
LINE
8
BLACK
6
CONTINUOUS
10
204.669
20
-78.6596
11
204.742
21
-78.7084
0
LINE
8
BLACK
6
CONTINUOUS
10
204.742
20
-78.7084
11
204.79
21
-78.7814
0
LINE
8
BLACK
6
CONTINUOUS
10
204.79
20
-78.7814
11
204.808
21
-78.8675
0
LINE
8
BLACK
6
CONTINUOUS
10
204.808
20
-78.8675
11
204.808
21
-79.3175
0
LINE
8
BLACK
6
CONTINUOUS
10
204.808
20
-79.3175
11
204.79
21
-79.4036
0
LINE
8
BLACK
6
CONTINUOUS
10
204.79
20
-79.4036
11
204.742
21
-79.4766
0
LINE
8
BLACK
6
CONTINUOUS
10
204.742
20
-79.4766
11
204.669
21
-79.5254
0
LINE
8
BLACK
6
CONTINUOUS
10
204.669
20
-79.5254
11
204.582
21
-79.5425
0
LINE
8
BLACK
6
CONTINUOUS
10
204.582
20
-79.5425
11
203.832
21
-79.5425
0
LINE
8
BLACK
6
CONTINUOUS
10
203.832
20
-79.5425
11
203.746
21
-79.5254
0
LINE
8
BLACK
6
CONTINUOUS
10
203.746
20
-79.5254
11
203.673
21
-79.4766
0
LINE
8
BLACK
6
CONTINUOUS
10
203.673
20
-79.4766
11
203.625
21
-79.4036
0
LINE
8
BLACK
6
CONTINUOUS
10
203.625
20
-79.4036
11
203.607
21
-79.3175
0
LINE
8
BLACK
6
CONTINUOUS
10
203.607
20
-79.3175
11
203.607
21
-78.8675
0
LINE
8
BLACK
6
CONTINUOUS
10
203.607
20
-78.8675
11
203.625
21
-78.7814
0
LINE
8
BLACK
6
CONTINUOUS
10
203.625
20
-78.7814
11
203.673
21
-78.7084
0
LINE
8
BLACK
6
CONTINUOUS
10
203.673
20
-78.7084
11
203.746
21
-78.6596
0
LINE
8
BLACK
6
CONTINUOUS
10
203.746
20
-78.6596
11
203.832
21
-78.6425
0
LINE
8
BLACK
6
CONTINUOUS
10
203.832
20
-78.6425
11
204.582
21
-78.6425
0
LINE
8
BLACK
6
CONTINUOUS
10
204.582
20
-78.6425
11
204.669
21
-78.6596
0
LINE
8
BLACK
6
CONTINUOUS
10
185.619
20
-78.6596
11
185.692
21
-78.7084
0
LINE
8
BLACK
6
CONTINUOUS
10
185.692
20
-78.7084
11
185.74
21
-78.7814
0
LINE
8
BLACK
6
CONTINUOUS
10
185.74
20
-78.7814
11
185.757
21
-78.8675
0
LINE
8
BLACK
6
CONTINUOUS
10
185.757
20
-78.8675
11
185.757
21
-79.3175
0
LINE
8
BLACK
6
CONTINUOUS
10
185.757
20
-79.3175
11
185.74
21
-79.4036
0
LINE
8
BLACK
6
CONTINUOUS
10
185.74
20
-79.4036
11
185.692
21
-79.4766
0
LINE
8
BLACK
6
CONTINUOUS
10
185.692
20
-79.4766
11
185.619
21
-79.5254
0
LINE
8
BLACK
6
CONTINUOUS
10
185.619
20
-79.5254
11
185.532
21
-79.5425
0
LINE
8
BLACK
6
CONTINUOUS
10
185.532
20
-79.5425
11
184.782
21
-79.5425
0
LINE
8
BLACK
6
CONTINUOUS
10
184.782
20
-79.5425
11
184.696
21
-79.5254
0
LINE
8
BLACK
6
CONTINUOUS
10
184.696
20
-79.5254
11
184.623
21
-79.4766
0
LINE
8
BLACK
6
CONTINUOUS
10
184.623
20
-79.4766
11
184.575
21
-79.4036
0
LINE
8
BLACK
6
CONTINUOUS
10
184.575
20
-79.4036
11
184.558
21
-79.3175
0
LINE
8
BLACK
6
CONTINUOUS
10
184.558
20
-79.3175
11
184.558
21
-78.8675
0
LINE
8
BLACK
6
CONTINUOUS
10
184.558
20
-78.8675
11
184.575
21
-78.7814
0
LINE
8
BLACK
6
CONTINUOUS
10
184.575
20
-78.7814
11
184.623
21
-78.7084
0
LINE
8
BLACK
6
CONTINUOUS
10
184.623
20
-78.7084
11
184.696
21
-78.6596
0
LINE
8
BLACK
6
CONTINUOUS
10
184.696
20
-78.6596
11
184.782
21
-78.6425
0
LINE
8
BLACK
6
CONTINUOUS
10
184.782
20
-78.6425
11
185.532
21
-78.6425
0
LINE
8
BLACK
6
CONTINUOUS
10
185.532
20
-78.6425
11
185.619
21
-78.6596
0
LINE
8
BLACK
6
CONTINUOUS
10
157.044
20
-78.6596
11
157.117
21
-78.7084
0
LINE
8
BLACK
6
CONTINUOUS
10
157.117
20
-78.7084
11
157.165
21
-78.7814
0
LINE
8
BLACK
6
CONTINUOUS
10
157.165
20
-78.7814
11
157.183
21
-78.8675
0
LINE
8
BLACK
6
CONTINUOUS
10
157.183
20
-78.8675
11
157.183
21
-79.3175
0
LINE
8
BLACK
6
CONTINUOUS
10
157.183
20
-79.3175
11
157.165
21
-79.4036
0
LINE
8
BLACK
6
CONTINUOUS
10
157.165
20
-79.4036
11
157.117
21
-79.4766
0
LINE
8
BLACK
6
CONTINUOUS
10
157.117
20
-79.4766
11
157.044
21
-79.5254
0
LINE
8
BLACK
6
CONTINUOUS
10
157.044
20
-79.5254
11
156.957
21
-79.5425
0
LINE
8
BLACK
6
CONTINUOUS
10
156.957
20
-79.5425
11
156.207
21
-79.5425
0
LINE
8
BLACK
6
CONTINUOUS
10
156.207
20
-79.5425
11
156.121
21
-79.5254
0
LINE
8
BLACK
6
CONTINUOUS
10
156.121
20
-79.5254
11
156.048
21
-79.4766
0
LINE
8
BLACK
6
CONTINUOUS
10
156.048
20
-79.4766
11
156
21
-79.4036
0
LINE
8
BLACK
6
CONTINUOUS
10
156
20
-79.4036
11
155.982
21
-79.3175
0
LINE
8
BLACK
6
CONTINUOUS
10
155.982
20
-79.3175
11
155.982
21
-78.8675
0
LINE
8
BLACK
6
CONTINUOUS
10
155.982
20
-78.8675
11
156
21
-78.7814
0
LINE
8
BLACK
6
CONTINUOUS
10
156
20
-78.7814
11
156.048
21
-78.7084
0
LINE
8
BLACK
6
CONTINUOUS
10
156.048
20
-78.7084
11
156.121
21
-78.6596
0
LINE
8
BLACK
6
CONTINUOUS
10
156.121
20
-78.6596
11
156.207
21
-78.6425
0
LINE
8
BLACK
6
CONTINUOUS
10
156.207
20
-78.6425
11
156.957
21
-78.6425
0
LINE
8
BLACK
6
CONTINUOUS
10
156.957
20
-78.6425
11
157.044
21
-78.6596
0
LINE
8
BLACK
6
CONTINUOUS
10
137.994
20
-78.6596
11
138.067
21
-78.7084
0
LINE
8
BLACK
6
CONTINUOUS
10
138.067
20
-78.7084
11
138.115
21
-78.7814
0
LINE
8
BLACK
6
CONTINUOUS
10
138.115
20
-78.7814
11
138.132
21
-78.8675
0
LINE
8
BLACK
6
CONTINUOUS
10
138.132
20
-78.8675
11
138.132
21
-79.3175
0
LINE
8
BLACK
6
CONTINUOUS
10
138.132
20
-79.3175
11
138.115
21
-79.4036
0
LINE
8
BLACK
6
CONTINUOUS
10
138.115
20
-79.4036
11
138.067
21
-79.4766
0
LINE
8
BLACK
6
CONTINUOUS
10
138.067
20
-79.4766
11
137.994
21
-79.5254
0
LINE
8
BLACK
6
CONTINUOUS
10
137.994
20
-79.5254
11
137.907
21
-79.5425
0
LINE
8
BLACK
6
CONTINUOUS
10
137.907
20
-79.5425
11
137.157
21
-79.5425
0
LINE
8
BLACK
6
CONTINUOUS
10
137.157
20
-79.5425
11
137.071
21
-79.5254
0
LINE
8
BLACK
6
CONTINUOUS
10
137.071
20
-79.5254
11
136.998
21
-79.4766
0
LINE
8
BLACK
6
CONTINUOUS
10
136.998
20
-79.4766
11
136.95
21
-79.4036
0
LINE
8
BLACK
6
CONTINUOUS
10
136.95
20
-79.4036
11
136.933
21
-79.3175
0
LINE
8
BLACK
6
CONTINUOUS
10
136.933
20
-79.3175
11
136.933
21
-78.8675
0
LINE
8
BLACK
6
CONTINUOUS
10
136.933
20
-78.8675
11
136.95
21
-78.7814
0
LINE
8
BLACK
6
CONTINUOUS
10
136.95
20
-78.7814
11
136.998
21
-78.7084
0
LINE
8
BLACK
6
CONTINUOUS
10
136.998
20
-78.7084
11
137.071
21
-78.6596
0
LINE
8
BLACK
6
CONTINUOUS
10
137.071
20
-78.6596
11
137.157
21
-78.6425
0
LINE
8
BLACK
6
CONTINUOUS
10
137.157
20
-78.6425
11
137.907
21
-78.6425
0
LINE
8
BLACK
6
CONTINUOUS
10
137.907
20
-78.6425
11
137.994
21
-78.6596
0
LINE
8
BLACK
6
CONTINUOUS
10
118.944
20
-78.6596
11
119.017
21
-78.7084
0
LINE
8
BLACK
6
CONTINUOUS
10
119.017
20
-78.7084
11
119.065
21
-78.7814
0
LINE
8
BLACK
6
CONTINUOUS
10
119.065
20
-78.7814
11
119.082
21
-78.8675
0
LINE
8
BLACK
6
CONTINUOUS
10
119.082
20
-78.8675
11
119.082
21
-79.3175
0
LINE
8
BLACK
6
CONTINUOUS
10
119.082
20
-79.3175
11
119.065
21
-79.4036
0
LINE
8
BLACK
6
CONTINUOUS
10
119.065
20
-79.4036
11
119.017
21
-79.4766
0
LINE
8
BLACK
6
CONTINUOUS
10
119.017
20
-79.4766
11
118.944
21
-79.5254
0
LINE
8
BLACK
6
CONTINUOUS
10
118.944
20
-79.5254
11
118.858
21
-79.5425
0
LINE
8
BLACK
6
CONTINUOUS
10
118.858
20
-79.5425
11
118.108
21
-79.5425
0
LINE
8
BLACK
6
CONTINUOUS
10
118.108
20
-79.5425
11
118.021
21
-79.5254
0
LINE
8
BLACK
6
CONTINUOUS
10
118.021
20
-79.5254
11
117.948
21
-79.4766
0
LINE
8
BLACK
6
CONTINUOUS
10
117.948
20
-79.4766
11
117.9
21
-79.4036
0
LINE
8
BLACK
6
CONTINUOUS
10
117.9
20
-79.4036
11
117.882
21
-79.3175
0
LINE
8
BLACK
6
CONTINUOUS
10
117.882
20
-79.3175
11
117.882
21
-78.8675
0
LINE
8
BLACK
6
CONTINUOUS
10
117.882
20
-78.8675
11
117.9
21
-78.7814
0
LINE
8
BLACK
6
CONTINUOUS
10
117.9
20
-78.7814
11
117.948
21
-78.7084
0
LINE
8
BLACK
6
CONTINUOUS
10
117.948
20
-78.7084
11
118.021
21
-78.6596
0
LINE
8
BLACK
6
CONTINUOUS
10
118.021
20
-78.6596
11
118.108
21
-78.6425
0
LINE
8
BLACK
6
CONTINUOUS
10
118.108
20
-78.6425
11
118.858
21
-78.6425
0
LINE
8
BLACK
6
CONTINUOUS
10
118.858
20
-78.6425
11
118.944
21
-78.6596
0
LINE
8
BLACK
6
CONTINUOUS
10
99.8936
20
-78.6596
11
99.9666
21
-78.7084
0
LINE
8
BLACK
6
CONTINUOUS
10
99.9666
20
-78.7084
11
100.015
21
-78.7814
0
LINE
8
BLACK
6
CONTINUOUS
10
100.015
20
-78.7814
11
100.032
21
-78.8675
0
LINE
8
BLACK
6
CONTINUOUS
10
100.032
20
-78.8675
11
100.032
21
-79.3175
0
LINE
8
BLACK
6
CONTINUOUS
10
100.032
20
-79.3175
11
100.015
21
-79.4036
0
LINE
8
BLACK
6
CONTINUOUS
10
100.015
20
-79.4036
11
99.9666
21
-79.4766
0
LINE
8
BLACK
6
CONTINUOUS
10
99.9666
20
-79.4766
11
99.8936
21
-79.5254
0
LINE
8
BLACK
6
CONTINUOUS
10
99.8936
20
-79.5254
11
99.8075
21
-79.5425
0
LINE
8
BLACK
6
CONTINUOUS
10
99.8075
20
-79.5425
11
99.0575
21
-79.5425
0
LINE
8
BLACK
6
CONTINUOUS
10
99.0575
20
-79.5425
11
98.9714
21
-79.5254
0
LINE
8
BLACK
6
CONTINUOUS
10
98.9714
20
-79.5254
11
98.8984
21
-79.4766
0
LINE
8
BLACK
6
CONTINUOUS
10
98.8984
20
-79.4766
11
98.8496
21
-79.4036
0
LINE
8
BLACK
6
CONTINUOUS
10
98.8496
20
-79.4036
11
98.8325
21
-79.3175
0
LINE
8
BLACK
6
CONTINUOUS
10
98.8325
20
-79.3175
11
98.8325
21
-78.8675
0
LINE
8
BLACK
6
CONTINUOUS
10
98.8325
20
-78.8675
11
98.8496
21
-78.7814
0
LINE
8
BLACK
6
CONTINUOUS
10
98.8496
20
-78.7814
11
98.8984
21
-78.7084
0
LINE
8
BLACK
6
CONTINUOUS
10
98.8984
20
-78.7084
11
98.9714
21
-78.6596
0
LINE
8
BLACK
6
CONTINUOUS
10
98.9714
20
-78.6596
11
99.0575
21
-78.6425
0
LINE
8
BLACK
6
CONTINUOUS
10
99.0575
20
-78.6425
11
99.8075
21
-78.6425
0
LINE
8
BLACK
6
CONTINUOUS
10
99.8075
20
-78.6425
11
99.8936
21
-78.6596
0
LINE
8
BLACK
6
CONTINUOUS
10
80.8436
20
-78.6596
11
80.9166
21
-78.7084
0
LINE
8
BLACK
6
CONTINUOUS
10
80.9166
20
-78.7084
11
80.9654
21
-78.7814
0
LINE
8
BLACK
6
CONTINUOUS
10
80.9654
20
-78.7814
11
80.9825
21
-78.8675
0
LINE
8
BLACK
6
CONTINUOUS
10
80.9825
20
-78.8675
11
80.9825
21
-79.3175
0
LINE
8
BLACK
6
CONTINUOUS
10
80.9825
20
-79.3175
11
80.9654
21
-79.4036
0
LINE
8
BLACK
6
CONTINUOUS
10
80.9654
20
-79.4036
11
80.9166
21
-79.4766
0
LINE
8
BLACK
6
CONTINUOUS
10
80.9166
20
-79.4766
11
80.8436
21
-79.5254
0
LINE
8
BLACK
6
CONTINUOUS
10
80.8436
20
-79.5254
11
80.7575
21
-79.5425
0
LINE
8
BLACK
6
CONTINUOUS
10
80.7575
20
-79.5425
11
80.0075
21
-79.5425
0
LINE
8
BLACK
6
CONTINUOUS
10
80.0075
20
-79.5425
11
79.9214
21
-79.5254
0
LINE
8
BLACK
6
CONTINUOUS
10
79.9214
20
-79.5254
11
79.8484
21
-79.4766
0
LINE
8
BLACK
6
CONTINUOUS
10
79.8484
20
-79.4766
11
79.7996
21
-79.4036
0
LINE
8
BLACK
6
CONTINUOUS
10
79.7996
20
-79.4036
11
79.7825
21
-79.3175
0
LINE
8
BLACK
6
CONTINUOUS
10
79.7825
20
-79.3175
11
79.7825
21
-78.8675
0
LINE
8
BLACK
6
CONTINUOUS
10
79.7825
20
-78.8675
11
79.7996
21
-78.7814
0
LINE
8
BLACK
6
CONTINUOUS
10
79.7996
20
-78.7814
11
79.8484
21
-78.7084
0
LINE
8
BLACK
6
CONTINUOUS
10
79.8484
20
-78.7084
11
79.9214
21
-78.6596
0
LINE
8
BLACK
6
CONTINUOUS
10
79.9214
20
-78.6596
11
80.0075
21
-78.6425
0
LINE
8
BLACK
6
CONTINUOUS
10
80.0075
20
-78.6425
11
80.7575
21
-78.6425
0
LINE
8
BLACK
6
CONTINUOUS
10
80.7575
20
-78.6425
11
80.8436
21
-78.6596
0
LINE
8
BLACK
6
CONTINUOUS
10
61.7936
20
-78.6596
11
61.8666
21
-78.7084
0
LINE
8
BLACK
6
CONTINUOUS
10
61.8666
20
-78.7084
11
61.9154
21
-78.7814
0
LINE
8
BLACK
6
CONTINUOUS
10
61.9154
20
-78.7814
11
61.9325
21
-78.8675
0
LINE
8
BLACK
6
CONTINUOUS
10
61.9325
20
-78.8675
11
61.9325
21
-79.3175
0
LINE
8
BLACK
6
CONTINUOUS
10
61.9325
20
-79.3175
11
61.9154
21
-79.4036
0
LINE
8
BLACK
6
CONTINUOUS
10
61.9154
20
-79.4036
11
61.8666
21
-79.4766
0
LINE
8
BLACK
6
CONTINUOUS
10
61.8666
20
-79.4766
11
61.7936
21
-79.5254
0
LINE
8
BLACK
6
CONTINUOUS
10
61.7936
20
-79.5254
11
61.7075
21
-79.5425
0
LINE
8
BLACK
6
CONTINUOUS
10
61.7075
20
-79.5425
11
60.9575
21
-79.5425
0
LINE
8
BLACK
6
CONTINUOUS
10
60.9575
20
-79.5425
11
60.8714
21
-79.5254
0
LINE
8
BLACK
6
CONTINUOUS
10
60.8714
20
-79.5254
11
60.7984
21
-79.4766
0
LINE
8
BLACK
6
CONTINUOUS
10
60.7984
20
-79.4766
11
60.7496
21
-79.4036
0
LINE
8
BLACK
6
CONTINUOUS
10
60.7496
20
-79.4036
11
60.7325
21
-79.3175
0
LINE
8
BLACK
6
CONTINUOUS
10
60.7325
20
-79.3175
11
60.7325
21
-78.8675
0
LINE
8
BLACK
6
CONTINUOUS
10
60.7325
20
-78.8675
11
60.7496
21
-78.7814
0
LINE
8
BLACK
6
CONTINUOUS
10
60.7496
20
-78.7814
11
60.7984
21
-78.7084
0
LINE
8
BLACK
6
CONTINUOUS
10
60.7984
20
-78.7084
11
60.8714
21
-78.6596
0
LINE
8
BLACK
6
CONTINUOUS
10
60.8714
20
-78.6596
11
60.9575
21
-78.6425
0
LINE
8
BLACK
6
CONTINUOUS
10
60.9575
20
-78.6425
11
61.7075
21
-78.6425
0
LINE
8
BLACK
6
CONTINUOUS
10
61.7075
20
-78.6425
11
61.7936
21
-78.6596
0
LINE
8
BLACK
6
CONTINUOUS
10
33.2186
20
-78.6596
11
33.2916
21
-78.7084
0
LINE
8
BLACK
6
CONTINUOUS
10
33.2916
20
-78.7084
11
33.3404
21
-78.7814
0
LINE
8
BLACK
6
CONTINUOUS
10
33.3404
20
-78.7814
11
33.3575
21
-78.8675
0
LINE
8
BLACK
6
CONTINUOUS
10
33.3575
20
-78.8675
11
33.3575
21
-79.3175
0
LINE
8
BLACK
6
CONTINUOUS
10
33.3575
20
-79.3175
11
33.3404
21
-79.4036
0
LINE
8
BLACK
6
CONTINUOUS
10
33.3404
20
-79.4036
11
33.2916
21
-79.4766
0
LINE
8
BLACK
6
CONTINUOUS
10
33.2916
20
-79.4766
11
33.2186
21
-79.5254
0
LINE
8
BLACK
6
CONTINUOUS
10
33.2186
20
-79.5254
11
33.1325
21
-79.5425
0
LINE
8
BLACK
6
CONTINUOUS
10
33.1325
20
-79.5425
11
32.3825
21
-79.5425
0
LINE
8
BLACK
6
CONTINUOUS
10
32.3825
20
-79.5425
11
32.2964
21
-79.5254
0
LINE
8
BLACK
6
CONTINUOUS
10
32.2964
20
-79.5254
11
32.2234
21
-79.4766
0
LINE
8
BLACK
6
CONTINUOUS
10
32.2234
20
-79.4766
11
32.1746
21
-79.4036
0
LINE
8
BLACK
6
CONTINUOUS
10
32.1746
20
-79.4036
11
32.1575
21
-79.3175
0
LINE
8
BLACK
6
CONTINUOUS
10
32.1575
20
-79.3175
11
32.1575
21
-78.8675
0
LINE
8
BLACK
6
CONTINUOUS
10
32.1575
20
-78.8675
11
32.1746
21
-78.7814
0
LINE
8
BLACK
6
CONTINUOUS
10
32.1746
20
-78.7814
11
32.2234
21
-78.7084
0
LINE
8
BLACK
6
CONTINUOUS
10
32.2234
20
-78.7084
11
32.2964
21
-78.6596
0
LINE
8
BLACK
6
CONTINUOUS
10
32.2964
20
-78.6596
11
32.3825
21
-78.6425
0
LINE
8
BLACK
6
CONTINUOUS
10
32.3825
20
-78.6425
11
33.1325
21
-78.6425
0
LINE
8
BLACK
6
CONTINUOUS
10
33.1325
20
-78.6425
11
33.2186
21
-78.6596
0
LINE
8
BLACK
6
CONTINUOUS
10
242.769
20
-75.3596
11
242.842
21
-75.4084
0
LINE
8
BLACK
6
CONTINUOUS
10
242.842
20
-75.4084
11
242.89
21
-75.4814
0
LINE
8
BLACK
6
CONTINUOUS
10
242.89
20
-75.4814
11
242.907
21
-75.5675
0
LINE
8
BLACK
6
CONTINUOUS
10
242.907
20
-75.5675
11
242.907
21
-76.0175
0
LINE
8
BLACK
6
CONTINUOUS
10
242.907
20
-76.0175
11
242.89
21
-76.1036
0
LINE
8
BLACK
6
CONTINUOUS
10
242.89
20
-76.1036
11
242.842
21
-76.1766
0
LINE
8
BLACK
6
CONTINUOUS
10
242.842
20
-76.1766
11
242.769
21
-76.2254
0
LINE
8
BLACK
6
CONTINUOUS
10
242.769
20
-76.2254
11
242.682
21
-76.2425
0
LINE
8
BLACK
6
CONTINUOUS
10
242.682
20
-76.2425
11
241.932
21
-76.2425
0
LINE
8
BLACK
6
CONTINUOUS
10
241.932
20
-76.2425
11
241.846
21
-76.2254
0
LINE
8
BLACK
6
CONTINUOUS
10
241.846
20
-76.2254
11
241.773
21
-76.1766
0
LINE
8
BLACK
6
CONTINUOUS
10
241.773
20
-76.1766
11
241.725
21
-76.1036
0
LINE
8
BLACK
6
CONTINUOUS
10
241.725
20
-76.1036
11
241.707
21
-76.0175
0
LINE
8
BLACK
6
CONTINUOUS
10
241.707
20
-76.0175
11
241.707
21
-75.5675
0
LINE
8
BLACK
6
CONTINUOUS
10
241.707
20
-75.5675
11
241.725
21
-75.4814
0
LINE
8
BLACK
6
CONTINUOUS
10
241.725
20
-75.4814
11
241.773
21
-75.4084
0
LINE
8
BLACK
6
CONTINUOUS
10
241.773
20
-75.4084
11
241.846
21
-75.3596
0
LINE
8
BLACK
6
CONTINUOUS
10
241.846
20
-75.3596
11
241.932
21
-75.3425
0
LINE
8
BLACK
6
CONTINUOUS
10
241.932
20
-75.3425
11
242.682
21
-75.3425
0
LINE
8
BLACK
6
CONTINUOUS
10
242.682
20
-75.3425
11
242.769
21
-75.3596
0
LINE
8
BLACK
6
CONTINUOUS
10
223.719
20
-75.3596
11
223.792
21
-75.4084
0
LINE
8
BLACK
6
CONTINUOUS
10
223.792
20
-75.4084
11
223.84
21
-75.4814
0
LINE
8
BLACK
6
CONTINUOUS
10
223.84
20
-75.4814
11
223.857
21
-75.5675
0
LINE
8
BLACK
6
CONTINUOUS
10
223.857
20
-75.5675
11
223.857
21
-76.0175
0
LINE
8
BLACK
6
CONTINUOUS
10
223.857
20
-76.0175
11
223.84
21
-76.1036
0
LINE
8
BLACK
6
CONTINUOUS
10
223.84
20
-76.1036
11
223.792
21
-76.1766
0
LINE
8
BLACK
6
CONTINUOUS
10
223.792
20
-76.1766
11
223.719
21
-76.2254
0
LINE
8
BLACK
6
CONTINUOUS
10
223.719
20
-76.2254
11
223.632
21
-76.2425
0
LINE
8
BLACK
6
CONTINUOUS
10
223.632
20
-76.2425
11
222.882
21
-76.2425
0
LINE
8
BLACK
6
CONTINUOUS
10
222.882
20
-76.2425
11
222.796
21
-76.2254
0
LINE
8
BLACK
6
CONTINUOUS
10
222.796
20
-76.2254
11
222.723
21
-76.1766
0
LINE
8
BLACK
6
CONTINUOUS
10
222.723
20
-76.1766
11
222.675
21
-76.1036
0
LINE
8
BLACK
6
CONTINUOUS
10
222.675
20
-76.1036
11
222.657
21
-76.0175
0
LINE
8
BLACK
6
CONTINUOUS
10
222.657
20
-76.0175
11
222.657
21
-75.5675
0
LINE
8
BLACK
6
CONTINUOUS
10
222.657
20
-75.5675
11
222.675
21
-75.4814
0
LINE
8
BLACK
6
CONTINUOUS
10
222.675
20
-75.4814
11
222.723
21
-75.4084
0
LINE
8
BLACK
6
CONTINUOUS
10
222.723
20
-75.4084
11
222.796
21
-75.3596
0
LINE
8
BLACK
6
CONTINUOUS
10
222.796
20
-75.3596
11
222.882
21
-75.3425
0
LINE
8
BLACK
6
CONTINUOUS
10
222.882
20
-75.3425
11
223.632
21
-75.3425
0
LINE
8
BLACK
6
CONTINUOUS
10
223.632
20
-75.3425
11
223.719
21
-75.3596
0
LINE
8
BLACK
6
CONTINUOUS
10
204.669
20
-75.3596
11
204.742
21
-75.4084
0
LINE
8
BLACK
6
CONTINUOUS
10
204.742
20
-75.4084
11
204.79
21
-75.4814
0
LINE
8
BLACK
6
CONTINUOUS
10
204.79
20
-75.4814
11
204.808
21
-75.5675
0
LINE
8
BLACK
6
CONTINUOUS
10
204.808
20
-75.5675
11
204.808
21
-76.0175
0
LINE
8
BLACK
6
CONTINUOUS
10
204.808
20
-76.0175
11
204.79
21
-76.1036
0
LINE
8
BLACK
6
CONTINUOUS
10
204.79
20
-76.1036
11
204.742
21
-76.1766
0
LINE
8
BLACK
6
CONTINUOUS
10
204.742
20
-76.1766
11
204.669
21
-76.2254
0
LINE
8
BLACK
6
CONTINUOUS
10
204.669
20
-76.2254
11
204.582
21
-76.2425
0
LINE
8
BLACK
6
CONTINUOUS
10
204.582
20
-76.2425
11
203.832
21
-76.2425
0
LINE
8
BLACK
6
CONTINUOUS
10
203.832
20
-76.2425
11
203.746
21
-76.2254
0
LINE
8
BLACK
6
CONTINUOUS
10
203.746
20
-76.2254
11
203.673
21
-76.1766
0
LINE
8
BLACK
6
CONTINUOUS
10
203.673
20
-76.1766
11
203.625
21
-76.1036
0
LINE
8
BLACK
6
CONTINUOUS
10
203.625
20
-76.1036
11
203.607
21
-76.0175
0
LINE
8
BLACK
6
CONTINUOUS
10
203.607
20
-76.0175
11
203.607
21
-75.5675
0
LINE
8
BLACK
6
CONTINUOUS
10
203.607
20
-75.5675
11
203.625
21
-75.4814
0
LINE
8
BLACK
6
CONTINUOUS
10
203.625
20
-75.4814
11
203.673
21
-75.4084
0
LINE
8
BLACK
6
CONTINUOUS
10
203.673
20
-75.4084
11
203.746
21
-75.3596
0
LINE
8
BLACK
6
CONTINUOUS
10
203.746
20
-75.3596
11
203.832
21
-75.3425
0
LINE
8
BLACK
6
CONTINUOUS
10
203.832
20
-75.3425
11
204.582
21
-75.3425
0
LINE
8
BLACK
6
CONTINUOUS
10
204.582
20
-75.3425
11
204.669
21
-75.3596
0
LINE
8
BLACK
6
CONTINUOUS
10
185.619
20
-75.3596
11
185.692
21
-75.4084
0
LINE
8
BLACK
6
CONTINUOUS
10
185.692
20
-75.4084
11
185.74
21
-75.4814
0
LINE
8
BLACK
6
CONTINUOUS
10
185.74
20
-75.4814
11
185.757
21
-75.5675
0
LINE
8
BLACK
6
CONTINUOUS
10
185.757
20
-75.5675
11
185.757
21
-76.0175
0
LINE
8
BLACK
6
CONTINUOUS
10
185.757
20
-76.0175
11
185.74
21
-76.1036
0
LINE
8
BLACK
6
CONTINUOUS
10
185.74
20
-76.1036
11
185.692
21
-76.1766
0
LINE
8
BLACK
6
CONTINUOUS
10
185.692
20
-76.1766
11
185.619
21
-76.2254
0
LINE
8
BLACK
6
CONTINUOUS
10
185.619
20
-76.2254
11
185.532
21
-76.2425
0
LINE
8
BLACK
6
CONTINUOUS
10
185.532
20
-76.2425
11
184.782
21
-76.2425
0
LINE
8
BLACK
6
CONTINUOUS
10
184.782
20
-76.2425
11
184.696
21
-76.2254
0
LINE
8
BLACK
6
CONTINUOUS
10
184.696
20
-76.2254
11
184.623
21
-76.1766
0
LINE
8
BLACK
6
CONTINUOUS
10
184.623
20
-76.1766
11
184.575
21
-76.1036
0
LINE
8
BLACK
6
CONTINUOUS
10
184.575
20
-76.1036
11
184.558
21
-76.0175
0
LINE
8
BLACK
6
CONTINUOUS
10
184.558
20
-76.0175
11
184.558
21
-75.5675
0
LINE
8
BLACK
6
CONTINUOUS
10
184.558
20
-75.5675
11
184.575
21
-75.4814
0
LINE
8
BLACK
6
CONTINUOUS
10
184.575
20
-75.4814
11
184.623
21
-75.4084
0
LINE
8
BLACK
6
CONTINUOUS
10
184.623
20
-75.4084
11
184.696
21
-75.3596
0
LINE
8
BLACK
6
CONTINUOUS
10
184.696
20
-75.3596
11
184.782
21
-75.3425
0
LINE
8
BLACK
6
CONTINUOUS
10
184.782
20
-75.3425
11
185.532
21
-75.3425
0
LINE
8
BLACK
6
CONTINUOUS
10
185.532
20
-75.3425
11
185.619
21
-75.3596
0
LINE
8
BLACK
6
CONTINUOUS
10
157.044
20
-75.3596
11
157.117
21
-75.4084
0
LINE
8
BLACK
6
CONTINUOUS
10
157.117
20
-75.4084
11
157.165
21
-75.4814
0
LINE
8
BLACK
6
CONTINUOUS
10
157.165
20
-75.4814
11
157.183
21
-75.5675
0
LINE
8
BLACK
6
CONTINUOUS
10
157.183
20
-75.5675
11
157.183
21
-76.0175
0
LINE
8
BLACK
6
CONTINUOUS
10
157.183
20
-76.0175
11
157.165
21
-76.1036
0
LINE
8
BLACK
6
CONTINUOUS
10
157.165
20
-76.1036
11
157.117
21
-76.1766
0
LINE
8
BLACK
6
CONTINUOUS
10
157.117
20
-76.1766
11
157.044
21
-76.2254
0
LINE
8
BLACK
6
CONTINUOUS
10
157.044
20
-76.2254
11
156.957
21
-76.2425
0
LINE
8
BLACK
6
CONTINUOUS
10
156.957
20
-76.2425
11
156.207
21
-76.2425
0
LINE
8
BLACK
6
CONTINUOUS
10
156.207
20
-76.2425
11
156.121
21
-76.2254
0
LINE
8
BLACK
6
CONTINUOUS
10
156.121
20
-76.2254
11
156.048
21
-76.1766
0
LINE
8
BLACK
6
CONTINUOUS
10
156.048
20
-76.1766
11
156
21
-76.1036
0
LINE
8
BLACK
6
CONTINUOUS
10
156
20
-76.1036
11
155.982
21
-76.0175
0
LINE
8
BLACK
6
CONTINUOUS
10
155.982
20
-76.0175
11
155.982
21
-75.5675
0
LINE
8
BLACK
6
CONTINUOUS
10
155.982
20
-75.5675
11
156
21
-75.4814
0
LINE
8
BLACK
6
CONTINUOUS
10
156
20
-75.4814
11
156.048
21
-75.4084
0
LINE
8
BLACK
6
CONTINUOUS
10
156.048
20
-75.4084
11
156.121
21
-75.3596
0
LINE
8
BLACK
6
CONTINUOUS
10
156.121
20
-75.3596
11
156.207
21
-75.3425
0
LINE
8
BLACK
6
CONTINUOUS
10
156.207
20
-75.3425
11
156.957
21
-75.3425
0
LINE
8
BLACK
6
CONTINUOUS
10
156.957
20
-75.3425
11
157.044
21
-75.3596
0
LINE
8
BLACK
6
CONTINUOUS
10
137.994
20
-75.3596
11
138.067
21
-75.4084
0
LINE
8
BLACK
6
CONTINUOUS
10
138.067
20
-75.4084
11
138.115
21
-75.4814
0
LINE
8
BLACK
6
CONTINUOUS
10
138.115
20
-75.4814
11
138.132
21
-75.5675
0
LINE
8
BLACK
6
CONTINUOUS
10
138.132
20
-75.5675
11
138.132
21
-76.0175
0
LINE
8
BLACK
6
CONTINUOUS
10
138.132
20
-76.0175
11
138.115
21
-76.1036
0
LINE
8
BLACK
6
CONTINUOUS
10
138.115
20
-76.1036
11
138.067
21
-76.1766
0
LINE
8
BLACK
6
CONTINUOUS
10
138.067
20
-76.1766
11
137.994
21
-76.2254
0
LINE
8
BLACK
6
CONTINUOUS
10
137.994
20
-76.2254
11
137.907
21
-76.2425
0
LINE
8
BLACK
6
CONTINUOUS
10
137.907
20
-76.2425
11
137.157
21
-76.2425
0
LINE
8
BLACK
6
CONTINUOUS
10
137.157
20
-76.2425
11
137.071
21
-76.2254
0
LINE
8
BLACK
6
CONTINUOUS
10
137.071
20
-76.2254
11
136.998
21
-76.1766
0
LINE
8
BLACK
6
CONTINUOUS
10
136.998
20
-76.1766
11
136.95
21
-76.1036
0
LINE
8
BLACK
6
CONTINUOUS
10
136.95
20
-76.1036
11
136.933
21
-76.0175
0
LINE
8
BLACK
6
CONTINUOUS
10
136.933
20
-76.0175
11
136.933
21
-75.5675
0
LINE
8
BLACK
6
CONTINUOUS
10
136.933
20
-75.5675
11
136.95
21
-75.4814
0
LINE
8
BLACK
6
CONTINUOUS
10
136.95
20
-75.4814
11
136.998
21
-75.4084
0
LINE
8
BLACK
6
CONTINUOUS
10
136.998
20
-75.4084
11
137.071
21
-75.3596
0
LINE
8
BLACK
6
CONTINUOUS
10
137.071
20
-75.3596
11
137.157
21
-75.3425
0
LINE
8
BLACK
6
CONTINUOUS
10
137.157
20
-75.3425
11
137.907
21
-75.3425
0
LINE
8
BLACK
6
CONTINUOUS
10
137.907
20
-75.3425
11
137.994
21
-75.3596
0
LINE
8
BLACK
6
CONTINUOUS
10
118.944
20
-75.3596
11
119.017
21
-75.4084
0
LINE
8
BLACK
6
CONTINUOUS
10
119.017
20
-75.4084
11
119.065
21
-75.4814
0
LINE
8
BLACK
6
CONTINUOUS
10
119.065
20
-75.4814
11
119.082
21
-75.5675
0
LINE
8
BLACK
6
CONTINUOUS
10
119.082
20
-75.5675
11
119.082
21
-76.0175
0
LINE
8
BLACK
6
CONTINUOUS
10
119.082
20
-76.0175
11
119.065
21
-76.1036
0
LINE
8
BLACK
6
CONTINUOUS
10
119.065
20
-76.1036
11
119.017
21
-76.1766
0
LINE
8
BLACK
6
CONTINUOUS
10
119.017
20
-76.1766
11
118.944
21
-76.2254
0
LINE
8
BLACK
6
CONTINUOUS
10
118.944
20
-76.2254
11
118.858
21
-76.2425
0
LINE
8
BLACK
6
CONTINUOUS
10
118.858
20
-76.2425
11
118.108
21
-76.2425
0
LINE
8
BLACK
6
CONTINUOUS
10
118.108
20
-76.2425
11
118.021
21
-76.2254
0
LINE
8
BLACK
6
CONTINUOUS
10
118.021
20
-76.2254
11
117.948
21
-76.1766
0
LINE
8
BLACK
6
CONTINUOUS
10
117.948
20
-76.1766
11
117.9
21
-76.1036
0
LINE
8
BLACK
6
CONTINUOUS
10
117.9
20
-76.1036
11
117.882
21
-76.0175
0
LINE
8
BLACK
6
CONTINUOUS
10
117.882
20
-76.0175
11
117.882
21
-75.5675
0
LINE
8
BLACK
6
CONTINUOUS
10
117.882
20
-75.5675
11
117.9
21
-75.4814
0
LINE
8
BLACK
6
CONTINUOUS
10
117.9
20
-75.4814
11
117.948
21
-75.4084
0
LINE
8
BLACK
6
CONTINUOUS
10
117.948
20
-75.4084
11
118.021
21
-75.3596
0
LINE
8
BLACK
6
CONTINUOUS
10
118.021
20
-75.3596
11
118.108
21
-75.3425
0
LINE
8
BLACK
6
CONTINUOUS
10
118.108
20
-75.3425
11
118.858
21
-75.3425
0
LINE
8
BLACK
6
CONTINUOUS
10
118.858
20
-75.3425
11
118.944
21
-75.3596
0
LINE
8
BLACK
6
CONTINUOUS
10
99.8936
20
-75.3596
11
99.9666
21
-75.4084
0
LINE
8
BLACK
6
CONTINUOUS
10
99.9666
20
-75.4084
11
100.015
21
-75.4814
0
LINE
8
BLACK
6
CONTINUOUS
10
100.015
20
-75.4814
11
100.032
21
-75.5675
0
LINE
8
BLACK
6
CONTINUOUS
10
100.032
20
-75.5675
11
100.032
21
-76.0175
0
LINE
8
BLACK
6
CONTINUOUS
10
100.032
20
-76.0175
11
100.015
21
-76.1036
0
LINE
8
BLACK
6
CONTINUOUS
10
100.015
20
-76.1036
11
99.9666
21
-76.1766
0
LINE
8
BLACK
6
CONTINUOUS
10
99.9666
20
-76.1766
11
99.8936
21
-76.2254
0
LINE
8
BLACK
6
CONTINUOUS
10
99.8936
20
-76.2254
11
99.8075
21
-76.2425
0
LINE
8
BLACK
6
CONTINUOUS
10
99.8075
20
-76.2425
11
99.0575
21
-76.2425
0
LINE
8
BLACK
6
CONTINUOUS
10
99.0575
20
-76.2425
11
98.9714
21
-76.2254
0
LINE
8
BLACK
6
CONTINUOUS
10
98.9714
20
-76.2254
11
98.8984
21
-76.1766
0
LINE
8
BLACK
6
CONTINUOUS
10
98.8984
20
-76.1766
11
98.8496
21
-76.1036
0
LINE
8
BLACK
6
CONTINUOUS
10
98.8496
20
-76.1036
11
98.8325
21
-76.0175
0
LINE
8
BLACK
6
CONTINUOUS
10
98.8325
20
-76.0175
11
98.8325
21
-75.5675
0
LINE
8
BLACK
6
CONTINUOUS
10
98.8325
20
-75.5675
11
98.8496
21
-75.4814
0
LINE
8
BLACK
6
CONTINUOUS
10
98.8496
20
-75.4814
11
98.8984
21
-75.4084
0
LINE
8
BLACK
6
CONTINUOUS
10
98.8984
20
-75.4084
11
98.9714
21
-75.3596
0
LINE
8
BLACK
6
CONTINUOUS
10
98.9714
20
-75.3596
11
99.0575
21
-75.3425
0
LINE
8
BLACK
6
CONTINUOUS
10
99.0575
20
-75.3425
11
99.8075
21
-75.3425
0
LINE
8
BLACK
6
CONTINUOUS
10
99.8075
20
-75.3425
11
99.8936
21
-75.3596
0
LINE
8
BLACK
6
CONTINUOUS
10
80.8436
20
-75.3596
11
80.9166
21
-75.4084
0
LINE
8
BLACK
6
CONTINUOUS
10
80.9166
20
-75.4084
11
80.9654
21
-75.4814
0
LINE
8
BLACK
6
CONTINUOUS
10
80.9654
20
-75.4814
11
80.9825
21
-75.5675
0
LINE
8
BLACK
6
CONTINUOUS
10
80.9825
20
-75.5675
11
80.9825
21
-76.0175
0
LINE
8
BLACK
6
CONTINUOUS
10
80.9825
20
-76.0175
11
80.9654
21
-76.1036
0
LINE
8
BLACK
6
CONTINUOUS
10
80.9654
20
-76.1036
11
80.9166
21
-76.1766
0
LINE
8
BLACK
6
CONTINUOUS
10
80.9166
20
-76.1766
11
80.8436
21
-76.2254
0
LINE
8
BLACK
6
CONTINUOUS
10
80.8436
20
-76.2254
11
80.7575
21
-76.2425
0
LINE
8
BLACK
6
CONTINUOUS
10
80.7575
20
-76.2425
11
80.0075
21
-76.2425
0
LINE
8
BLACK
6
CONTINUOUS
10
80.0075
20
-76.2425
11
79.9214
21
-76.2254
0
LINE
8
BLACK
6
CONTINUOUS
10
79.9214
20
-76.2254
11
79.8484
21
-76.1766
0
LINE
8
BLACK
6
CONTINUOUS
10
79.8484
20
-76.1766
11
79.7996
21
-76.1036
0
LINE
8
BLACK
6
CONTINUOUS
10
79.7996
20
-76.1036
11
79.7825
21
-76.0175
0
LINE
8
BLACK
6
CONTINUOUS
10
79.7825
20
-76.0175
11
79.7825
21
-75.5675
0
LINE
8
BLACK
6
CONTINUOUS
10
79.7825
20
-75.5675
11
79.7996
21
-75.4814
0
LINE
8
BLACK
6
CONTINUOUS
10
79.7996
20
-75.4814
11
79.8484
21
-75.4084
0
LINE
8
BLACK
6
CONTINUOUS
10
79.8484
20
-75.4084
11
79.9214
21
-75.3596
0
LINE
8
BLACK
6
CONTINUOUS
10
79.9214
20
-75.3596
11
80.0075
21
-75.3425
0
LINE
8
BLACK
6
CONTINUOUS
10
80.0075
20
-75.3425
11
80.7575
21
-75.3425
0
LINE
8
BLACK
6
CONTINUOUS
10
80.7575
20
-75.3425
11
80.8436
21
-75.3596
0
LINE
8
BLACK
6
CONTINUOUS
10
61.7936
20
-75.3596
11
61.8666
21
-75.4084
0
LINE
8
BLACK
6
CONTINUOUS
10
61.8666
20
-75.4084
11
61.9154
21
-75.4814
0
LINE
8
BLACK
6
CONTINUOUS
10
61.9154
20
-75.4814
11
61.9325
21
-75.5675
0
LINE
8
BLACK
6
CONTINUOUS
10
61.9325
20
-75.5675
11
61.9325
21
-76.0175
0
LINE
8
BLACK
6
CONTINUOUS
10
61.9325
20
-76.0175
11
61.9154
21
-76.1036
0
LINE
8
BLACK
6
CONTINUOUS
10
61.9154
20
-76.1036
11
61.8666
21
-76.1766
0
LINE
8
BLACK
6
CONTINUOUS
10
61.8666
20
-76.1766
11
61.7936
21
-76.2254
0
LINE
8
BLACK
6
CONTINUOUS
10
61.7936
20
-76.2254
11
61.7075
21
-76.2425
0
LINE
8
BLACK
6
CONTINUOUS
10
61.7075
20
-76.2425
11
60.9575
21
-76.2425
0
LINE
8
BLACK
6
CONTINUOUS
10
60.9575
20
-76.2425
11
60.8714
21
-76.2254
0
LINE
8
BLACK
6
CONTINUOUS
10
60.8714
20
-76.2254
11
60.7984
21
-76.1766
0
LINE
8
BLACK
6
CONTINUOUS
10
60.7984
20
-76.1766
11
60.7496
21
-76.1036
0
LINE
8
BLACK
6
CONTINUOUS
10
60.7496
20
-76.1036
11
60.7325
21
-76.0175
0
LINE
8
BLACK
6
CONTINUOUS
10
60.7325
20
-76.0175
11
60.7325
21
-75.5675
0
LINE
8
BLACK
6
CONTINUOUS
10
60.7325
20
-75.5675
11
60.7496
21
-75.4814
0
LINE
8
BLACK
6
CONTINUOUS
10
60.7496
20
-75.4814
11
60.7984
21
-75.4084
0
LINE
8
BLACK
6
CONTINUOUS
10
60.7984
20
-75.4084
11
60.8714
21
-75.3596
0
LINE
8
BLACK
6
CONTINUOUS
10
60.8714
20
-75.3596
11
60.9575
21
-75.3425
0
LINE
8
BLACK
6
CONTINUOUS
10
60.9575
20
-75.3425
11
61.7075
21
-75.3425
0
LINE
8
BLACK
6
CONTINUOUS
10
61.7075
20
-75.3425
11
61.7936
21
-75.3596
0
LINE
8
BLACK
6
CONTINUOUS
10
33.2186
20
-75.3596
11
33.2916
21
-75.4084
0
LINE
8
BLACK
6
CONTINUOUS
10
33.2916
20
-75.4084
11
33.3404
21
-75.4814
0
LINE
8
BLACK
6
CONTINUOUS
10
33.3404
20
-75.4814
11
33.3575
21
-75.5675
0
LINE
8
BLACK
6
CONTINUOUS
10
33.3575
20
-75.5675
11
33.3575
21
-76.0175
0
LINE
8
BLACK
6
CONTINUOUS
10
33.3575
20
-76.0175
11
33.3404
21
-76.1036
0
LINE
8
BLACK
6
CONTINUOUS
10
33.3404
20
-76.1036
11
33.2916
21
-76.1766
0
LINE
8
BLACK
6
CONTINUOUS
10
33.2916
20
-76.1766
11
33.2186
21
-76.2254
0
LINE
8
BLACK
6
CONTINUOUS
10
33.2186
20
-76.2254
11
33.1325
21
-76.2425
0
LINE
8
BLACK
6
CONTINUOUS
10
33.1325
20
-76.2425
11
32.3825
21
-76.2425
0
LINE
8
BLACK
6
CONTINUOUS
10
32.3825
20
-76.2425
11
32.2964
21
-76.2254
0
LINE
8
BLACK
6
CONTINUOUS
10
32.2964
20
-76.2254
11
32.2234
21
-76.1766
0
LINE
8
BLACK
6
CONTINUOUS
10
32.2234
20
-76.1766
11
32.1746
21
-76.1036
0
LINE
8
BLACK
6
CONTINUOUS
10
32.1746
20
-76.1036
11
32.1575
21
-76.0175
0
LINE
8
BLACK
6
CONTINUOUS
10
32.1575
20
-76.0175
11
32.1575
21
-75.5675
0
LINE
8
BLACK
6
CONTINUOUS
10
32.1575
20
-75.5675
11
32.1746
21
-75.4814
0
LINE
8
BLACK
6
CONTINUOUS
10
32.1746
20
-75.4814
11
32.2234
21
-75.4084
0
LINE
8
BLACK
6
CONTINUOUS
10
32.2234
20
-75.4084
11
32.2964
21
-75.3596
0
LINE
8
BLACK
6
CONTINUOUS
10
32.2964
20
-75.3596
11
32.3825
21
-75.3425
0
LINE
8
BLACK
6
CONTINUOUS
10
32.3825
20
-75.3425
11
33.1325
21
-75.3425
0
LINE
8
BLACK
6
CONTINUOUS
10
33.1325
20
-75.3425
11
33.2186
21
-75.3596
0
LINE
8
BLACK
6
CONTINUOUS
10
242.552
20
-71.335
11
240.002
21
-71.335
0
LINE
8
BLACK
6
CONTINUOUS
10
240.002
20
-71.335
11
240.002
21
-68.835
0
LINE
8
BLACK
6
CONTINUOUS
10
240.002
20
-68.835
11
242.552
21
-68.835
0
LINE
8
BLACK
6
CONTINUOUS
10
242.552
20
-68.835
11
242.552
21
-71.335
0
LINE
8
BLACK
6
CONTINUOUS
10
223.502
20
-71.335
11
220.952
21
-71.335
0
LINE
8
BLACK
6
CONTINUOUS
10
220.952
20
-71.335
11
220.952
21
-68.835
0
LINE
8
BLACK
6
CONTINUOUS
10
220.952
20
-68.835
11
223.502
21
-68.835
0
LINE
8
BLACK
6
CONTINUOUS
10
223.502
20
-68.835
11
223.502
21
-71.335
0
LINE
8
BLACK
6
CONTINUOUS
10
204.452
20
-71.335
11
201.903
21
-71.335
0
LINE
8
BLACK
6
CONTINUOUS
10
201.903
20
-71.335
11
201.903
21
-68.835
0
LINE
8
BLACK
6
CONTINUOUS
10
201.903
20
-68.835
11
204.452
21
-68.835
0
LINE
8
BLACK
6
CONTINUOUS
10
204.452
20
-68.835
11
204.452
21
-71.335
0
LINE
8
BLACK
6
CONTINUOUS
10
185.403
20
-71.335
11
182.852
21
-71.335
0
LINE
8
BLACK
6
CONTINUOUS
10
182.852
20
-71.335
11
182.852
21
-68.835
0
LINE
8
BLACK
6
CONTINUOUS
10
182.852
20
-68.835
11
185.403
21
-68.835
0
LINE
8
BLACK
6
CONTINUOUS
10
185.403
20
-68.835
11
185.403
21
-71.335
0
LINE
8
BLACK
6
CONTINUOUS
10
156.827
20
-71.335
11
154.278
21
-71.335
0
LINE
8
BLACK
6
CONTINUOUS
10
154.278
20
-71.335
11
154.278
21
-68.835
0
LINE
8
BLACK
6
CONTINUOUS
10
154.278
20
-68.835
11
156.827
21
-68.835
0
LINE
8
BLACK
6
CONTINUOUS
10
156.827
20
-68.835
11
156.827
21
-71.335
0
LINE
8
BLACK
6
CONTINUOUS
10
137.778
20
-71.335
11
135.227
21
-71.335
0
LINE
8
BLACK
6
CONTINUOUS
10
135.227
20
-71.335
11
135.227
21
-68.835
0
LINE
8
BLACK
6
CONTINUOUS
10
135.227
20
-68.835
11
137.778
21
-68.835
0
LINE
8
BLACK
6
CONTINUOUS
10
137.778
20
-68.835
11
137.778
21
-71.335
0
LINE
8
BLACK
6
CONTINUOUS
10
118.727
20
-71.335
11
116.177
21
-71.335
0
LINE
8
BLACK
6
CONTINUOUS
10
116.177
20
-71.335
11
116.177
21
-68.835
0
LINE
8
BLACK
6
CONTINUOUS
10
116.177
20
-68.835
11
118.727
21
-68.835
0
LINE
8
BLACK
6
CONTINUOUS
10
118.727
20
-68.835
11
118.727
21
-71.335
0
LINE
8
BLACK
6
CONTINUOUS
10
99.6775
20
-71.335
11
97.1275
21
-71.335
0
LINE
8
BLACK
6
CONTINUOUS
10
97.1275
20
-71.335
11
97.1275
21
-68.835
0
LINE
8
BLACK
6
CONTINUOUS
10
97.1275
20
-68.835
11
99.6775
21
-68.835
0
LINE
8
BLACK
6
CONTINUOUS
10
99.6775
20
-68.835
11
99.6775
21
-71.335
0
LINE
8
BLACK
6
CONTINUOUS
10
80.6275
20
-71.335
11
78.0775
21
-71.335
0
LINE
8
BLACK
6
CONTINUOUS
10
78.0775
20
-71.335
11
78.0775
21
-68.835
0
LINE
8
BLACK
6
CONTINUOUS
10
78.0775
20
-68.835
11
80.6275
21
-68.835
0
LINE
8
BLACK
6
CONTINUOUS
10
80.6275
20
-68.835
11
80.6275
21
-71.335
0
LINE
8
BLACK
6
CONTINUOUS
10
61.5775
20
-71.335
11
59.0275
21
-71.335
0
LINE
8
BLACK
6
CONTINUOUS
10
59.0275
20
-71.335
11
59.0275
21
-68.835
0
LINE
8
BLACK
6
CONTINUOUS
10
59.0275
20
-68.835
11
61.5775
21
-68.835
0
LINE
8
BLACK
6
CONTINUOUS
10
61.5775
20
-68.835
11
61.5775
21
-71.335
0
LINE
8
BLACK
6
CONTINUOUS
10
33.0025
20
-71.335
11
30.4525
21
-71.335
0
LINE
8
BLACK
6
CONTINUOUS
10
30.4525
20
-71.335
11
30.4525
21
-68.835
0
LINE
8
BLACK
6
CONTINUOUS
10
30.4525
20
-68.835
11
33.0025
21
-68.835
0
LINE
8
BLACK
6
CONTINUOUS
10
33.0025
20
-68.835
11
33.0025
21
-71.335
0
LINE
8
BLACK
6
CONTINUOUS
10
256.402
20
-68.795
11
253.852
21
-68.795
0
LINE
8
BLACK
6
CONTINUOUS
10
253.852
20
-68.795
11
253.852
21
-66.295
0
LINE
8
BLACK
6
CONTINUOUS
10
253.852
20
-66.295
11
256.402
21
-66.295
0
LINE
8
BLACK
6
CONTINUOUS
10
256.402
20
-66.295
11
256.402
21
-68.795
0
LINE
8
BLACK
6
CONTINUOUS
10
237.352
20
-68.795
11
234.802
21
-68.795
0
LINE
8
BLACK
6
CONTINUOUS
10
234.802
20
-68.795
11
234.802
21
-66.295
0
LINE
8
BLACK
6
CONTINUOUS
10
234.802
20
-66.295
11
237.352
21
-66.295
0
LINE
8
BLACK
6
CONTINUOUS
10
237.352
20
-66.295
11
237.352
21
-68.795
0
LINE
8
BLACK
6
CONTINUOUS
10
218.302
20
-68.795
11
215.752
21
-68.795
0
LINE
8
BLACK
6
CONTINUOUS
10
215.752
20
-68.795
11
215.752
21
-66.295
0
LINE
8
BLACK
6
CONTINUOUS
10
215.752
20
-66.295
11
218.302
21
-66.295
0
LINE
8
BLACK
6
CONTINUOUS
10
218.302
20
-66.295
11
218.302
21
-68.795
0
LINE
8
BLACK
6
CONTINUOUS
10
199.252
20
-68.795
11
196.702
21
-68.795
0
LINE
8
BLACK
6
CONTINUOUS
10
196.702
20
-68.795
11
196.702
21
-66.295
0
LINE
8
BLACK
6
CONTINUOUS
10
196.702
20
-66.295
11
199.252
21
-66.295
0
LINE
8
BLACK
6
CONTINUOUS
10
199.252
20
-66.295
11
199.252
21
-68.795
0
LINE
8
BLACK
6
CONTINUOUS
10
170.677
20
-68.795
11
168.127
21
-68.795
0
LINE
8
BLACK
6
CONTINUOUS
10
168.127
20
-68.795
11
168.127
21
-66.295
0
LINE
8
BLACK
6
CONTINUOUS
10
168.127
20
-66.295
11
170.677
21
-66.295
0
LINE
8
BLACK
6
CONTINUOUS
10
170.677
20
-66.295
11
170.677
21
-68.795
0
LINE
8
BLACK
6
CONTINUOUS
10
151.627
20
-68.795
11
149.077
21
-68.795
0
LINE
8
BLACK
6
CONTINUOUS
10
149.077
20
-68.795
11
149.077
21
-66.295
0
LINE
8
BLACK
6
CONTINUOUS
10
149.077
20
-66.295
11
151.627
21
-66.295
0
LINE
8
BLACK
6
CONTINUOUS
10
151.627
20
-66.295
11
151.627
21
-68.795
0
LINE
8
BLACK
6
CONTINUOUS
10
132.577
20
-68.795
11
130.028
21
-68.795
0
LINE
8
BLACK
6
CONTINUOUS
10
130.028
20
-68.795
11
130.028
21
-66.295
0
LINE
8
BLACK
6
CONTINUOUS
10
130.028
20
-66.295
11
132.577
21
-66.295
0
LINE
8
BLACK
6
CONTINUOUS
10
132.577
20
-66.295
11
132.577
21
-68.795
0
LINE
8
BLACK
6
CONTINUOUS
10
113.527
20
-68.795
11
110.977
21
-68.795
0
LINE
8
BLACK
6
CONTINUOUS
10
110.977
20
-68.795
11
110.977
21
-66.295
0
LINE
8
BLACK
6
CONTINUOUS
10
110.977
20
-66.295
11
113.527
21
-66.295
0
LINE
8
BLACK
6
CONTINUOUS
10
113.527
20
-66.295
11
113.527
21
-68.795
0
LINE
8
BLACK
6
CONTINUOUS
10
94.4775
20
-68.795
11
91.9275
21
-68.795
0
LINE
8
BLACK
6
CONTINUOUS
10
91.9275
20
-68.795
11
91.9275
21
-66.295
0
LINE
8
BLACK
6
CONTINUOUS
10
91.9275
20
-66.295
11
94.4775
21
-66.295
0
LINE
8
BLACK
6
CONTINUOUS
10
94.4775
20
-66.295
11
94.4775
21
-68.795
0
LINE
8
BLACK
6
CONTINUOUS
10
75.4275
20
-68.795
11
72.8775
21
-68.795
0
LINE
8
BLACK
6
CONTINUOUS
10
72.8775
20
-68.795
11
72.8775
21
-66.295
0
LINE
8
BLACK
6
CONTINUOUS
10
72.8775
20
-66.295
11
75.4275
21
-66.295
0
LINE
8
BLACK
6
CONTINUOUS
10
75.4275
20
-66.295
11
75.4275
21
-68.795
0
LINE
8
BLACK
6
CONTINUOUS
10
46.8525
20
-68.795
11
44.3025
21
-68.795
0
LINE
8
BLACK
6
CONTINUOUS
10
44.3025
20
-68.795
11
44.3025
21
-66.295
0
LINE
8
BLACK
6
CONTINUOUS
10
44.3025
20
-66.295
11
46.8525
21
-66.295
0
LINE
8
BLACK
6
CONTINUOUS
10
46.8525
20
-66.295
11
46.8525
21
-68.795
0
LINE
8
BLACK
6
CONTINUOUS
10
242.769
20
-59.6096
11
242.842
21
-59.6584
0
LINE
8
BLACK
6
CONTINUOUS
10
242.842
20
-59.6584
11
242.89
21
-59.7314
0
LINE
8
BLACK
6
CONTINUOUS
10
242.89
20
-59.7314
11
242.907
21
-59.8175
0
LINE
8
BLACK
6
CONTINUOUS
10
242.907
20
-59.8175
11
242.907
21
-60.2675
0
LINE
8
BLACK
6
CONTINUOUS
10
242.907
20
-60.2675
11
242.89
21
-60.3536
0
LINE
8
BLACK
6
CONTINUOUS
10
242.89
20
-60.3536
11
242.842
21
-60.4266
0
LINE
8
BLACK
6
CONTINUOUS
10
242.842
20
-60.4266
11
242.769
21
-60.4754
0
LINE
8
BLACK
6
CONTINUOUS
10
242.769
20
-60.4754
11
242.682
21
-60.4925
0
LINE
8
BLACK
6
CONTINUOUS
10
242.682
20
-60.4925
11
241.932
21
-60.4925
0
LINE
8
BLACK
6
CONTINUOUS
10
241.932
20
-60.4925
11
241.846
21
-60.4754
0
LINE
8
BLACK
6
CONTINUOUS
10
241.846
20
-60.4754
11
241.773
21
-60.4266
0
LINE
8
BLACK
6
CONTINUOUS
10
241.773
20
-60.4266
11
241.725
21
-60.3536
0
LINE
8
BLACK
6
CONTINUOUS
10
241.725
20
-60.3536
11
241.707
21
-60.2675
0
LINE
8
BLACK
6
CONTINUOUS
10
241.707
20
-60.2675
11
241.707
21
-59.8175
0
LINE
8
BLACK
6
CONTINUOUS
10
241.707
20
-59.8175
11
241.725
21
-59.7314
0
LINE
8
BLACK
6
CONTINUOUS
10
241.725
20
-59.7314
11
241.773
21
-59.6584
0
LINE
8
BLACK
6
CONTINUOUS
10
241.773
20
-59.6584
11
241.846
21
-59.6096
0
LINE
8
BLACK
6
CONTINUOUS
10
241.846
20
-59.6096
11
241.932
21
-59.5925
0
LINE
8
BLACK
6
CONTINUOUS
10
241.932
20
-59.5925
11
242.682
21
-59.5925
0
LINE
8
BLACK
6
CONTINUOUS
10
242.682
20
-59.5925
11
242.769
21
-59.6096
0
LINE
8
BLACK
6
CONTINUOUS
10
223.719
20
-59.6096
11
223.792
21
-59.6584
0
LINE
8
BLACK
6
CONTINUOUS
10
223.792
20
-59.6584
11
223.84
21
-59.7314
0
LINE
8
BLACK
6
CONTINUOUS
10
223.84
20
-59.7314
11
223.857
21
-59.8175
0
LINE
8
BLACK
6
CONTINUOUS
10
223.857
20
-59.8175
11
223.857
21
-60.2675
0
LINE
8
BLACK
6
CONTINUOUS
10
223.857
20
-60.2675
11
223.84
21
-60.3536
0
LINE
8
BLACK
6
CONTINUOUS
10
223.84
20
-60.3536
11
223.792
21
-60.4266
0
LINE
8
BLACK
6
CONTINUOUS
10
223.792
20
-60.4266
11
223.719
21
-60.4754
0
LINE
8
BLACK
6
CONTINUOUS
10
223.719
20
-60.4754
11
223.632
21
-60.4925
0
LINE
8
BLACK
6
CONTINUOUS
10
223.632
20
-60.4925
11
222.882
21
-60.4925
0
LINE
8
BLACK
6
CONTINUOUS
10
222.882
20
-60.4925
11
222.796
21
-60.4754
0
LINE
8
BLACK
6
CONTINUOUS
10
222.796
20
-60.4754
11
222.723
21
-60.4266
0
LINE
8
BLACK
6
CONTINUOUS
10
222.723
20
-60.4266
11
222.675
21
-60.3536
0
LINE
8
BLACK
6
CONTINUOUS
10
222.675
20
-60.3536
11
222.657
21
-60.2675
0
LINE
8
BLACK
6
CONTINUOUS
10
222.657
20
-60.2675
11
222.657
21
-59.8175
0
LINE
8
BLACK
6
CONTINUOUS
10
222.657
20
-59.8175
11
222.675
21
-59.7314
0
LINE
8
BLACK
6
CONTINUOUS
10
222.675
20
-59.7314
11
222.723
21
-59.6584
0
LINE
8
BLACK
6
CONTINUOUS
10
222.723
20
-59.6584
11
222.796
21
-59.6096
0
LINE
8
BLACK
6
CONTINUOUS
10
222.796
20
-59.6096
11
222.882
21
-59.5925
0
LINE
8
BLACK
6
CONTINUOUS
10
222.882
20
-59.5925
11
223.632
21
-59.5925
0
LINE
8
BLACK
6
CONTINUOUS
10
223.632
20
-59.5925
11
223.719
21
-59.6096
0
LINE
8
BLACK
6
CONTINUOUS
10
204.669
20
-59.6096
11
204.742
21
-59.6584
0
LINE
8
BLACK
6
CONTINUOUS
10
204.742
20
-59.6584
11
204.79
21
-59.7314
0
LINE
8
BLACK
6
CONTINUOUS
10
204.79
20
-59.7314
11
204.808
21
-59.8175
0
LINE
8
BLACK
6
CONTINUOUS
10
204.808
20
-59.8175
11
204.808
21
-60.2675
0
LINE
8
BLACK
6
CONTINUOUS
10
204.808
20
-60.2675
11
204.79
21
-60.3536
0
LINE
8
BLACK
6
CONTINUOUS
10
204.79
20
-60.3536
11
204.742
21
-60.4266
0
LINE
8
BLACK
6
CONTINUOUS
10
204.742
20
-60.4266
11
204.669
21
-60.4754
0
LINE
8
BLACK
6
CONTINUOUS
10
204.669
20
-60.4754
11
204.582
21
-60.4925
0
LINE
8
BLACK
6
CONTINUOUS
10
204.582
20
-60.4925
11
203.832
21
-60.4925
0
LINE
8
BLACK
6
CONTINUOUS
10
203.832
20
-60.4925
11
203.746
21
-60.4754
0
LINE
8
BLACK
6
CONTINUOUS
10
203.746
20
-60.4754
11
203.673
21
-60.4266
0
LINE
8
BLACK
6
CONTINUOUS
10
203.673
20
-60.4266
11
203.625
21
-60.3536
0
LINE
8
BLACK
6
CONTINUOUS
10
203.625
20
-60.3536
11
203.607
21
-60.2675
0
LINE
8
BLACK
6
CONTINUOUS
10
203.607
20
-60.2675
11
203.607
21
-59.8175
0
LINE
8
BLACK
6
CONTINUOUS
10
203.607
20
-59.8175
11
203.625
21
-59.7314
0
LINE
8
BLACK
6
CONTINUOUS
10
203.625
20
-59.7314
11
203.673
21
-59.6584
0
LINE
8
BLACK
6
CONTINUOUS
10
203.673
20
-59.6584
11
203.746
21
-59.6096
0
LINE
8
BLACK
6
CONTINUOUS
10
203.746
20
-59.6096
11
203.832
21
-59.5925
0
LINE
8
BLACK
6
CONTINUOUS
10
203.832
20
-59.5925
11
204.582
21
-59.5925
0
LINE
8
BLACK
6
CONTINUOUS
10
204.582
20
-59.5925
11
204.669
21
-59.6096
0
LINE
8
BLACK
6
CONTINUOUS
10
185.619
20
-59.6096
11
185.692
21
-59.6584
0
LINE
8
BLACK
6
CONTINUOUS
10
185.692
20
-59.6584
11
185.74
21
-59.7314
0
LINE
8
BLACK
6
CONTINUOUS
10
185.74
20
-59.7314
11
185.757
21
-59.8175
0
LINE
8
BLACK
6
CONTINUOUS
10
185.757
20
-59.8175
11
185.757
21
-60.2675
0
LINE
8
BLACK
6
CONTINUOUS
10
185.757
20
-60.2675
11
185.74
21
-60.3536
0
LINE
8
BLACK
6
CONTINUOUS
10
185.74
20
-60.3536
11
185.692
21
-60.4266
0
LINE
8
BLACK
6
CONTINUOUS
10
185.692
20
-60.4266
11
185.619
21
-60.4754
0
LINE
8
BLACK
6
CONTINUOUS
10
185.619
20
-60.4754
11
185.532
21
-60.4925
0
LINE
8
BLACK
6
CONTINUOUS
10
185.532
20
-60.4925
11
184.782
21
-60.4925
0
LINE
8
BLACK
6
CONTINUOUS
10
184.782
20
-60.4925
11
184.696
21
-60.4754
0
LINE
8
BLACK
6
CONTINUOUS
10
184.696
20
-60.4754
11
184.623
21
-60.4266
0
LINE
8
BLACK
6
CONTINUOUS
10
184.623
20
-60.4266
11
184.575
21
-60.3536
0
LINE
8
BLACK
6
CONTINUOUS
10
184.575
20
-60.3536
11
184.558
21
-60.2675
0
LINE
8
BLACK
6
CONTINUOUS
10
184.558
20
-60.2675
11
184.558
21
-59.8175
0
LINE
8
BLACK
6
CONTINUOUS
10
184.558
20
-59.8175
11
184.575
21
-59.7314
0
LINE
8
BLACK
6
CONTINUOUS
10
184.575
20
-59.7314
11
184.623
21
-59.6584
0
LINE
8
BLACK
6
CONTINUOUS
10
184.623
20
-59.6584
11
184.696
21
-59.6096
0
LINE
8
BLACK
6
CONTINUOUS
10
184.696
20
-59.6096
11
184.782
21
-59.5925
0
LINE
8
BLACK
6
CONTINUOUS
10
184.782
20
-59.5925
11
185.532
21
-59.5925
0
LINE
8
BLACK
6
CONTINUOUS
10
185.532
20
-59.5925
11
185.619
21
-59.6096
0
LINE
8
BLACK
6
CONTINUOUS
10
157.044
20
-59.6096
11
157.117
21
-59.6584
0
LINE
8
BLACK
6
CONTINUOUS
10
157.117
20
-59.6584
11
157.165
21
-59.7314
0
LINE
8
BLACK
6
CONTINUOUS
10
157.165
20
-59.7314
11
157.183
21
-59.8175
0
LINE
8
BLACK
6
CONTINUOUS
10
157.183
20
-59.8175
11
157.183
21
-60.2675
0
LINE
8
BLACK
6
CONTINUOUS
10
157.183
20
-60.2675
11
157.165
21
-60.3536
0
LINE
8
BLACK
6
CONTINUOUS
10
157.165
20
-60.3536
11
157.117
21
-60.4266
0
LINE
8
BLACK
6
CONTINUOUS
10
157.117
20
-60.4266
11
157.044
21
-60.4754
0
LINE
8
BLACK
6
CONTINUOUS
10
157.044
20
-60.4754
11
156.957
21
-60.4925
0
LINE
8
BLACK
6
CONTINUOUS
10
156.957
20
-60.4925
11
156.207
21
-60.4925
0
LINE
8
BLACK
6
CONTINUOUS
10
156.207
20
-60.4925
11
156.121
21
-60.4754
0
LINE
8
BLACK
6
CONTINUOUS
10
156.121
20
-60.4754
11
156.048
21
-60.4266
0
LINE
8
BLACK
6
CONTINUOUS
10
156.048
20
-60.4266
11
156
21
-60.3536
0
LINE
8
BLACK
6
CONTINUOUS
10
156
20
-60.3536
11
155.982
21
-60.2675
0
LINE
8
BLACK
6
CONTINUOUS
10
155.982
20
-60.2675
11
155.982
21
-59.8175
0
LINE
8
BLACK
6
CONTINUOUS
10
155.982
20
-59.8175
11
156
21
-59.7314
0
LINE
8
BLACK
6
CONTINUOUS
10
156
20
-59.7314
11
156.048
21
-59.6584
0
LINE
8
BLACK
6
CONTINUOUS
10
156.048
20
-59.6584
11
156.121
21
-59.6096
0
LINE
8
BLACK
6
CONTINUOUS
10
156.121
20
-59.6096
11
156.207
21
-59.5925
0
LINE
8
BLACK
6
CONTINUOUS
10
156.207
20
-59.5925
11
156.957
21
-59.5925
0
LINE
8
BLACK
6
CONTINUOUS
10
156.957
20
-59.5925
11
157.044
21
-59.6096
0
LINE
8
BLACK
6
CONTINUOUS
10
137.994
20
-59.6096
11
138.067
21
-59.6584
0
LINE
8
BLACK
6
CONTINUOUS
10
138.067
20
-59.6584
11
138.115
21
-59.7314
0
LINE
8
BLACK
6
CONTINUOUS
10
138.115
20
-59.7314
11
138.132
21
-59.8175
0
LINE
8
BLACK
6
CONTINUOUS
10
138.132
20
-59.8175
11
138.132
21
-60.2675
0
LINE
8
BLACK
6
CONTINUOUS
10
138.132
20
-60.2675
11
138.115
21
-60.3536
0
LINE
8
BLACK
6
CONTINUOUS
10
138.115
20
-60.3536
11
138.067
21
-60.4266
0
LINE
8
BLACK
6
CONTINUOUS
10
138.067
20
-60.4266
11
137.994
21
-60.4754
0
LINE
8
BLACK
6
CONTINUOUS
10
137.994
20
-60.4754
11
137.907
21
-60.4925
0
LINE
8
BLACK
6
CONTINUOUS
10
137.907
20
-60.4925
11
137.157
21
-60.4925
0
LINE
8
BLACK
6
CONTINUOUS
10
137.157
20
-60.4925
11
137.071
21
-60.4754
0
LINE
8
BLACK
6
CONTINUOUS
10
137.071
20
-60.4754
11
136.998
21
-60.4266
0
LINE
8
BLACK
6
CONTINUOUS
10
136.998
20
-60.4266
11
136.95
21
-60.3536
0
LINE
8
BLACK
6
CONTINUOUS
10
136.95
20
-60.3536
11
136.933
21
-60.2675
0
LINE
8
BLACK
6
CONTINUOUS
10
136.933
20
-60.2675
11
136.933
21
-59.8175
0
LINE
8
BLACK
6
CONTINUOUS
10
136.933
20
-59.8175
11
136.95
21
-59.7314
0
LINE
8
BLACK
6
CONTINUOUS
10
136.95
20
-59.7314
11
136.998
21
-59.6584
0
LINE
8
BLACK
6
CONTINUOUS
10
136.998
20
-59.6584
11
137.071
21
-59.6096
0
LINE
8
BLACK
6
CONTINUOUS
10
137.071
20
-59.6096
11
137.157
21
-59.5925
0
LINE
8
BLACK
6
CONTINUOUS
10
137.157
20
-59.5925
11
137.907
21
-59.5925
0
LINE
8
BLACK
6
CONTINUOUS
10
137.907
20
-59.5925
11
137.994
21
-59.6096
0
LINE
8
BLACK
6
CONTINUOUS
10
118.944
20
-59.6096
11
119.017
21
-59.6584
0
LINE
8
BLACK
6
CONTINUOUS
10
119.017
20
-59.6584
11
119.065
21
-59.7314
0
LINE
8
BLACK
6
CONTINUOUS
10
119.065
20
-59.7314
11
119.082
21
-59.8175
0
LINE
8
BLACK
6
CONTINUOUS
10
119.082
20
-59.8175
11
119.082
21
-60.2675
0
LINE
8
BLACK
6
CONTINUOUS
10
119.082
20
-60.2675
11
119.065
21
-60.3536
0
LINE
8
BLACK
6
CONTINUOUS
10
119.065
20
-60.3536
11
119.017
21
-60.4266
0
LINE
8
BLACK
6
CONTINUOUS
10
119.017
20
-60.4266
11
118.944
21
-60.4754
0
LINE
8
BLACK
6
CONTINUOUS
10
118.944
20
-60.4754
11
118.858
21
-60.4925
0
LINE
8
BLACK
6
CONTINUOUS
10
118.858
20
-60.4925
11
118.108
21
-60.4925
0
LINE
8
BLACK
6
CONTINUOUS
10
118.108
20
-60.4925
11
118.021
21
-60.4754
0
LINE
8
BLACK
6
CONTINUOUS
10
118.021
20
-60.4754
11
117.948
21
-60.4266
0
LINE
8
BLACK
6
CONTINUOUS
10
117.948
20
-60.4266
11
117.9
21
-60.3536
0
LINE
8
BLACK
6
CONTINUOUS
10
117.9
20
-60.3536
11
117.882
21
-60.2675
0
LINE
8
BLACK
6
CONTINUOUS
10
117.882
20
-60.2675
11
117.882
21
-59.8175
0
LINE
8
BLACK
6
CONTINUOUS
10
117.882
20
-59.8175
11
117.9
21
-59.7314
0
LINE
8
BLACK
6
CONTINUOUS
10
117.9
20
-59.7314
11
117.948
21
-59.6584
0
LINE
8
BLACK
6
CONTINUOUS
10
117.948
20
-59.6584
11
118.021
21
-59.6096
0
LINE
8
BLACK
6
CONTINUOUS
10
118.021
20
-59.6096
11
118.108
21
-59.5925
0
LINE
8
BLACK
6
CONTINUOUS
10
118.108
20
-59.5925
11
118.858
21
-59.5925
0
LINE
8
BLACK
6
CONTINUOUS
10
118.858
20
-59.5925
11
118.944
21
-59.6096
0
LINE
8
BLACK
6
CONTINUOUS
10
99.8936
20
-59.6096
11
99.9666
21
-59.6584
0
LINE
8
BLACK
6
CONTINUOUS
10
99.9666
20
-59.6584
11
100.015
21
-59.7314
0
LINE
8
BLACK
6
CONTINUOUS
10
100.015
20
-59.7314
11
100.032
21
-59.8175
0
LINE
8
BLACK
6
CONTINUOUS
10
100.032
20
-59.8175
11
100.032
21
-60.2675
0
LINE
8
BLACK
6
CONTINUOUS
10
100.032
20
-60.2675
11
100.015
21
-60.3536
0
LINE
8
BLACK
6
CONTINUOUS
10
100.015
20
-60.3536
11
99.9666
21
-60.4266
0
LINE
8
BLACK
6
CONTINUOUS
10
99.9666
20
-60.4266
11
99.8936
21
-60.4754
0
LINE
8
BLACK
6
CONTINUOUS
10
99.8936
20
-60.4754
11
99.8075
21
-60.4925
0
LINE
8
BLACK
6
CONTINUOUS
10
99.8075
20
-60.4925
11
99.0575
21
-60.4925
0
LINE
8
BLACK
6
CONTINUOUS
10
99.0575
20
-60.4925
11
98.9714
21
-60.4754
0
LINE
8
BLACK
6
CONTINUOUS
10
98.9714
20
-60.4754
11
98.8984
21
-60.4266
0
LINE
8
BLACK
6
CONTINUOUS
10
98.8984
20
-60.4266
11
98.8496
21
-60.3536
0
LINE
8
BLACK
6
CONTINUOUS
10
98.8496
20
-60.3536
11
98.8325
21
-60.2675
0
LINE
8
BLACK
6
CONTINUOUS
10
98.8325
20
-60.2675
11
98.8325
21
-59.8175
0
LINE
8
BLACK
6
CONTINUOUS
10
98.8325
20
-59.8175
11
98.8496
21
-59.7314
0
LINE
8
BLACK
6
CONTINUOUS
10
98.8496
20
-59.7314
11
98.8984
21
-59.6584
0
LINE
8
BLACK
6
CONTINUOUS
10
98.8984
20
-59.6584
11
98.9714
21
-59.6096
0
LINE
8
BLACK
6
CONTINUOUS
10
98.9714
20
-59.6096
11
99.0575
21
-59.5925
0
LINE
8
BLACK
6
CONTINUOUS
10
99.0575
20
-59.5925
11
99.8075
21
-59.5925
0
LINE
8
BLACK
6
CONTINUOUS
10
99.8075
20
-59.5925
11
99.8936
21
-59.6096
0
LINE
8
BLACK
6
CONTINUOUS
10
80.8436
20
-59.6096
11
80.9166
21
-59.6584
0
LINE
8
BLACK
6
CONTINUOUS
10
80.9166
20
-59.6584
11
80.9654
21
-59.7314
0
LINE
8
BLACK
6
CONTINUOUS
10
80.9654
20
-59.7314
11
80.9825
21
-59.8175
0
LINE
8
BLACK
6
CONTINUOUS
10
80.9825
20
-59.8175
11
80.9825
21
-60.2675
0
LINE
8
BLACK
6
CONTINUOUS
10
80.9825
20
-60.2675
11
80.9654
21
-60.3536
0
LINE
8
BLACK
6
CONTINUOUS
10
80.9654
20
-60.3536
11
80.9166
21
-60.4266
0
LINE
8
BLACK
6
CONTINUOUS
10
80.9166
20
-60.4266
11
80.8436
21
-60.4754
0
LINE
8
BLACK
6
CONTINUOUS
10
80.8436
20
-60.4754
11
80.7575
21
-60.4925
0
LINE
8
BLACK
6
CONTINUOUS
10
80.7575
20
-60.4925
11
80.0075
21
-60.4925
0
LINE
8
BLACK
6
CONTINUOUS
10
80.0075
20
-60.4925
11
79.9214
21
-60.4754
0
LINE
8
BLACK
6
CONTINUOUS
10
79.9214
20
-60.4754
11
79.8484
21
-60.4266
0
LINE
8
BLACK
6
CONTINUOUS
10
79.8484
20
-60.4266
11
79.7996
21
-60.3536
0
LINE
8
BLACK
6
CONTINUOUS
10
79.7996
20
-60.3536
11
79.7825
21
-60.2675
0
LINE
8
BLACK
6
CONTINUOUS
10
79.7825
20
-60.2675
11
79.7825
21
-59.8175
0
LINE
8
BLACK
6
CONTINUOUS
10
79.7825
20
-59.8175
11
79.7996
21
-59.7314
0
LINE
8
BLACK
6
CONTINUOUS
10
79.7996
20
-59.7314
11
79.8484
21
-59.6584
0
LINE
8
BLACK
6
CONTINUOUS
10
79.8484
20
-59.6584
11
79.9214
21
-59.6096
0
LINE
8
BLACK
6
CONTINUOUS
10
79.9214
20
-59.6096
11
80.0075
21
-59.5925
0
LINE
8
BLACK
6
CONTINUOUS
10
80.0075
20
-59.5925
11
80.7575
21
-59.5925
0
LINE
8
BLACK
6
CONTINUOUS
10
80.7575
20
-59.5925
11
80.8436
21
-59.6096
0
LINE
8
BLACK
6
CONTINUOUS
10
61.7936
20
-59.6096
11
61.8666
21
-59.6584
0
LINE
8
BLACK
6
CONTINUOUS
10
61.8666
20
-59.6584
11
61.9154
21
-59.7314
0
LINE
8
BLACK
6
CONTINUOUS
10
61.9154
20
-59.7314
11
61.9325
21
-59.8175
0
LINE
8
BLACK
6
CONTINUOUS
10
61.9325
20
-59.8175
11
61.9325
21
-60.2675
0
LINE
8
BLACK
6
CONTINUOUS
10
61.9325
20
-60.2675
11
61.9154
21
-60.3536
0
LINE
8
BLACK
6
CONTINUOUS
10
61.9154
20
-60.3536
11
61.8666
21
-60.4266
0
LINE
8
BLACK
6
CONTINUOUS
10
61.8666
20
-60.4266
11
61.7936
21
-60.4754
0
LINE
8
BLACK
6
CONTINUOUS
10
61.7936
20
-60.4754
11
61.7075
21
-60.4925
0
LINE
8
BLACK
6
CONTINUOUS
10
61.7075
20
-60.4925
11
60.9575
21
-60.4925
0
LINE
8
BLACK
6
CONTINUOUS
10
60.9575
20
-60.4925
11
60.8714
21
-60.4754
0
LINE
8
BLACK
6
CONTINUOUS
10
60.8714
20
-60.4754
11
60.7984
21
-60.4266
0
LINE
8
BLACK
6
CONTINUOUS
10
60.7984
20
-60.4266
11
60.7496
21
-60.3536
0
LINE
8
BLACK
6
CONTINUOUS
10
60.7496
20
-60.3536
11
60.7325
21
-60.2675
0
LINE
8
BLACK
6
CONTINUOUS
10
60.7325
20
-60.2675
11
60.7325
21
-59.8175
0
LINE
8
BLACK
6
CONTINUOUS
10
60.7325
20
-59.8175
11
60.7496
21
-59.7314
0
LINE
8
BLACK
6
CONTINUOUS
10
60.7496
20
-59.7314
11
60.7984
21
-59.6584
0
LINE
8
BLACK
6
CONTINUOUS
10
60.7984
20
-59.6584
11
60.8714
21
-59.6096
0
LINE
8
BLACK
6
CONTINUOUS
10
60.8714
20
-59.6096
11
60.9575
21
-59.5925
0
LINE
8
BLACK
6
CONTINUOUS
10
60.9575
20
-59.5925
11
61.7075
21
-59.5925
0
LINE
8
BLACK
6
CONTINUOUS
10
61.7075
20
-59.5925
11
61.7936
21
-59.6096
0
LINE
8
BLACK
6
CONTINUOUS
10
33.2186
20
-59.6096
11
33.2916
21
-59.6584
0
LINE
8
BLACK
6
CONTINUOUS
10
33.2916
20
-59.6584
11
33.3404
21
-59.7314
0
LINE
8
BLACK
6
CONTINUOUS
10
33.3404
20
-59.7314
11
33.3575
21
-59.8175
0
LINE
8
BLACK
6
CONTINUOUS
10
33.3575
20
-59.8175
11
33.3575
21
-60.2675
0
LINE
8
BLACK
6
CONTINUOUS
10
33.3575
20
-60.2675
11
33.3404
21
-60.3536
0
LINE
8
BLACK
6
CONTINUOUS
10
33.3404
20
-60.3536
11
33.2916
21
-60.4266
0
LINE
8
BLACK
6
CONTINUOUS
10
33.2916
20
-60.4266
11
33.2186
21
-60.4754
0
LINE
8
BLACK
6
CONTINUOUS
10
33.2186
20
-60.4754
11
33.1325
21
-60.4925
0
LINE
8
BLACK
6
CONTINUOUS
10
33.1325
20
-60.4925
11
32.3825
21
-60.4925
0
LINE
8
BLACK
6
CONTINUOUS
10
32.3825
20
-60.4925
11
32.2964
21
-60.4754
0
LINE
8
BLACK
6
CONTINUOUS
10
32.2964
20
-60.4754
11
32.2234
21
-60.4266
0
LINE
8
BLACK
6
CONTINUOUS
10
32.2234
20
-60.4266
11
32.1746
21
-60.3536
0
LINE
8
BLACK
6
CONTINUOUS
10
32.1746
20
-60.3536
11
32.1575
21
-60.2675
0
LINE
8
BLACK
6
CONTINUOUS
10
32.1575
20
-60.2675
11
32.1575
21
-59.8175
0
LINE
8
BLACK
6
CONTINUOUS
10
32.1575
20
-59.8175
11
32.1746
21
-59.7314
0
LINE
8
BLACK
6
CONTINUOUS
10
32.1746
20
-59.7314
11
32.2234
21
-59.6584
0
LINE
8
BLACK
6
CONTINUOUS
10
32.2234
20
-59.6584
11
32.2964
21
-59.6096
0
LINE
8
BLACK
6
CONTINUOUS
10
32.2964
20
-59.6096
11
32.3825
21
-59.5925
0
LINE
8
BLACK
6
CONTINUOUS
10
32.3825
20
-59.5925
11
33.1325
21
-59.5925
0
LINE
8
BLACK
6
CONTINUOUS
10
33.1325
20
-59.5925
11
33.2186
21
-59.6096
0
LINE
8
BLACK
6
CONTINUOUS
10
242.769
20
-56.3096
11
242.842
21
-56.3584
0
LINE
8
BLACK
6
CONTINUOUS
10
242.842
20
-56.3584
11
242.89
21
-56.4314
0
LINE
8
BLACK
6
CONTINUOUS
10
242.89
20
-56.4314
11
242.907
21
-56.5175
0
LINE
8
BLACK
6
CONTINUOUS
10
242.907
20
-56.5175
11
242.907
21
-56.9675
0
LINE
8
BLACK
6
CONTINUOUS
10
242.907
20
-56.9675
11
242.89
21
-57.0536
0
LINE
8
BLACK
6
CONTINUOUS
10
242.89
20
-57.0536
11
242.842
21
-57.1266
0
LINE
8
BLACK
6
CONTINUOUS
10
242.842
20
-57.1266
11
242.769
21
-57.1754
0
LINE
8
BLACK
6
CONTINUOUS
10
242.769
20
-57.1754
11
242.682
21
-57.1925
0
LINE
8
BLACK
6
CONTINUOUS
10
242.682
20
-57.1925
11
241.932
21
-57.1925
0
LINE
8
BLACK
6
CONTINUOUS
10
241.932
20
-57.1925
11
241.846
21
-57.1754
0
LINE
8
BLACK
6
CONTINUOUS
10
241.846
20
-57.1754
11
241.773
21
-57.1266
0
LINE
8
BLACK
6
CONTINUOUS
10
241.773
20
-57.1266
11
241.725
21
-57.0536
0
LINE
8
BLACK
6
CONTINUOUS
10
241.725
20
-57.0536
11
241.707
21
-56.9675
0
LINE
8
BLACK
6
CONTINUOUS
10
241.707
20
-56.9675
11
241.707
21
-56.5175
0
LINE
8
BLACK
6
CONTINUOUS
10
241.707
20
-56.5175
11
241.725
21
-56.4314
0
LINE
8
BLACK
6
CONTINUOUS
10
241.725
20
-56.4314
11
241.773
21
-56.3584
0
LINE
8
BLACK
6
CONTINUOUS
10
241.773
20
-56.3584
11
241.846
21
-56.3096
0
LINE
8
BLACK
6
CONTINUOUS
10
241.846
20
-56.3096
11
241.932
21
-56.2925
0
LINE
8
BLACK
6
CONTINUOUS
10
241.932
20
-56.2925
11
242.682
21
-56.2925
0
LINE
8
BLACK
6
CONTINUOUS
10
242.682
20
-56.2925
11
242.769
21
-56.3096
0
LINE
8
BLACK
6
CONTINUOUS
10
223.719
20
-56.3096
11
223.792
21
-56.3584
0
LINE
8
BLACK
6
CONTINUOUS
10
223.792
20
-56.3584
11
223.84
21
-56.4314
0
LINE
8
BLACK
6
CONTINUOUS
10
223.84
20
-56.4314
11
223.857
21
-56.5175
0
LINE
8
BLACK
6
CONTINUOUS
10
223.857
20
-56.5175
11
223.857
21
-56.9675
0
LINE
8
BLACK
6
CONTINUOUS
10
223.857
20
-56.9675
11
223.84
21
-57.0536
0
LINE
8
BLACK
6
CONTINUOUS
10
223.84
20
-57.0536
11
223.792
21
-57.1266
0
LINE
8
BLACK
6
CONTINUOUS
10
223.792
20
-57.1266
11
223.719
21
-57.1754
0
LINE
8
BLACK
6
CONTINUOUS
10
223.719
20
-57.1754
11
223.632
21
-57.1925
0
LINE
8
BLACK
6
CONTINUOUS
10
223.632
20
-57.1925
11
222.882
21
-57.1925
0
LINE
8
BLACK
6
CONTINUOUS
10
222.882
20
-57.1925
11
222.796
21
-57.1754
0
LINE
8
BLACK
6
CONTINUOUS
10
222.796
20
-57.1754
11
222.723
21
-57.1266
0
LINE
8
BLACK
6
CONTINUOUS
10
222.723
20
-57.1266
11
222.675
21
-57.0536
0
LINE
8
BLACK
6
CONTINUOUS
10
222.675
20
-57.0536
11
222.657
21
-56.9675
0
LINE
8
BLACK
6
CONTINUOUS
10
222.657
20
-56.9675
11
222.657
21
-56.5175
0
LINE
8
BLACK
6
CONTINUOUS
10
222.657
20
-56.5175
11
222.675
21
-56.4314
0
LINE
8
BLACK
6
CONTINUOUS
10
222.675
20
-56.4314
11
222.723
21
-56.3584
0
LINE
8
BLACK
6
CONTINUOUS
10
222.723
20
-56.3584
11
222.796
21
-56.3096
0
LINE
8
BLACK
6
CONTINUOUS
10
222.796
20
-56.3096
11
222.882
21
-56.2925
0
LINE
8
BLACK
6
CONTINUOUS
10
222.882
20
-56.2925
11
223.632
21
-56.2925
0
LINE
8
BLACK
6
CONTINUOUS
10
223.632
20
-56.2925
11
223.719
21
-56.3096
0
LINE
8
BLACK
6
CONTINUOUS
10
204.669
20
-56.3096
11
204.742
21
-56.3584
0
LINE
8
BLACK
6
CONTINUOUS
10
204.742
20
-56.3584
11
204.79
21
-56.4314
0
LINE
8
BLACK
6
CONTINUOUS
10
204.79
20
-56.4314
11
204.808
21
-56.5175
0
LINE
8
BLACK
6
CONTINUOUS
10
204.808
20
-56.5175
11
204.808
21
-56.9675
0
LINE
8
BLACK
6
CONTINUOUS
10
204.808
20
-56.9675
11
204.79
21
-57.0536
0
LINE
8
BLACK
6
CONTINUOUS
10
204.79
20
-57.0536
11
204.742
21
-57.1266
0
LINE
8
BLACK
6
CONTINUOUS
10
204.742
20
-57.1266
11
204.669
21
-57.1754
0
LINE
8
BLACK
6
CONTINUOUS
10
204.669
20
-57.1754
11
204.582
21
-57.1925
0
LINE
8
BLACK
6
CONTINUOUS
10
204.582
20
-57.1925
11
203.832
21
-57.1925
0
LINE
8
BLACK
6
CONTINUOUS
10
203.832
20
-57.1925
11
203.746
21
-57.1754
0
LINE
8
BLACK
6
CONTINUOUS
10
203.746
20
-57.1754
11
203.673
21
-57.1266
0
LINE
8
BLACK
6
CONTINUOUS
10
203.673
20
-57.1266
11
203.625
21
-57.0536
0
LINE
8
BLACK
6
CONTINUOUS
10
203.625
20
-57.0536
11
203.607
21
-56.9675
0
LINE
8
BLACK
6
CONTINUOUS
10
203.607
20
-56.9675
11
203.607
21
-56.5175
0
LINE
8
BLACK
6
CONTINUOUS
10
203.607
20
-56.5175
11
203.625
21
-56.4314
0
LINE
8
BLACK
6
CONTINUOUS
10
203.625
20
-56.4314
11
203.673
21
-56.3584
0
LINE
8
BLACK
6
CONTINUOUS
10
203.673
20
-56.3584
11
203.746
21
-56.3096
0
LINE
8
BLACK
6
CONTINUOUS
10
203.746
20
-56.3096
11
203.832
21
-56.2925
0
LINE
8
BLACK
6
CONTINUOUS
10
203.832
20
-56.2925
11
204.582
21
-56.2925
0
LINE
8
BLACK
6
CONTINUOUS
10
204.582
20
-56.2925
11
204.669
21
-56.3096
0
LINE
8
BLACK
6
CONTINUOUS
10
185.619
20
-56.3096
11
185.692
21
-56.3584
0
LINE
8
BLACK
6
CONTINUOUS
10
185.692
20
-56.3584
11
185.74
21
-56.4314
0
LINE
8
BLACK
6
CONTINUOUS
10
185.74
20
-56.4314
11
185.757
21
-56.5175
0
LINE
8
BLACK
6
CONTINUOUS
10
185.757
20
-56.5175
11
185.757
21
-56.9675
0
LINE
8
BLACK
6
CONTINUOUS
10
185.757
20
-56.9675
11
185.74
21
-57.0536
0
LINE
8
BLACK
6
CONTINUOUS
10
185.74
20
-57.0536
11
185.692
21
-57.1266
0
LINE
8
BLACK
6
CONTINUOUS
10
185.692
20
-57.1266
11
185.619
21
-57.1754
0
LINE
8
BLACK
6
CONTINUOUS
10
185.619
20
-57.1754
11
185.532
21
-57.1925
0
LINE
8
BLACK
6
CONTINUOUS
10
185.532
20
-57.1925
11
184.782
21
-57.1925
0
LINE
8
BLACK
6
CONTINUOUS
10
184.782
20
-57.1925
11
184.696
21
-57.1754
0
LINE
8
BLACK
6
CONTINUOUS
10
184.696
20
-57.1754
11
184.623
21
-57.1266
0
LINE
8
BLACK
6
CONTINUOUS
10
184.623
20
-57.1266
11
184.575
21
-57.0536
0
LINE
8
BLACK
6
CONTINUOUS
10
184.575
20
-57.0536
11
184.558
21
-56.9675
0
LINE
8
BLACK
6
CONTINUOUS
10
184.558
20
-56.9675
11
184.558
21
-56.5175
0
LINE
8
BLACK
6
CONTINUOUS
10
184.558
20
-56.5175
11
184.575
21
-56.4314
0
LINE
8
BLACK
6
CONTINUOUS
10
184.575
20
-56.4314
11
184.623
21
-56.3584
0
LINE
8
BLACK
6
CONTINUOUS
10
184.623
20
-56.3584
11
184.696
21
-56.3096
0
LINE
8
BLACK
6
CONTINUOUS
10
184.696
20
-56.3096
11
184.782
21
-56.2925
0
LINE
8
BLACK
6
CONTINUOUS
10
184.782
20
-56.2925
11
185.532
21
-56.2925
0
LINE
8
BLACK
6
CONTINUOUS
10
185.532
20
-56.2925
11
185.619
21
-56.3096
0
LINE
8
BLACK
6
CONTINUOUS
10
157.044
20
-56.3096
11
157.117
21
-56.3584
0
LINE
8
BLACK
6
CONTINUOUS
10
157.117
20
-56.3584
11
157.165
21
-56.4314
0
LINE
8
BLACK
6
CONTINUOUS
10
157.165
20
-56.4314
11
157.183
21
-56.5175
0
LINE
8
BLACK
6
CONTINUOUS
10
157.183
20
-56.5175
11
157.183
21
-56.9675
0
LINE
8
BLACK
6
CONTINUOUS
10
157.183
20
-56.9675
11
157.165
21
-57.0536
0
LINE
8
BLACK
6
CONTINUOUS
10
157.165
20
-57.0536
11
157.117
21
-57.1266
0
LINE
8
BLACK
6
CONTINUOUS
10
157.117
20
-57.1266
11
157.044
21
-57.1754
0
LINE
8
BLACK
6
CONTINUOUS
10
157.044
20
-57.1754
11
156.957
21
-57.1925
0
LINE
8
BLACK
6
CONTINUOUS
10
156.957
20
-57.1925
11
156.207
21
-57.1925
0
LINE
8
BLACK
6
CONTINUOUS
10
156.207
20
-57.1925
11
156.121
21
-57.1754
0
LINE
8
BLACK
6
CONTINUOUS
10
156.121
20
-57.1754
11
156.048
21
-57.1266
0
LINE
8
BLACK
6
CONTINUOUS
10
156.048
20
-57.1266
11
156
21
-57.0536
0
LINE
8
BLACK
6
CONTINUOUS
10
156
20
-57.0536
11
155.982
21
-56.9675
0
LINE
8
BLACK
6
CONTINUOUS
10
155.982
20
-56.9675
11
155.982
21
-56.5175
0
LINE
8
BLACK
6
CONTINUOUS
10
155.982
20
-56.5175
11
156
21
-56.4314
0
LINE
8
BLACK
6
CONTINUOUS
10
156
20
-56.4314
11
156.048
21
-56.3584
0
LINE
8
BLACK
6
CONTINUOUS
10
156.048
20
-56.3584
11
156.121
21
-56.3096
0
LINE
8
BLACK
6
CONTINUOUS
10
156.121
20
-56.3096
11
156.207
21
-56.2925
0
LINE
8
BLACK
6
CONTINUOUS
10
156.207
20
-56.2925
11
156.957
21
-56.2925
0
LINE
8
BLACK
6
CONTINUOUS
10
156.957
20
-56.2925
11
157.044
21
-56.3096
0
LINE
8
BLACK
6
CONTINUOUS
10
137.994
20
-56.3096
11
138.067
21
-56.3584
0
LINE
8
BLACK
6
CONTINUOUS
10
138.067
20
-56.3584
11
138.115
21
-56.4314
0
LINE
8
BLACK
6
CONTINUOUS
10
138.115
20
-56.4314
11
138.132
21
-56.5175
0
LINE
8
BLACK
6
CONTINUOUS
10
138.132
20
-56.5175
11
138.132
21
-56.9675
0
LINE
8
BLACK
6
CONTINUOUS
10
138.132
20
-56.9675
11
138.115
21
-57.0536
0
LINE
8
BLACK
6
CONTINUOUS
10
138.115
20
-57.0536
11
138.067
21
-57.1266
0
LINE
8
BLACK
6
CONTINUOUS
10
138.067
20
-57.1266
11
137.994
21
-57.1754
0
LINE
8
BLACK
6
CONTINUOUS
10
137.994
20
-57.1754
11
137.907
21
-57.1925
0
LINE
8
BLACK
6
CONTINUOUS
10
137.907
20
-57.1925
11
137.157
21
-57.1925
0
LINE
8
BLACK
6
CONTINUOUS
10
137.157
20
-57.1925
11
137.071
21
-57.1754
0
LINE
8
BLACK
6
CONTINUOUS
10
137.071
20
-57.1754
11
136.998
21
-57.1266
0
LINE
8
BLACK
6
CONTINUOUS
10
136.998
20
-57.1266
11
136.95
21
-57.0536
0
LINE
8
BLACK
6
CONTINUOUS
10
136.95
20
-57.0536
11
136.933
21
-56.9675
0
LINE
8
BLACK
6
CONTINUOUS
10
136.933
20
-56.9675
11
136.933
21
-56.5175
0
LINE
8
BLACK
6
CONTINUOUS
10
136.933
20
-56.5175
11
136.95
21
-56.4314
0
LINE
8
BLACK
6
CONTINUOUS
10
136.95
20
-56.4314
11
136.998
21
-56.3584
0
LINE
8
BLACK
6
CONTINUOUS
10
136.998
20
-56.3584
11
137.071
21
-56.3096
0
LINE
8
BLACK
6
CONTINUOUS
10
137.071
20
-56.3096
11
137.157
21
-56.2925
0
LINE
8
BLACK
6
CONTINUOUS
10
137.157
20
-56.2925
11
137.907
21
-56.2925
0
LINE
8
BLACK
6
CONTINUOUS
10
137.907
20
-56.2925
11
137.994
21
-56.3096
0
LINE
8
BLACK
6
CONTINUOUS
10
118.944
20
-56.3096
11
119.017
21
-56.3584
0
LINE
8
BLACK
6
CONTINUOUS
10
119.017
20
-56.3584
11
119.065
21
-56.4314
0
LINE
8
BLACK
6
CONTINUOUS
10
119.065
20
-56.4314
11
119.082
21
-56.5175
0
LINE
8
BLACK
6
CONTINUOUS
10
119.082
20
-56.5175
11
119.082
21
-56.9675
0
LINE
8
BLACK
6
CONTINUOUS
10
119.082
20
-56.9675
11
119.065
21
-57.0536
0
LINE
8
BLACK
6
CONTINUOUS
10
119.065
20
-57.0536
11
119.017
21
-57.1266
0
LINE
8
BLACK
6
CONTINUOUS
10
119.017
20
-57.1266
11
118.944
21
-57.1754
0
LINE
8
BLACK
6
CONTINUOUS
10
118.944
20
-57.1754
11
118.858
21
-57.1925
0
LINE
8
BLACK
6
CONTINUOUS
10
118.858
20
-57.1925
11
118.108
21
-57.1925
0
LINE
8
BLACK
6
CONTINUOUS
10
118.108
20
-57.1925
11
118.021
21
-57.1754
0
LINE
8
BLACK
6
CONTINUOUS
10
118.021
20
-57.1754
11
117.948
21
-57.1266
0
LINE
8
BLACK
6
CONTINUOUS
10
117.948
20
-57.1266
11
117.9
21
-57.0536
0
LINE
8
BLACK
6
CONTINUOUS
10
117.9
20
-57.0536
11
117.882
21
-56.9675
0
LINE
8
BLACK
6
CONTINUOUS
10
117.882
20
-56.9675
11
117.882
21
-56.5175
0
LINE
8
BLACK
6
CONTINUOUS
10
117.882
20
-56.5175
11
117.9
21
-56.4314
0
LINE
8
BLACK
6
CONTINUOUS
10
117.9
20
-56.4314
11
117.948
21
-56.3584
0
LINE
8
BLACK
6
CONTINUOUS
10
117.948
20
-56.3584
11
118.021
21
-56.3096
0
LINE
8
BLACK
6
CONTINUOUS
10
118.021
20
-56.3096
11
118.108
21
-56.2925
0
LINE
8
BLACK
6
CONTINUOUS
10
118.108
20
-56.2925
11
118.858
21
-56.2925
0
LINE
8
BLACK
6
CONTINUOUS
10
118.858
20
-56.2925
11
118.944
21
-56.3096
0
LINE
8
BLACK
6
CONTINUOUS
10
99.8936
20
-56.3096
11
99.9666
21
-56.3584
0
LINE
8
BLACK
6
CONTINUOUS
10
99.9666
20
-56.3584
11
100.015
21
-56.4314
0
LINE
8
BLACK
6
CONTINUOUS
10
100.015
20
-56.4314
11
100.032
21
-56.5175
0
LINE
8
BLACK
6
CONTINUOUS
10
100.032
20
-56.5175
11
100.032
21
-56.9675
0
LINE
8
BLACK
6
CONTINUOUS
10
100.032
20
-56.9675
11
100.015
21
-57.0536
0
LINE
8
BLACK
6
CONTINUOUS
10
100.015
20
-57.0536
11
99.9666
21
-57.1266
0
LINE
8
BLACK
6
CONTINUOUS
10
99.9666
20
-57.1266
11
99.8936
21
-57.1754
0
LINE
8
BLACK
6
CONTINUOUS
10
99.8936
20
-57.1754
11
99.8075
21
-57.1925
0
LINE
8
BLACK
6
CONTINUOUS
10
99.8075
20
-57.1925
11
99.0575
21
-57.1925
0
LINE
8
BLACK
6
CONTINUOUS
10
99.0575
20
-57.1925
11
98.9714
21
-57.1754
0
LINE
8
BLACK
6
CONTINUOUS
10
98.9714
20
-57.1754
11
98.8984
21
-57.1266
0
LINE
8
BLACK
6
CONTINUOUS
10
98.8984
20
-57.1266
11
98.8496
21
-57.0536
0
LINE
8
BLACK
6
CONTINUOUS
10
98.8496
20
-57.0536
11
98.8325
21
-56.9675
0
LINE
8
BLACK
6
CONTINUOUS
10
98.8325
20
-56.9675
11
98.8325
21
-56.5175
0
LINE
8
BLACK
6
CONTINUOUS
10
98.8325
20
-56.5175
11
98.8496
21
-56.4314
0
LINE
8
BLACK
6
CONTINUOUS
10
98.8496
20
-56.4314
11
98.8984
21
-56.3584
0
LINE
8
BLACK
6
CONTINUOUS
10
98.8984
20
-56.3584
11
98.9714
21
-56.3096
0
LINE
8
BLACK
6
CONTINUOUS
10
98.9714
20
-56.3096
11
99.0575
21
-56.2925
0
LINE
8
BLACK
6
CONTINUOUS
10
99.0575
20
-56.2925
11
99.8075
21
-56.2925
0
LINE
8
BLACK
6
CONTINUOUS
10
99.8075
20
-56.2925
11
99.8936
21
-56.3096
0
LINE
8
BLACK
6
CONTINUOUS
10
80.8436
20
-56.3096
11
80.9166
21
-56.3584
0
LINE
8
BLACK
6
CONTINUOUS
10
80.9166
20
-56.3584
11
80.9654
21
-56.4314
0
LINE
8
BLACK
6
CONTINUOUS
10
80.9654
20
-56.4314
11
80.9825
21
-56.5175
0
LINE
8
BLACK
6
CONTINUOUS
10
80.9825
20
-56.5175
11
80.9825
21
-56.9675
0
LINE
8
BLACK
6
CONTINUOUS
10
80.9825
20
-56.9675
11
80.9654
21
-57.0536
0
LINE
8
BLACK
6
CONTINUOUS
10
80.9654
20
-57.0536
11
80.9166
21
-57.1266
0
LINE
8
BLACK
6
CONTINUOUS
10
80.9166
20
-57.1266
11
80.8436
21
-57.1754
0
LINE
8
BLACK
6
CONTINUOUS
10
80.8436
20
-57.1754
11
80.7575
21
-57.1925
0
LINE
8
BLACK
6
CONTINUOUS
10
80.7575
20
-57.1925
11
80.0075
21
-57.1925
0
LINE
8
BLACK
6
CONTINUOUS
10
80.0075
20
-57.1925
11
79.9214
21
-57.1754
0
LINE
8
BLACK
6
CONTINUOUS
10
79.9214
20
-57.1754
11
79.8484
21
-57.1266
0
LINE
8
BLACK
6
CONTINUOUS
10
79.8484
20
-57.1266
11
79.7996
21
-57.0536
0
LINE
8
BLACK
6
CONTINUOUS
10
79.7996
20
-57.0536
11
79.7825
21
-56.9675
0
LINE
8
BLACK
6
CONTINUOUS
10
79.7825
20
-56.9675
11
79.7825
21
-56.5175
0
LINE
8
BLACK
6
CONTINUOUS
10
79.7825
20
-56.5175
11
79.7996
21
-56.4314
0
LINE
8
BLACK
6
CONTINUOUS
10
79.7996
20
-56.4314
11
79.8484
21
-56.3584
0
LINE
8
BLACK
6
CONTINUOUS
10
79.8484
20
-56.3584
11
79.9214
21
-56.3096
0
LINE
8
BLACK
6
CONTINUOUS
10
79.9214
20
-56.3096
11
80.0075
21
-56.2925
0
LINE
8
BLACK
6
CONTINUOUS
10
80.0075
20
-56.2925
11
80.7575
21
-56.2925
0
LINE
8
BLACK
6
CONTINUOUS
10
80.7575
20
-56.2925
11
80.8436
21
-56.3096
0
LINE
8
BLACK
6
CONTINUOUS
10
61.7936
20
-56.3096
11
61.8666
21
-56.3584
0
LINE
8
BLACK
6
CONTINUOUS
10
61.8666
20
-56.3584
11
61.9154
21
-56.4314
0
LINE
8
BLACK
6
CONTINUOUS
10
61.9154
20
-56.4314
11
61.9325
21
-56.5175
0
LINE
8
BLACK
6
CONTINUOUS
10
61.9325
20
-56.5175
11
61.9325
21
-56.9675
0
LINE
8
BLACK
6
CONTINUOUS
10
61.9325
20
-56.9675
11
61.9154
21
-57.0536
0
LINE
8
BLACK
6
CONTINUOUS
10
61.9154
20
-57.0536
11
61.8666
21
-57.1266
0
LINE
8
BLACK
6
CONTINUOUS
10
61.8666
20
-57.1266
11
61.7936
21
-57.1754
0
LINE
8
BLACK
6
CONTINUOUS
10
61.7936
20
-57.1754
11
61.7075
21
-57.1925
0
LINE
8
BLACK
6
CONTINUOUS
10
61.7075
20
-57.1925
11
60.9575
21
-57.1925
0
LINE
8
BLACK
6
CONTINUOUS
10
60.9575
20
-57.1925
11
60.8714
21
-57.1754
0
LINE
8
BLACK
6
CONTINUOUS
10
60.8714
20
-57.1754
11
60.7984
21
-57.1266
0
LINE
8
BLACK
6
CONTINUOUS
10
60.7984
20
-57.1266
11
60.7496
21
-57.0536
0
LINE
8
BLACK
6
CONTINUOUS
10
60.7496
20
-57.0536
11
60.7325
21
-56.9675
0
LINE
8
BLACK
6
CONTINUOUS
10
60.7325
20
-56.9675
11
60.7325
21
-56.5175
0
LINE
8
BLACK
6
CONTINUOUS
10
60.7325
20
-56.5175
11
60.7496
21
-56.4314
0
LINE
8
BLACK
6
CONTINUOUS
10
60.7496
20
-56.4314
11
60.7984
21
-56.3584
0
LINE
8
BLACK
6
CONTINUOUS
10
60.7984
20
-56.3584
11
60.8714
21
-56.3096
0
LINE
8
BLACK
6
CONTINUOUS
10
60.8714
20
-56.3096
11
60.9575
21
-56.2925
0
LINE
8
BLACK
6
CONTINUOUS
10
60.9575
20
-56.2925
11
61.7075
21
-56.2925
0
LINE
8
BLACK
6
CONTINUOUS
10
61.7075
20
-56.2925
11
61.7936
21
-56.3096
0
LINE
8
BLACK
6
CONTINUOUS
10
33.2186
20
-56.3096
11
33.2916
21
-56.3584
0
LINE
8
BLACK
6
CONTINUOUS
10
33.2916
20
-56.3584
11
33.3404
21
-56.4314
0
LINE
8
BLACK
6
CONTINUOUS
10
33.3404
20
-56.4314
11
33.3575
21
-56.5175
0
LINE
8
BLACK
6
CONTINUOUS
10
33.3575
20
-56.5175
11
33.3575
21
-56.9675
0
LINE
8
BLACK
6
CONTINUOUS
10
33.3575
20
-56.9675
11
33.3404
21
-57.0536
0
LINE
8
BLACK
6
CONTINUOUS
10
33.3404
20
-57.0536
11
33.2916
21
-57.1266
0
LINE
8
BLACK
6
CONTINUOUS
10
33.2916
20
-57.1266
11
33.2186
21
-57.1754
0
LINE
8
BLACK
6
CONTINUOUS
10
33.2186
20
-57.1754
11
33.1325
21
-57.1925
0
LINE
8
BLACK
6
CONTINUOUS
10
33.1325
20
-57.1925
11
32.3825
21
-57.1925
0
LINE
8
BLACK
6
CONTINUOUS
10
32.3825
20
-57.1925
11
32.2964
21
-57.1754
0
LINE
8
BLACK
6
CONTINUOUS
10
32.2964
20
-57.1754
11
32.2234
21
-57.1266
0
LINE
8
BLACK
6
CONTINUOUS
10
32.2234
20
-57.1266
11
32.1746
21
-57.0536
0
LINE
8
BLACK
6
CONTINUOUS
10
32.1746
20
-57.0536
11
32.1575
21
-56.9675
0
LINE
8
BLACK
6
CONTINUOUS
10
32.1575
20
-56.9675
11
32.1575
21
-56.5175
0
LINE
8
BLACK
6
CONTINUOUS
10
32.1575
20
-56.5175
11
32.1746
21
-56.4314
0
LINE
8
BLACK
6
CONTINUOUS
10
32.1746
20
-56.4314
11
32.2234
21
-56.3584
0
LINE
8
BLACK
6
CONTINUOUS
10
32.2234
20
-56.3584
11
32.2964
21
-56.3096
0
LINE
8
BLACK
6
CONTINUOUS
10
32.2964
20
-56.3096
11
32.3825
21
-56.2925
0
LINE
8
BLACK
6
CONTINUOUS
10
32.3825
20
-56.2925
11
33.1325
21
-56.2925
0
LINE
8
BLACK
6
CONTINUOUS
10
33.1325
20
-56.2925
11
33.2186
21
-56.3096
0
LINE
8
BLACK
6
CONTINUOUS
10
242.552
20
-52.285
11
240.002
21
-52.285
0
LINE
8
BLACK
6
CONTINUOUS
10
240.002
20
-52.285
11
240.002
21
-49.785
0
LINE
8
BLACK
6
CONTINUOUS
10
240.002
20
-49.785
11
242.552
21
-49.785
0
LINE
8
BLACK
6
CONTINUOUS
10
242.552
20
-49.785
11
242.552
21
-52.285
0
LINE
8
BLACK
6
CONTINUOUS
10
223.502
20
-52.285
11
220.952
21
-52.285
0
LINE
8
BLACK
6
CONTINUOUS
10
220.952
20
-52.285
11
220.952
21
-49.785
0
LINE
8
BLACK
6
CONTINUOUS
10
220.952
20
-49.785
11
223.502
21
-49.785
0
LINE
8
BLACK
6
CONTINUOUS
10
223.502
20
-49.785
11
223.502
21
-52.285
0
LINE
8
BLACK
6
CONTINUOUS
10
204.452
20
-52.285
11
201.903
21
-52.285
0
LINE
8
BLACK
6
CONTINUOUS
10
201.903
20
-52.285
11
201.903
21
-49.785
0
LINE
8
BLACK
6
CONTINUOUS
10
201.903
20
-49.785
11
204.452
21
-49.785
0
LINE
8
BLACK
6
CONTINUOUS
10
204.452
20
-49.785
11
204.452
21
-52.285
0
LINE
8
BLACK
6
CONTINUOUS
10
185.403
20
-52.285
11
182.852
21
-52.285
0
LINE
8
BLACK
6
CONTINUOUS
10
182.852
20
-52.285
11
182.852
21
-49.785
0
LINE
8
BLACK
6
CONTINUOUS
10
182.852
20
-49.785
11
185.403
21
-49.785
0
LINE
8
BLACK
6
CONTINUOUS
10
185.403
20
-49.785
11
185.403
21
-52.285
0
LINE
8
BLACK
6
CONTINUOUS
10
156.827
20
-52.285
11
154.278
21
-52.285
0
LINE
8
BLACK
6
CONTINUOUS
10
154.278
20
-52.285
11
154.278
21
-49.785
0
LINE
8
BLACK
6
CONTINUOUS
10
154.278
20
-49.785
11
156.827
21
-49.785
0
LINE
8
BLACK
6
CONTINUOUS
10
156.827
20
-49.785
11
156.827
21
-52.285
0
LINE
8
BLACK
6
CONTINUOUS
10
137.778
20
-52.285
11
135.227
21
-52.285
0
LINE
8
BLACK
6
CONTINUOUS
10
135.227
20
-52.285
11
135.227
21
-49.785
0
LINE
8
BLACK
6
CONTINUOUS
10
135.227
20
-49.785
11
137.778
21
-49.785
0
LINE
8
BLACK
6
CONTINUOUS
10
137.778
20
-49.785
11
137.778
21
-52.285
0
LINE
8
BLACK
6
CONTINUOUS
10
118.727
20
-52.285
11
116.177
21
-52.285
0
LINE
8
BLACK
6
CONTINUOUS
10
116.177
20
-52.285
11
116.177
21
-49.785
0
LINE
8
BLACK
6
CONTINUOUS
10
116.177
20
-49.785
11
118.727
21
-49.785
0
LINE
8
BLACK
6
CONTINUOUS
10
118.727
20
-49.785
11
118.727
21
-52.285
0
LINE
8
BLACK
6
CONTINUOUS
10
99.6775
20
-52.285
11
97.1275
21
-52.285
0
LINE
8
BLACK
6
CONTINUOUS
10
97.1275
20
-52.285
11
97.1275
21
-49.785
0
LINE
8
BLACK
6
CONTINUOUS
10
97.1275
20
-49.785
11
99.6775
21
-49.785
0
LINE
8
BLACK
6
CONTINUOUS
10
99.6775
20
-49.785
11
99.6775
21
-52.285
0
LINE
8
BLACK
6
CONTINUOUS
10
80.6275
20
-52.285
11
78.0775
21
-52.285
0
LINE
8
BLACK
6
CONTINUOUS
10
78.0775
20
-52.285
11
78.0775
21
-49.785
0
LINE
8
BLACK
6
CONTINUOUS
10
78.0775
20
-49.785
11
80.6275
21
-49.785
0
LINE
8
BLACK
6
CONTINUOUS
10
80.6275
20
-49.785
11
80.6275
21
-52.285
0
LINE
8
BLACK
6
CONTINUOUS
10
61.5775
20
-52.285
11
59.0275
21
-52.285
0
LINE
8
BLACK
6
CONTINUOUS
10
59.0275
20
-52.285
11
59.0275
21
-49.785
0
LINE
8
BLACK
6
CONTINUOUS
10
59.0275
20
-49.785
11
61.5775
21
-49.785
0
LINE
8
BLACK
6
CONTINUOUS
10
61.5775
20
-49.785
11
61.5775
21
-52.285
0
LINE
8
BLACK
6
CONTINUOUS
10
33.0025
20
-52.285
11
30.4525
21
-52.285
0
LINE
8
BLACK
6
CONTINUOUS
10
30.4525
20
-52.285
11
30.4525
21
-49.785
0
LINE
8
BLACK
6
CONTINUOUS
10
30.4525
20
-49.785
11
33.0025
21
-49.785
0
LINE
8
BLACK
6
CONTINUOUS
10
33.0025
20
-49.785
11
33.0025
21
-52.285
0
LINE
8
BLACK
6
CONTINUOUS
10
256.402
20
-49.745
11
253.852
21
-49.745
0
LINE
8
BLACK
6
CONTINUOUS
10
253.852
20
-49.745
11
253.852
21
-47.245
0
LINE
8
BLACK
6
CONTINUOUS
10
253.852
20
-47.245
11
256.402
21
-47.245
0
LINE
8
BLACK
6
CONTINUOUS
10
256.402
20
-47.245
11
256.402
21
-49.745
0
LINE
8
BLACK
6
CONTINUOUS
10
237.352
20
-49.745
11
234.802
21
-49.745
0
LINE
8
BLACK
6
CONTINUOUS
10
234.802
20
-49.745
11
234.802
21
-47.245
0
LINE
8
BLACK
6
CONTINUOUS
10
234.802
20
-47.245
11
237.352
21
-47.245
0
LINE
8
BLACK
6
CONTINUOUS
10
237.352
20
-47.245
11
237.352
21
-49.745
0
LINE
8
BLACK
6
CONTINUOUS
10
218.302
20
-49.745
11
215.752
21
-49.745
0
LINE
8
BLACK
6
CONTINUOUS
10
215.752
20
-49.745
11
215.752
21
-47.245
0
LINE
8
BLACK
6
CONTINUOUS
10
215.752
20
-47.245
11
218.302
21
-47.245
0
LINE
8
BLACK
6
CONTINUOUS
10
218.302
20
-47.245
11
218.302
21
-49.745
0
LINE
8
BLACK
6
CONTINUOUS
10
199.252
20
-49.745
11
196.702
21
-49.745
0
LINE
8
BLACK
6
CONTINUOUS
10
196.702
20
-49.745
11
196.702
21
-47.245
0
LINE
8
BLACK
6
CONTINUOUS
10
196.702
20
-47.245
11
199.252
21
-47.245
0
LINE
8
BLACK
6
CONTINUOUS
10
199.252
20
-47.245
11
199.252
21
-49.745
0
LINE
8
BLACK
6
CONTINUOUS
10
170.677
20
-49.745
11
168.127
21
-49.745
0
LINE
8
BLACK
6
CONTINUOUS
10
168.127
20
-49.745
11
168.127
21
-47.245
0
LINE
8
BLACK
6
CONTINUOUS
10
168.127
20
-47.245
11
170.677
21
-47.245
0
LINE
8
BLACK
6
CONTINUOUS
10
170.677
20
-47.245
11
170.677
21
-49.745
0
LINE
8
BLACK
6
CONTINUOUS
10
151.627
20
-49.745
11
149.077
21
-49.745
0
LINE
8
BLACK
6
CONTINUOUS
10
149.077
20
-49.745
11
149.077
21
-47.245
0
LINE
8
BLACK
6
CONTINUOUS
10
149.077
20
-47.245
11
151.627
21
-47.245
0
LINE
8
BLACK
6
CONTINUOUS
10
151.627
20
-47.245
11
151.627
21
-49.745
0
LINE
8
BLACK
6
CONTINUOUS
10
132.577
20
-49.745
11
130.028
21
-49.745
0
LINE
8
BLACK
6
CONTINUOUS
10
130.028
20
-49.745
11
130.028
21
-47.245
0
LINE
8
BLACK
6
CONTINUOUS
10
130.028
20
-47.245
11
132.577
21
-47.245
0
LINE
8
BLACK
6
CONTINUOUS
10
132.577
20
-47.245
11
132.577
21
-49.745
0
LINE
8
BLACK
6
CONTINUOUS
10
113.527
20
-49.745
11
110.977
21
-49.745
0
LINE
8
BLACK
6
CONTINUOUS
10
110.977
20
-49.745
11
110.977
21
-47.245
0
LINE
8
BLACK
6
CONTINUOUS
10
110.977
20
-47.245
11
113.527
21
-47.245
0
LINE
8
BLACK
6
CONTINUOUS
10
113.527
20
-47.245
11
113.527
21
-49.745
0
LINE
8
BLACK
6
CONTINUOUS
10
94.4775
20
-49.745
11
91.9275
21
-49.745
0
LINE
8
BLACK
6
CONTINUOUS
10
91.9275
20
-49.745
11
91.9275
21
-47.245
0
LINE
8
BLACK
6
CONTINUOUS
10
91.9275
20
-47.245
11
94.4775
21
-47.245
0
LINE
8
BLACK
6
CONTINUOUS
10
94.4775
20
-47.245
11
94.4775
21
-49.745
0
LINE
8
BLACK
6
CONTINUOUS
10
75.4275
20
-49.745
11
72.8775
21
-49.745
0
LINE
8
BLACK
6
CONTINUOUS
10
72.8775
20
-49.745
11
72.8775
21
-47.245
0
LINE
8
BLACK
6
CONTINUOUS
10
72.8775
20
-47.245
11
75.4275
21
-47.245
0
LINE
8
BLACK
6
CONTINUOUS
10
75.4275
20
-47.245
11
75.4275
21
-49.745
0
LINE
8
BLACK
6
CONTINUOUS
10
46.8525
20
-49.745
11
44.3025
21
-49.745
0
LINE
8
BLACK
6
CONTINUOUS
10
44.3025
20
-49.745
11
44.3025
21
-47.245
0
LINE
8
BLACK
6
CONTINUOUS
10
44.3025
20
-47.245
11
46.8525
21
-47.245
0
LINE
8
BLACK
6
CONTINUOUS
10
46.8525
20
-47.245
11
46.8525
21
-49.745
0
LINE
8
BLACK
6
CONTINUOUS
10
176.094
20
-40.5596
11
176.167
21
-40.6084
0
LINE
8
BLACK
6
CONTINUOUS
10
176.167
20
-40.6084
11
176.215
21
-40.6814
0
LINE
8
BLACK
6
CONTINUOUS
10
176.215
20
-40.6814
11
176.232
21
-40.7675
0
LINE
8
BLACK
6
CONTINUOUS
10
176.232
20
-40.7675
11
176.232
21
-41.2175
0
LINE
8
BLACK
6
CONTINUOUS
10
176.232
20
-41.2175
11
176.215
21
-41.3036
0
LINE
8
BLACK
6
CONTINUOUS
10
176.215
20
-41.3036
11
176.167
21
-41.3766
0
LINE
8
BLACK
6
CONTINUOUS
10
176.167
20
-41.3766
11
176.094
21
-41.4254
0
LINE
8
BLACK
6
CONTINUOUS
10
176.094
20
-41.4254
11
176.007
21
-41.4425
0
LINE
8
BLACK
6
CONTINUOUS
10
176.007
20
-41.4425
11
175.257
21
-41.4425
0
LINE
8
BLACK
6
CONTINUOUS
10
175.257
20
-41.4425
11
175.171
21
-41.4254
0
LINE
8
BLACK
6
CONTINUOUS
10
175.171
20
-41.4254
11
175.098
21
-41.3766
0
LINE
8
BLACK
6
CONTINUOUS
10
175.098
20
-41.3766
11
175.05
21
-41.3036
0
LINE
8
BLACK
6
CONTINUOUS
10
175.05
20
-41.3036
11
175.032
21
-41.2175
0
LINE
8
BLACK
6
CONTINUOUS
10
175.032
20
-41.2175
11
175.032
21
-40.7675
0
LINE
8
BLACK
6
CONTINUOUS
10
175.032
20
-40.7675
11
175.05
21
-40.6814
0
LINE
8
BLACK
6
CONTINUOUS
10
175.05
20
-40.6814
11
175.098
21
-40.6084
0
LINE
8
BLACK
6
CONTINUOUS
10
175.098
20
-40.6084
11
175.171
21
-40.5596
0
LINE
8
BLACK
6
CONTINUOUS
10
175.171
20
-40.5596
11
175.257
21
-40.5425
0
LINE
8
BLACK
6
CONTINUOUS
10
175.257
20
-40.5425
11
176.007
21
-40.5425
0
LINE
8
BLACK
6
CONTINUOUS
10
176.007
20
-40.5425
11
176.094
21
-40.5596
0
LINE
8
BLACK
6
CONTINUOUS
10
157.044
20
-40.5596
11
157.117
21
-40.6084
0
LINE
8
BLACK
6
CONTINUOUS
10
157.117
20
-40.6084
11
157.165
21
-40.6814
0
LINE
8
BLACK
6
CONTINUOUS
10
157.165
20
-40.6814
11
157.183
21
-40.7675
0
LINE
8
BLACK
6
CONTINUOUS
10
157.183
20
-40.7675
11
157.183
21
-41.2175
0
LINE
8
BLACK
6
CONTINUOUS
10
157.183
20
-41.2175
11
157.165
21
-41.3036
0
LINE
8
BLACK
6
CONTINUOUS
10
157.165
20
-41.3036
11
157.117
21
-41.3766
0
LINE
8
BLACK
6
CONTINUOUS
10
157.117
20
-41.3766
11
157.044
21
-41.4254
0
LINE
8
BLACK
6
CONTINUOUS
10
157.044
20
-41.4254
11
156.957
21
-41.4425
0
LINE
8
BLACK
6
CONTINUOUS
10
156.957
20
-41.4425
11
156.207
21
-41.4425
0
LINE
8
BLACK
6
CONTINUOUS
10
156.207
20
-41.4425
11
156.121
21
-41.4254
0
LINE
8
BLACK
6
CONTINUOUS
10
156.121
20
-41.4254
11
156.048
21
-41.3766
0
LINE
8
BLACK
6
CONTINUOUS
10
156.048
20
-41.3766
11
156
21
-41.3036
0
LINE
8
BLACK
6
CONTINUOUS
10
156
20
-41.3036
11
155.982
21
-41.2175
0
LINE
8
BLACK
6
CONTINUOUS
10
155.982
20
-41.2175
11
155.982
21
-40.7675
0
LINE
8
BLACK
6
CONTINUOUS
10
155.982
20
-40.7675
11
156
21
-40.6814
0
LINE
8
BLACK
6
CONTINUOUS
10
156
20
-40.6814
11
156.048
21
-40.6084
0
LINE
8
BLACK
6
CONTINUOUS
10
156.048
20
-40.6084
11
156.121
21
-40.5596
0
LINE
8
BLACK
6
CONTINUOUS
10
156.121
20
-40.5596
11
156.207
21
-40.5425
0
LINE
8
BLACK
6
CONTINUOUS
10
156.207
20
-40.5425
11
156.957
21
-40.5425
0
LINE
8
BLACK
6
CONTINUOUS
10
156.957
20
-40.5425
11
157.044
21
-40.5596
0
LINE
8
BLACK
6
CONTINUOUS
10
137.994
20
-40.5596
11
138.067
21
-40.6084
0
LINE
8
BLACK
6
CONTINUOUS
10
138.067
20
-40.6084
11
138.115
21
-40.6814
0
LINE
8
BLACK
6
CONTINUOUS
10
138.115
20
-40.6814
11
138.132
21
-40.7675
0
LINE
8
BLACK
6
CONTINUOUS
10
138.132
20
-40.7675
11
138.132
21
-41.2175
0
LINE
8
BLACK
6
CONTINUOUS
10
138.132
20
-41.2175
11
138.115
21
-41.3036
0
LINE
8
BLACK
6
CONTINUOUS
10
138.115
20
-41.3036
11
138.067
21
-41.3766
0
LINE
8
BLACK
6
CONTINUOUS
10
138.067
20
-41.3766
11
137.994
21
-41.4254
0
LINE
8
BLACK
6
CONTINUOUS
10
137.994
20
-41.4254
11
137.907
21
-41.4425
0
LINE
8
BLACK
6
CONTINUOUS
10
137.907
20
-41.4425
11
137.157
21
-41.4425
0
LINE
8
BLACK
6
CONTINUOUS
10
137.157
20
-41.4425
11
137.071
21
-41.4254
0
LINE
8
BLACK
6
CONTINUOUS
10
137.071
20
-41.4254
11
136.998
21
-41.3766
0
LINE
8
BLACK
6
CONTINUOUS
10
136.998
20
-41.3766
11
136.95
21
-41.3036
0
LINE
8
BLACK
6
CONTINUOUS
10
136.95
20
-41.3036
11
136.933
21
-41.2175
0
LINE
8
BLACK
6
CONTINUOUS
10
136.933
20
-41.2175
11
136.933
21
-40.7675
0
LINE
8
BLACK
6
CONTINUOUS
10
136.933
20
-40.7675
11
136.95
21
-40.6814
0
LINE
8
BLACK
6
CONTINUOUS
10
136.95
20
-40.6814
11
136.998
21
-40.6084
0
LINE
8
BLACK
6
CONTINUOUS
10
136.998
20
-40.6084
11
137.071
21
-40.5596
0
LINE
8
BLACK
6
CONTINUOUS
10
137.071
20
-40.5596
11
137.157
21
-40.5425
0
LINE
8
BLACK
6
CONTINUOUS
10
137.157
20
-40.5425
11
137.907
21
-40.5425
0
LINE
8
BLACK
6
CONTINUOUS
10
137.907
20
-40.5425
11
137.994
21
-40.5596
0
LINE
8
BLACK
6
CONTINUOUS
10
118.944
20
-40.5596
11
119.017
21
-40.6084
0
LINE
8
BLACK
6
CONTINUOUS
10
119.017
20
-40.6084
11
119.065
21
-40.6814
0
LINE
8
BLACK
6
CONTINUOUS
10
119.065
20
-40.6814
11
119.082
21
-40.7675
0
LINE
8
BLACK
6
CONTINUOUS
10
119.082
20
-40.7675
11
119.082
21
-41.2175
0
LINE
8
BLACK
6
CONTINUOUS
10
119.082
20
-41.2175
11
119.065
21
-41.3036
0
LINE
8
BLACK
6
CONTINUOUS
10
119.065
20
-41.3036
11
119.017
21
-41.3766
0
LINE
8
BLACK
6
CONTINUOUS
10
119.017
20
-41.3766
11
118.944
21
-41.4254
0
LINE
8
BLACK
6
CONTINUOUS
10
118.944
20
-41.4254
11
118.858
21
-41.4425
0
LINE
8
BLACK
6
CONTINUOUS
10
118.858
20
-41.4425
11
118.108
21
-41.4425
0
LINE
8
BLACK
6
CONTINUOUS
10
118.108
20
-41.4425
11
118.021
21
-41.4254
0
LINE
8
BLACK
6
CONTINUOUS
10
118.021
20
-41.4254
11
117.948
21
-41.3766
0
LINE
8
BLACK
6
CONTINUOUS
10
117.948
20
-41.3766
11
117.9
21
-41.3036
0
LINE
8
BLACK
6
CONTINUOUS
10
117.9
20
-41.3036
11
117.882
21
-41.2175
0
LINE
8
BLACK
6
CONTINUOUS
10
117.882
20
-41.2175
11
117.882
21
-40.7675
0
LINE
8
BLACK
6
CONTINUOUS
10
117.882
20
-40.7675
11
117.9
21
-40.6814
0
LINE
8
BLACK
6
CONTINUOUS
10
117.9
20
-40.6814
11
117.948
21
-40.6084
0
LINE
8
BLACK
6
CONTINUOUS
10
117.948
20
-40.6084
11
118.021
21
-40.5596
0
LINE
8
BLACK
6
CONTINUOUS
10
118.021
20
-40.5596
11
118.108
21
-40.5425
0
LINE
8
BLACK
6
CONTINUOUS
10
118.108
20
-40.5425
11
118.858
21
-40.5425
0
LINE
8
BLACK
6
CONTINUOUS
10
118.858
20
-40.5425
11
118.944
21
-40.5596
0
LINE
8
BLACK
6
CONTINUOUS
10
99.8936
20
-40.5596
11
99.9666
21
-40.6084
0
LINE
8
BLACK
6
CONTINUOUS
10
99.9666
20
-40.6084
11
100.015
21
-40.6814
0
LINE
8
BLACK
6
CONTINUOUS
10
100.015
20
-40.6814
11
100.032
21
-40.7675
0
LINE
8
BLACK
6
CONTINUOUS
10
100.032
20
-40.7675
11
100.032
21
-41.2175
0
LINE
8
BLACK
6
CONTINUOUS
10
100.032
20
-41.2175
11
100.015
21
-41.3036
0
LINE
8
BLACK
6
CONTINUOUS
10
100.015
20
-41.3036
11
99.9666
21
-41.3766
0
LINE
8
BLACK
6
CONTINUOUS
10
99.9666
20
-41.3766
11
99.8936
21
-41.4254
0
LINE
8
BLACK
6
CONTINUOUS
10
99.8936
20
-41.4254
11
99.8075
21
-41.4425
0
LINE
8
BLACK
6
CONTINUOUS
10
99.8075
20
-41.4425
11
99.0575
21
-41.4425
0
LINE
8
BLACK
6
CONTINUOUS
10
99.0575
20
-41.4425
11
98.9714
21
-41.4254
0
LINE
8
BLACK
6
CONTINUOUS
10
98.9714
20
-41.4254
11
98.8984
21
-41.3766
0
LINE
8
BLACK
6
CONTINUOUS
10
98.8984
20
-41.3766
11
98.8496
21
-41.3036
0
LINE
8
BLACK
6
CONTINUOUS
10
98.8496
20
-41.3036
11
98.8325
21
-41.2175
0
LINE
8
BLACK
6
CONTINUOUS
10
98.8325
20
-41.2175
11
98.8325
21
-40.7675
0
LINE
8
BLACK
6
CONTINUOUS
10
98.8325
20
-40.7675
11
98.8496
21
-40.6814
0
LINE
8
BLACK
6
CONTINUOUS
10
98.8496
20
-40.6814
11
98.8984
21
-40.6084
0
LINE
8
BLACK
6
CONTINUOUS
10
98.8984
20
-40.6084
11
98.9714
21
-40.5596
0
LINE
8
BLACK
6
CONTINUOUS
10
98.9714
20
-40.5596
11
99.0575
21
-40.5425
0
LINE
8
BLACK
6
CONTINUOUS
10
99.0575
20
-40.5425
11
99.8075
21
-40.5425
0
LINE
8
BLACK
6
CONTINUOUS
10
99.8075
20
-40.5425
11
99.8936
21
-40.5596
0
LINE
8
BLACK
6
CONTINUOUS
10
80.8436
20
-40.5596
11
80.9166
21
-40.6084
0
LINE
8
BLACK
6
CONTINUOUS
10
80.9166
20
-40.6084
11
80.9654
21
-40.6814
0
LINE
8
BLACK
6
CONTINUOUS
10
80.9654
20
-40.6814
11
80.9825
21
-40.7675
0
LINE
8
BLACK
6
CONTINUOUS
10
80.9825
20
-40.7675
11
80.9825
21
-41.2175
0
LINE
8
BLACK
6
CONTINUOUS
10
80.9825
20
-41.2175
11
80.9654
21
-41.3036
0
LINE
8
BLACK
6
CONTINUOUS
10
80.9654
20
-41.3036
11
80.9166
21
-41.3766
0
LINE
8
BLACK
6
CONTINUOUS
10
80.9166
20
-41.3766
11
80.8436
21
-41.4254
0
LINE
8
BLACK
6
CONTINUOUS
10
80.8436
20
-41.4254
11
80.7575
21
-41.4425
0
LINE
8
BLACK
6
CONTINUOUS
10
80.7575
20
-41.4425
11
80.0075
21
-41.4425
0
LINE
8
BLACK
6
CONTINUOUS
10
80.0075
20
-41.4425
11
79.9214
21
-41.4254
0
LINE
8
BLACK
6
CONTINUOUS
10
79.9214
20
-41.4254
11
79.8484
21
-41.3766
0
LINE
8
BLACK
6
CONTINUOUS
10
79.8484
20
-41.3766
11
79.7996
21
-41.3036
0
LINE
8
BLACK
6
CONTINUOUS
10
79.7996
20
-41.3036
11
79.7825
21
-41.2175
0
LINE
8
BLACK
6
CONTINUOUS
10
79.7825
20
-41.2175
11
79.7825
21
-40.7675
0
LINE
8
BLACK
6
CONTINUOUS
10
79.7825
20
-40.7675
11
79.7996
21
-40.6814
0
LINE
8
BLACK
6
CONTINUOUS
10
79.7996
20
-40.6814
11
79.8484
21
-40.6084
0
LINE
8
BLACK
6
CONTINUOUS
10
79.8484
20
-40.6084
11
79.9214
21
-40.5596
0
LINE
8
BLACK
6
CONTINUOUS
10
79.9214
20
-40.5596
11
80.0075
21
-40.5425
0
LINE
8
BLACK
6
CONTINUOUS
10
80.0075
20
-40.5425
11
80.7575
21
-40.5425
0
LINE
8
BLACK
6
CONTINUOUS
10
80.7575
20
-40.5425
11
80.8436
21
-40.5596
0
LINE
8
BLACK
6
CONTINUOUS
10
61.7936
20
-40.5596
11
61.8666
21
-40.6084
0
LINE
8
BLACK
6
CONTINUOUS
10
61.8666
20
-40.6084
11
61.9154
21
-40.6814
0
LINE
8
BLACK
6
CONTINUOUS
10
61.9154
20
-40.6814
11
61.9325
21
-40.7675
0
LINE
8
BLACK
6
CONTINUOUS
10
61.9325
20
-40.7675
11
61.9325
21
-41.2175
0
LINE
8
BLACK
6
CONTINUOUS
10
61.9325
20
-41.2175
11
61.9154
21
-41.3036
0
LINE
8
BLACK
6
CONTINUOUS
10
61.9154
20
-41.3036
11
61.8666
21
-41.3766
0
LINE
8
BLACK
6
CONTINUOUS
10
61.8666
20
-41.3766
11
61.7936
21
-41.4254
0
LINE
8
BLACK
6
CONTINUOUS
10
61.7936
20
-41.4254
11
61.7075
21
-41.4425
0
LINE
8
BLACK
6
CONTINUOUS
10
61.7075
20
-41.4425
11
60.9575
21
-41.4425
0
LINE
8
BLACK
6
CONTINUOUS
10
60.9575
20
-41.4425
11
60.8714
21
-41.4254
0
LINE
8
BLACK
6
CONTINUOUS
10
60.8714
20
-41.4254
11
60.7984
21
-41.3766
0
LINE
8
BLACK
6
CONTINUOUS
10
60.7984
20
-41.3766
11
60.7496
21
-41.3036
0
LINE
8
BLACK
6
CONTINUOUS
10
60.7496
20
-41.3036
11
60.7325
21
-41.2175
0
LINE
8
BLACK
6
CONTINUOUS
10
60.7325
20
-41.2175
11
60.7325
21
-40.7675
0
LINE
8
BLACK
6
CONTINUOUS
10
60.7325
20
-40.7675
11
60.7496
21
-40.6814
0
LINE
8
BLACK
6
CONTINUOUS
10
60.7496
20
-40.6814
11
60.7984
21
-40.6084
0
LINE
8
BLACK
6
CONTINUOUS
10
60.7984
20
-40.6084
11
60.8714
21
-40.5596
0
LINE
8
BLACK
6
CONTINUOUS
10
60.8714
20
-40.5596
11
60.9575
21
-40.5425
0
LINE
8
BLACK
6
CONTINUOUS
10
60.9575
20
-40.5425
11
61.7075
21
-40.5425
0
LINE
8
BLACK
6
CONTINUOUS
10
61.7075
20
-40.5425
11
61.7936
21
-40.5596
0
LINE
8
BLACK
6
CONTINUOUS
10
33.2186
20
-40.5596
11
33.2916
21
-40.6084
0
LINE
8
BLACK
6
CONTINUOUS
10
33.2916
20
-40.6084
11
33.3404
21
-40.6814
0
LINE
8
BLACK
6
CONTINUOUS
10
33.3404
20
-40.6814
11
33.3575
21
-40.7675
0
LINE
8
BLACK
6
CONTINUOUS
10
33.3575
20
-40.7675
11
33.3575
21
-41.2175
0
LINE
8
BLACK
6
CONTINUOUS
10
33.3575
20
-41.2175
11
33.3404
21
-41.3036
0
LINE
8
BLACK
6
CONTINUOUS
10
33.3404
20
-41.3036
11
33.2916
21
-41.3766
0
LINE
8
BLACK
6
CONTINUOUS
10
33.2916
20
-41.3766
11
33.2186
21
-41.4254
0
LINE
8
BLACK
6
CONTINUOUS
10
33.2186
20
-41.4254
11
33.1325
21
-41.4425
0
LINE
8
BLACK
6
CONTINUOUS
10
33.1325
20
-41.4425
11
32.3825
21
-41.4425
0
LINE
8
BLACK
6
CONTINUOUS
10
32.3825
20
-41.4425
11
32.2964
21
-41.4254
0
LINE
8
BLACK
6
CONTINUOUS
10
32.2964
20
-41.4254
11
32.2234
21
-41.3766
0
LINE
8
BLACK
6
CONTINUOUS
10
32.2234
20
-41.3766
11
32.1746
21
-41.3036
0
LINE
8
BLACK
6
CONTINUOUS
10
32.1746
20
-41.3036
11
32.1575
21
-41.2175
0
LINE
8
BLACK
6
CONTINUOUS
10
32.1575
20
-41.2175
11
32.1575
21
-40.7675
0
LINE
8
BLACK
6
CONTINUOUS
10
32.1575
20
-40.7675
11
32.1746
21
-40.6814
0
LINE
8
BLACK
6
CONTINUOUS
10
32.1746
20
-40.6814
11
32.2234
21
-40.6084
0
LINE
8
BLACK
6
CONTINUOUS
10
32.2234
20
-40.6084
11
32.2964
21
-40.5596
0
LINE
8
BLACK
6
CONTINUOUS
10
32.2964
20
-40.5596
11
32.3825
21
-40.5425
0
LINE
8
BLACK
6
CONTINUOUS
10
32.3825
20
-40.5425
11
33.1325
21
-40.5425
0
LINE
8
BLACK
6
CONTINUOUS
10
33.1325
20
-40.5425
11
33.2186
21
-40.5596
0
LINE
8
BLACK
6
CONTINUOUS
10
176.094
20
-37.2596
11
176.167
21
-37.3084
0
LINE
8
BLACK
6
CONTINUOUS
10
176.167
20
-37.3084
11
176.215
21
-37.3814
0
LINE
8
BLACK
6
CONTINUOUS
10
176.215
20
-37.3814
11
176.232
21
-37.4675
0
LINE
8
BLACK
6
CONTINUOUS
10
176.232
20
-37.4675
11
176.232
21
-37.9175
0
LINE
8
BLACK
6
CONTINUOUS
10
176.232
20
-37.9175
11
176.215
21
-38.0036
0
LINE
8
BLACK
6
CONTINUOUS
10
176.215
20
-38.0036
11
176.167
21
-38.0766
0
LINE
8
BLACK
6
CONTINUOUS
10
176.167
20
-38.0766
11
176.094
21
-38.1254
0
LINE
8
BLACK
6
CONTINUOUS
10
176.094
20
-38.1254
11
176.007
21
-38.1425
0
LINE
8
BLACK
6
CONTINUOUS
10
176.007
20
-38.1425
11
175.257
21
-38.1425
0
LINE
8
BLACK
6
CONTINUOUS
10
175.257
20
-38.1425
11
175.171
21
-38.1254
0
LINE
8
BLACK
6
CONTINUOUS
10
175.171
20
-38.1254
11
175.098
21
-38.0766
0
LINE
8
BLACK
6
CONTINUOUS
10
175.098
20
-38.0766
11
175.05
21
-38.0036
0
LINE
8
BLACK
6
CONTINUOUS
10
175.05
20
-38.0036
11
175.032
21
-37.9175
0
LINE
8
BLACK
6
CONTINUOUS
10
175.032
20
-37.9175
11
175.032
21
-37.4675
0
LINE
8
BLACK
6
CONTINUOUS
10
175.032
20
-37.4675
11
175.05
21
-37.3814
0
LINE
8
BLACK
6
CONTINUOUS
10
175.05
20
-37.3814
11
175.098
21
-37.3084
0
LINE
8
BLACK
6
CONTINUOUS
10
175.098
20
-37.3084
11
175.171
21
-37.2596
0
LINE
8
BLACK
6
CONTINUOUS
10
175.171
20
-37.2596
11
175.257
21
-37.2425
0
LINE
8
BLACK
6
CONTINUOUS
10
175.257
20
-37.2425
11
176.007
21
-37.2425
0
LINE
8
BLACK
6
CONTINUOUS
10
176.007
20
-37.2425
11
176.094
21
-37.2596
0
LINE
8
BLACK
6
CONTINUOUS
10
157.044
20
-37.2596
11
157.117
21
-37.3084
0
LINE
8
BLACK
6
CONTINUOUS
10
157.117
20
-37.3084
11
157.165
21
-37.3814
0
LINE
8
BLACK
6
CONTINUOUS
10
157.165
20
-37.3814
11
157.183
21
-37.4675
0
LINE
8
BLACK
6
CONTINUOUS
10
157.183
20
-37.4675
11
157.183
21
-37.9175
0
LINE
8
BLACK
6
CONTINUOUS
10
157.183
20
-37.9175
11
157.165
21
-38.0036
0
LINE
8
BLACK
6
CONTINUOUS
10
157.165
20
-38.0036
11
157.117
21
-38.0766
0
LINE
8
BLACK
6
CONTINUOUS
10
157.117
20
-38.0766
11
157.044
21
-38.1254
0
LINE
8
BLACK
6
CONTINUOUS
10
157.044
20
-38.1254
11
156.957
21
-38.1425
0
LINE
8
BLACK
6
CONTINUOUS
10
156.957
20
-38.1425
11
156.207
21
-38.1425
0
LINE
8
BLACK
6
CONTINUOUS
10
156.207
20
-38.1425
11
156.121
21
-38.1254
0
LINE
8
BLACK
6
CONTINUOUS
10
156.121
20
-38.1254
11
156.048
21
-38.0766
0
LINE
8
BLACK
6
CONTINUOUS
10
156.048
20
-38.0766
11
156
21
-38.0036
0
LINE
8
BLACK
6
CONTINUOUS
10
156
20
-38.0036
11
155.982
21
-37.9175
0
LINE
8
BLACK
6
CONTINUOUS
10
155.982
20
-37.9175
11
155.982
21
-37.4675
0
LINE
8
BLACK
6
CONTINUOUS
10
155.982
20
-37.4675
11
156
21
-37.3814
0
LINE
8
BLACK
6
CONTINUOUS
10
156
20
-37.3814
11
156.048
21
-37.3084
0
LINE
8
BLACK
6
CONTINUOUS
10
156.048
20
-37.3084
11
156.121
21
-37.2596
0
LINE
8
BLACK
6
CONTINUOUS
10
156.121
20
-37.2596
11
156.207
21
-37.2425
0
LINE
8
BLACK
6
CONTINUOUS
10
156.207
20
-37.2425
11
156.957
21
-37.2425
0
LINE
8
BLACK
6
CONTINUOUS
10
156.957
20
-37.2425
11
157.044
21
-37.2596
0
LINE
8
BLACK
6
CONTINUOUS
10
137.994
20
-37.2596
11
138.067
21
-37.3084
0
LINE
8
BLACK
6
CONTINUOUS
10
138.067
20
-37.3084
11
138.115
21
-37.3814
0
LINE
8
BLACK
6
CONTINUOUS
10
138.115
20
-37.3814
11
138.132
21
-37.4675
0
LINE
8
BLACK
6
CONTINUOUS
10
138.132
20
-37.4675
11
138.132
21
-37.9175
0
LINE
8
BLACK
6
CONTINUOUS
10
138.132
20
-37.9175
11
138.115
21
-38.0036
0
LINE
8
BLACK
6
CONTINUOUS
10
138.115
20
-38.0036
11
138.067
21
-38.0766
0
LINE
8
BLACK
6
CONTINUOUS
10
138.067
20
-38.0766
11
137.994
21
-38.1254
0
LINE
8
BLACK
6
CONTINUOUS
10
137.994
20
-38.1254
11
137.907
21
-38.1425
0
LINE
8
BLACK
6
CONTINUOUS
10
137.907
20
-38.1425
11
137.157
21
-38.1425
0
LINE
8
BLACK
6
CONTINUOUS
10
137.157
20
-38.1425
11
137.071
21
-38.1254
0
LINE
8
BLACK
6
CONTINUOUS
10
137.071
20
-38.1254
11
136.998
21
-38.0766
0
LINE
8
BLACK
6
CONTINUOUS
10
136.998
20
-38.0766
11
136.95
21
-38.0036
0
LINE
8
BLACK
6
CONTINUOUS
10
136.95
20
-38.0036
11
136.933
21
-37.9175
0
LINE
8
BLACK
6
CONTINUOUS
10
136.933
20
-37.9175
11
136.933
21
-37.4675
0
LINE
8
BLACK
6
CONTINUOUS
10
136.933
20
-37.4675
11
136.95
21
-37.3814
0
LINE
8
BLACK
6
CONTINUOUS
10
136.95
20
-37.3814
11
136.998
21
-37.3084
0
LINE
8
BLACK
6
CONTINUOUS
10
136.998
20
-37.3084
11
137.071
21
-37.2596
0
LINE
8
BLACK
6
CONTINUOUS
10
137.071
20
-37.2596
11
137.157
21
-37.2425
0
LINE
8
BLACK
6
CONTINUOUS
10
137.157
20
-37.2425
11
137.907
21
-37.2425
0
LINE
8
BLACK
6
CONTINUOUS
10
137.907
20
-37.2425
11
137.994
21
-37.2596
0
LINE
8
BLACK
6
CONTINUOUS
10
118.944
20
-37.2596
11
119.017
21
-37.3084
0
LINE
8
BLACK
6
CONTINUOUS
10
119.017
20
-37.3084
11
119.065
21
-37.3814
0
LINE
8
BLACK
6
CONTINUOUS
10
119.065
20
-37.3814
11
119.082
21
-37.4675
0
LINE
8
BLACK
6
CONTINUOUS
10
119.082
20
-37.4675
11
119.082
21
-37.9175
0
LINE
8
BLACK
6
CONTINUOUS
10
119.082
20
-37.9175
11
119.065
21
-38.0036
0
LINE
8
BLACK
6
CONTINUOUS
10
119.065
20
-38.0036
11
119.017
21
-38.0766
0
LINE
8
BLACK
6
CONTINUOUS
10
119.017
20
-38.0766
11
118.944
21
-38.1254
0
LINE
8
BLACK
6
CONTINUOUS
10
118.944
20
-38.1254
11
118.858
21
-38.1425
0
LINE
8
BLACK
6
CONTINUOUS
10
118.858
20
-38.1425
11
118.108
21
-38.1425
0
LINE
8
BLACK
6
CONTINUOUS
10
118.108
20
-38.1425
11
118.021
21
-38.1254
0
LINE
8
BLACK
6
CONTINUOUS
10
118.021
20
-38.1254
11
117.948
21
-38.0766
0
LINE
8
BLACK
6
CONTINUOUS
10
117.948
20
-38.0766
11
117.9
21
-38.0036
0
LINE
8
BLACK
6
CONTINUOUS
10
117.9
20
-38.0036
11
117.882
21
-37.9175
0
LINE
8
BLACK
6
CONTINUOUS
10
117.882
20
-37.9175
11
117.882
21
-37.4675
0
LINE
8
BLACK
6
CONTINUOUS
10
117.882
20
-37.4675
11
117.9
21
-37.3814
0
LINE
8
BLACK
6
CONTINUOUS
10
117.9
20
-37.3814
11
117.948
21
-37.3084
0
LINE
8
BLACK
6
CONTINUOUS
10
117.948
20
-37.3084
11
118.021
21
-37.2596
0
LINE
8
BLACK
6
CONTINUOUS
10
118.021
20
-37.2596
11
118.108
21
-37.2425
0
LINE
8
BLACK
6
CONTINUOUS
10
118.108
20
-37.2425
11
118.858
21
-37.2425
0
LINE
8
BLACK
6
CONTINUOUS
10
118.858
20
-37.2425
11
118.944
21
-37.2596
0
LINE
8
BLACK
6
CONTINUOUS
10
99.8936
20
-37.2596
11
99.9666
21
-37.3084
0
LINE
8
BLACK
6
CONTINUOUS
10
99.9666
20
-37.3084
11
100.015
21
-37.3814
0
LINE
8
BLACK
6
CONTINUOUS
10
100.015
20
-37.3814
11
100.032
21
-37.4675
0
LINE
8
BLACK
6
CONTINUOUS
10
100.032
20
-37.4675
11
100.032
21
-37.9175
0
LINE
8
BLACK
6
CONTINUOUS
10
100.032
20
-37.9175
11
100.015
21
-38.0036
0
LINE
8
BLACK
6
CONTINUOUS
10
100.015
20
-38.0036
11
99.9666
21
-38.0766
0
LINE
8
BLACK
6
CONTINUOUS
10
99.9666
20
-38.0766
11
99.8936
21
-38.1254
0
LINE
8
BLACK
6
CONTINUOUS
10
99.8936
20
-38.1254
11
99.8075
21
-38.1425
0
LINE
8
BLACK
6
CONTINUOUS
10
99.8075
20
-38.1425
11
99.0575
21
-38.1425
0
LINE
8
BLACK
6
CONTINUOUS
10
99.0575
20
-38.1425
11
98.9714
21
-38.1254
0
LINE
8
BLACK
6
CONTINUOUS
10
98.9714
20
-38.1254
11
98.8984
21
-38.0766
0
LINE
8
BLACK
6
CONTINUOUS
10
98.8984
20
-38.0766
11
98.8496
21
-38.0036
0
LINE
8
BLACK
6
CONTINUOUS
10
98.8496
20
-38.0036
11
98.8325
21
-37.9175
0
LINE
8
BLACK
6
CONTINUOUS
10
98.8325
20
-37.9175
11
98.8325
21
-37.4675
0
LINE
8
BLACK
6
CONTINUOUS
10
98.8325
20
-37.4675
11
98.8496
21
-37.3814
0
LINE
8
BLACK
6
CONTINUOUS
10
98.8496
20
-37.3814
11
98.8984
21
-37.3084
0
LINE
8
BLACK
6
CONTINUOUS
10
98.8984
20
-37.3084
11
98.9714
21
-37.2596
0
LINE
8
BLACK
6
CONTINUOUS
10
98.9714
20
-37.2596
11
99.0575
21
-37.2425
0
LINE
8
BLACK
6
CONTINUOUS
10
99.0575
20
-37.2425
11
99.8075
21
-37.2425
0
LINE
8
BLACK
6
CONTINUOUS
10
99.8075
20
-37.2425
11
99.8936
21
-37.2596
0
LINE
8
BLACK
6
CONTINUOUS
10
80.8436
20
-37.2596
11
80.9166
21
-37.3084
0
LINE
8
BLACK
6
CONTINUOUS
10
80.9166
20
-37.3084
11
80.9654
21
-37.3814
0
LINE
8
BLACK
6
CONTINUOUS
10
80.9654
20
-37.3814
11
80.9825
21
-37.4675
0
LINE
8
BLACK
6
CONTINUOUS
10
80.9825
20
-37.4675
11
80.9825
21
-37.9175
0
LINE
8
BLACK
6
CONTINUOUS
10
80.9825
20
-37.9175
11
80.9654
21
-38.0036
0
LINE
8
BLACK
6
CONTINUOUS
10
80.9654
20
-38.0036
11
80.9166
21
-38.0766
0
LINE
8
BLACK
6
CONTINUOUS
10
80.9166
20
-38.0766
11
80.8436
21
-38.1254
0
LINE
8
BLACK
6
CONTINUOUS
10
80.8436
20
-38.1254
11
80.7575
21
-38.1425
0
LINE
8
BLACK
6
CONTINUOUS
10
80.7575
20
-38.1425
11
80.0075
21
-38.1425
0
LINE
8
BLACK
6
CONTINUOUS
10
80.0075
20
-38.1425
11
79.9214
21
-38.1254
0
LINE
8
BLACK
6
CONTINUOUS
10
79.9214
20
-38.1254
11
79.8484
21
-38.0766
0
LINE
8
BLACK
6
CONTINUOUS
10
79.8484
20
-38.0766
11
79.7996
21
-38.0036
0
LINE
8
BLACK
6
CONTINUOUS
10
79.7996
20
-38.0036
11
79.7825
21
-37.9175
0
LINE
8
BLACK
6
CONTINUOUS
10
79.7825
20
-37.9175
11
79.7825
21
-37.4675
0
LINE
8
BLACK
6
CONTINUOUS
10
79.7825
20
-37.4675
11
79.7996
21
-37.3814
0
LINE
8
BLACK
6
CONTINUOUS
10
79.7996
20
-37.3814
11
79.8484
21
-37.3084
0
LINE
8
BLACK
6
CONTINUOUS
10
79.8484
20
-37.3084
11
79.9214
21
-37.2596
0
LINE
8
BLACK
6
CONTINUOUS
10
79.9214
20
-37.2596
11
80.0075
21
-37.2425
0
LINE
8
BLACK
6
CONTINUOUS
10
80.0075
20
-37.2425
11
80.7575
21
-37.2425
0
LINE
8
BLACK
6
CONTINUOUS
10
80.7575
20
-37.2425
11
80.8436
21
-37.2596
0
LINE
8
BLACK
6
CONTINUOUS
10
61.7936
20
-37.2596
11
61.8666
21
-37.3084
0
LINE
8
BLACK
6
CONTINUOUS
10
61.8666
20
-37.3084
11
61.9154
21
-37.3814
0
LINE
8
BLACK
6
CONTINUOUS
10
61.9154
20
-37.3814
11
61.9325
21
-37.4675
0
LINE
8
BLACK
6
CONTINUOUS
10
61.9325
20
-37.4675
11
61.9325
21
-37.9175
0
LINE
8
BLACK
6
CONTINUOUS
10
61.9325
20
-37.9175
11
61.9154
21
-38.0036
0
LINE
8
BLACK
6
CONTINUOUS
10
61.9154
20
-38.0036
11
61.8666
21
-38.0766
0
LINE
8
BLACK
6
CONTINUOUS
10
61.8666
20
-38.0766
11
61.7936
21
-38.1254
0
LINE
8
BLACK
6
CONTINUOUS
10
61.7936
20
-38.1254
11
61.7075
21
-38.1425
0
LINE
8
BLACK
6
CONTINUOUS
10
61.7075
20
-38.1425
11
60.9575
21
-38.1425
0
LINE
8
BLACK
6
CONTINUOUS
10
60.9575
20
-38.1425
11
60.8714
21
-38.1254
0
LINE
8
BLACK
6
CONTINUOUS
10
60.8714
20
-38.1254
11
60.7984
21
-38.0766
0
LINE
8
BLACK
6
CONTINUOUS
10
60.7984
20
-38.0766
11
60.7496
21
-38.0036
0
LINE
8
BLACK
6
CONTINUOUS
10
60.7496
20
-38.0036
11
60.7325
21
-37.9175
0
LINE
8
BLACK
6
CONTINUOUS
10
60.7325
20
-37.9175
11
60.7325
21
-37.4675
0
LINE
8
BLACK
6
CONTINUOUS
10
60.7325
20
-37.4675
11
60.7496
21
-37.3814
0
LINE
8
BLACK
6
CONTINUOUS
10
60.7496
20
-37.3814
11
60.7984
21
-37.3084
0
LINE
8
BLACK
6
CONTINUOUS
10
60.7984
20
-37.3084
11
60.8714
21
-37.2596
0
LINE
8
BLACK
6
CONTINUOUS
10
60.8714
20
-37.2596
11
60.9575
21
-37.2425
0
LINE
8
BLACK
6
CONTINUOUS
10
60.9575
20
-37.2425
11
61.7075
21
-37.2425
0
LINE
8
BLACK
6
CONTINUOUS
10
61.7075
20
-37.2425
11
61.7936
21
-37.2596
0
LINE
8
BLACK
6
CONTINUOUS
10
33.2186
20
-37.2596
11
33.2916
21
-37.3084
0
LINE
8
BLACK
6
CONTINUOUS
10
33.2916
20
-37.3084
11
33.3404
21
-37.3814
0
LINE
8
BLACK
6
CONTINUOUS
10
33.3404
20
-37.3814
11
33.3575
21
-37.4675
0
LINE
8
BLACK
6
CONTINUOUS
10
33.3575
20
-37.4675
11
33.3575
21
-37.9175
0
LINE
8
BLACK
6
CONTINUOUS
10
33.3575
20
-37.9175
11
33.3404
21
-38.0036
0
LINE
8
BLACK
6
CONTINUOUS
10
33.3404
20
-38.0036
11
33.2916
21
-38.0766
0
LINE
8
BLACK
6
CONTINUOUS
10
33.2916
20
-38.0766
11
33.2186
21
-38.1254
0
LINE
8
BLACK
6
CONTINUOUS
10
33.2186
20
-38.1254
11
33.1325
21
-38.1425
0
LINE
8
BLACK
6
CONTINUOUS
10
33.1325
20
-38.1425
11
32.3825
21
-38.1425
0
LINE
8
BLACK
6
CONTINUOUS
10
32.3825
20
-38.1425
11
32.2964
21
-38.1254
0
LINE
8
BLACK
6
CONTINUOUS
10
32.2964
20
-38.1254
11
32.2234
21
-38.0766
0
LINE
8
BLACK
6
CONTINUOUS
10
32.2234
20
-38.0766
11
32.1746
21
-38.0036
0
LINE
8
BLACK
6
CONTINUOUS
10
32.1746
20
-38.0036
11
32.1575
21
-37.9175
0
LINE
8
BLACK
6
CONTINUOUS
10
32.1575
20
-37.9175
11
32.1575
21
-37.4675
0
LINE
8
BLACK
6
CONTINUOUS
10
32.1575
20
-37.4675
11
32.1746
21
-37.3814
0
LINE
8
BLACK
6
CONTINUOUS
10
32.1746
20
-37.3814
11
32.2234
21
-37.3084
0
LINE
8
BLACK
6
CONTINUOUS
10
32.2234
20
-37.3084
11
32.2964
21
-37.2596
0
LINE
8
BLACK
6
CONTINUOUS
10
32.2964
20
-37.2596
11
32.3825
21
-37.2425
0
LINE
8
BLACK
6
CONTINUOUS
10
32.3825
20
-37.2425
11
33.1325
21
-37.2425
0
LINE
8
BLACK
6
CONTINUOUS
10
33.1325
20
-37.2425
11
33.2186
21
-37.2596
0
LINE
8
BLACK
6
CONTINUOUS
10
175.877
20
-33.235
11
173.327
21
-33.235
0
LINE
8
BLACK
6
CONTINUOUS
10
173.327
20
-33.235
11
173.327
21
-30.735
0
LINE
8
BLACK
6
CONTINUOUS
10
173.327
20
-30.735
11
175.877
21
-30.735
0
LINE
8
BLACK
6
CONTINUOUS
10
175.877
20
-30.735
11
175.877
21
-33.235
0
LINE
8
BLACK
6
CONTINUOUS
10
156.827
20
-33.235
11
154.278
21
-33.235
0
LINE
8
BLACK
6
CONTINUOUS
10
154.278
20
-33.235
11
154.278
21
-30.735
0
LINE
8
BLACK
6
CONTINUOUS
10
154.278
20
-30.735
11
156.827
21
-30.735
0
LINE
8
BLACK
6
CONTINUOUS
10
156.827
20
-30.735
11
156.827
21
-33.235
0
LINE
8
BLACK
6
CONTINUOUS
10
137.778
20
-33.235
11
135.227
21
-33.235
0
LINE
8
BLACK
6
CONTINUOUS
10
135.227
20
-33.235
11
135.227
21
-30.735
0
LINE
8
BLACK
6
CONTINUOUS
10
135.227
20
-30.735
11
137.778
21
-30.735
0
LINE
8
BLACK
6
CONTINUOUS
10
137.778
20
-30.735
11
137.778
21
-33.235
0
LINE
8
BLACK
6
CONTINUOUS
10
118.727
20
-33.235
11
116.177
21
-33.235
0
LINE
8
BLACK
6
CONTINUOUS
10
116.177
20
-33.235
11
116.177
21
-30.735
0
LINE
8
BLACK
6
CONTINUOUS
10
116.177
20
-30.735
11
118.727
21
-30.735
0
LINE
8
BLACK
6
CONTINUOUS
10
118.727
20
-30.735
11
118.727
21
-33.235
0
LINE
8
BLACK
6
CONTINUOUS
10
99.6775
20
-33.235
11
97.1275
21
-33.235
0
LINE
8
BLACK
6
CONTINUOUS
10
97.1275
20
-33.235
11
97.1275
21
-30.735
0
LINE
8
BLACK
6
CONTINUOUS
10
97.1275
20
-30.735
11
99.6775
21
-30.735
0
LINE
8
BLACK
6
CONTINUOUS
10
99.6775
20
-30.735
11
99.6775
21
-33.235
0
LINE
8
BLACK
6
CONTINUOUS
10
80.6275
20
-33.235
11
78.0775
21
-33.235
0
LINE
8
BLACK
6
CONTINUOUS
10
78.0775
20
-33.235
11
78.0775
21
-30.735
0
LINE
8
BLACK
6
CONTINUOUS
10
78.0775
20
-30.735
11
80.6275
21
-30.735
0
LINE
8
BLACK
6
CONTINUOUS
10
80.6275
20
-30.735
11
80.6275
21
-33.235
0
LINE
8
BLACK
6
CONTINUOUS
10
61.5775
20
-33.235
11
59.0275
21
-33.235
0
LINE
8
BLACK
6
CONTINUOUS
10
59.0275
20
-33.235
11
59.0275
21
-30.735
0
LINE
8
BLACK
6
CONTINUOUS
10
59.0275
20
-30.735
11
61.5775
21
-30.735
0
LINE
8
BLACK
6
CONTINUOUS
10
61.5775
20
-30.735
11
61.5775
21
-33.235
0
LINE
8
BLACK
6
CONTINUOUS
10
33.0025
20
-33.235
11
30.4525
21
-33.235
0
LINE
8
BLACK
6
CONTINUOUS
10
30.4525
20
-33.235
11
30.4525
21
-30.735
0
LINE
8
BLACK
6
CONTINUOUS
10
30.4525
20
-30.735
11
33.0025
21
-30.735
0
LINE
8
BLACK
6
CONTINUOUS
10
33.0025
20
-30.735
11
33.0025
21
-33.235
0
LINE
8
BLACK
6
CONTINUOUS
10
189.727
20
-30.695
11
187.177
21
-30.695
0
LINE
8
BLACK
6
CONTINUOUS
10
187.177
20
-30.695
11
187.177
21
-28.195
0
LINE
8
BLACK
6
CONTINUOUS
10
187.177
20
-28.195
11
189.727
21
-28.195
0
LINE
8
BLACK
6
CONTINUOUS
10
189.727
20
-28.195
11
189.727
21
-30.695
0
LINE
8
BLACK
6
CONTINUOUS
10
170.677
20
-30.695
11
168.127
21
-30.695
0
LINE
8
BLACK
6
CONTINUOUS
10
168.127
20
-30.695
11
168.127
21
-28.195
0
LINE
8
BLACK
6
CONTINUOUS
10
168.127
20
-28.195
11
170.677
21
-28.195
0
LINE
8
BLACK
6
CONTINUOUS
10
170.677
20
-28.195
11
170.677
21
-30.695
0
LINE
8
BLACK
6
CONTINUOUS
10
151.627
20
-30.695
11
149.077
21
-30.695
0
LINE
8
BLACK
6
CONTINUOUS
10
149.077
20
-30.695
11
149.077
21
-28.195
0
LINE
8
BLACK
6
CONTINUOUS
10
149.077
20
-28.195
11
151.627
21
-28.195
0
LINE
8
BLACK
6
CONTINUOUS
10
151.627
20
-28.195
11
151.627
21
-30.695
0
LINE
8
BLACK
6
CONTINUOUS
10
132.577
20
-30.695
11
130.028
21
-30.695
0
LINE
8
BLACK
6
CONTINUOUS
10
130.028
20
-30.695
11
130.028
21
-28.195
0
LINE
8
BLACK
6
CONTINUOUS
10
130.028
20
-28.195
11
132.577
21
-28.195
0
LINE
8
BLACK
6
CONTINUOUS
10
132.577
20
-28.195
11
132.577
21
-30.695
0
LINE
8
BLACK
6
CONTINUOUS
10
113.527
20
-30.695
11
110.977
21
-30.695
0
LINE
8
BLACK
6
CONTINUOUS
10
110.977
20
-30.695
11
110.977
21
-28.195
0
LINE
8
BLACK
6
CONTINUOUS
10
110.977
20
-28.195
11
113.527
21
-28.195
0
LINE
8
BLACK
6
CONTINUOUS
10
113.527
20
-28.195
11
113.527
21
-30.695
0
LINE
8
BLACK
6
CONTINUOUS
10
94.4775
20
-30.695
11
91.9275
21
-30.695
0
LINE
8
BLACK
6
CONTINUOUS
10
91.9275
20
-30.695
11
91.9275
21
-28.195
0
LINE
8
BLACK
6
CONTINUOUS
10
91.9275
20
-28.195
11
94.4775
21
-28.195
0
LINE
8
BLACK
6
CONTINUOUS
10
94.4775
20
-28.195
11
94.4775
21
-30.695
0
LINE
8
BLACK
6
CONTINUOUS
10
75.4275
20
-30.695
11
72.8775
21
-30.695
0
LINE
8
BLACK
6
CONTINUOUS
10
72.8775
20
-30.695
11
72.8775
21
-28.195
0
LINE
8
BLACK
6
CONTINUOUS
10
72.8775
20
-28.195
11
75.4275
21
-28.195
0
LINE
8
BLACK
6
CONTINUOUS
10
75.4275
20
-28.195
11
75.4275
21
-30.695
0
LINE
8
BLACK
6
CONTINUOUS
10
46.8525
20
-30.695
11
44.3025
21
-30.695
0
LINE
8
BLACK
6
CONTINUOUS
10
44.3025
20
-30.695
11
44.3025
21
-28.195
0
LINE
8
BLACK
6
CONTINUOUS
10
44.3025
20
-28.195
11
46.8525
21
-28.195
0
LINE
8
BLACK
6
CONTINUOUS
10
46.8525
20
-28.195
11
46.8525
21
-30.695
  0
ENDSEC
  0
EOF
