M48
; DRILL file {KiCad 7.0.1} date Fri Sep  1 15:37:32 2023
; FORMAT={-:-/ absolute / metric / decimal}
; #@! TF.CreationDate,2023-09-01T15:37:32-04:00
; #@! TF.GenerationSoftware,Kicad,Pcbnew,7.0.1
; #@! TF.FileFunction,NonPlated,1,2,NPTH
FMAT,2
METRIC
; #@! TA.AperFunction,NonPlated,NPTH,ComponentDrill
T1C1.702
; #@! TA.AperFunction,NonPlated,NPTH,ComponentDrill
T2C3.000
; #@! TA.AperFunction,NonPlated,NPTH,ComponentDrill
T3C3.988
%
G90
G05
T1
X34.207Y-34.525
X34.207Y-53.575
X34.207Y-72.625
X34.207Y-91.675
X44.367Y-34.525
X44.367Y-53.575
X44.367Y-72.625
X44.367Y-91.675
X62.782Y-34.525
X62.782Y-53.575
X62.782Y-72.625
X62.782Y-91.675
X72.307Y-110.725
X72.942Y-34.525
X72.942Y-53.575
X72.942Y-72.625
X72.942Y-91.675
X81.832Y-34.525
X81.832Y-53.575
X81.832Y-72.625
X81.832Y-91.675
X82.468Y-110.725
X91.358Y-110.725
X91.992Y-34.525
X91.992Y-53.575
X91.992Y-72.625
X91.992Y-91.675
X100.882Y-34.525
X100.882Y-53.575
X100.882Y-72.625
X100.882Y-91.675
X101.517Y-110.725
X111.042Y-34.525
X111.042Y-53.575
X111.042Y-72.625
X111.042Y-91.675
X114.474Y-113.071
X119.932Y-34.525
X119.932Y-53.575
X119.932Y-72.625
X119.932Y-91.675
X124.288Y-115.701
X130.093Y-34.525
X130.093Y-53.575
X130.093Y-72.625
X130.093Y-91.675
X132.875Y-118.002
X138.982Y-34.525
X138.982Y-53.575
X138.982Y-72.625
X138.982Y-91.675
X142.689Y-120.631
X149.142Y-34.525
X149.142Y-53.575
X149.142Y-72.625
X149.142Y-91.675
X151.276Y-122.932
X158.032Y-34.525
X158.032Y-53.575
X158.032Y-72.625
X158.032Y-91.675
X161.09Y-125.562
X168.192Y-34.525
X168.192Y-53.575
X168.192Y-72.625
X168.192Y-91.675
X169.677Y-127.863
X177.082Y-34.525
X179.491Y-130.492
X186.607Y-53.575
X186.607Y-72.625
X186.607Y-91.675
X186.607Y-110.725
X187.242Y-34.525
X196.767Y-53.575
X196.767Y-72.625
X196.767Y-91.675
X196.767Y-110.725
X205.657Y-53.575
X205.657Y-72.625
X205.657Y-91.675
X205.657Y-110.725
X215.817Y-53.575
X215.817Y-72.625
X215.817Y-91.675
X215.817Y-110.725
X224.707Y-53.575
X224.707Y-72.625
X224.707Y-91.675
X224.707Y-110.725
X234.867Y-53.575
X234.867Y-72.625
X234.867Y-91.675
X234.867Y-110.725
X243.757Y-53.575
X243.757Y-72.625
X243.757Y-91.675
X243.757Y-110.725
X253.917Y-53.575
X253.917Y-72.625
X253.917Y-91.675
X253.917Y-110.725
T2
X35.477Y-31.985
X35.477Y-51.035
X35.477Y-70.085
X35.477Y-89.135
X41.828Y-29.445
X41.828Y-48.495
X41.828Y-67.545
X41.828Y-86.595
X64.052Y-31.985
X64.052Y-51.035
X64.052Y-70.085
X64.052Y-89.135
X70.403Y-29.445
X70.403Y-48.495
X70.403Y-67.545
X70.403Y-86.595
X73.578Y-108.185
X79.927Y-105.645
X83.102Y-31.985
X83.102Y-51.035
X83.102Y-70.085
X83.102Y-89.135
X89.453Y-29.445
X89.453Y-48.495
X89.453Y-67.545
X89.453Y-86.595
X92.627Y-108.185
X98.977Y-105.645
X102.152Y-31.985
X102.152Y-51.035
X102.152Y-70.085
X102.152Y-89.135
X108.502Y-29.445
X108.502Y-48.495
X108.502Y-67.545
X108.502Y-86.595
X116.358Y-110.946
X121.203Y-31.985
X121.203Y-51.035
X121.203Y-70.085
X121.203Y-89.135
X123.149Y-110.136
X127.552Y-29.445
X127.552Y-48.495
X127.552Y-67.545
X127.552Y-86.595
X134.759Y-115.877
X140.252Y-31.985
X140.252Y-51.035
X140.252Y-70.085
X140.252Y-89.135
X141.55Y-115.067
X146.602Y-29.445
X146.602Y-48.495
X146.602Y-67.545
X146.602Y-86.595
X153.16Y-120.807
X159.302Y-31.985
X159.302Y-51.035
X159.302Y-70.085
X159.302Y-89.135
X159.951Y-119.997
X165.653Y-29.445
X165.653Y-48.495
X165.653Y-67.545
X165.653Y-86.595
X171.561Y-125.738
X178.352Y-124.928
X178.352Y-31.985
X184.702Y-29.445
X187.877Y-51.035
X187.877Y-70.085
X187.877Y-89.135
X187.877Y-108.185
X194.227Y-48.495
X194.227Y-67.545
X194.227Y-86.595
X194.227Y-105.645
X206.927Y-51.035
X206.927Y-70.085
X206.927Y-89.135
X206.927Y-108.185
X213.278Y-48.495
X213.278Y-67.545
X213.278Y-86.595
X213.278Y-105.645
X225.977Y-51.035
X225.977Y-70.085
X225.977Y-89.135
X225.977Y-108.185
X232.327Y-48.495
X232.327Y-67.545
X232.327Y-86.595
X232.327Y-105.645
X245.027Y-51.035
X245.027Y-70.085
X245.027Y-89.135
X245.027Y-108.185
X251.377Y-48.495
X251.377Y-67.545
X251.377Y-86.595
X251.377Y-105.645
T3
X39.288Y-34.525
X39.288Y-53.575
X39.288Y-72.625
X39.288Y-91.675
X67.862Y-34.525
X67.862Y-53.575
X67.862Y-72.625
X67.862Y-91.675
X77.388Y-110.725
X86.912Y-34.525
X86.912Y-53.575
X86.912Y-72.625
X86.912Y-91.675
X96.438Y-110.725
X105.962Y-34.525
X105.962Y-53.575
X105.962Y-72.625
X105.962Y-91.675
X119.381Y-114.386
X125.012Y-34.525
X125.012Y-53.575
X125.012Y-72.625
X125.012Y-91.675
X137.782Y-119.316
X144.062Y-34.525
X144.062Y-53.575
X144.062Y-72.625
X144.062Y-91.675
X156.183Y-124.247
X163.112Y-34.525
X163.112Y-53.575
X163.112Y-72.625
X163.112Y-91.675
X174.584Y-129.177
X182.162Y-34.525
X191.688Y-53.575
X191.688Y-72.625
X191.688Y-91.675
X191.688Y-110.725
X210.737Y-53.575
X210.737Y-72.625
X210.737Y-91.675
X210.737Y-110.725
X229.787Y-53.575
X229.787Y-72.625
X229.787Y-91.675
X229.787Y-110.725
X248.837Y-53.575
X248.837Y-72.625
X248.837Y-91.675
X248.837Y-110.725
T0
M30
