%TF.GenerationSoftware,KiCad,Pcbnew,7.0.1*%
%TF.CreationDate,2023-09-01T15:37:28-04:00*%
%TF.ProjectId,macropad,6d616372-6f70-4616-942e-6b696361645f,rev?*%
%TF.SameCoordinates,Original*%
%TF.FileFunction,Paste,Bot*%
%TF.FilePolarity,Positive*%
%FSLAX46Y46*%
G04 Gerber Fmt 4.6, Leading zero omitted, Abs format (unit mm)*
G04 Created by KiCad (PCBNEW 7.0.1) date 2023-09-01 15:37:28*
%MOMM*%
%LPD*%
G01*
G04 APERTURE LIST*
G04 Aperture macros list*
%AMRoundRect*
0 Rectangle with rounded corners*
0 $1 Rounding radius*
0 $2 $3 $4 $5 $6 $7 $8 $9 X,Y pos of 4 corners*
0 Add a 4 corners polygon primitive as box body*
4,1,4,$2,$3,$4,$5,$6,$7,$8,$9,$2,$3,0*
0 Add four circle primitives for the rounded corners*
1,1,$1+$1,$2,$3*
1,1,$1+$1,$4,$5*
1,1,$1+$1,$6,$7*
1,1,$1+$1,$8,$9*
0 Add four rect primitives between the rounded corners*
20,1,$1+$1,$2,$3,$4,$5,0*
20,1,$1+$1,$4,$5,$6,$7,0*
20,1,$1+$1,$6,$7,$8,$9,0*
20,1,$1+$1,$8,$9,$2,$3,0*%
%AMRotRect*
0 Rectangle, with rotation*
0 The origin of the aperture is its center*
0 $1 length*
0 $2 width*
0 $3 Rotation angle, in degrees counterclockwise*
0 Add horizontal line*
21,1,$1,$2,0,0,$3*%
G04 Aperture macros list end*
%ADD10R,2.550000X2.500000*%
%ADD11RotRect,2.550000X2.500000X345.000000*%
%ADD12RoundRect,0.225000X0.375000X-0.225000X0.375000X0.225000X-0.375000X0.225000X-0.375000X-0.225000X0*%
%ADD13RoundRect,0.225000X0.303988X-0.314390X0.420456X0.120276X-0.303988X0.314390X-0.420456X-0.120276X0*%
G04 APERTURE END LIST*
D10*
%TO.C,SW51*%
X255127500Y-105645000D03*
X241277500Y-108185000D03*
%TD*%
%TO.C,SW50*%
X236077500Y-105645000D03*
X222227500Y-108185000D03*
%TD*%
%TO.C,SW49*%
X217027500Y-105645000D03*
X203177500Y-108185000D03*
%TD*%
%TO.C,SW48*%
X197977500Y-105645000D03*
X184127500Y-108185000D03*
%TD*%
D11*
%TO.C,SW47*%
X181974323Y-125898477D03*
X167938850Y-124767284D03*
%TD*%
%TO.C,SW46*%
X163573436Y-120967974D03*
X149537963Y-119836781D03*
%TD*%
%TO.C,SW45*%
X145172549Y-116037471D03*
X131137076Y-114906278D03*
%TD*%
%TO.C,SW44*%
X126771662Y-111106969D03*
X112736189Y-109975776D03*
%TD*%
D10*
%TO.C,SW43*%
X102727500Y-105645000D03*
X88877500Y-108185000D03*
%TD*%
%TO.C,SW42*%
X83677500Y-105645000D03*
X69827500Y-108185000D03*
%TD*%
%TO.C,SW41*%
X255127500Y-86595000D03*
X241277500Y-89135000D03*
%TD*%
%TO.C,SW40*%
X236077500Y-86595000D03*
X222227500Y-89135000D03*
%TD*%
%TO.C,SW39*%
X217027500Y-86595000D03*
X203177500Y-89135000D03*
%TD*%
%TO.C,SW38*%
X197977500Y-86595000D03*
X184127500Y-89135000D03*
%TD*%
%TO.C,SW37*%
X169402500Y-86595000D03*
X155552500Y-89135000D03*
%TD*%
%TO.C,SW36*%
X150352500Y-86595000D03*
X136502500Y-89135000D03*
%TD*%
%TO.C,SW35*%
X131302500Y-86595000D03*
X117452500Y-89135000D03*
%TD*%
%TO.C,SW34*%
X112252500Y-86595000D03*
X98402500Y-89135000D03*
%TD*%
%TO.C,SW33*%
X93202500Y-86595000D03*
X79352500Y-89135000D03*
%TD*%
%TO.C,SW32*%
X74152500Y-86595000D03*
X60302500Y-89135000D03*
%TD*%
%TO.C,SW31*%
X45577500Y-86595000D03*
X31727500Y-89135000D03*
%TD*%
%TO.C,SW30*%
X255127500Y-67545000D03*
X241277500Y-70085000D03*
%TD*%
%TO.C,SW29*%
X236077500Y-67545000D03*
X222227500Y-70085000D03*
%TD*%
%TO.C,SW28*%
X217027500Y-67545000D03*
X203177500Y-70085000D03*
%TD*%
%TO.C,SW27*%
X197977500Y-67545000D03*
X184127500Y-70085000D03*
%TD*%
%TO.C,SW26*%
X169402500Y-67545000D03*
X155552500Y-70085000D03*
%TD*%
%TO.C,SW25*%
X150352500Y-67545000D03*
X136502500Y-70085000D03*
%TD*%
%TO.C,SW24*%
X131302500Y-67545000D03*
X117452500Y-70085000D03*
%TD*%
%TO.C,SW23*%
X112252500Y-67545000D03*
X98402500Y-70085000D03*
%TD*%
%TO.C,SW22*%
X93202500Y-67545000D03*
X79352500Y-70085000D03*
%TD*%
%TO.C,SW21*%
X74152500Y-67545000D03*
X60302500Y-70085000D03*
%TD*%
%TO.C,SW20*%
X45577500Y-67545000D03*
X31727500Y-70085000D03*
%TD*%
%TO.C,SW19*%
X255127500Y-48495000D03*
X241277500Y-51035000D03*
%TD*%
%TO.C,SW18*%
X236077500Y-48495000D03*
X222227500Y-51035000D03*
%TD*%
%TO.C,SW17*%
X217027500Y-48495000D03*
X203177500Y-51035000D03*
%TD*%
%TO.C,SW16*%
X197977500Y-48495000D03*
X184127500Y-51035000D03*
%TD*%
%TO.C,SW15*%
X169402500Y-48495000D03*
X155552500Y-51035000D03*
%TD*%
%TO.C,SW14*%
X150352500Y-48495000D03*
X136502500Y-51035000D03*
%TD*%
%TO.C,SW13*%
X131302500Y-48495000D03*
X117452500Y-51035000D03*
%TD*%
%TO.C,SW12*%
X112252500Y-48495000D03*
X98402500Y-51035000D03*
%TD*%
%TO.C,SW11*%
X93202500Y-48495000D03*
X79352500Y-51035000D03*
%TD*%
%TO.C,SW10*%
X74152500Y-48495000D03*
X60302500Y-51035000D03*
%TD*%
%TO.C,SW9*%
X45577500Y-48495000D03*
X31727500Y-51035000D03*
%TD*%
%TO.C,SW8*%
X188452500Y-29445000D03*
X174602500Y-31985000D03*
%TD*%
%TO.C,SW7*%
X169402500Y-29445000D03*
X155552500Y-31985000D03*
%TD*%
%TO.C,SW6*%
X150352500Y-29445000D03*
X136502500Y-31985000D03*
%TD*%
%TO.C,SW5*%
X131302500Y-29445000D03*
X117452500Y-31985000D03*
%TD*%
%TO.C,SW4*%
X112252500Y-29445000D03*
X98402500Y-31985000D03*
%TD*%
%TO.C,SW3*%
X93202500Y-29445000D03*
X79352500Y-31985000D03*
%TD*%
%TO.C,SW2*%
X74152500Y-29445000D03*
X60302500Y-31985000D03*
%TD*%
%TO.C,SW1*%
X45577500Y-29445000D03*
X31727500Y-31985000D03*
%TD*%
D12*
%TO.C,D31*%
X32757500Y-98142500D03*
X32757500Y-94842500D03*
%TD*%
%TO.C,D32*%
X61332500Y-98142500D03*
X61332500Y-94842500D03*
%TD*%
%TO.C,D19*%
X242307500Y-60042500D03*
X242307500Y-56742500D03*
%TD*%
%TO.C,D10*%
X61332500Y-60042500D03*
X61332500Y-56742500D03*
%TD*%
%TO.C,D35*%
X118482500Y-98142500D03*
X118482500Y-94842500D03*
%TD*%
%TO.C,D28*%
X204207500Y-79092500D03*
X204207500Y-75792500D03*
%TD*%
D13*
%TO.C,D45*%
X129800667Y-123873440D03*
X130654769Y-120685884D03*
%TD*%
D12*
%TO.C,D14*%
X137532500Y-60042500D03*
X137532500Y-56742500D03*
%TD*%
%TO.C,D21*%
X61332500Y-79092500D03*
X61332500Y-75792500D03*
%TD*%
%TO.C,D38*%
X185157500Y-98142500D03*
X185157500Y-94842500D03*
%TD*%
%TO.C,D49*%
X204207500Y-117192500D03*
X204207500Y-113892500D03*
%TD*%
%TO.C,D43*%
X89907500Y-117192500D03*
X89907500Y-113892500D03*
%TD*%
%TO.C,D23*%
X99432500Y-79092500D03*
X99432500Y-75792500D03*
%TD*%
%TO.C,D7*%
X156582500Y-40992500D03*
X156582500Y-37692500D03*
%TD*%
%TO.C,D17*%
X204207500Y-60042500D03*
X204207500Y-56742500D03*
%TD*%
%TO.C,D4*%
X99432500Y-40992500D03*
X99432500Y-37692500D03*
%TD*%
%TO.C,D25*%
X137532500Y-79092500D03*
X137532500Y-75792500D03*
%TD*%
%TO.C,D24*%
X118482500Y-79092500D03*
X118482500Y-75792500D03*
%TD*%
%TO.C,D34*%
X99432500Y-98142500D03*
X99432500Y-94842500D03*
%TD*%
%TO.C,D2*%
X61332500Y-40992500D03*
X61332500Y-37692500D03*
%TD*%
%TO.C,D27*%
X185157500Y-79092500D03*
X185157500Y-75792500D03*
%TD*%
D13*
%TO.C,D44*%
X111399780Y-118942937D03*
X112253882Y-115755381D03*
%TD*%
D12*
%TO.C,D26*%
X156582500Y-79092500D03*
X156582500Y-75792500D03*
%TD*%
%TO.C,D15*%
X156582500Y-60042500D03*
X156582500Y-56742500D03*
%TD*%
%TO.C,D5*%
X118482500Y-40992500D03*
X118482500Y-37692500D03*
%TD*%
%TO.C,D42*%
X70857500Y-117192500D03*
X70857500Y-113892500D03*
%TD*%
%TO.C,D41*%
X242307500Y-98142500D03*
X242307500Y-94842500D03*
%TD*%
%TO.C,D16*%
X185157500Y-60042500D03*
X185157500Y-56742500D03*
%TD*%
%TO.C,D13*%
X118482500Y-60042500D03*
X118482500Y-56742500D03*
%TD*%
D13*
%TO.C,D46*%
X148201554Y-128803942D03*
X149055656Y-125616386D03*
%TD*%
D12*
%TO.C,D18*%
X223257500Y-60042500D03*
X223257500Y-56742500D03*
%TD*%
%TO.C,D40*%
X223257500Y-98142500D03*
X223257500Y-94842500D03*
%TD*%
%TO.C,D12*%
X99432500Y-60042500D03*
X99432500Y-56742500D03*
%TD*%
%TO.C,D11*%
X80382500Y-60042500D03*
X80382500Y-56742500D03*
%TD*%
%TO.C,D8*%
X175632500Y-40992500D03*
X175632500Y-37692500D03*
%TD*%
%TO.C,D29*%
X223257500Y-79092500D03*
X223257500Y-75792500D03*
%TD*%
%TO.C,D6*%
X137532500Y-40992500D03*
X137532500Y-37692500D03*
%TD*%
%TO.C,D51*%
X242307500Y-117192500D03*
X242307500Y-113892500D03*
%TD*%
%TO.C,D3*%
X80382500Y-40992500D03*
X80382500Y-37692500D03*
%TD*%
%TO.C,D9*%
X32757500Y-60042500D03*
X32757500Y-56742500D03*
%TD*%
%TO.C,D37*%
X156582500Y-98142500D03*
X156582500Y-94842500D03*
%TD*%
%TO.C,D50*%
X223257500Y-117192500D03*
X223257500Y-113892500D03*
%TD*%
D13*
%TO.C,D47*%
X166602441Y-133734445D03*
X167456543Y-130546889D03*
%TD*%
D12*
%TO.C,D30*%
X242307500Y-79092500D03*
X242307500Y-75792500D03*
%TD*%
%TO.C,D20*%
X32757500Y-79092500D03*
X32757500Y-75792500D03*
%TD*%
%TO.C,D48*%
X185157500Y-117192500D03*
X185157500Y-113892500D03*
%TD*%
%TO.C,D36*%
X137532500Y-98142500D03*
X137532500Y-94842500D03*
%TD*%
%TO.C,D22*%
X80382500Y-79092500D03*
X80382500Y-75792500D03*
%TD*%
%TO.C,D1*%
X32757500Y-40992500D03*
X32757500Y-37692500D03*
%TD*%
%TO.C,D39*%
X204207500Y-98142500D03*
X204207500Y-94842500D03*
%TD*%
%TO.C,D33*%
X80382500Y-98142500D03*
X80382500Y-94842500D03*
%TD*%
M02*
