M48
; DRILL file {KiCad 7.0.1} date Fri Sep  1 15:37:32 2023
; FORMAT={-:-/ absolute / metric / decimal}
; #@! TF.CreationDate,2023-09-01T15:37:32-04:00
; #@! TF.GenerationSoftware,Kicad,Pcbnew,7.0.1
; #@! TF.FileFunction,Plated,1,2,PTH
FMAT,2
METRIC
; #@! TA.AperFunction,Plated,PTH,ViaDrill
T1C0.400
; #@! TA.AperFunction,Plated,PTH,ComponentDrill
T2C0.400
; #@! TA.AperFunction,Plated,PTH,ComponentDrill
T3C0.813
; #@! TA.AperFunction,Plated,PTH,ComponentDrill
T4C1.000
; #@! TA.AperFunction,Plated,PTH,ComponentDrill
T5C2.300
%
G90
G05
T1
X49.92Y-29.45
X49.92Y-48.41
X49.92Y-67.43
X49.92Y-86.52
X57.425Y-40.992
X57.9Y-79.093
X64.854Y-99.171
X66.95Y-99.1
X67.237Y-100.615
X75.875Y-60.042
X76.77Y-29.36
X76.77Y-48.36
X76.77Y-67.66
X76.77Y-86.51
X83.53Y-102.39
X92.49Y-100.78
X95.46Y-29.25
X95.46Y-48.514
X95.46Y-67.564
X95.46Y-86.614
X97.61Y-99.71
X109.547Y-115.824
X110.21Y-106.68
X112.182Y-103.546
X112.268Y-102.009
X113.481Y-101.346
X114.86Y-29.39
X114.86Y-48.514
X114.86Y-67.564
X114.86Y-86.614
X115.316Y-101.854
X115.44Y-100.75
X119.38Y-103.632
X120.764Y-104.788
X133.64Y-29.53
X133.66Y-48.51
X133.66Y-67.52
X133.66Y-86.58
X133.66Y-99.67
X151.384Y-104.295
X152.74Y-29.45
X152.74Y-47.498
X152.74Y-67.056
X152.74Y-87.122
X161.544Y-130.81
X163.123Y-129.231
X165.51Y-117.08
X172.02Y-29.39
X172.02Y-48.52
X172.02Y-67.42
X172.02Y-86.64
X176.18Y-100.72
X181.449Y-134.713
X200.21Y-48.63
X200.21Y-67.45
X200.21Y-86.75
X202.25Y-101.45
X219.21Y-48.39
X219.21Y-67.53
X219.21Y-86.29
X220.71Y-101.58
X236.474Y-118.11
X238.3Y-67.57
X238.3Y-86.61
X238.38Y-48.49
X254.87Y-103.0
X256.286Y-118.618
T2
X52.348Y-30.734
X52.788Y-29.674
X52.788Y-31.794
X53.848Y-29.234
X53.848Y-32.234
X54.908Y-29.674
X54.908Y-31.794
X55.348Y-30.734
X59.714Y-109.474
X60.154Y-108.414
X60.154Y-110.534
X61.214Y-107.974
X61.214Y-110.974
X62.274Y-108.414
X62.274Y-110.534
X62.714Y-109.474
X172.236Y-111.252
X172.676Y-110.192
X172.676Y-112.312
X173.736Y-109.752
X173.736Y-112.752
X174.796Y-110.192
X174.796Y-112.312
X175.236Y-111.252
X237.514Y-101.092
X237.954Y-100.032
X237.954Y-102.152
X239.014Y-99.592
X239.014Y-102.592
X240.074Y-100.032
X240.074Y-102.152
X240.514Y-101.092
X250.512Y-32.556
X250.952Y-31.496
X250.952Y-33.616
X252.012Y-31.056
X252.012Y-34.056
X253.072Y-31.496
X253.072Y-33.616
X253.512Y-32.556
T3
X242.325Y-30.1
X242.325Y-32.64
X242.325Y-35.18
X242.325Y-37.72
T4
X31.33Y-104.16
X31.33Y-119.4
X33.87Y-104.16
X33.87Y-119.4
X36.41Y-104.16
X36.41Y-119.4
X38.95Y-104.16
X38.95Y-119.4
X41.49Y-104.16
X41.49Y-119.4
X44.03Y-104.16
X44.03Y-119.4
X46.57Y-104.16
X46.57Y-119.4
X49.11Y-104.16
X49.11Y-119.4
X51.65Y-104.16
X51.65Y-106.7
X51.65Y-109.24
X51.65Y-111.78
X51.65Y-114.32
X51.65Y-116.86
X51.65Y-119.4
T5
X53.848Y-30.734
X61.214Y-109.474
X173.736Y-111.252
X239.014Y-101.092
X252.012Y-32.556
T0
M30
