%TF.GenerationSoftware,KiCad,Pcbnew,7.0.1*%
%TF.CreationDate,2023-09-01T15:37:29-04:00*%
%TF.ProjectId,macropad,6d616372-6f70-4616-942e-6b696361645f,rev?*%
%TF.SameCoordinates,Original*%
%TF.FileFunction,Soldermask,Bot*%
%TF.FilePolarity,Negative*%
%FSLAX46Y46*%
G04 Gerber Fmt 4.6, Leading zero omitted, Abs format (unit mm)*
G04 Created by KiCad (PCBNEW 7.0.1) date 2023-09-01 15:37:29*
%MOMM*%
%LPD*%
G01*
G04 APERTURE LIST*
G04 Aperture macros list*
%AMRoundRect*
0 Rectangle with rounded corners*
0 $1 Rounding radius*
0 $2 $3 $4 $5 $6 $7 $8 $9 X,Y pos of 4 corners*
0 Add a 4 corners polygon primitive as box body*
4,1,4,$2,$3,$4,$5,$6,$7,$8,$9,$2,$3,0*
0 Add four circle primitives for the rounded corners*
1,1,$1+$1,$2,$3*
1,1,$1+$1,$4,$5*
1,1,$1+$1,$6,$7*
1,1,$1+$1,$8,$9*
0 Add four rect primitives between the rounded corners*
20,1,$1+$1,$2,$3,$4,$5,0*
20,1,$1+$1,$4,$5,$6,$7,0*
20,1,$1+$1,$6,$7,$8,$9,0*
20,1,$1+$1,$8,$9,$2,$3,0*%
%AMRotRect*
0 Rectangle, with rotation*
0 The origin of the aperture is its center*
0 $1 length*
0 $2 width*
0 $3 Rotation angle, in degrees counterclockwise*
0 Add horizontal line*
21,1,$1,$2,0,0,$3*%
G04 Aperture macros list end*
%ADD10C,0.500000*%
%ADD11C,4.000000*%
%ADD12C,1.701800*%
%ADD13C,3.000000*%
%ADD14C,3.987800*%
%ADD15R,2.550000X2.500000*%
%ADD16RotRect,2.550000X2.500000X345.000000*%
%ADD17C,1.397000*%
%ADD18O,1.500000X2.500000*%
%ADD19O,2.500000X1.500000*%
%ADD20RoundRect,0.225000X0.375000X-0.225000X0.375000X0.225000X-0.375000X0.225000X-0.375000X-0.225000X0*%
%ADD21RoundRect,0.225000X0.303988X-0.314390X0.420456X0.120276X-0.303988X0.314390X-0.420456X-0.120276X0*%
G04 APERTURE END LIST*
D10*
%TO.C,m2*%
X59714000Y-109474000D03*
X60154000Y-108414000D03*
X60154000Y-110534000D03*
X61214000Y-107974000D03*
D11*
X61214000Y-109474000D03*
D10*
X61214000Y-110974000D03*
X62274000Y-108414000D03*
X62274000Y-110534000D03*
X62714000Y-109474000D03*
%TD*%
%TO.C,m2*%
X52348000Y-30734000D03*
X52788000Y-29674000D03*
X52788000Y-31794000D03*
X53848000Y-29234000D03*
D11*
X53848000Y-30734000D03*
D10*
X53848000Y-32234000D03*
X54908000Y-29674000D03*
X54908000Y-31794000D03*
X55348000Y-30734000D03*
%TD*%
D11*
%TO.C,m2*%
X173736000Y-111252000D03*
D10*
X175236000Y-111252000D03*
X172236000Y-111252000D03*
X173736000Y-112752000D03*
X173736000Y-109752000D03*
X174796000Y-112312000D03*
X172676000Y-112312000D03*
X172676000Y-110192000D03*
X174796000Y-110192000D03*
%TD*%
%TO.C,m2*%
X237514000Y-101092000D03*
X237954000Y-100032000D03*
X237954000Y-102152000D03*
X239014000Y-99592000D03*
D11*
X239014000Y-101092000D03*
D10*
X239014000Y-102592000D03*
X240074000Y-100032000D03*
X240074000Y-102152000D03*
X240514000Y-101092000D03*
%TD*%
%TO.C,m2*%
X250512000Y-32556000D03*
X250952000Y-31496000D03*
X250952000Y-33616000D03*
X252012000Y-31056000D03*
D11*
X252012000Y-32556000D03*
D10*
X252012000Y-34056000D03*
X253072000Y-31496000D03*
X253072000Y-33616000D03*
X253512000Y-32556000D03*
%TD*%
D12*
%TO.C,SW51*%
X243757500Y-110725000D03*
D13*
X245027500Y-108185000D03*
D14*
X248837500Y-110725000D03*
D13*
X251377500Y-105645000D03*
D12*
X253917500Y-110725000D03*
D15*
X255127500Y-105645000D03*
X241277500Y-108185000D03*
%TD*%
D12*
%TO.C,SW50*%
X224707500Y-110725000D03*
D13*
X225977500Y-108185000D03*
D14*
X229787500Y-110725000D03*
D13*
X232327500Y-105645000D03*
D12*
X234867500Y-110725000D03*
D15*
X236077500Y-105645000D03*
X222227500Y-108185000D03*
%TD*%
D12*
%TO.C,SW49*%
X205657500Y-110725000D03*
D13*
X206927500Y-108185000D03*
D14*
X210737500Y-110725000D03*
D13*
X213277500Y-105645000D03*
D12*
X215817500Y-110725000D03*
D15*
X217027500Y-105645000D03*
X203177500Y-108185000D03*
%TD*%
D12*
%TO.C,SW48*%
X186607500Y-110725000D03*
D13*
X187877500Y-108185000D03*
D14*
X191687500Y-110725000D03*
D13*
X194227500Y-105645000D03*
D12*
X196767500Y-110725000D03*
D15*
X197977500Y-105645000D03*
X184127500Y-108185000D03*
%TD*%
D12*
%TO.C,SW47*%
X169676946Y-127862607D03*
D13*
X171561072Y-125737856D03*
D14*
X174583849Y-129177408D03*
D13*
X178352101Y-124927905D03*
D12*
X179490752Y-130492209D03*
D16*
X181974323Y-125898477D03*
X167938850Y-124767284D03*
%TD*%
D12*
%TO.C,SW46*%
X151276059Y-122932104D03*
D13*
X153160185Y-120807353D03*
D14*
X156182962Y-124246905D03*
D13*
X159951214Y-119997402D03*
D12*
X161089865Y-125561706D03*
D16*
X163573436Y-120967974D03*
X149537963Y-119836781D03*
%TD*%
D12*
%TO.C,SW45*%
X132875172Y-118001601D03*
D13*
X134759298Y-115876850D03*
D14*
X137782075Y-119316402D03*
D13*
X141550327Y-115066899D03*
D12*
X142688978Y-120631203D03*
D16*
X145172549Y-116037471D03*
X131137076Y-114906278D03*
%TD*%
D12*
%TO.C,SW44*%
X114474285Y-113071099D03*
D13*
X116358411Y-110946348D03*
D14*
X119381188Y-114385900D03*
D13*
X123149440Y-110136397D03*
D12*
X124288091Y-115700701D03*
D16*
X126771662Y-111106969D03*
X112736189Y-109975776D03*
%TD*%
D12*
%TO.C,SW43*%
X91357500Y-110725000D03*
D13*
X92627500Y-108185000D03*
D14*
X96437500Y-110725000D03*
D13*
X98977500Y-105645000D03*
D12*
X101517500Y-110725000D03*
D15*
X102727500Y-105645000D03*
X88877500Y-108185000D03*
%TD*%
D12*
%TO.C,SW42*%
X72307500Y-110725000D03*
D13*
X73577500Y-108185000D03*
D14*
X77387500Y-110725000D03*
D13*
X79927500Y-105645000D03*
D12*
X82467500Y-110725000D03*
D15*
X83677500Y-105645000D03*
X69827500Y-108185000D03*
%TD*%
D12*
%TO.C,SW41*%
X243757500Y-91675000D03*
D13*
X245027500Y-89135000D03*
D14*
X248837500Y-91675000D03*
D13*
X251377500Y-86595000D03*
D12*
X253917500Y-91675000D03*
D15*
X255127500Y-86595000D03*
X241277500Y-89135000D03*
%TD*%
D12*
%TO.C,SW40*%
X224707500Y-91675000D03*
D13*
X225977500Y-89135000D03*
D14*
X229787500Y-91675000D03*
D13*
X232327500Y-86595000D03*
D12*
X234867500Y-91675000D03*
D15*
X236077500Y-86595000D03*
X222227500Y-89135000D03*
%TD*%
D12*
%TO.C,SW39*%
X205657500Y-91675000D03*
D13*
X206927500Y-89135000D03*
D14*
X210737500Y-91675000D03*
D13*
X213277500Y-86595000D03*
D12*
X215817500Y-91675000D03*
D15*
X217027500Y-86595000D03*
X203177500Y-89135000D03*
%TD*%
D12*
%TO.C,SW38*%
X186607500Y-91675000D03*
D13*
X187877500Y-89135000D03*
D14*
X191687500Y-91675000D03*
D13*
X194227500Y-86595000D03*
D12*
X196767500Y-91675000D03*
D15*
X197977500Y-86595000D03*
X184127500Y-89135000D03*
%TD*%
D12*
%TO.C,SW37*%
X158032500Y-91675000D03*
D13*
X159302500Y-89135000D03*
D14*
X163112500Y-91675000D03*
D13*
X165652500Y-86595000D03*
D12*
X168192500Y-91675000D03*
D15*
X169402500Y-86595000D03*
X155552500Y-89135000D03*
%TD*%
D12*
%TO.C,SW36*%
X138982500Y-91675000D03*
D13*
X140252500Y-89135000D03*
D14*
X144062500Y-91675000D03*
D13*
X146602500Y-86595000D03*
D12*
X149142500Y-91675000D03*
D15*
X150352500Y-86595000D03*
X136502500Y-89135000D03*
%TD*%
D12*
%TO.C,SW35*%
X119932500Y-91675000D03*
D13*
X121202500Y-89135000D03*
D14*
X125012500Y-91675000D03*
D13*
X127552500Y-86595000D03*
D12*
X130092500Y-91675000D03*
D15*
X131302500Y-86595000D03*
X117452500Y-89135000D03*
%TD*%
D12*
%TO.C,SW34*%
X100882500Y-91675000D03*
D13*
X102152500Y-89135000D03*
D14*
X105962500Y-91675000D03*
D13*
X108502500Y-86595000D03*
D12*
X111042500Y-91675000D03*
D15*
X112252500Y-86595000D03*
X98402500Y-89135000D03*
%TD*%
D12*
%TO.C,SW33*%
X81832500Y-91675000D03*
D13*
X83102500Y-89135000D03*
D14*
X86912500Y-91675000D03*
D13*
X89452500Y-86595000D03*
D12*
X91992500Y-91675000D03*
D15*
X93202500Y-86595000D03*
X79352500Y-89135000D03*
%TD*%
D12*
%TO.C,SW32*%
X62782500Y-91675000D03*
D13*
X64052500Y-89135000D03*
D14*
X67862500Y-91675000D03*
D13*
X70402500Y-86595000D03*
D12*
X72942500Y-91675000D03*
D15*
X74152500Y-86595000D03*
X60302500Y-89135000D03*
%TD*%
D12*
%TO.C,SW31*%
X34207500Y-91675000D03*
D13*
X35477500Y-89135000D03*
D14*
X39287500Y-91675000D03*
D13*
X41827500Y-86595000D03*
D12*
X44367500Y-91675000D03*
D15*
X45577500Y-86595000D03*
X31727500Y-89135000D03*
%TD*%
D12*
%TO.C,SW30*%
X243757500Y-72625000D03*
D13*
X245027500Y-70085000D03*
D14*
X248837500Y-72625000D03*
D13*
X251377500Y-67545000D03*
D12*
X253917500Y-72625000D03*
D15*
X255127500Y-67545000D03*
X241277500Y-70085000D03*
%TD*%
D12*
%TO.C,SW29*%
X224707500Y-72625000D03*
D13*
X225977500Y-70085000D03*
D14*
X229787500Y-72625000D03*
D13*
X232327500Y-67545000D03*
D12*
X234867500Y-72625000D03*
D15*
X236077500Y-67545000D03*
X222227500Y-70085000D03*
%TD*%
D12*
%TO.C,SW28*%
X205657500Y-72625000D03*
D13*
X206927500Y-70085000D03*
D14*
X210737500Y-72625000D03*
D13*
X213277500Y-67545000D03*
D12*
X215817500Y-72625000D03*
D15*
X217027500Y-67545000D03*
X203177500Y-70085000D03*
%TD*%
D12*
%TO.C,SW27*%
X186607500Y-72625000D03*
D13*
X187877500Y-70085000D03*
D14*
X191687500Y-72625000D03*
D13*
X194227500Y-67545000D03*
D12*
X196767500Y-72625000D03*
D15*
X197977500Y-67545000D03*
X184127500Y-70085000D03*
%TD*%
D12*
%TO.C,SW26*%
X158032500Y-72625000D03*
D13*
X159302500Y-70085000D03*
D14*
X163112500Y-72625000D03*
D13*
X165652500Y-67545000D03*
D12*
X168192500Y-72625000D03*
D15*
X169402500Y-67545000D03*
X155552500Y-70085000D03*
%TD*%
D12*
%TO.C,SW25*%
X138982500Y-72625000D03*
D13*
X140252500Y-70085000D03*
D14*
X144062500Y-72625000D03*
D13*
X146602500Y-67545000D03*
D12*
X149142500Y-72625000D03*
D15*
X150352500Y-67545000D03*
X136502500Y-70085000D03*
%TD*%
D12*
%TO.C,SW24*%
X119932500Y-72625000D03*
D13*
X121202500Y-70085000D03*
D14*
X125012500Y-72625000D03*
D13*
X127552500Y-67545000D03*
D12*
X130092500Y-72625000D03*
D15*
X131302500Y-67545000D03*
X117452500Y-70085000D03*
%TD*%
D12*
%TO.C,SW23*%
X100882500Y-72625000D03*
D13*
X102152500Y-70085000D03*
D14*
X105962500Y-72625000D03*
D13*
X108502500Y-67545000D03*
D12*
X111042500Y-72625000D03*
D15*
X112252500Y-67545000D03*
X98402500Y-70085000D03*
%TD*%
D12*
%TO.C,SW22*%
X81832500Y-72625000D03*
D13*
X83102500Y-70085000D03*
D14*
X86912500Y-72625000D03*
D13*
X89452500Y-67545000D03*
D12*
X91992500Y-72625000D03*
D15*
X93202500Y-67545000D03*
X79352500Y-70085000D03*
%TD*%
D12*
%TO.C,SW21*%
X62782500Y-72625000D03*
D13*
X64052500Y-70085000D03*
D14*
X67862500Y-72625000D03*
D13*
X70402500Y-67545000D03*
D12*
X72942500Y-72625000D03*
D15*
X74152500Y-67545000D03*
X60302500Y-70085000D03*
%TD*%
D12*
%TO.C,SW20*%
X34207500Y-72625000D03*
D13*
X35477500Y-70085000D03*
D14*
X39287500Y-72625000D03*
D13*
X41827500Y-67545000D03*
D12*
X44367500Y-72625000D03*
D15*
X45577500Y-67545000D03*
X31727500Y-70085000D03*
%TD*%
D12*
%TO.C,SW19*%
X243757500Y-53575000D03*
D13*
X245027500Y-51035000D03*
D14*
X248837500Y-53575000D03*
D13*
X251377500Y-48495000D03*
D12*
X253917500Y-53575000D03*
D15*
X255127500Y-48495000D03*
X241277500Y-51035000D03*
%TD*%
D12*
%TO.C,SW18*%
X224707500Y-53575000D03*
D13*
X225977500Y-51035000D03*
D14*
X229787500Y-53575000D03*
D13*
X232327500Y-48495000D03*
D12*
X234867500Y-53575000D03*
D15*
X236077500Y-48495000D03*
X222227500Y-51035000D03*
%TD*%
D12*
%TO.C,SW17*%
X205657500Y-53575000D03*
D13*
X206927500Y-51035000D03*
D14*
X210737500Y-53575000D03*
D13*
X213277500Y-48495000D03*
D12*
X215817500Y-53575000D03*
D15*
X217027500Y-48495000D03*
X203177500Y-51035000D03*
%TD*%
D12*
%TO.C,SW16*%
X186607500Y-53575000D03*
D13*
X187877500Y-51035000D03*
D14*
X191687500Y-53575000D03*
D13*
X194227500Y-48495000D03*
D12*
X196767500Y-53575000D03*
D15*
X197977500Y-48495000D03*
X184127500Y-51035000D03*
%TD*%
D12*
%TO.C,SW15*%
X158032500Y-53575000D03*
D13*
X159302500Y-51035000D03*
D14*
X163112500Y-53575000D03*
D13*
X165652500Y-48495000D03*
D12*
X168192500Y-53575000D03*
D15*
X169402500Y-48495000D03*
X155552500Y-51035000D03*
%TD*%
D12*
%TO.C,SW14*%
X138982500Y-53575000D03*
D13*
X140252500Y-51035000D03*
D14*
X144062500Y-53575000D03*
D13*
X146602500Y-48495000D03*
D12*
X149142500Y-53575000D03*
D15*
X150352500Y-48495000D03*
X136502500Y-51035000D03*
%TD*%
D12*
%TO.C,SW13*%
X119932500Y-53575000D03*
D13*
X121202500Y-51035000D03*
D14*
X125012500Y-53575000D03*
D13*
X127552500Y-48495000D03*
D12*
X130092500Y-53575000D03*
D15*
X131302500Y-48495000D03*
X117452500Y-51035000D03*
%TD*%
D12*
%TO.C,SW12*%
X100882500Y-53575000D03*
D13*
X102152500Y-51035000D03*
D14*
X105962500Y-53575000D03*
D13*
X108502500Y-48495000D03*
D12*
X111042500Y-53575000D03*
D15*
X112252500Y-48495000D03*
X98402500Y-51035000D03*
%TD*%
D12*
%TO.C,SW11*%
X81832500Y-53575000D03*
D13*
X83102500Y-51035000D03*
D14*
X86912500Y-53575000D03*
D13*
X89452500Y-48495000D03*
D12*
X91992500Y-53575000D03*
D15*
X93202500Y-48495000D03*
X79352500Y-51035000D03*
%TD*%
D12*
%TO.C,SW10*%
X62782500Y-53575000D03*
D13*
X64052500Y-51035000D03*
D14*
X67862500Y-53575000D03*
D13*
X70402500Y-48495000D03*
D12*
X72942500Y-53575000D03*
D15*
X74152500Y-48495000D03*
X60302500Y-51035000D03*
%TD*%
D12*
%TO.C,SW9*%
X34207500Y-53575000D03*
D13*
X35477500Y-51035000D03*
D14*
X39287500Y-53575000D03*
D13*
X41827500Y-48495000D03*
D12*
X44367500Y-53575000D03*
D15*
X45577500Y-48495000D03*
X31727500Y-51035000D03*
%TD*%
D12*
%TO.C,SW8*%
X177082500Y-34525000D03*
D13*
X178352500Y-31985000D03*
D14*
X182162500Y-34525000D03*
D13*
X184702500Y-29445000D03*
D12*
X187242500Y-34525000D03*
D15*
X188452500Y-29445000D03*
X174602500Y-31985000D03*
%TD*%
D12*
%TO.C,SW7*%
X158032500Y-34525000D03*
D13*
X159302500Y-31985000D03*
D14*
X163112500Y-34525000D03*
D13*
X165652500Y-29445000D03*
D12*
X168192500Y-34525000D03*
D15*
X169402500Y-29445000D03*
X155552500Y-31985000D03*
%TD*%
D12*
%TO.C,SW6*%
X138982500Y-34525000D03*
D13*
X140252500Y-31985000D03*
D14*
X144062500Y-34525000D03*
D13*
X146602500Y-29445000D03*
D12*
X149142500Y-34525000D03*
D15*
X150352500Y-29445000D03*
X136502500Y-31985000D03*
%TD*%
D12*
%TO.C,SW5*%
X119932500Y-34525000D03*
D13*
X121202500Y-31985000D03*
D14*
X125012500Y-34525000D03*
D13*
X127552500Y-29445000D03*
D12*
X130092500Y-34525000D03*
D15*
X131302500Y-29445000D03*
X117452500Y-31985000D03*
%TD*%
D12*
%TO.C,SW4*%
X100882500Y-34525000D03*
D13*
X102152500Y-31985000D03*
D14*
X105962500Y-34525000D03*
D13*
X108502500Y-29445000D03*
D12*
X111042500Y-34525000D03*
D15*
X112252500Y-29445000D03*
X98402500Y-31985000D03*
%TD*%
D12*
%TO.C,SW3*%
X81832500Y-34525000D03*
D13*
X83102500Y-31985000D03*
D14*
X86912500Y-34525000D03*
D13*
X89452500Y-29445000D03*
D12*
X91992500Y-34525000D03*
D15*
X93202500Y-29445000D03*
X79352500Y-31985000D03*
%TD*%
D12*
%TO.C,SW2*%
X62782500Y-34525000D03*
D13*
X64052500Y-31985000D03*
D14*
X67862500Y-34525000D03*
D13*
X70402500Y-29445000D03*
D12*
X72942500Y-34525000D03*
D15*
X74152500Y-29445000D03*
X60302500Y-31985000D03*
%TD*%
D12*
%TO.C,SW1*%
X34207500Y-34525000D03*
D13*
X35477500Y-31985000D03*
D14*
X39287500Y-34525000D03*
D13*
X41827500Y-29445000D03*
D12*
X44367500Y-34525000D03*
D15*
X45577500Y-29445000D03*
X31727500Y-31985000D03*
%TD*%
D17*
%TO.C,OL1*%
X242325000Y-37720000D03*
X242325000Y-35180000D03*
X242325000Y-32640000D03*
X242325000Y-30100000D03*
%TD*%
D18*
%TO.C,U1*%
X31330000Y-119900000D03*
X33870000Y-119900000D03*
X36410000Y-119900000D03*
X38950000Y-119900000D03*
X41490000Y-119900000D03*
X44030000Y-119900000D03*
X46570000Y-119900000D03*
X49110000Y-119900000D03*
X51650000Y-119900000D03*
D19*
X52150000Y-116860000D03*
X52150000Y-114320000D03*
X52150000Y-111780000D03*
X52150000Y-109240000D03*
X52150000Y-106700000D03*
D18*
X51650000Y-103660000D03*
X49110000Y-103660000D03*
X46570000Y-103660000D03*
X44030000Y-103660000D03*
X41490000Y-103660000D03*
X38950000Y-103660000D03*
X36410000Y-103660000D03*
X33870000Y-103660000D03*
X31330000Y-103660000D03*
%TD*%
D20*
%TO.C,D31*%
X32757500Y-98142500D03*
X32757500Y-94842500D03*
%TD*%
%TO.C,D32*%
X61332500Y-98142500D03*
X61332500Y-94842500D03*
%TD*%
%TO.C,D19*%
X242307500Y-60042500D03*
X242307500Y-56742500D03*
%TD*%
%TO.C,D10*%
X61332500Y-60042500D03*
X61332500Y-56742500D03*
%TD*%
%TO.C,D35*%
X118482500Y-98142500D03*
X118482500Y-94842500D03*
%TD*%
%TO.C,D28*%
X204207500Y-79092500D03*
X204207500Y-75792500D03*
%TD*%
D21*
%TO.C,D45*%
X129800667Y-123873440D03*
X130654769Y-120685884D03*
%TD*%
D20*
%TO.C,D14*%
X137532500Y-60042500D03*
X137532500Y-56742500D03*
%TD*%
%TO.C,D21*%
X61332500Y-79092500D03*
X61332500Y-75792500D03*
%TD*%
%TO.C,D38*%
X185157500Y-98142500D03*
X185157500Y-94842500D03*
%TD*%
%TO.C,D49*%
X204207500Y-117192500D03*
X204207500Y-113892500D03*
%TD*%
%TO.C,D43*%
X89907500Y-117192500D03*
X89907500Y-113892500D03*
%TD*%
%TO.C,D23*%
X99432500Y-79092500D03*
X99432500Y-75792500D03*
%TD*%
%TO.C,D7*%
X156582500Y-40992500D03*
X156582500Y-37692500D03*
%TD*%
%TO.C,D17*%
X204207500Y-60042500D03*
X204207500Y-56742500D03*
%TD*%
%TO.C,D4*%
X99432500Y-40992500D03*
X99432500Y-37692500D03*
%TD*%
%TO.C,D25*%
X137532500Y-79092500D03*
X137532500Y-75792500D03*
%TD*%
%TO.C,D24*%
X118482500Y-79092500D03*
X118482500Y-75792500D03*
%TD*%
%TO.C,D34*%
X99432500Y-98142500D03*
X99432500Y-94842500D03*
%TD*%
%TO.C,D2*%
X61332500Y-40992500D03*
X61332500Y-37692500D03*
%TD*%
%TO.C,D27*%
X185157500Y-79092500D03*
X185157500Y-75792500D03*
%TD*%
D21*
%TO.C,D44*%
X111399780Y-118942937D03*
X112253882Y-115755381D03*
%TD*%
D20*
%TO.C,D26*%
X156582500Y-79092500D03*
X156582500Y-75792500D03*
%TD*%
%TO.C,D15*%
X156582500Y-60042500D03*
X156582500Y-56742500D03*
%TD*%
%TO.C,D5*%
X118482500Y-40992500D03*
X118482500Y-37692500D03*
%TD*%
%TO.C,D42*%
X70857500Y-117192500D03*
X70857500Y-113892500D03*
%TD*%
%TO.C,D41*%
X242307500Y-98142500D03*
X242307500Y-94842500D03*
%TD*%
%TO.C,D16*%
X185157500Y-60042500D03*
X185157500Y-56742500D03*
%TD*%
%TO.C,D13*%
X118482500Y-60042500D03*
X118482500Y-56742500D03*
%TD*%
D21*
%TO.C,D46*%
X148201554Y-128803942D03*
X149055656Y-125616386D03*
%TD*%
D20*
%TO.C,D18*%
X223257500Y-60042500D03*
X223257500Y-56742500D03*
%TD*%
%TO.C,D40*%
X223257500Y-98142500D03*
X223257500Y-94842500D03*
%TD*%
%TO.C,D12*%
X99432500Y-60042500D03*
X99432500Y-56742500D03*
%TD*%
%TO.C,D11*%
X80382500Y-60042500D03*
X80382500Y-56742500D03*
%TD*%
%TO.C,D8*%
X175632500Y-40992500D03*
X175632500Y-37692500D03*
%TD*%
%TO.C,D29*%
X223257500Y-79092500D03*
X223257500Y-75792500D03*
%TD*%
%TO.C,D6*%
X137532500Y-40992500D03*
X137532500Y-37692500D03*
%TD*%
%TO.C,D51*%
X242307500Y-117192500D03*
X242307500Y-113892500D03*
%TD*%
%TO.C,D3*%
X80382500Y-40992500D03*
X80382500Y-37692500D03*
%TD*%
%TO.C,D9*%
X32757500Y-60042500D03*
X32757500Y-56742500D03*
%TD*%
%TO.C,D37*%
X156582500Y-98142500D03*
X156582500Y-94842500D03*
%TD*%
%TO.C,D50*%
X223257500Y-117192500D03*
X223257500Y-113892500D03*
%TD*%
D21*
%TO.C,D47*%
X166602441Y-133734445D03*
X167456543Y-130546889D03*
%TD*%
D20*
%TO.C,D30*%
X242307500Y-79092500D03*
X242307500Y-75792500D03*
%TD*%
%TO.C,D20*%
X32757500Y-79092500D03*
X32757500Y-75792500D03*
%TD*%
%TO.C,D48*%
X185157500Y-117192500D03*
X185157500Y-113892500D03*
%TD*%
%TO.C,D36*%
X137532500Y-98142500D03*
X137532500Y-94842500D03*
%TD*%
%TO.C,D22*%
X80382500Y-79092500D03*
X80382500Y-75792500D03*
%TD*%
%TO.C,D1*%
X32757500Y-40992500D03*
X32757500Y-37692500D03*
%TD*%
%TO.C,D39*%
X204207500Y-98142500D03*
X204207500Y-94842500D03*
%TD*%
%TO.C,D33*%
X80382500Y-98142500D03*
X80382500Y-94842500D03*
%TD*%
M02*
