%TF.GenerationSoftware,KiCad,Pcbnew,7.0.1*%
%TF.CreationDate,2023-09-01T15:37:29-04:00*%
%TF.ProjectId,macropad,6d616372-6f70-4616-942e-6b696361645f,rev?*%
%TF.SameCoordinates,Original*%
%TF.FileFunction,Soldermask,Top*%
%TF.FilePolarity,Negative*%
%FSLAX46Y46*%
G04 Gerber Fmt 4.6, Leading zero omitted, Abs format (unit mm)*
G04 Created by KiCad (PCBNEW 7.0.1) date 2023-09-01 15:37:29*
%MOMM*%
%LPD*%
G01*
G04 APERTURE LIST*
%ADD10C,0.500000*%
%ADD11C,4.000000*%
%ADD12C,1.701800*%
%ADD13C,3.000000*%
%ADD14C,3.987800*%
%ADD15O,1.500000X2.500000*%
%ADD16O,2.500000X1.500000*%
G04 APERTURE END LIST*
D10*
%TO.C,m2*%
X59714000Y-109474000D03*
X60154000Y-108414000D03*
X60154000Y-110534000D03*
X61214000Y-107974000D03*
D11*
X61214000Y-109474000D03*
D10*
X61214000Y-110974000D03*
X62274000Y-108414000D03*
X62274000Y-110534000D03*
X62714000Y-109474000D03*
%TD*%
%TO.C,m2*%
X52348000Y-30734000D03*
X52788000Y-29674000D03*
X52788000Y-31794000D03*
X53848000Y-29234000D03*
D11*
X53848000Y-30734000D03*
D10*
X53848000Y-32234000D03*
X54908000Y-29674000D03*
X54908000Y-31794000D03*
X55348000Y-30734000D03*
%TD*%
D11*
%TO.C,m2*%
X173736000Y-111252000D03*
D10*
X175236000Y-111252000D03*
X172236000Y-111252000D03*
X173736000Y-112752000D03*
X173736000Y-109752000D03*
X174796000Y-112312000D03*
X172676000Y-112312000D03*
X172676000Y-110192000D03*
X174796000Y-110192000D03*
%TD*%
%TO.C,m2*%
X237514000Y-101092000D03*
X237954000Y-100032000D03*
X237954000Y-102152000D03*
X239014000Y-99592000D03*
D11*
X239014000Y-101092000D03*
D10*
X239014000Y-102592000D03*
X240074000Y-100032000D03*
X240074000Y-102152000D03*
X240514000Y-101092000D03*
%TD*%
%TO.C,m2*%
X250512000Y-32556000D03*
X250952000Y-31496000D03*
X250952000Y-33616000D03*
X252012000Y-31056000D03*
D11*
X252012000Y-32556000D03*
D10*
X252012000Y-34056000D03*
X253072000Y-31496000D03*
X253072000Y-33616000D03*
X253512000Y-32556000D03*
%TD*%
D12*
%TO.C,SW51*%
X243757500Y-110725000D03*
D13*
X245027500Y-108185000D03*
D14*
X248837500Y-110725000D03*
D13*
X251377500Y-105645000D03*
D12*
X253917500Y-110725000D03*
%TD*%
%TO.C,SW50*%
X224707500Y-110725000D03*
D13*
X225977500Y-108185000D03*
D14*
X229787500Y-110725000D03*
D13*
X232327500Y-105645000D03*
D12*
X234867500Y-110725000D03*
%TD*%
%TO.C,SW49*%
X205657500Y-110725000D03*
D13*
X206927500Y-108185000D03*
D14*
X210737500Y-110725000D03*
D13*
X213277500Y-105645000D03*
D12*
X215817500Y-110725000D03*
%TD*%
%TO.C,SW48*%
X186607500Y-110725000D03*
D13*
X187877500Y-108185000D03*
D14*
X191687500Y-110725000D03*
D13*
X194227500Y-105645000D03*
D12*
X196767500Y-110725000D03*
%TD*%
%TO.C,SW47*%
X169676946Y-127862607D03*
D13*
X171561072Y-125737856D03*
D14*
X174583849Y-129177408D03*
D13*
X178352101Y-124927905D03*
D12*
X179490752Y-130492209D03*
%TD*%
%TO.C,SW46*%
X151276059Y-122932104D03*
D13*
X153160185Y-120807353D03*
D14*
X156182962Y-124246905D03*
D13*
X159951214Y-119997402D03*
D12*
X161089865Y-125561706D03*
%TD*%
%TO.C,SW45*%
X132875172Y-118001601D03*
D13*
X134759298Y-115876850D03*
D14*
X137782075Y-119316402D03*
D13*
X141550327Y-115066899D03*
D12*
X142688978Y-120631203D03*
%TD*%
%TO.C,SW44*%
X114474285Y-113071099D03*
D13*
X116358411Y-110946348D03*
D14*
X119381188Y-114385900D03*
D13*
X123149440Y-110136397D03*
D12*
X124288091Y-115700701D03*
%TD*%
%TO.C,SW43*%
X91357500Y-110725000D03*
D13*
X92627500Y-108185000D03*
D14*
X96437500Y-110725000D03*
D13*
X98977500Y-105645000D03*
D12*
X101517500Y-110725000D03*
%TD*%
%TO.C,SW42*%
X72307500Y-110725000D03*
D13*
X73577500Y-108185000D03*
D14*
X77387500Y-110725000D03*
D13*
X79927500Y-105645000D03*
D12*
X82467500Y-110725000D03*
%TD*%
%TO.C,SW41*%
X243757500Y-91675000D03*
D13*
X245027500Y-89135000D03*
D14*
X248837500Y-91675000D03*
D13*
X251377500Y-86595000D03*
D12*
X253917500Y-91675000D03*
%TD*%
%TO.C,SW40*%
X224707500Y-91675000D03*
D13*
X225977500Y-89135000D03*
D14*
X229787500Y-91675000D03*
D13*
X232327500Y-86595000D03*
D12*
X234867500Y-91675000D03*
%TD*%
%TO.C,SW39*%
X205657500Y-91675000D03*
D13*
X206927500Y-89135000D03*
D14*
X210737500Y-91675000D03*
D13*
X213277500Y-86595000D03*
D12*
X215817500Y-91675000D03*
%TD*%
%TO.C,SW38*%
X186607500Y-91675000D03*
D13*
X187877500Y-89135000D03*
D14*
X191687500Y-91675000D03*
D13*
X194227500Y-86595000D03*
D12*
X196767500Y-91675000D03*
%TD*%
%TO.C,SW37*%
X158032500Y-91675000D03*
D13*
X159302500Y-89135000D03*
D14*
X163112500Y-91675000D03*
D13*
X165652500Y-86595000D03*
D12*
X168192500Y-91675000D03*
%TD*%
%TO.C,SW36*%
X138982500Y-91675000D03*
D13*
X140252500Y-89135000D03*
D14*
X144062500Y-91675000D03*
D13*
X146602500Y-86595000D03*
D12*
X149142500Y-91675000D03*
%TD*%
%TO.C,SW35*%
X119932500Y-91675000D03*
D13*
X121202500Y-89135000D03*
D14*
X125012500Y-91675000D03*
D13*
X127552500Y-86595000D03*
D12*
X130092500Y-91675000D03*
%TD*%
%TO.C,SW34*%
X100882500Y-91675000D03*
D13*
X102152500Y-89135000D03*
D14*
X105962500Y-91675000D03*
D13*
X108502500Y-86595000D03*
D12*
X111042500Y-91675000D03*
%TD*%
%TO.C,SW33*%
X81832500Y-91675000D03*
D13*
X83102500Y-89135000D03*
D14*
X86912500Y-91675000D03*
D13*
X89452500Y-86595000D03*
D12*
X91992500Y-91675000D03*
%TD*%
%TO.C,SW32*%
X62782500Y-91675000D03*
D13*
X64052500Y-89135000D03*
D14*
X67862500Y-91675000D03*
D13*
X70402500Y-86595000D03*
D12*
X72942500Y-91675000D03*
%TD*%
%TO.C,SW31*%
X34207500Y-91675000D03*
D13*
X35477500Y-89135000D03*
D14*
X39287500Y-91675000D03*
D13*
X41827500Y-86595000D03*
D12*
X44367500Y-91675000D03*
%TD*%
%TO.C,SW30*%
X243757500Y-72625000D03*
D13*
X245027500Y-70085000D03*
D14*
X248837500Y-72625000D03*
D13*
X251377500Y-67545000D03*
D12*
X253917500Y-72625000D03*
%TD*%
%TO.C,SW29*%
X224707500Y-72625000D03*
D13*
X225977500Y-70085000D03*
D14*
X229787500Y-72625000D03*
D13*
X232327500Y-67545000D03*
D12*
X234867500Y-72625000D03*
%TD*%
%TO.C,SW28*%
X205657500Y-72625000D03*
D13*
X206927500Y-70085000D03*
D14*
X210737500Y-72625000D03*
D13*
X213277500Y-67545000D03*
D12*
X215817500Y-72625000D03*
%TD*%
%TO.C,SW27*%
X186607500Y-72625000D03*
D13*
X187877500Y-70085000D03*
D14*
X191687500Y-72625000D03*
D13*
X194227500Y-67545000D03*
D12*
X196767500Y-72625000D03*
%TD*%
%TO.C,SW26*%
X158032500Y-72625000D03*
D13*
X159302500Y-70085000D03*
D14*
X163112500Y-72625000D03*
D13*
X165652500Y-67545000D03*
D12*
X168192500Y-72625000D03*
%TD*%
%TO.C,SW25*%
X138982500Y-72625000D03*
D13*
X140252500Y-70085000D03*
D14*
X144062500Y-72625000D03*
D13*
X146602500Y-67545000D03*
D12*
X149142500Y-72625000D03*
%TD*%
%TO.C,SW24*%
X119932500Y-72625000D03*
D13*
X121202500Y-70085000D03*
D14*
X125012500Y-72625000D03*
D13*
X127552500Y-67545000D03*
D12*
X130092500Y-72625000D03*
%TD*%
%TO.C,SW23*%
X100882500Y-72625000D03*
D13*
X102152500Y-70085000D03*
D14*
X105962500Y-72625000D03*
D13*
X108502500Y-67545000D03*
D12*
X111042500Y-72625000D03*
%TD*%
%TO.C,SW22*%
X81832500Y-72625000D03*
D13*
X83102500Y-70085000D03*
D14*
X86912500Y-72625000D03*
D13*
X89452500Y-67545000D03*
D12*
X91992500Y-72625000D03*
%TD*%
%TO.C,SW21*%
X62782500Y-72625000D03*
D13*
X64052500Y-70085000D03*
D14*
X67862500Y-72625000D03*
D13*
X70402500Y-67545000D03*
D12*
X72942500Y-72625000D03*
%TD*%
%TO.C,SW20*%
X34207500Y-72625000D03*
D13*
X35477500Y-70085000D03*
D14*
X39287500Y-72625000D03*
D13*
X41827500Y-67545000D03*
D12*
X44367500Y-72625000D03*
%TD*%
%TO.C,SW19*%
X243757500Y-53575000D03*
D13*
X245027500Y-51035000D03*
D14*
X248837500Y-53575000D03*
D13*
X251377500Y-48495000D03*
D12*
X253917500Y-53575000D03*
%TD*%
%TO.C,SW18*%
X224707500Y-53575000D03*
D13*
X225977500Y-51035000D03*
D14*
X229787500Y-53575000D03*
D13*
X232327500Y-48495000D03*
D12*
X234867500Y-53575000D03*
%TD*%
%TO.C,SW17*%
X205657500Y-53575000D03*
D13*
X206927500Y-51035000D03*
D14*
X210737500Y-53575000D03*
D13*
X213277500Y-48495000D03*
D12*
X215817500Y-53575000D03*
%TD*%
%TO.C,SW16*%
X186607500Y-53575000D03*
D13*
X187877500Y-51035000D03*
D14*
X191687500Y-53575000D03*
D13*
X194227500Y-48495000D03*
D12*
X196767500Y-53575000D03*
%TD*%
%TO.C,SW15*%
X158032500Y-53575000D03*
D13*
X159302500Y-51035000D03*
D14*
X163112500Y-53575000D03*
D13*
X165652500Y-48495000D03*
D12*
X168192500Y-53575000D03*
%TD*%
%TO.C,SW14*%
X138982500Y-53575000D03*
D13*
X140252500Y-51035000D03*
D14*
X144062500Y-53575000D03*
D13*
X146602500Y-48495000D03*
D12*
X149142500Y-53575000D03*
%TD*%
%TO.C,SW13*%
X119932500Y-53575000D03*
D13*
X121202500Y-51035000D03*
D14*
X125012500Y-53575000D03*
D13*
X127552500Y-48495000D03*
D12*
X130092500Y-53575000D03*
%TD*%
%TO.C,SW12*%
X100882500Y-53575000D03*
D13*
X102152500Y-51035000D03*
D14*
X105962500Y-53575000D03*
D13*
X108502500Y-48495000D03*
D12*
X111042500Y-53575000D03*
%TD*%
%TO.C,SW11*%
X81832500Y-53575000D03*
D13*
X83102500Y-51035000D03*
D14*
X86912500Y-53575000D03*
D13*
X89452500Y-48495000D03*
D12*
X91992500Y-53575000D03*
%TD*%
%TO.C,SW10*%
X62782500Y-53575000D03*
D13*
X64052500Y-51035000D03*
D14*
X67862500Y-53575000D03*
D13*
X70402500Y-48495000D03*
D12*
X72942500Y-53575000D03*
%TD*%
%TO.C,SW9*%
X34207500Y-53575000D03*
D13*
X35477500Y-51035000D03*
D14*
X39287500Y-53575000D03*
D13*
X41827500Y-48495000D03*
D12*
X44367500Y-53575000D03*
%TD*%
%TO.C,SW8*%
X177082500Y-34525000D03*
D13*
X178352500Y-31985000D03*
D14*
X182162500Y-34525000D03*
D13*
X184702500Y-29445000D03*
D12*
X187242500Y-34525000D03*
%TD*%
%TO.C,SW7*%
X158032500Y-34525000D03*
D13*
X159302500Y-31985000D03*
D14*
X163112500Y-34525000D03*
D13*
X165652500Y-29445000D03*
D12*
X168192500Y-34525000D03*
%TD*%
%TO.C,SW6*%
X138982500Y-34525000D03*
D13*
X140252500Y-31985000D03*
D14*
X144062500Y-34525000D03*
D13*
X146602500Y-29445000D03*
D12*
X149142500Y-34525000D03*
%TD*%
%TO.C,SW5*%
X119932500Y-34525000D03*
D13*
X121202500Y-31985000D03*
D14*
X125012500Y-34525000D03*
D13*
X127552500Y-29445000D03*
D12*
X130092500Y-34525000D03*
%TD*%
%TO.C,SW4*%
X100882500Y-34525000D03*
D13*
X102152500Y-31985000D03*
D14*
X105962500Y-34525000D03*
D13*
X108502500Y-29445000D03*
D12*
X111042500Y-34525000D03*
%TD*%
%TO.C,SW3*%
X81832500Y-34525000D03*
D13*
X83102500Y-31985000D03*
D14*
X86912500Y-34525000D03*
D13*
X89452500Y-29445000D03*
D12*
X91992500Y-34525000D03*
%TD*%
%TO.C,SW2*%
X62782500Y-34525000D03*
D13*
X64052500Y-31985000D03*
D14*
X67862500Y-34525000D03*
D13*
X70402500Y-29445000D03*
D12*
X72942500Y-34525000D03*
%TD*%
%TO.C,SW1*%
X34207500Y-34525000D03*
D13*
X35477500Y-31985000D03*
D14*
X39287500Y-34525000D03*
D13*
X41827500Y-29445000D03*
D12*
X44367500Y-34525000D03*
%TD*%
D15*
%TO.C,U1*%
X31330000Y-119900000D03*
X33870000Y-119900000D03*
X36410000Y-119900000D03*
X38950000Y-119900000D03*
X41490000Y-119900000D03*
X44030000Y-119900000D03*
X46570000Y-119900000D03*
X49110000Y-119900000D03*
X51650000Y-119900000D03*
D16*
X52150000Y-116860000D03*
X52150000Y-114320000D03*
X52150000Y-111780000D03*
X52150000Y-109240000D03*
X52150000Y-106700000D03*
D15*
X51650000Y-103660000D03*
X49110000Y-103660000D03*
X46570000Y-103660000D03*
X44030000Y-103660000D03*
X41490000Y-103660000D03*
X38950000Y-103660000D03*
X36410000Y-103660000D03*
X33870000Y-103660000D03*
X31330000Y-103660000D03*
%TD*%
M02*
